<?xml version="1.0" encoding="UTF-8" standalone="no"?>
<!DOCTYPE svg PUBLIC "-//W3C//DTD SVG 1.1//EN" "http://www.w3.org/Graphics/SVG/1.1/DTD/svg11.dtd">
<svg width="100%" height="100%" viewBox="0 0 16 16" version="1.1" xmlns="http://www.w3.org/2000/svg" xmlns:xlink="http://www.w3.org/1999/xlink" xml:space="preserve" xmlns:serif="http://www.serif.com/" style="fill-rule:evenodd;clip-rule:evenodd;stroke-linejoin:round;stroke-miterlimit:2;">
    <g id="actionscript">
        <g id="actionscript_2">
            <path id="Shape" d="M10.175,5.245C9.947,5.245 9.732,5.274 9.528,5.332C9.325,5.388 9.145,5.475 8.989,5.596C8.836,5.716 8.714,5.87 8.624,6.057C8.534,6.243 8.489,6.466 8.489,6.725C8.489,7.057 8.572,7.339 8.735,7.573C8.901,7.807 9.151,8.005 9.486,8.167C9.618,8.229 9.741,8.291 9.854,8.351C9.968,8.412 10.066,8.474 10.147,8.539C10.231,8.604 10.297,8.674 10.345,8.751C10.393,8.827 10.417,8.914 10.417,9.012C10.417,9.083 10.402,9.151 10.372,9.214C10.342,9.274 10.296,9.327 10.234,9.373C10.174,9.417 10.099,9.452 10.007,9.477C9.917,9.503 9.811,9.515 9.689,9.515C9.482,9.515 9.277,9.474 9.073,9.39C8.87,9.305 8.681,9.178 8.508,9.009L8.508,10.12C8.663,10.213 8.847,10.283 9.059,10.329C9.272,10.375 9.496,10.398 9.731,10.398C9.961,10.398 10.178,10.373 10.384,10.322C10.591,10.271 10.773,10.188 10.929,10.072C11.084,9.954 11.207,9.801 11.297,9.613C11.389,9.423 11.435,9.189 11.435,8.911C11.435,8.709 11.408,8.533 11.356,8.383C11.305,8.23 11.23,8.095 11.132,7.976C11.034,7.858 10.917,7.753 10.779,7.66C10.644,7.565 10.49,7.476 10.318,7.392C10.193,7.332 10.08,7.274 9.98,7.219C9.881,7.161 9.795,7.103 9.725,7.045C9.656,6.985 9.602,6.922 9.564,6.857C9.526,6.79 9.507,6.714 9.507,6.631C9.507,6.554 9.524,6.487 9.558,6.427C9.591,6.364 9.64,6.311 9.702,6.267C9.764,6.222 9.84,6.189 9.93,6.166C10.019,6.14 10.119,6.127 10.228,6.127C10.308,6.127 10.392,6.134 10.479,6.148C10.569,6.162 10.659,6.184 10.749,6.214C10.839,6.242 10.926,6.278 11.01,6.322C11.096,6.366 11.174,6.417 11.246,6.475L11.246,5.435C11.1,5.371 10.941,5.323 10.768,5.293C10.596,5.26 10.398,5.245 10.175,5.245L10.175,5.245ZM5.788,5.328L4.227,10.311L5.273,10.311L5.576,9.203L7.102,9.203L7.407,10.311L8.461,10.311L6.935,5.328L5.788,5.328ZM6.348,6.218L6.324,6.218L6.324,6.218C6.314,6.364 6.289,6.509 6.249,6.652L5.782,8.341L6.881,8.341L6.42,6.666C6.386,6.541 6.362,6.391 6.348,6.218Z" style="fill:rgb(121,121,121);"/>
            <path id="Path" d="M4.372,3.016C3.793,3.016 3.375,3.171 3.117,3.48C2.859,3.786 2.731,4.32 2.731,5.079L2.731,6.312C2.731,7.017 2.531,7.368 2.131,7.368L2.131,8.386C2.531,8.386 2.731,8.725 2.731,9.403L2.731,10.73C2.731,11.486 2.861,12.012 3.121,12.307C3.381,12.602 3.799,12.749 4.372,12.749L4.372,11.715C4.148,11.715 3.987,11.639 3.887,11.488C3.789,11.337 3.741,11.081 3.741,10.72L3.741,9.586C3.741,8.683 3.539,8.117 3.134,7.889L3.134,7.866C3.539,7.634 3.741,7.075 3.741,6.19L3.741,5.013C3.741,4.371 3.951,4.05 4.372,4.05L4.372,3.016L4.372,3.016Z" style="fill:rgb(151,151,151);"/>
            <path id="Path_2" d="M11.702,3.016L11.702,4.05C12.123,4.05 12.333,4.371 12.333,5.013L12.333,6.146C12.333,7.068 12.534,7.645 12.936,7.877L12.936,7.899C12.534,8.121 12.333,8.671 12.333,9.553L12.333,10.73C12.333,11.088 12.283,11.341 12.184,11.488C12.084,11.639 11.923,11.715 11.702,11.715L11.702,12.749C12.278,12.749 12.694,12.602 12.949,12.307C13.207,12.012 13.335,11.475 13.335,10.697L13.335,9.42C13.335,8.73 13.537,8.386 13.939,8.386L13.939,7.368C13.537,7.368 13.335,7.02 13.335,6.323L13.335,5.057C13.335,4.312 13.207,3.786 12.949,3.48C12.691,3.171 12.275,3.016 11.702,3.016Z" style="fill:rgb(151,151,151);"/>
        </g>
    </g>
</svg>
