<?xml version="1.0" encoding="UTF-8" standalone="no"?>
<!DOCTYPE svg PUBLIC "-//W3C//DTD SVG 1.1//EN" "http://www.w3.org/Graphics/SVG/1.1/DTD/svg11.dtd">
<svg width="100%" height="100%" viewBox="0 0 16 16" version="1.1" xmlns="http://www.w3.org/2000/svg" xmlns:xlink="http://www.w3.org/1999/xlink" xml:space="preserve" xmlns:serif="http://www.serif.com/" style="fill-rule:evenodd;clip-rule:evenodd;">
    <g id="ai">
        <g id="Group">
            <path id="Shape" d="M8,2.5C11.038,2.5 13.5,4.962 13.5,8C13.5,11.038 11.038,13.5 8,13.5C4.962,13.5 2.5,11.038 2.5,8C2.5,4.962 4.962,2.5 8,2.5Z" style="fill:rgb(36,36,36);fill-rule:nonzero;stroke:rgb(92,92,92);stroke-width:1px;"/>
            <path id="Path" d="M9.585,6.385C9.7,6.385 9.799,6.344 9.88,6.26C9.962,6.176 10.003,6.079 10.003,5.968C10.003,5.85 9.962,5.751 9.88,5.671C9.799,5.592 9.7,5.552 9.585,5.551C9.47,5.551 9.373,5.591 9.295,5.671C9.216,5.752 9.177,5.851 9.177,5.968C9.177,6.085 9.216,6.184 9.295,6.265C9.373,6.345 9.47,6.385 9.585,6.385L9.585,6.385Z" style="fill:rgb(225,225,225);"/>
            <rect id="Path_2" x="9.188" y="6.75" width="0.795" height="3.063" style="fill:white;"/>
            <path id="Combined-Shape" serif:id="Combined Shape" d="M7.73,8.781L6.649,8.781L6.649,8.782L6.353,9.813L5.619,9.813L6.659,6.188L6.659,5.792L7.648,5.792L8.831,9.813L8.015,9.813L7.73,8.781ZM7.577,8.083L7.18,6.5L7.179,6.5L6.782,8.083L7.577,8.083Z" style="fill:white;"/>
        </g>
    </g>
</svg>
