<?xml version="1.0" encoding="UTF-8" standalone="no"?>
<!DOCTYPE svg PUBLIC "-//W3C//DTD SVG 1.1//EN" "http://www.w3.org/Graphics/SVG/1.1/DTD/svg11.dtd">
<svg width="100%" height="100%" viewBox="0 0 16 16" version="1.1" xmlns="http://www.w3.org/2000/svg" xmlns:xlink="http://www.w3.org/1999/xlink" xml:space="preserve" xmlns:serif="http://www.serif.com/" style="fill-rule:evenodd;clip-rule:evenodd;stroke-linejoin:round;stroke-miterlimit:2;">
    <g id="android">
        <g id="android_2">
            <path id="Shape" d="M9.675,3.331L10.297,2.709C10.387,2.619 10.387,2.467 10.297,2.372C10.202,2.282 10.05,2.282 9.96,2.372L9.257,3.074C8.878,2.889 8.451,2.78 8,2.78C7.544,2.78 7.117,2.889 6.737,3.079L6.03,2.372C5.94,2.282 5.788,2.282 5.698,2.372C5.603,2.467 5.603,2.619 5.698,2.709L6.32,3.331C5.613,3.853 5.152,4.679 5.152,5.628L10.847,5.628C10.847,4.679 10.373,3.848 9.675,3.331L9.675,3.331ZM6.576,4.678L7.051,4.678L7.051,4.204L6.576,4.204L6.576,4.678ZM8.949,4.678L9.424,4.678L9.424,4.204L8.949,4.204L8.949,4.678ZM11.322,6.814C11.322,6.421 11.641,6.102 12.034,6.102C12.427,6.102 12.746,6.421 12.746,6.814L12.746,10.136C12.746,10.529 12.427,10.848 12.034,10.848C11.641,10.848 11.322,10.529 11.322,10.136L11.322,6.814ZM3.966,6.102C3.573,6.102 3.254,6.421 3.254,6.814L3.254,10.136C3.254,10.529 3.573,10.848 3.966,10.848C4.359,10.848 4.678,10.529 4.678,10.136L4.678,6.814C4.678,6.421 4.359,6.102 3.966,6.102ZM5.627,11.323C5.365,11.323 5.152,11.11 5.152,10.848L5.152,6.102L10.847,6.102L10.847,10.848C10.847,11.11 10.635,11.323 10.373,11.323L9.898,11.323L9.898,12.984C9.898,13.377 9.579,13.695 9.186,13.695C8.793,13.695 8.474,13.377 8.474,12.984L8.474,11.323L7.525,11.323L7.525,12.984C7.525,13.377 7.206,13.695 6.813,13.695C6.624,13.695 6.443,13.621 6.31,13.487C6.176,13.354 6.101,13.172 6.101,12.984L6.101,11.323L5.627,11.323Z" style="fill:rgb(162,162,162);"/>
        </g>
    </g>
</svg>
