<?xml version="1.0" encoding="UTF-8" standalone="no"?>
<!DOCTYPE svg PUBLIC "-//W3C//DTD SVG 1.1//EN" "http://www.w3.org/Graphics/SVG/1.1/DTD/svg11.dtd">
<svg width="100%" height="100%" viewBox="0 0 16 16" version="1.1" xmlns="http://www.w3.org/2000/svg" xmlns:xlink="http://www.w3.org/1999/xlink" xml:space="preserve" xmlns:serif="http://www.serif.com/" style="fill-rule:evenodd;clip-rule:evenodd;stroke-linejoin:round;stroke-miterlimit:2;">
    <g id="angular-pipe">
        <g>
            <path id="Vector" d="M6.93,7.472L9.307,7.472L8.043,4.802L6.93,7.472ZM2.752,2.885C2.312,3.041 2.039,3.481 2.095,3.945L2.895,10.659C2.933,10.977 3.122,11.258 3.402,11.414L7.566,13.729C7.869,13.897 8.238,13.897 8.54,13.727L12.734,11.376C13.013,11.22 13.2,10.94 13.238,10.622L14.038,3.913C14.094,3.447 13.817,3.005 13.373,2.85L8.379,1.115C8.164,1.041 7.93,1.042 7.716,1.118L2.752,2.885ZM10.611,10.51L9.79,8.594L6.439,8.594L5.689,10.51L4.294,10.51L8.033,2.104L11.902,10.51L10.611,10.51Z" style="fill:rgb(163,163,163);fill-rule:nonzero;"/>
        </g>
    </g>
    <g id="c-carved" serif:id="c carved" transform="matrix(0.368227,0,0,0.368227,6.55242,-0.564992)">
        <g transform="matrix(12,0,0,12,20.2586,13.153)">
        </g>
        <text x="12.255px" y="13.153px" style="font-family:'ArialMT', 'Arial', sans-serif;font-size:12px;fill:rgb(66,66,66);stroke:rgb(65,65,65);stroke-width:1.36px;">P</text>
    </g>
    <g transform="matrix(0.368227,0,0,0.368227,6.55242,-0.564992)">
        <g transform="matrix(12,0,0,12,20.2586,13.153)">
        </g>
        <text x="12.255px" y="13.153px" style="font-family:'ArialMT', 'Arial', sans-serif;font-size:12px;fill:rgb(157,157,157);">P</text>
    </g>
</svg>
