<?xml version="1.0" encoding="UTF-8" standalone="no"?>
<!DOCTYPE svg PUBLIC "-//W3C//DTD SVG 1.1//EN" "http://www.w3.org/Graphics/SVG/1.1/DTD/svg11.dtd">
<svg width="100%" height="100%" viewBox="0 0 16 16" version="1.1" xmlns="http://www.w3.org/2000/svg" xmlns:xlink="http://www.w3.org/1999/xlink" xml:space="preserve" xmlns:serif="http://www.serif.com/" style="fill-rule:evenodd;clip-rule:evenodd;stroke-linejoin:round;stroke-miterlimit:2;">
    <g id="assembly">
        <g id="assembly_2">
            <path id="Shape" d="M2.381,13.701L2.381,2.298L4.227,2.298L4.227,3.438L3.304,3.438L3.304,12.562L4.227,12.562L4.227,13.701L2.381,13.701ZM11.774,3.438L11.774,2.298L13.619,2.299L13.619,13.702L11.774,13.702L11.774,12.562L12.697,12.562L12.697,3.438L11.774,3.438Z" style="fill:rgb(177,177,177);"/>
            <path id="Shape_2" d="M9.023,3.763C9.219,3.682 9.454,3.641 9.726,3.641L9.726,3.64C10.011,3.64 10.249,3.683 10.442,3.768C10.634,3.851 10.792,3.976 10.916,4.142C11.037,4.305 11.125,4.506 11.18,4.746C11.235,4.984 11.263,5.259 11.263,5.572C11.263,5.884 11.234,6.164 11.178,6.412C11.121,6.658 11.033,6.86 10.914,7.018C10.79,7.18 10.633,7.301 10.44,7.384C10.247,7.466 10.009,7.507 9.726,7.507C9.449,7.507 9.211,7.465 9.015,7.381C8.819,7.298 8.661,7.175 8.539,7.012C8.416,6.849 8.327,6.648 8.272,6.407C8.217,6.164 8.19,5.886 8.19,5.574C8.19,5.251 8.218,4.972 8.275,4.734C8.331,4.496 8.421,4.294 8.544,4.129C8.667,3.966 8.827,3.845 9.023,3.763ZM5.935,3.956C5.978,3.889 6.003,3.806 6.009,3.706L6.834,3.706L6.834,6.781L7.6,6.781L7.6,7.429L5.122,7.429L5.122,6.781L5.905,6.781L5.905,4.818L5.122,4.818L5.122,4.212C5.241,4.212 5.356,4.206 5.466,4.192C5.575,4.177 5.667,4.152 5.74,4.117C5.826,4.076 5.891,4.022 5.935,3.956ZM9.726,4.327C9.931,4.327 10.077,4.423 10.165,4.614C10.253,4.804 10.297,5.123 10.297,5.572C10.297,6.016 10.252,6.335 10.162,6.53C10.073,6.724 9.928,6.821 9.726,6.821C9.525,6.821 9.379,6.724 9.289,6.53C9.2,6.335 9.155,6.017 9.155,5.576C9.155,5.124 9.199,4.804 9.287,4.614C9.376,4.423 9.522,4.327 9.726,4.327L9.726,4.327ZM5.57,8.616C5.767,8.534 6.001,8.494 6.274,8.494C6.558,8.494 6.797,8.536 6.99,8.621C7.183,8.704 7.34,8.828 7.463,8.995C7.584,9.158 7.673,9.359 7.728,9.598C7.783,9.836 7.81,10.112 7.81,10.424C7.81,10.737 7.782,11.016 7.725,11.264C7.669,11.51 7.581,11.713 7.461,11.871C7.338,12.032 7.18,12.154 6.987,12.237C6.794,12.318 6.556,12.36 6.274,12.36C5.996,12.36 5.76,12.318 5.563,12.235C5.367,12.152 5.208,12.029 5.087,11.866C4.964,11.703 4.874,11.5 4.819,11.259C4.764,11.016 4.737,10.739 4.737,10.426C4.737,10.104 4.766,9.824 4.822,9.586C4.879,9.348 4.968,9.147 5.092,8.983C5.215,8.82 5.374,8.697 5.57,8.616ZM9.462,8.559L9.462,8.559L9.462,8.559L9.462,8.559ZM9.462,8.559L10.287,8.559L10.287,11.633L11.053,11.633L11.053,12.282L8.574,12.282L8.574,11.633L9.357,11.633L9.357,9.671L8.574,9.671L8.574,9.064C8.694,9.064 8.809,9.058 8.918,9.045C9.028,9.03 9.119,9.005 9.193,8.97C9.279,8.928 9.344,8.875 9.387,8.808C9.43,8.742 9.455,8.658 9.462,8.559ZM6.713,9.467C6.625,9.275 6.478,9.179 6.274,9.179L6.274,9.179C6.069,9.179 5.923,9.275 5.835,9.467C5.747,9.656 5.703,9.977 5.703,10.429C5.703,10.87 5.747,11.187 5.837,11.382C5.927,11.577 6.073,11.673 6.274,11.673C6.475,11.673 6.621,11.577 6.711,11.382C6.8,11.187 6.844,10.868 6.844,10.424C6.844,9.975 6.801,9.656 6.713,9.467Z" style="fill:rgb(201,201,201);"/>
        </g>
    </g>
</svg>
