<?xml version="1.0" encoding="UTF-8" standalone="no"?>
<!DOCTYPE svg PUBLIC "-//W3C//DTD SVG 1.1//EN" "http://www.w3.org/Graphics/SVG/1.1/DTD/svg11.dtd">
<svg width="100%" height="100%" viewBox="0 0 16 16" version="1.1" xmlns="http://www.w3.org/2000/svg" xmlns:xlink="http://www.w3.org/1999/xlink" xml:space="preserve" xmlns:serif="http://www.serif.com/" style="fill-rule:evenodd;clip-rule:evenodd;stroke-linejoin:round;stroke-miterlimit:2;">
    <path d="M6.124,13.849C5.518,13.274 5.341,12.065 5.594,11.189C6.031,11.741 6.637,11.916 7.265,12.015C8.235,12.167 9.187,12.11 10.087,11.65C10.19,11.597 10.285,11.527 10.398,11.456C10.482,11.711 10.504,11.968 10.475,12.23C10.403,12.867 10.098,13.36 9.612,13.733C9.418,13.882 9.213,14.016 9.012,14.156C8.396,14.589 8.229,15.097 8.461,15.835C8.466,15.852 8.471,15.871 8.484,15.914C8.169,15.768 7.939,15.555 7.764,15.275C7.58,14.98 7.492,14.653 7.487,14.299C7.485,14.127 7.485,13.953 7.462,13.783C7.408,13.369 7.221,13.184 6.869,13.173C6.507,13.162 6.222,13.395 6.146,13.76C6.14,13.788 6.132,13.816 6.123,13.849L6.124,13.849Z" style="fill:rgb(165,165,165);fill-rule:nonzero;"/>
    <path d="M3.078,11.457C3.078,11.457 4.734,10.61 6.395,10.61L7.647,6.539C7.693,6.342 7.83,6.208 7.985,6.208C8.139,6.208 8.276,6.342 8.323,6.539L9.575,10.61C11.542,10.61 12.892,11.457 12.892,11.457C12.892,11.457 10.079,3.407 10.073,3.391C9.993,3.153 9.856,3 9.673,3L6.297,3C6.114,3 5.983,3.153 5.897,3.391C5.891,3.407 3.078,11.457 3.078,11.457Z" style="fill:rgb(165,165,165);fill-rule:nonzero;"/>
</svg>
