<?xml version="1.0" encoding="UTF-8" standalone="no"?>
<!DOCTYPE svg PUBLIC "-//W3C//DTD SVG 1.1//EN" "http://www.w3.org/Graphics/SVG/1.1/DTD/svg11.dtd">
<svg width="100%" height="100%" viewBox="0 0 16 16" version="1.1" xmlns="http://www.w3.org/2000/svg" xmlns:xlink="http://www.w3.org/1999/xlink" xml:space="preserve" xmlns:serif="http://www.serif.com/" style="fill-rule:evenodd;clip-rule:evenodd;stroke-linejoin:round;stroke-miterlimit:2;">
    <g id="audio">
        <path id="Subtract" d="M14,8C14,11.314 11.314,14 8,14C4.686,14 2,11.314 2,8C2,4.686 4.686,2 8,2C11.314,2 14,4.686 14,8ZM8.6,5.025C9.287,5.109 10.972,5.499 11.584,7.304C11.625,7.423 11.586,7.554 11.489,7.633C11.434,7.677 11.367,7.7 11.3,7.7C11.247,7.7 11.195,7.686 11.147,7.658C10.379,7.204 9.155,7.117 8.6,7.102L8.6,10.1C8.6,10.927 7.927,11.6 7.1,11.6C6.273,11.6 5.6,10.927 5.6,10.1C5.6,9.273 6.273,8.6 7.1,8.6C7.439,8.6 7.749,8.717 8,8.908L8,4.4L8.6,4.4L8.6,5.025Z" style="fill:rgb(139,139,139);"/>
    </g>
</svg>
