<?xml version="1.0" encoding="UTF-8" standalone="no"?>
<!DOCTYPE svg PUBLIC "-//W3C//DTD SVG 1.1//EN" "http://www.w3.org/Graphics/SVG/1.1/DTD/svg11.dtd">
<svg width="100%" height="100%" viewBox="0 0 16 16" version="1.1" xmlns="http://www.w3.org/2000/svg" xmlns:xlink="http://www.w3.org/1999/xlink" xml:space="preserve" xmlns:serif="http://www.serif.com/" style="fill-rule:evenodd;clip-rule:evenodd;stroke-linejoin:round;stroke-miterlimit:2;">
    <g id="babel">
        <g id="Page-1" serif:id="Page 1">
            <path id="Fill-1" serif:id="Fill 1" d="M11.156,7.015C11.141,6.925 11.495,7.1 10.979,6.534L11.156,7.015ZM11.778,7.519C11.763,7.429 11.495,7.1 10.979,6.534C10.969,6.424 11.153,6.264 11.525,6.058L12.58,5.14C12.815,4.841 12.955,4.36 13,3.699L12.986,3.544C12.946,3.078 12.603,2.701 11.96,2.411C11.58,2.156 10.897,2.02 9.909,2C9.091,2.069 8.022,2.356 6.708,2.859C6.346,3.118 5.935,3.375 5.472,3.63L5.479,3.711C5.511,3.708 5.551,3.692 5.603,3.662C5.656,3.658 5.685,3.682 5.69,3.729L5.772,3.684L5.812,3.682L5.814,3.72C5.816,3.758 5.53,3.979 4.951,4.384L4.995,4.455L4.955,4.458L4.866,4.427C4.869,4.451 4.827,4.467 4.743,4.474L4.748,4.518L4.845,4.622C4.812,4.624 4.77,4.615 4.714,4.596C4.526,4.612 4.343,4.747 4.162,4.998L4.208,5.069C4.365,4.927 4.457,4.856 4.483,4.853L4.492,4.97C4.467,4.971 4.424,4.989 4.37,5.017L4.469,5.165C4.658,4.963 4.869,4.788 5.097,4.643C5.21,4.671 5.27,4.708 5.273,4.747L5.36,4.739C5.981,4.284 6.595,3.957 7.204,3.754L7.211,3.834C7.098,4.001 7.021,4.087 6.98,4.091C6.984,4.149 7.003,4.198 7.04,4.241C7.049,4.344 6.772,5.034 6.212,6.31C4.938,9.275 3.87,11.47 3,12.889C3.003,12.917 3.019,12.955 3.05,13.003C3.265,12.953 3.4,12.901 3.457,12.851L3.503,12.846L3.51,12.926L3.59,12.92L3.671,12.874C3.674,12.898 3.701,12.91 3.756,12.905L3.764,12.985C3.771,13.065 3.724,13.184 3.628,13.348C3.541,13.445 3.449,13.649 3.349,13.962L3.352,14L3.431,13.992C3.777,13.609 4.04,13.234 4.221,12.866C5.232,12.574 6.001,12.287 6.537,12.003C7.074,11.959 7.483,11.816 7.761,11.587L7.757,11.544L7.555,11.603L7.509,11.608L7.505,11.565C7.899,11.506 8.172,11.42 8.323,11.3C9.091,10.716 9.671,10.301 10.064,10.056C10.87,9.47 11.395,8.899 11.634,8.345L11.778,7.519ZM4.651,4.798L4.611,4.802L4.604,4.689L4.77,4.667L4.772,4.725C4.745,4.729 4.705,4.751 4.651,4.798ZM3.84,12.776C3.744,12.734 3.657,12.717 3.583,12.725L3.572,12.608C3.568,12.562 3.595,12.531 3.652,12.521C3.705,12.515 3.737,12.553 3.741,12.629C3.881,12.46 3.958,12.374 3.972,12.371L4.062,12.408C4.033,12.646 3.958,12.766 3.84,12.776ZM12.509,3.81C12.469,3.815 12.387,3.689 12.269,3.439L12.262,3.365C12.339,3.359 12.418,3.482 12.503,3.738L12.509,3.81ZM12.394,2.923L12.361,3.001L11.184,2.516C11.968,2.542 12.373,2.677 12.394,2.923ZM7.423,7.182L7.256,7.203L7.249,7.09L7.416,7.069L7.423,7.182ZM7.287,4.607L7.329,4.606L7.339,4.723C7.301,4.724 7.249,4.782 7.186,4.89L7.18,4.81C7.254,4.723 7.293,4.655 7.287,4.607ZM6.998,5.421L7.034,5.577L6.934,5.579L6.898,5.424L6.998,5.421ZM6.756,5.713L6.836,5.705C6.828,5.834 6.792,5.902 6.727,5.908L6.686,5.91C6.737,5.824 6.761,5.757 6.756,5.713ZM6.618,6.117L6.665,6.112L6.667,6.15L6.593,6.275L6.512,6.281L6.511,6.242C6.59,6.236 6.625,6.195 6.618,6.117ZM6.538,6.482L6.497,6.676L6.429,6.679L6.402,6.486L6.538,6.482ZM5.133,10.278C5.08,10.544 5.023,10.681 4.961,10.684L4.96,10.646C4.945,10.514 5.004,10.392 5.133,10.278ZM4.942,10.807L4.948,10.85C4.956,10.907 4.912,10.94 4.817,10.943L4.813,10.901C4.805,10.852 4.847,10.821 4.942,10.807ZM4.812,11.915L4.938,11.898L4.942,11.958C4.911,11.961 4.87,11.983 4.82,12.023L4.741,12.033C4.736,11.976 4.762,11.935 4.812,11.915ZM8.376,10.822C7.673,11.166 7.259,11.398 7.136,11.521C6.375,11.781 5.997,11.944 6.004,12.009C5.328,12.272 4.883,12.468 4.669,12.588C4.618,12.593 4.545,12.574 4.449,12.531C4.438,12.396 4.501,12.287 4.632,12.198C4.751,12.189 4.864,12.205 4.972,12.25C5.097,12.187 5.316,12.115 5.627,12.038L5.619,11.959L5.369,11.979C5.4,11.936 5.641,11.824 6.094,11.643L6.219,11.632L6.221,11.67C6.007,11.69 5.888,11.751 5.863,11.862C5.867,11.913 5.897,11.933 5.95,11.929C6.111,11.83 6.19,11.769 6.187,11.753C6.493,11.695 7.339,11.257 8.722,10.442L8.729,10.514C8.732,10.552 8.614,10.651 8.376,10.822ZM6.253,11.513C6.455,11.496 6.628,11.415 6.772,11.275C6.83,11.269 6.862,11.292 6.864,11.342C6.765,11.351 6.575,11.432 6.299,11.588L6.257,11.591L6.253,11.513ZM9.679,8.911L8.616,9.744C7.827,10.256 7.404,10.514 7.34,10.517C6.084,11.201 5.301,11.556 4.998,11.581L4.953,11.587C4.991,11.447 5.549,10.315 6.633,8.188C7.109,8.146 7.861,7.929 8.884,7.528L9.134,7.507C9.652,7.462 10.04,7.562 10.295,7.8L10.309,7.954C10.118,8.499 9.908,8.818 9.679,8.911ZM7.604,7.78L7.774,7.743L7.776,7.84L7.605,7.878L7.604,7.78ZM10.003,7.355L10.129,7.343C10.245,7.398 10.305,7.445 10.309,7.488L10.311,7.526C10.201,7.535 10.098,7.479 10.003,7.355ZM10.343,5.444C10.233,5.574 9.929,5.798 9.433,6.112C9.269,6.127 8.66,6.359 7.605,6.817C7.553,6.792 7.498,6.784 7.437,6.788L7.43,6.714C7.418,6.565 7.486,6.377 7.635,6.147C7.717,5.72 7.805,5.475 7.904,5.415L8.782,3.461C8.774,3.34 8.962,3.247 9.346,3.183L9.471,3.17L9.481,3.282C9.859,3.226 10.095,3.192 10.186,3.184C10.885,3.125 11.248,3.266 11.277,3.6L11.357,3.594L11.34,3.396L11.426,3.389C11.631,3.501 11.741,3.637 11.756,3.795C11.766,3.905 11.706,4.041 11.578,4.204C11.525,4.208 11.494,4.17 11.489,4.094L11.403,4.102L11.383,4.34C11.029,4.862 10.771,5.131 10.613,5.146C10.468,5.343 10.379,5.441 10.343,5.444ZM10.882,6.812C10.81,6.764 10.752,6.742 10.708,6.745L10.7,6.628L10.779,6.621L10.954,6.723C10.961,6.779 10.938,6.807 10.882,6.812ZM11.441,7.467C11.52,7.497 11.567,7.531 11.577,7.562L11.537,7.571L11.54,7.574C11.532,7.574 11.523,7.575 11.516,7.578L11.456,7.624L11.441,7.467ZM11.495,7.875L11.487,7.798L11.614,7.741L11.623,7.816L11.495,7.875Z" style="fill:rgb(183,183,183);"/>
        </g>
    </g>
</svg>
