<?xml version="1.0" encoding="UTF-8" standalone="no"?>
<!DOCTYPE svg PUBLIC "-//W3C//DTD SVG 1.1//EN" "http://www.w3.org/Graphics/SVG/1.1/DTD/svg11.dtd">
<svg width="100%" height="100%" viewBox="0 0 16 16" version="1.1" xmlns="http://www.w3.org/2000/svg" xmlns:xlink="http://www.w3.org/1999/xlink" xml:space="preserve" xmlns:serif="http://www.serif.com/" style="fill-rule:evenodd;clip-rule:evenodd;stroke-linejoin:round;stroke-miterlimit:2;">
    <g id="blade">
        <g id="Shape">
            <path d="M10.007,5.77C10.14,5.746 11.285,5.535 11.383,5.52C11.392,5.518 11.401,5.517 11.409,5.515C11.496,5.499 11.573,5.485 11.718,5.676C11.793,5.775 12.032,6.1 12.272,6.426C12.542,6.794 12.813,7.162 12.848,7.205C12.913,7.285 12.897,7.35 12.776,7.386C12.696,7.41 12.095,7.585 11.701,7.7C11.587,7.733 11.49,7.761 11.429,7.779C11.827,8.362 12.589,9.477 12.653,9.582C12.741,9.724 12.661,9.766 12.531,9.824C12.401,9.883 9.515,11.017 9.318,11.083L9.309,11.086C9.063,11.167 8.95,11.204 8.788,10.957C8.665,10.769 7.999,9.458 7.673,8.812C7.055,8.988 5.924,9.311 5.598,9.397C5.28,9.48 5.144,9.272 5.092,9.143C5.076,9.103 4.885,8.654 4.626,8.042C4.048,6.676 3.128,4.502 3.046,4.293C2.929,3.989 3.058,3.932 3.176,3.921C3.293,3.91 4.945,3.76 5.16,3.75C5.364,3.74 5.393,3.787 5.475,3.922C5.48,3.929 5.485,3.938 5.49,3.946L7.871,8.297L10.863,7.513C10.698,7.256 9.945,6.089 9.872,5.978C9.79,5.853 9.874,5.795 10.007,5.77ZM5.606,8.891C5.52,8.912 5.517,8.903 5.508,8.872L5.507,8.868C5.496,8.835 3.514,4.365 3.486,4.309C3.459,4.254 3.46,4.209 3.486,4.209C3.5,4.209 3.934,4.168 4.352,4.127L4.352,4.127C4.731,4.091 5.098,4.056 5.124,4.054C5.17,4.051 5.174,4.06 5.185,4.084C5.188,4.089 5.19,4.095 5.194,4.101L7.428,8.318C7.433,8.327 7.437,8.335 7.441,8.342C7.47,8.393 7.475,8.404 7.408,8.421C7.372,8.431 5.696,8.868 5.606,8.891ZM10.307,6.116L11.184,7.431C11.184,7.431 12.255,7.14 12.321,7.124C12.386,7.109 12.435,7.084 12.406,7.044C12.399,7.034 12.344,6.958 12.266,6.849L12.265,6.848L12.265,6.848C12.036,6.53 11.606,5.934 11.565,5.873C11.512,5.793 11.474,5.803 11.431,5.813L11.426,5.815C11.381,5.826 10.385,6.023 10.324,6.032C10.262,6.04 10.283,6.078 10.307,6.116ZM12.14,9.401L12.134,9.39L11.665,8.694C11.65,8.668 11.499,8.439 11.362,8.233L11.361,8.232C11.259,8.077 11.165,7.935 11.144,7.902C11.108,7.846 11.088,7.835 11.002,7.864L8.084,8.694C8.084,8.694 8.98,10.389 9.049,10.497C9.118,10.606 9.159,10.598 9.213,10.573C9.245,10.558 10.223,10.195 11.034,9.895L11.034,9.895C11.591,9.689 12.069,9.512 12.103,9.498C12.18,9.468 12.164,9.441 12.14,9.401Z" style="fill:rgb(139,139,139);"/>
            <path d="M11.383,5.52L11.422,5.767L11.422,5.767L11.383,5.52ZM10.007,5.77L9.962,5.524L9.961,5.524L10.007,5.77ZM11.409,5.515L11.364,5.269L11.409,5.515ZM11.718,5.676L11.917,5.525L11.917,5.525L11.718,5.676ZM12.272,6.426L12.473,6.278L12.272,6.426ZM12.848,7.205L12.654,7.363L12.654,7.363L12.848,7.205ZM12.776,7.386L12.705,7.146L12.705,7.146L12.776,7.386ZM11.701,7.7L11.631,7.46L11.701,7.7ZM11.429,7.779L11.359,7.539L11.028,7.635L11.222,7.92L11.429,7.779ZM12.653,9.582L12.441,9.713L12.441,9.713L12.653,9.582ZM12.531,9.824L12.429,9.596L12.429,9.596L12.531,9.824ZM9.318,11.083L9.239,10.845L9.239,10.845L9.318,11.083ZM9.309,11.086L9.23,10.848L9.23,10.848L9.309,11.086ZM8.788,10.957L8.997,10.82L8.997,10.82L8.788,10.957ZM7.673,8.812L7.896,8.699L7.803,8.515L7.604,8.571L7.673,8.812ZM5.598,9.397L5.662,9.639L5.662,9.639L5.598,9.397ZM5.092,9.143L5.323,9.049L5.323,9.049L5.092,9.143ZM4.626,8.042L4.857,7.944L4.626,8.042ZM3.046,4.293L2.813,4.383L2.813,4.383L3.046,4.293ZM3.176,3.921L3.198,4.17L3.199,4.17L3.176,3.921ZM5.16,3.75L5.173,3.999L5.173,3.999L5.16,3.75ZM5.475,3.922L5.262,4.052L5.475,3.922ZM5.49,3.946L5.71,3.826L5.703,3.815L5.49,3.946ZM7.871,8.297L7.651,8.417L7.745,8.588L7.934,8.539L7.871,8.297ZM10.863,7.513L10.927,7.755L11.261,7.667L11.073,7.377L10.863,7.513ZM9.872,5.978L9.663,6.115L9.663,6.115L9.872,5.978ZM5.508,8.872L5.747,8.8L5.747,8.8L5.508,8.872ZM5.606,8.891L5.667,9.133L5.667,9.133L5.606,8.891ZM5.507,8.868L5.746,8.797L5.746,8.794L5.507,8.868ZM3.486,4.309L3.711,4.199L3.71,4.199L3.486,4.309ZM4.352,4.127L4.328,3.878L4.328,3.879L4.352,4.127ZM4.352,4.127L4.375,4.376L4.376,4.376L4.352,4.127ZM5.124,4.054L5.139,4.304L5.139,4.304L5.124,4.054ZM5.185,4.084L5.412,3.978L5.412,3.978L5.185,4.084ZM5.194,4.101L5.415,3.984L5.414,3.983L5.194,4.101ZM7.428,8.318L7.649,8.201L7.649,8.201L7.428,8.318ZM7.441,8.342L7.222,8.463L7.222,8.463L7.441,8.342ZM7.408,8.421L7.344,8.179L7.344,8.18L7.408,8.421ZM11.184,7.431L10.976,7.57L11.075,7.719L11.249,7.672L11.184,7.431ZM10.307,6.116L10.097,6.252L10.099,6.255L10.307,6.116ZM12.321,7.124L12.263,6.881L12.262,6.881L12.321,7.124ZM12.406,7.044L12.202,7.189L12.203,7.189L12.406,7.044ZM12.266,6.849L12.469,6.703L12.469,6.703L12.266,6.849ZM12.266,6.849L12.468,6.702L12.468,6.702L12.266,6.849ZM12.265,6.848L12.063,6.995L12.063,6.995L12.265,6.848ZM12.265,6.848L12.062,6.994L12.062,6.994L12.265,6.848ZM11.565,5.873L11.773,5.734L11.773,5.734L11.565,5.873ZM11.431,5.813L11.492,6.056L11.492,6.056L11.431,5.813ZM11.426,5.815L11.487,6.057L11.487,6.057L11.426,5.815ZM10.324,6.032L10.359,6.279L10.36,6.279L10.324,6.032ZM12.134,9.39L12.349,9.262L12.345,9.256L12.341,9.25L12.134,9.39ZM12.14,9.401L11.925,9.528L11.926,9.529L12.14,9.401ZM11.665,8.694L11.449,8.82L11.453,8.827L11.458,8.834L11.665,8.694ZM11.362,8.233L11.571,8.095L11.57,8.095L11.362,8.233ZM11.362,8.233L11.153,8.371L11.154,8.371L11.362,8.233ZM11.361,8.232L11.153,8.37L11.153,8.37L11.361,8.232ZM11.144,7.902L11.355,7.768L11.355,7.768L11.144,7.902ZM11.002,7.864L11.071,8.105L11.084,8.1L11.002,7.864ZM8.084,8.694L8.016,8.454L7.719,8.538L7.863,8.811L8.084,8.694ZM9.049,10.497L8.837,10.631L8.837,10.631L9.049,10.497ZM9.213,10.573L9.107,10.346L9.107,10.346L9.213,10.573ZM11.034,9.895L11.12,10.13L11.121,10.13L11.034,9.895ZM11.034,9.895L10.947,9.661L10.947,9.661L11.034,9.895ZM12.103,9.498L12.011,9.266L12.011,9.266L12.103,9.498ZM11.344,5.273C11.242,5.289 10.092,5.5 9.962,5.524L10.052,6.016C10.189,5.991 11.328,5.782 11.422,5.767L11.344,5.273ZM11.364,5.269C11.355,5.271 11.349,5.272 11.344,5.273L11.422,5.767C11.435,5.765 11.446,5.763 11.455,5.761L11.364,5.269ZM11.917,5.525C11.834,5.415 11.744,5.327 11.631,5.284C11.51,5.238 11.404,5.262 11.364,5.269L11.455,5.761C11.479,5.757 11.481,5.757 11.481,5.757C11.475,5.757 11.464,5.756 11.453,5.752C11.444,5.748 11.445,5.746 11.457,5.757C11.469,5.767 11.49,5.788 11.519,5.827L11.917,5.525ZM12.473,6.278C12.235,5.953 11.994,5.625 11.917,5.525L11.519,5.827C11.592,5.924 11.83,6.247 12.07,6.574L12.473,6.278ZM13.042,7.047C13.042,7.048 13.042,7.047 13.041,7.046C13.04,7.045 13.029,7.031 13.024,7.024C13.013,7.009 12.999,6.991 12.982,6.968C12.948,6.922 12.902,6.861 12.85,6.789C12.744,6.646 12.609,6.462 12.473,6.278L12.07,6.574C12.337,6.936 12.614,7.314 12.654,7.363L13.042,7.047ZM12.847,7.626C12.926,7.602 13.064,7.545 13.117,7.397C13.174,7.239 13.091,7.108 13.042,7.047L12.654,7.363C12.658,7.368 12.65,7.36 12.643,7.339C12.636,7.315 12.63,7.274 12.647,7.228C12.663,7.183 12.69,7.159 12.703,7.15C12.715,7.141 12.719,7.142 12.705,7.146L12.847,7.626ZM11.771,7.94C12.164,7.825 12.767,7.65 12.848,7.626L12.705,7.146C12.626,7.17 12.025,7.345 11.631,7.46L11.771,7.94ZM11.498,8.019C11.56,8.001 11.657,7.973 11.771,7.94L11.631,7.46C11.517,7.493 11.42,7.521 11.359,7.539L11.498,8.019ZM12.866,9.45C12.797,9.339 12.03,8.216 11.635,7.638L11.222,7.92C11.625,8.509 12.38,9.615 12.441,9.713L12.866,9.45ZM12.633,10.052C12.665,10.038 12.706,10.019 12.744,9.997C12.781,9.975 12.835,9.939 12.877,9.879C12.926,9.811 12.948,9.729 12.938,9.643C12.929,9.567 12.898,9.502 12.866,9.45L12.441,9.713C12.453,9.733 12.444,9.726 12.441,9.7C12.44,9.684 12.44,9.665 12.445,9.643C12.451,9.621 12.461,9.603 12.47,9.589C12.487,9.565 12.503,9.559 12.491,9.566C12.48,9.573 12.462,9.581 12.429,9.596L12.633,10.052ZM9.396,11.32C9.503,11.284 10.285,10.98 11.041,10.684C11.798,10.387 12.561,10.085 12.633,10.052L12.429,9.596C12.429,9.596 12.428,9.597 12.425,9.598C12.422,9.599 12.419,9.6 12.415,9.602C12.406,9.605 12.395,9.61 12.381,9.616C12.354,9.627 12.316,9.642 12.271,9.66C12.179,9.697 12.056,9.746 11.91,9.804C11.618,9.919 11.239,10.069 10.858,10.218C10.09,10.52 9.329,10.815 9.239,10.845L9.396,11.32ZM9.387,11.323L9.397,11.32L9.239,10.845L9.23,10.848L9.387,11.323ZM8.579,11.094C8.674,11.239 8.796,11.365 8.981,11.392C9.064,11.404 9.14,11.393 9.203,11.378C9.264,11.364 9.329,11.342 9.387,11.323L9.23,10.848C9.165,10.87 9.124,10.883 9.09,10.891C9.057,10.899 9.049,10.897 9.053,10.897C9.08,10.901 9.064,10.922 8.997,10.82L8.579,11.094ZM7.45,8.924C7.613,9.248 7.861,9.738 8.084,10.171C8.303,10.595 8.508,10.986 8.579,11.094L8.997,10.82C8.945,10.74 8.756,10.382 8.529,9.942C8.307,9.511 8.059,9.022 7.896,8.699L7.45,8.924ZM5.662,9.639C5.991,9.552 7.126,9.228 7.741,9.052L7.604,8.571C6.985,8.749 5.857,9.07 5.534,9.155L5.662,9.639ZM4.86,9.237C4.895,9.323 4.965,9.456 5.099,9.552C5.245,9.657 5.436,9.698 5.662,9.639L5.535,9.155C5.484,9.168 5.452,9.167 5.434,9.164C5.416,9.161 5.403,9.155 5.391,9.147C5.365,9.128 5.341,9.092 5.323,9.049L4.86,9.237ZM4.396,8.139C4.656,8.753 4.845,9.2 4.86,9.237L5.323,9.049C5.306,9.007 5.115,8.554 4.857,7.944L4.396,8.139ZM2.813,4.383C2.897,4.598 3.819,6.777 4.396,8.139L4.857,7.944C4.276,6.574 3.359,4.407 3.28,4.202L2.813,4.383ZM3.153,3.672C3.079,3.679 2.907,3.705 2.809,3.868C2.714,4.026 2.748,4.214 2.813,4.383L3.28,4.202C3.256,4.141 3.251,4.108 3.25,4.095C3.249,4.083 3.253,4.1 3.237,4.126C3.221,4.153 3.199,4.166 3.189,4.17C3.182,4.173 3.182,4.172 3.198,4.17L3.153,3.672ZM5.148,3.5C4.925,3.511 3.266,3.662 3.153,3.672L3.199,4.17C3.321,4.159 4.964,4.01 5.173,3.999L5.148,3.5ZM5.688,3.791C5.657,3.74 5.6,3.636 5.498,3.571C5.385,3.499 5.26,3.494 5.148,3.5L5.173,3.999C5.216,3.997 5.236,3.999 5.245,4C5.251,4.001 5.242,4.001 5.229,3.992C5.217,3.984 5.213,3.978 5.22,3.987C5.229,3.998 5.239,4.015 5.262,4.052L5.688,3.791ZM5.703,3.815C5.698,3.807 5.693,3.799 5.688,3.791L5.262,4.052C5.266,4.06 5.272,4.068 5.277,4.077L5.703,3.815ZM8.09,8.177L5.709,3.826L5.271,4.066L7.651,8.417L8.09,8.177ZM10.8,7.271L7.807,8.055L7.934,8.539L10.927,7.755L10.8,7.271ZM9.663,6.115C9.735,6.225 10.487,7.391 10.653,7.648L11.073,7.377C10.908,7.121 10.155,5.953 10.081,5.841L9.663,6.115ZM9.961,5.524C9.889,5.538 9.754,5.57 9.666,5.678C9.613,5.742 9.585,5.824 9.591,5.913C9.596,5.994 9.628,6.062 9.663,6.115L10.081,5.841C10.075,5.831 10.087,5.846 10.089,5.88C10.092,5.922 10.078,5.964 10.052,5.995C10.032,6.02 10.013,6.027 10.017,6.025C10.02,6.024 10.031,6.02 10.053,6.016L9.961,5.524ZM5.268,8.943C5.269,8.945 5.272,8.955 5.275,8.966C5.279,8.977 5.287,8.996 5.3,9.018C5.332,9.073 5.386,9.121 5.46,9.141C5.516,9.157 5.565,9.152 5.588,9.149C5.615,9.146 5.643,9.139 5.667,9.133L5.546,8.648C5.527,8.653 5.522,8.654 5.523,8.653C5.525,8.653 5.532,8.652 5.543,8.652C5.554,8.653 5.573,8.654 5.596,8.66C5.622,8.668 5.649,8.68 5.676,8.701C5.702,8.722 5.719,8.745 5.73,8.763C5.74,8.78 5.745,8.794 5.747,8.799C5.748,8.803 5.749,8.806 5.747,8.8L5.268,8.943ZM5.267,8.94L5.268,8.943L5.747,8.8L5.746,8.797L5.267,8.94ZM3.262,4.42C3.261,4.418 3.268,4.432 3.285,4.472C3.301,4.507 3.324,4.558 3.352,4.622C3.409,4.749 3.489,4.928 3.584,5.142C3.774,5.569 4.024,6.134 4.274,6.699C4.525,7.263 4.774,7.826 4.962,8.251C5.056,8.463 5.134,8.64 5.189,8.766C5.217,8.828 5.239,8.878 5.254,8.912C5.261,8.929 5.267,8.942 5.27,8.951C5.272,8.956 5.274,8.958 5.274,8.96C5.278,8.969 5.272,8.956 5.268,8.942L5.746,8.794C5.743,8.787 5.741,8.78 5.74,8.779C5.74,8.777 5.736,8.769 5.736,8.767C5.734,8.763 5.732,8.759 5.73,8.754C5.725,8.744 5.719,8.73 5.712,8.712C5.697,8.677 5.675,8.627 5.647,8.564C5.592,8.439 5.513,8.261 5.419,8.049C5.231,7.624 4.982,7.06 4.732,6.496C4.234,5.373 3.727,4.233 3.711,4.199L3.262,4.42ZM3.486,3.959C3.397,3.959 3.314,4.003 3.264,4.077C3.223,4.139 3.217,4.201 3.216,4.236C3.215,4.308 3.239,4.373 3.262,4.42L3.71,4.199C3.706,4.19 3.716,4.205 3.716,4.241C3.716,4.257 3.713,4.305 3.679,4.357C3.635,4.421 3.562,4.459 3.486,4.459L3.486,3.959ZM4.328,3.879C4.119,3.899 3.906,3.919 3.744,3.935C3.662,3.942 3.594,3.949 3.545,3.953C3.521,3.956 3.502,3.957 3.489,3.958C3.466,3.96 3.474,3.959 3.486,3.959L3.486,4.459C3.502,4.459 3.527,4.457 3.532,4.457C3.547,4.455 3.567,4.453 3.592,4.451C3.641,4.447 3.71,4.44 3.791,4.432C3.954,4.417 4.167,4.396 4.375,4.376L4.328,3.879ZM4.328,3.878L4.328,3.878L4.375,4.376L4.375,4.376L4.328,3.878ZM5.11,3.804C5.077,3.806 4.702,3.843 4.328,3.879L4.376,4.376C4.565,4.358 4.752,4.34 4.894,4.326C4.965,4.32 5.025,4.314 5.069,4.31C5.091,4.308 5.109,4.306 5.121,4.305C5.136,4.304 5.14,4.303 5.139,4.304L5.11,3.804ZM5.412,3.978C5.411,3.976 5.401,3.954 5.387,3.933C5.37,3.906 5.341,3.871 5.295,3.844C5.214,3.796 5.129,3.803 5.11,3.804L5.139,4.304C5.145,4.303 5.137,4.304 5.124,4.303C5.109,4.301 5.077,4.295 5.041,4.274C5.002,4.251 4.979,4.223 4.967,4.204C4.959,4.191 4.954,4.18 4.959,4.191L5.412,3.978ZM5.414,3.983C5.414,3.983 5.414,3.983 5.412,3.978L4.959,4.191C4.962,4.195 4.967,4.207 4.974,4.219L5.414,3.983ZM7.649,8.201L5.415,3.984L4.973,4.219L7.207,8.435L7.649,8.201ZM7.66,8.221C7.656,8.214 7.653,8.208 7.649,8.201L7.207,8.435C7.213,8.446 7.219,8.456 7.222,8.463L7.66,8.221ZM7.471,8.663C7.489,8.658 7.523,8.649 7.557,8.632C7.59,8.616 7.667,8.57 7.699,8.469C7.728,8.376 7.697,8.3 7.689,8.279C7.679,8.254 7.664,8.229 7.66,8.221L7.222,8.463C7.232,8.481 7.229,8.476 7.226,8.468C7.224,8.464 7.196,8.401 7.222,8.32C7.25,8.23 7.318,8.193 7.334,8.185C7.35,8.177 7.36,8.175 7.344,8.179L7.471,8.663ZM5.667,9.133C5.758,9.11 7.436,8.672 7.471,8.663L7.344,8.18C7.308,8.189 5.633,8.626 5.546,8.648L5.667,9.133ZM11.392,7.292L10.515,5.978L10.099,6.255L10.976,7.57L11.392,7.292ZM12.262,6.881C12.225,6.89 11.935,6.969 11.662,7.042C11.524,7.08 11.388,7.116 11.287,7.144C11.236,7.158 11.138,7.184 11.13,7.186C11.126,7.187 11.119,7.189 11.119,7.189C11.119,7.189 11.118,7.19 11.118,7.19C11.118,7.19 11.118,7.19 11.118,7.19L11.118,7.19C11.118,7.19 11.118,7.19 11.184,7.431C11.249,7.672 11.249,7.672 11.249,7.672L11.249,7.672C11.249,7.672 11.249,7.672 11.249,7.672C11.249,7.672 11.25,7.672 11.25,7.672C11.25,7.672 11.367,7.64 11.417,7.627C11.519,7.599 11.655,7.562 11.793,7.525C11.931,7.488 12.071,7.45 12.18,7.42C12.235,7.406 12.282,7.393 12.317,7.384C12.335,7.379 12.37,7.37 12.374,7.369C12.375,7.368 12.377,7.368 12.378,7.368C12.379,7.368 12.379,7.367 12.379,7.367L12.262,6.881ZM12.203,7.189C12.183,7.162 12.154,7.102 12.169,7.024C12.183,6.951 12.227,6.91 12.245,6.896C12.256,6.888 12.264,6.884 12.268,6.881C12.273,6.879 12.276,6.878 12.276,6.878C12.277,6.877 12.273,6.879 12.263,6.881L12.378,7.368C12.414,7.359 12.489,7.34 12.552,7.291C12.587,7.264 12.642,7.209 12.66,7.119C12.678,7.024 12.644,6.947 12.61,6.899L12.203,7.189ZM12.063,6.996C12.142,7.105 12.196,7.18 12.202,7.189L12.61,6.9C12.602,6.888 12.546,6.811 12.469,6.703L12.063,6.996ZM12.063,6.995L12.063,6.996L12.469,6.703L12.468,6.702L12.063,6.995ZM12.063,6.995L12.063,6.995L12.468,6.702L12.468,6.702L12.063,6.995ZM12.062,6.994L12.063,6.995L12.468,6.702L12.468,6.702L12.062,6.994ZM11.357,6.012C11.401,6.078 11.836,6.681 12.062,6.994L12.468,6.702C12.236,6.38 11.81,5.791 11.773,5.734L11.357,6.012ZM11.492,6.056C11.506,6.052 11.5,6.054 11.49,6.055C11.477,6.057 11.453,6.058 11.424,6.049C11.365,6.032 11.345,5.994 11.357,6.012L11.773,5.734C11.731,5.672 11.666,5.599 11.563,5.569C11.467,5.541 11.38,5.568 11.369,5.571L11.492,6.056ZM11.487,6.057L11.492,6.056L11.37,5.571L11.365,5.572L11.487,6.057ZM10.36,6.279C10.429,6.269 11.433,6.071 11.487,6.057L11.365,5.572C11.366,5.572 11.353,5.575 11.318,5.582C11.287,5.588 11.244,5.597 11.194,5.607C11.094,5.627 10.964,5.653 10.833,5.679C10.702,5.704 10.57,5.73 10.468,5.75C10.417,5.76 10.373,5.768 10.341,5.774C10.324,5.778 10.311,5.78 10.301,5.782C10.29,5.784 10.286,5.784 10.287,5.784L10.36,6.279ZM10.518,5.981C10.512,5.972 10.513,5.974 10.516,5.979C10.517,5.981 10.532,6.01 10.533,6.054C10.535,6.113 10.513,6.183 10.454,6.233C10.409,6.272 10.365,6.278 10.359,6.279L10.288,5.784C10.252,5.789 10.188,5.803 10.129,5.853C10.058,5.914 10.031,5.998 10.033,6.072C10.036,6.132 10.056,6.178 10.066,6.198C10.078,6.221 10.091,6.242 10.097,6.252L10.518,5.981ZM11.919,9.517L11.925,9.528L12.355,9.273L12.349,9.262L11.919,9.517ZM11.458,8.834L11.926,9.529L12.341,9.25L11.872,8.554L11.458,8.834ZM11.154,8.371C11.222,8.474 11.294,8.583 11.35,8.669C11.379,8.712 11.403,8.749 11.421,8.777C11.441,8.808 11.449,8.82 11.449,8.82L11.881,8.569C11.861,8.534 11.702,8.294 11.571,8.095L11.154,8.371ZM11.154,8.371L11.154,8.372L11.57,8.095L11.57,8.094L11.154,8.371ZM11.153,8.37L11.153,8.371L11.57,8.095L11.57,8.094L11.153,8.37ZM10.933,8.036C10.955,8.072 11.052,8.217 11.153,8.37L11.57,8.094C11.466,7.937 11.374,7.798 11.355,7.768L10.933,8.036ZM11.084,8.1C11.1,8.095 11.101,8.096 11.094,8.097C11.085,8.098 11.057,8.101 11.019,8.09C10.98,8.078 10.953,8.057 10.939,8.042C10.929,8.032 10.926,8.025 10.933,8.036L11.355,7.768C11.339,7.743 11.282,7.647 11.164,7.611C11.058,7.579 10.96,7.614 10.921,7.628L11.084,8.1ZM8.153,8.935L11.071,8.105L10.934,7.624L8.016,8.454L8.153,8.935ZM9.26,10.363C9.26,10.364 9.259,10.363 9.256,10.357C9.253,10.352 9.249,10.345 9.244,10.337C9.235,10.319 9.222,10.297 9.207,10.269C9.176,10.213 9.136,10.138 9.089,10.052C8.996,9.878 8.877,9.656 8.761,9.438C8.645,9.219 8.531,9.004 8.446,8.844C8.404,8.763 8.368,8.697 8.344,8.65C8.331,8.627 8.305,8.578 8.305,8.577C8.305,8.577 8.305,8.577 8.305,8.577C8.305,8.577 8.305,8.577 8.084,8.694C7.863,8.811 7.863,8.811 7.863,8.811C7.863,8.811 7.863,8.811 7.863,8.811C7.863,8.811 7.889,8.861 7.902,8.884C7.926,8.931 7.962,8.997 8.004,9.078C8.089,9.238 8.203,9.454 8.32,9.672C8.548,10.101 8.796,10.566 8.837,10.631L9.26,10.363ZM9.107,10.346C9.097,10.351 9.106,10.346 9.123,10.342C9.145,10.337 9.178,10.336 9.214,10.347C9.247,10.358 9.265,10.375 9.27,10.38C9.275,10.384 9.271,10.381 9.26,10.363L8.837,10.631C8.878,10.696 8.946,10.786 9.06,10.823C9.186,10.864 9.29,10.813 9.319,10.799L9.107,10.346ZM10.947,9.661C10.542,9.811 10.094,9.977 9.744,10.107C9.569,10.172 9.418,10.228 9.309,10.269C9.21,10.306 9.127,10.337 9.107,10.346L9.318,10.799C9.315,10.801 9.366,10.781 9.484,10.737C9.593,10.696 9.743,10.64 9.918,10.575C10.268,10.445 10.715,10.28 11.12,10.13L10.947,9.661ZM10.947,9.661L10.947,9.661L11.121,10.13L11.121,10.13L10.947,9.661ZM12.011,9.266C12.011,9.266 12.008,9.267 12.003,9.269C11.998,9.271 11.991,9.274 11.982,9.277C11.965,9.283 11.942,9.292 11.913,9.303C11.855,9.325 11.775,9.354 11.678,9.39C11.485,9.462 11.226,9.558 10.947,9.661L11.121,10.13C11.675,9.925 12.158,9.746 12.196,9.731L12.011,9.266ZM11.926,9.529C11.934,9.543 11.93,9.537 11.925,9.527C11.92,9.515 11.903,9.471 11.913,9.412C11.924,9.346 11.96,9.304 11.985,9.284C12.005,9.267 12.019,9.263 12.011,9.266L12.195,9.731C12.234,9.715 12.379,9.657 12.406,9.494C12.419,9.419 12.398,9.359 12.385,9.33C12.374,9.303 12.358,9.278 12.355,9.272L11.926,9.529Z" style="fill:rgb(139,139,139);fill-rule:nonzero;"/>
        </g>
    </g>
</svg>
