<?xml version="1.0" encoding="UTF-8" standalone="no"?>
<!DOCTYPE svg PUBLIC "-//W3C//DTD SVG 1.1//EN" "http://www.w3.org/Graphics/SVG/1.1/DTD/svg11.dtd">
<svg width="100%" height="100%" viewBox="0 0 16 16" version="1.1" xmlns="http://www.w3.org/2000/svg" xmlns:xlink="http://www.w3.org/1999/xlink" xml:space="preserve" xmlns:serif="http://www.serif.com/" style="fill-rule:evenodd;clip-rule:evenodd;stroke-linejoin:round;stroke-miterlimit:2;">
    <g id="bower">
        <g id="Group">
            <g id="bower_2">
                <path id="outline" d="M13.236,6.884C12.646,6.322 9.7,5.971 8.771,5.869C8.816,5.763 8.854,5.654 8.886,5.542C9.013,5.487 9.149,5.435 9.291,5.393C9.308,5.443 9.389,5.637 9.435,5.728C11.305,5.78 11.4,4.349 11.477,3.957C11.551,3.574 11.547,3.203 12.188,2.526C11.233,2.25 9.859,2.955 9.399,4.004C9.226,3.94 9.053,3.892 8.882,3.863C8.759,3.371 8.119,2 6.441,2C4.316,2 2,3.741 2,6.688C2,9.165 3.703,11.336 4.665,11.336C5.085,11.336 5.447,11.024 5.532,10.744C5.603,10.936 5.821,11.533 5.893,11.685C5.999,11.91 6.489,12.104 6.703,11.871C6.979,12.023 7.485,12.115 7.761,11.709C8.292,11.82 8.761,11.506 8.772,11.131C9.032,11.117 9.16,10.754 9.103,10.464C9.061,10.251 8.613,9.487 8.438,9.223C8.784,9.502 9.661,9.581 9.767,9.223C10.325,9.658 11.195,9.43 11.263,9.076C11.941,9.251 12.719,8.867 12.591,8.401C13.68,8.327 13.541,7.176 13.235,6.884L13.236,6.884Z" style="fill:rgb(78,78,78);fill-rule:nonzero;"/>
                <g id="leaf">
                    <path id="Shape" d="M11.105,3.151C10.733,3.464 10.438,3.968 10.203,4.43C10.361,4.54 10.67,4.799 10.805,4.934C11.024,4.669 11.097,4.295 11.17,3.919C11.254,3.489 11.339,3.055 11.644,2.78C10.79,2.826 10.015,3.417 9.681,4.124C9.806,4.184 9.929,4.253 10.051,4.33C10.291,3.806 10.695,3.315 11.105,3.151ZM9.853,4.966C9.84,5.029 9.834,5.165 9.833,5.183C9.849,5.156 9.885,5.08 9.912,5.025C9.92,5.008 9.927,4.993 9.932,4.982C10.137,5.021 10.405,5.086 10.563,5.159C10.378,5.277 10.064,5.407 9.629,5.416C9.566,5.28 9.502,5.054 9.51,4.922C9.616,4.919 9.82,4.959 9.853,4.966Z" style="fill:rgb(192,192,192);"/>
                </g>
                <g id="Group_2">
                    <path id="wingtip" d="M9.632,7.064C9.632,7.064 9.632,7.064 9.632,7.064L9.632,7.064L9.632,7.064ZM9.632,7.064C10.46,7.127 11.828,7.25 12.675,7.368C12.621,7.094 12.475,7.016 12.015,6.893C11.521,6.945 10.266,7.068 9.632,7.064ZM8.218,8.841L8.218,8.839L8.218,8.839C8.576,9.227 9.483,9.187 9.474,8.835C10.197,9.201 10.833,8.885 10.676,8.534C11.391,8.771 11.904,8.342 11.639,7.984C12.129,8.097 12.453,7.934 12.595,7.704C12.381,7.649 11.698,7.513 10.985,7.377C11.092,7.546 10.615,7.936 10.197,7.742C10.392,8.179 9.533,8.543 9.115,8.231C9.16,8.584 8.307,8.787 8.035,8.393C8.105,8.58 8.163,8.723 8.218,8.841Z" style="fill:rgb(179,179,179);"/>
                    <path id="body" d="M9.115,8.232C9.533,8.543 10.392,8.18 10.197,7.742C10.615,7.936 11.092,7.546 10.985,7.377C10.142,7.215 9.258,7.053 9.057,7.025C9.179,7.031 9.38,7.045 9.632,7.064C10.266,7.068 11.521,6.945 12.015,6.893C11.215,6.691 9.58,6.397 8.451,6.325C8.398,6.401 8.302,6.529 8.135,6.666C7.641,7.704 6.746,8.394 5.755,8.394C5.467,8.394 5.144,8.346 4.782,8.231C4.556,8.471 3.594,8.653 2.813,8.272C3.432,9.713 4.869,10.674 6.459,10.674C7.798,10.674 8.391,9.316 8.262,8.957C8.23,8.87 8.105,8.58 8.035,8.394C8.307,8.787 9.16,8.584 9.115,8.232L9.115,8.232Z" style="fill:rgb(201,201,201);fill-rule:nonzero;"/>
                    <path id="beak" d="M8.304,5.499C8.422,5.435 8.831,5.189 9.22,5.096C9.214,5.053 9.209,5.01 9.206,4.967C8.951,5.028 8.469,5.233 8.193,4.95C8.776,5.125 9.066,4.795 9.494,4.795C9.749,4.795 10.113,4.865 10.4,4.977C10.169,4.766 9.413,4.127 8.476,4.125C8.267,4.376 8.041,4.922 8.304,5.498L8.304,5.499Z" style="fill:rgb(209,209,209);fill-rule:nonzero;"/>
                    <path id="head" d="M4.782,8.231C5.144,8.346 5.467,8.394 5.755,8.394C6.746,8.394 7.641,7.704 8.135,6.666C7.769,6.969 7.134,7.228 6.143,7.228C7.026,7.029 7.786,6.592 8.173,5.953C7.901,5.523 7.606,4.572 8.353,3.821C8.238,3.454 7.679,2.487 6.441,2.487C4.281,2.487 2.491,4.282 2.491,6.688C2.491,7.257 2.606,7.791 2.813,8.272C3.594,8.653 4.556,8.471 4.782,8.231L4.782,8.231Z" style="fill:rgb(121,121,121);fill-rule:nonzero;"/>
                    <path id="eye_rim" d="M5.43,4.568C5.43,5.115 5.877,5.558 6.428,5.558C6.979,5.558 7.426,5.115 7.426,4.568C7.426,4.02 6.979,3.577 6.428,3.577C5.877,3.577 5.43,4.02 5.43,4.568Z" style="fill:rgb(201,201,201);fill-rule:nonzero;"/>
                    <path id="eye" d="M5.83,4.568C5.83,4.895 6.098,5.161 6.428,5.161C6.758,5.161 7.025,4.895 7.025,4.568C7.025,4.24 6.758,3.974 6.428,3.974C6.098,3.974 5.83,4.24 5.83,4.568Z" style="fill:rgb(57,57,57);fill-rule:nonzero;"/>
                    <path id="pupil_highlight" d="M6.428,4.519C6.62,4.519 6.776,4.423 6.776,4.304C6.776,4.186 6.62,4.089 6.428,4.089C6.235,4.089 6.08,4.186 6.08,4.304C6.08,4.423 6.235,4.519 6.428,4.519Z" style="fill:white;fill-rule:nonzero;"/>
                </g>
            </g>
        </g>
    </g>
</svg>
