<?xml version="1.0" encoding="UTF-8" standalone="no"?>
<!DOCTYPE svg PUBLIC "-//W3C//DTD SVG 1.1//EN" "http://www.w3.org/Graphics/SVG/1.1/DTD/svg11.dtd">
<svg width="100%" height="100%" viewBox="0 0 16 16" version="1.1" xmlns="http://www.w3.org/2000/svg" xmlns:xlink="http://www.w3.org/1999/xlink" xml:space="preserve" xmlns:serif="http://www.serif.com/" style="fill-rule:evenodd;clip-rule:evenodd;stroke-linejoin:round;stroke-miterlimit:2;">
    <g id="browserlist">
        <g id="_68747470733a2f2f62726f77736572736c6973742e6769746875622e696f2f62726f77736572736c6973742f6c6f676f2e737667" serif:id="68747470733a2f2f62726f77736572736c6973742e6769746875622e696f2f62726f77736572736c6973742f6c6f676f2e737667">
            <path id="Oval" d="M8,13.916C11.267,13.916 13.916,11.267 13.916,8C13.916,4.733 11.267,2.084 8,2.084C4.733,2.084 2.084,4.733 2.084,8C2.084,11.267 4.733,13.916 8,13.916Z" style="fill:rgb(183,183,183);"/>
            <path id="Combined-Shape" serif:id="Combined Shape" d="M7.775,3.963C7.654,3.676 7.571,3.352 7.522,2.953C7.038,3.296 6.644,3.793 6.354,4.363C6.138,4.137 5.942,3.863 5.752,3.506C5.424,3.998 5.234,4.602 5.167,5.236C4.89,5.104 4.615,4.921 4.316,4.661C4.186,5.237 4.226,5.869 4.39,6.484C4.078,6.462 3.748,6.389 3.367,6.251C3.453,6.836 3.717,7.412 4.091,7.928C3.797,8.015 3.47,8.063 3.074,8.07L3.074,8.07L3.074,8.07L3.074,8.07C3.364,8.588 3.819,9.032 4.356,9.38C4.108,9.573 3.814,9.74 3.437,9.892L3.437,9.892C3.892,10.27 4.473,10.521 5.095,10.654C4.935,10.915 4.724,11.17 4.435,11.44L4.435,11.44L4.435,11.44L4.435,11.44C4.994,11.629 5.625,11.655 6.252,11.557C6.197,11.863 6.091,12.18 5.915,12.541L5.915,12.541C6.506,12.518 7.106,12.315 7.658,11.997C7.717,12.304 7.732,12.64 7.697,13.043C8.889,12.53 9.815,11.199 10.141,9.882C10.229,9.644 10.276,9.3 10.276,8.826C10.276,8.699 10.273,8.576 10.269,8.456C11.232,8.293 11.933,7.961 12.336,7.725C12.483,7.638 12.633,7.511 12.681,7.407C12.757,7.319 12.802,7.204 12.802,7.079C12.802,6.799 12.575,6.572 12.295,6.572C12.057,6.572 11.857,6.736 11.803,6.957C11.019,6.549 10.122,5.722 10.341,4.527C10.504,4.301 10.733,4.074 11.047,3.836L11.047,3.836L11.047,3.835L11.047,3.836C10.458,3.766 9.832,3.873 9.236,4.102C9.227,3.792 9.265,3.46 9.362,3.072C8.791,3.218 8.247,3.539 7.775,3.963ZM10.261,8.286C10.369,8.267 10.477,8.246 10.582,8.222C11.236,8.075 11.794,7.846 12.251,7.579C12.296,7.552 12.339,7.523 12.378,7.492C12.413,7.44 12.411,7.401 12.385,7.369C11.907,7.247 11.304,6.919 10.871,6.496C10.398,6.034 10.134,5.487 10.138,4.879C9.897,5.425 9.972,5.997 10.083,6.739C10.181,6.726 10.257,6.647 10.266,6.548C10.275,6.446 10.21,6.353 10.111,6.326C10.258,6.294 10.407,6.363 10.479,6.495C10.551,6.626 10.527,6.789 10.421,6.895C10.341,6.975 10.228,7.008 10.121,6.989C10.177,7.371 10.235,7.798 10.261,8.286Z" style="fill:rgb(36,36,36);"/>
            <path id="Path" d="M10.267,8.21C10.261,8.173 10.251,8.061 10.244,7.96C10.233,7.796 10.172,7.263 10.142,7.077L10.131,7.003L10.225,6.993C10.48,6.964 10.614,6.66 10.463,6.452C10.413,6.384 10.264,6.309 10.178,6.309L10.11,6.309L10.182,6.377C10.236,6.428 10.255,6.462 10.255,6.51C10.255,6.596 10.208,6.681 10.146,6.709C10.097,6.732 10.094,6.729 10.083,6.668C9.997,6.181 9.97,5.605 10.019,5.326C10.036,5.226 10.069,5.094 10.09,5.033L10.13,4.921L10.132,5.012C10.133,5.062 10.151,5.185 10.172,5.286C10.31,5.951 10.762,6.533 11.491,6.983C11.684,7.102 12.025,7.265 12.217,7.329C12.299,7.356 12.374,7.387 12.385,7.398C12.419,7.432 12.38,7.482 12.253,7.562C11.865,7.807 11.241,8.054 10.66,8.191C10.247,8.289 10.279,8.288 10.267,8.21Z" style="fill:white;"/>
        </g>
    </g>
</svg>
