<?xml version="1.0" encoding="UTF-8" standalone="no"?>
<!DOCTYPE svg PUBLIC "-//W3C//DTD SVG 1.1//EN" "http://www.w3.org/Graphics/SVG/1.1/DTD/svg11.dtd">
<svg width="100%" height="100%" viewBox="0 0 16 16" version="1.1" xmlns="http://www.w3.org/2000/svg" xmlns:xlink="http://www.w3.org/1999/xlink" xml:space="preserve" xmlns:serif="http://www.serif.com/" style="fill-rule:evenodd;clip-rule:evenodd;stroke-linejoin:round;stroke-miterlimit:2;">
    <g id="c">
        <path id="path4-path" d="M11.511,11.403L11.857,13.494C11.637,13.614 11.283,13.726 10.811,13.829C10.33,13.94 9.765,14 9.116,14C7.252,13.966 5.853,13.4 4.917,12.32C3.972,11.231 3.5,9.851 3.5,8.18C3.542,6.2 4.107,4.683 5.187,3.62C6.3,2.549 7.683,2 9.352,2C9.985,2 10.533,2.06 10.988,2.163C11.444,2.266 11.781,2.377 12,2.506L11.511,4.64L10.617,4.349C10.28,4.263 9.892,4.22 9.445,4.22C8.467,4.211 7.657,4.529 7.025,5.163C6.384,5.789 6.055,6.749 6.03,8.026C6.03,9.191 6.342,10.1 6.94,10.769C7.539,11.429 8.382,11.771 9.462,11.78L10.583,11.677C10.946,11.609 11.25,11.514 11.511,11.403Z" style="fill:rgb(102,102,102);"/>
    </g>
</svg>
