<?xml version="1.0" encoding="UTF-8" standalone="no"?>
<!DOCTYPE svg PUBLIC "-//W3C//DTD SVG 1.1//EN" "http://www.w3.org/Graphics/SVG/1.1/DTD/svg11.dtd">
<svg width="100%" height="100%" viewBox="0 0 16 16" version="1.1" xmlns="http://www.w3.org/2000/svg" xmlns:xlink="http://www.w3.org/1999/xlink" xml:space="preserve" xmlns:serif="http://www.serif.com/" style="fill-rule:evenodd;clip-rule:evenodd;stroke-linejoin:round;stroke-miterlimit:2;">
    <g id="cabal">
        <g id="Group">
            <g id="rect2039" transform="matrix(-0.852914,0.522052,0.522052,0.852914,9.8051,1.20972)">
                <path d="M5,1.13L5,5.87C5,6.494 4.494,7 3.87,7L1.13,7C0.506,7 0,6.494 0,5.87L0,1.13C0,0.506 0.506,0 1.13,0L3.87,0C4.494,0 5,0.506 5,1.13Z" style="fill:rgb(192,192,192);"/>
            </g>
            <path id="rect2041" d="M13.054,11.021C13.333,10.557 13.182,9.953 12.717,9.674L10.114,8.111C9.65,7.832 9.046,7.982 8.767,8.447L6.946,11.479C6.667,11.944 6.818,12.547 7.283,12.826L9.886,14.389C10.35,14.668 10.954,14.518 11.233,14.053L13.054,11.021Z" style="fill:rgb(117,117,117);"/>
            <path id="path2061" d="M3.384,7.766C3.315,7.91 1.986,8.664 2.019,8.835C2.052,9.006 3.643,9.598 3.766,9.731C3.889,9.864 4.373,11.514 4.538,11.558C4.704,11.602 5.527,10.3 5.672,10.239C5.818,10.178 7.446,10.443 7.515,10.3C7.585,10.156 6.502,8.759 6.469,8.588C6.436,8.417 6.959,6.932 6.836,6.799C6.713,6.666 5.221,7.104 5.055,7.06C4.889,7.016 3.584,5.832 3.439,5.894C3.293,5.955 3.454,7.623 3.384,7.766Z" style="fill:rgb(102,102,102);"/>
        </g>
    </g>
</svg>
