<?xml version="1.0" encoding="UTF-8" standalone="no"?>
<!DOCTYPE svg PUBLIC "-//W3C//DTD SVG 1.1//EN" "http://www.w3.org/Graphics/SVG/1.1/DTD/svg11.dtd">
<svg width="100%" height="100%" viewBox="0 0 16 16" version="1.1" xmlns="http://www.w3.org/2000/svg" xmlns:xlink="http://www.w3.org/1999/xlink" xml:space="preserve" xmlns:serif="http://www.serif.com/" style="fill-rule:evenodd;clip-rule:evenodd;stroke-linejoin:round;stroke-miterlimit:2;">
    <g id="changelog">
        <g id="time">
            <path id="Shape" d="M8,9L5,9L5,8L7.5,8L7.5,5.5L8.5,5.5L8.5,8.5C8.5,8.777 8.276,9 8,9Z" style="fill:rgb(162,162,162);fill-rule:nonzero;"/>
            <path id="Shape_2" d="M12.5,8.5C12.5,10.982 10.482,13 8,13C5.519,13 3.5,10.982 3.5,8.5C3.5,6.019 5.519,4 8,4C8.995,4 9.937,4.325 10.715,4.917L8.913,6.613L13.496,7.105L13.281,2.5L11.454,4.221C10.479,3.431 9.273,3 8,3C4.968,3 2.5,5.468 2.5,8.5C2.5,11.533 4.968,14 8,14C11.033,14 13.5,11.533 13.5,8.5L12.5,8.5Z" style="fill:rgb(116,116,116);fill-rule:nonzero;"/>
        </g>
    </g>
</svg>
