<?xml version="1.0" encoding="UTF-8" standalone="no"?>
<!DOCTYPE svg PUBLIC "-//W3C//DTD SVG 1.1//EN" "http://www.w3.org/Graphics/SVG/1.1/DTD/svg11.dtd">
<svg width="100%" height="100%" viewBox="0 0 16 16" version="1.1" xmlns="http://www.w3.org/2000/svg" xmlns:xlink="http://www.w3.org/1999/xlink" xml:space="preserve" xmlns:serif="http://www.serif.com/" style="fill-rule:evenodd;clip-rule:evenodd;stroke-linejoin:round;stroke-miterlimit:2;">
    <g id="cmd">
        <g id="window-code">
            <path id="Shape" d="M4,4L4,2.5L2.5,2.5C2.224,2.5 2,2.724 2,3L2,4L4,4Z" style="fill:rgb(192,192,192);fill-rule:nonzero;"/>
            <path id="Shape_2" d="M14,4L14,3C14,2.724 13.776,2.5 13.5,2.5L5,2.5L5,4L14,4Z" style="fill:rgb(192,192,192);fill-rule:nonzero;"/>
            <path id="Shape_3" d="M2,5L2,13C2,13.276 2.224,13.5 2.5,13.5L13.5,13.5C13.776,13.5 14,13.276 14,13L14,5L2,5ZM6.354,9.354L4.5,11.207L3.793,10.5L5.293,9L3.793,7.5L4.5,6.793L6.354,8.647C6.549,8.842 6.549,9.158 6.354,9.354ZM7.5,11L10.5,11L10.5,10L7.5,10L7.5,11Z" style="fill:rgb(102,102,102);"/>
        </g>
    </g>
</svg>
