<?xml version="1.0" encoding="UTF-8" standalone="no"?>
<!DOCTYPE svg PUBLIC "-//W3C//DTD SVG 1.1//EN" "http://www.w3.org/Graphics/SVG/1.1/DTD/svg11.dtd">
<svg width="100%" height="100%" viewBox="0 0 16 16" version="1.1" xmlns="http://www.w3.org/2000/svg" xmlns:xlink="http://www.w3.org/1999/xlink" xml:space="preserve" xmlns:serif="http://www.serif.com/" style="fill-rule:evenodd;clip-rule:evenodd;stroke-linejoin:round;stroke-miterlimit:2;">
    <g id="coffee">
        <g id="Group-3" serif:id="Group 3">
            <g id="Vector">
                <path d="M8.337,6.051C4.426,6.067 0.558,4.956 3.384,3.881C2.206,4.855 5.259,5.506 8.319,5.523C11.372,5.539 14.432,4.923 13.518,3.983C15.858,5.013 12.052,6.036 8.337,6.051Z" style="fill:rgb(165,165,165);fill-rule:nonzero;"/>
                <path d="M2.96,7.543C2.752,6.953 2.592,6.335 2.498,5.699C3.583,7.29 13.169,7.333 14.245,5.699C14.029,6.937 13.643,8.096 13.086,9.107C12.666,9.743 12.246,10.3 11.825,10.902C11.655,11.254 11.524,11.606 11.456,11.959C10.59,13.293 6.315,13.482 5.304,11.959C5.224,11.606 5.099,11.254 4.918,10.902C4.203,9.974 3.473,8.9 3.135,8.002C2.684,8.436 2.587,8.965 2.668,9.55C2.741,10.072 3.02,10.504 3.441,10.811C3.827,11.118 4.213,11.266 4.668,11.266C4.452,11.334 4.213,11.447 3.997,11.482C3.441,11.584 2.952,11.482 2.498,11.129C2.066,10.777 1.793,10.323 1.759,9.766C1.725,9.209 1.895,8.641 2.282,8.153C2.487,7.893 2.713,7.692 2.96,7.543Z" style="fill:rgb(165,165,165);fill-rule:nonzero;"/>
            </g>
            <path id="Vector_2" d="M5.849,3.215C6.712,3.142 6.873,3.499 6.576,3.624C5.198,3.168 4.857,4.2 6.167,4.09C7.36,3.988 7.349,3.181 9.098,3.022C10.462,2.897 11.223,3.318 11.325,3.829C11.405,4.227 11.074,4.593 10.087,4.692C8.797,4.822 8.126,4.095 9.121,3.942C9.167,4.136 9.405,4.34 9.973,4.283C10.382,4.249 10.723,4.102 10.678,3.874C10.632,3.636 10.201,3.499 9.519,3.556C8.133,3.681 7.792,4.442 6.61,4.545C5.074,4.723 4.237,3.381 5.849,3.215Z" style="fill:rgb(183,183,183);fill-rule:nonzero;"/>
        </g>
    </g>
</svg>
