<?xml version="1.0" encoding="UTF-8" standalone="no"?>
<!DOCTYPE svg PUBLIC "-//W3C//DTD SVG 1.1//EN" "http://www.w3.org/Graphics/SVG/1.1/DTD/svg11.dtd">
<svg width="100%" height="100%" viewBox="0 0 16 16" version="1.1" xmlns="http://www.w3.org/2000/svg" xmlns:xlink="http://www.w3.org/1999/xlink" xml:space="preserve" xmlns:serif="http://www.serif.com/" style="fill-rule:evenodd;clip-rule:evenodd;stroke-linejoin:round;stroke-miterlimit:2;">
    <g id="conduct">
        <g id="todo">
            <path id="Shape" d="M2.5,2L12.5,2C12.777,2 13,2.224 13,2.5L13,13.5C13,13.776 12.777,14 12.5,14L2.5,14C2.224,14 2,13.776 2,13.5L2,2.5C2,2.224 2.224,2 2.5,2ZM3.5,3.5L3.5,12.5L11.5,12.5L11.5,3.5L10,3.5L10,5L8.5,5C8.5,4.448 8.053,4 7.5,4C6.948,4 6.5,4.448 6.5,5L5,5L5,3.5L3.5,3.5Z" style="fill:rgb(183,183,183);"/>
            <path id="Shape_2" d="M7,10.5C6.872,10.5 6.744,10.451 6.646,10.354L5.293,9L6,8.293L7,9.293L9,7.293L9.707,8L7.354,10.354C7.256,10.451 7.128,10.5 7,10.5Z" style="fill:rgb(162,162,162);fill-rule:nonzero;"/>
        </g>
    </g>
</svg>
