<?xml version="1.0" encoding="UTF-8" standalone="no"?>
<!DOCTYPE svg PUBLIC "-//W3C//DTD SVG 1.1//EN" "http://www.w3.org/Graphics/SVG/1.1/DTD/svg11.dtd">
<svg width="100%" height="100%" viewBox="0 0 16 16" version="1.1" xmlns="http://www.w3.org/2000/svg" xmlns:xlink="http://www.w3.org/1999/xlink" xml:space="preserve" xmlns:serif="http://www.serif.com/" style="fill-rule:evenodd;clip-rule:evenodd;stroke-linejoin:round;stroke-miterlimit:2;">
    <g id="contributing">
        <g id="notes">
            <path id="Shape" d="M12.5,3L11.5,3L11.5,5.5L4.5,5.5L4.5,3L3.5,3C3.224,3 3,3.224 3,3.5L3,13C3,13.277 3.224,13.5 3.5,13.5L12.5,13.5C12.777,13.5 13,13.277 13,13L13,3.5C13,3.224 12.777,3 12.5,3ZM11,11L5,11L5,10L11,10L11,11ZM5,8.5L11,8.5L11,7.5L5,7.5L5,8.5Z" style="fill:rgb(152,152,152);"/>
            <path id="Shape_2" d="M9,2.5C9,1.948 8.553,1.5 8,1.5C7.448,1.5 7,1.948 7,2.5L5.5,2.5L5.5,4.5L10.5,4.5L10.5,2.5L9,2.5Z" style="fill:rgb(162,162,162);fill-rule:nonzero;"/>
        </g>
    </g>
</svg>
