<?xml version="1.0" encoding="UTF-8" standalone="no"?>
<!DOCTYPE svg PUBLIC "-//W3C//DTD SVG 1.1//EN" "http://www.w3.org/Graphics/SVG/1.1/DTD/svg11.dtd">
<svg width="100%" height="100%" viewBox="0 0 16 16" version="1.1" xmlns="http://www.w3.org/2000/svg" xmlns:xlink="http://www.w3.org/1999/xlink" xml:space="preserve" xmlns:serif="http://www.serif.com/" style="fill-rule:evenodd;clip-rule:evenodd;stroke-linejoin:round;stroke-miterlimit:2;">
    <g id="cpp">
        <path id="path4" d="M7.87,10.269L8.101,11.663C7.954,11.743 7.717,11.817 7.4,11.886C7.078,11.96 6.7,12 6.264,12C5.015,11.977 4.077,11.6 3.45,10.88C2.817,10.154 2.5,9.234 2.5,8.12C2.528,6.8 2.907,5.789 3.63,5.08C4.377,4.366 5.303,4 6.423,4C6.847,4 7.214,4.04 7.519,4.109C7.824,4.177 8.05,4.251 8.197,4.337L7.87,5.76L7.27,5.566C7.044,5.509 6.784,5.48 6.485,5.48C5.829,5.474 5.287,5.686 4.863,6.109C4.433,6.526 4.213,7.166 4.196,8.017C4.196,8.794 4.405,9.4 4.806,9.846C5.207,10.286 5.773,10.514 6.496,10.52L7.248,10.451C7.491,10.406 7.694,10.343 7.87,10.269ZM7.152,7.429L8.283,7.429L8.283,6.286L9.413,6.286L9.413,7.429L10.544,7.429L10.544,8.571L9.413,8.571L9.413,9.714L8.283,9.714L8.283,8.571L7.152,8.571L7.152,7.429ZM12.239,7.429L11.109,7.429L11.109,8.571L12.239,8.571L12.239,9.714L13.37,9.714L13.37,8.571L14.5,8.571L14.5,7.429L13.37,7.429L13.37,6.286L12.239,6.286L12.239,7.429Z" style="fill:rgb(121,121,121);"/>
    </g>
</svg>
