<?xml version="1.0" encoding="UTF-8" standalone="no"?>
<!DOCTYPE svg PUBLIC "-//W3C//DTD SVG 1.1//EN" "http://www.w3.org/Graphics/SVG/1.1/DTD/svg11.dtd">
<svg width="100%" height="100%" viewBox="0 0 16 16" version="1.1" xmlns="http://www.w3.org/2000/svg" xmlns:xlink="http://www.w3.org/1999/xlink" xml:space="preserve" xmlns:serif="http://www.serif.com/" style="fill-rule:evenodd;clip-rule:evenodd;stroke-linejoin:round;stroke-miterlimit:2;">
    <g id="css">
        <path id="Vector" d="M3.801,2C3.376,2 3,2.358 3,2.776L3.887,10.604C3.927,10.917 4.078,11.093 4.352,11.25L7.711,12.925C7.922,13.017 8.144,13.033 8.387,12.925L11.738,11.25C12.013,11.11 12.177,10.821 12.164,10.517L13,2.754C13,2.362 12.652,2 12.227,2L3.801,2ZM6.281,7.912C6.28,8.537 6.274,8.718 6.41,8.858C6.55,8.964 6.799,8.981 7.199,8.977L7.199,9.579L6.524,9.579C5.91,9.565 5.218,9.479 5.219,8.589C5.219,8.049 5.255,7.713 5.051,7.516C4.89,7.365 4.541,7.34 4.25,7.357L4.25,6.759C4.65,6.772 4.924,6.723 5.051,6.605C5.456,6.23 4.913,5.221 5.531,4.748C5.856,4.485 6.437,4.503 7.199,4.51L7.199,5.112C6.796,5.102 6.499,5.136 6.41,5.231C6.123,5.516 6.446,6.32 6.141,6.783C6.047,6.91 5.885,6.996 5.656,7.041C6.153,7.135 6.285,7.427 6.281,7.912ZM10.344,7.041C10.115,6.996 9.953,6.91 9.859,6.783C9.554,6.32 9.877,5.516 9.59,5.231C9.501,5.136 9.204,5.102 8.801,5.112L8.801,4.51C9.563,4.503 10.144,4.485 10.469,4.748C11.087,5.221 10.544,6.23 10.949,6.605C11.076,6.723 11.35,6.772 11.75,6.759L11.75,7.357C11.459,7.34 11.11,7.365 10.949,7.516C10.746,7.713 10.781,8.049 10.781,8.589C10.783,9.479 10.09,9.565 9.477,9.579L8.801,9.579L8.801,8.977C9.201,8.981 9.45,8.964 9.59,8.858C9.726,8.718 9.72,8.537 9.719,7.912C9.715,7.427 9.847,7.135 10.344,7.041Z" style="fill:rgb(163,163,163);fill-rule:nonzero;"/>
    </g>
</svg>
