<?xml version="1.0" encoding="UTF-8" standalone="no"?>
<!DOCTYPE svg PUBLIC "-//W3C//DTD SVG 1.1//EN" "http://www.w3.org/Graphics/SVG/1.1/DTD/svg11.dtd">
<svg width="100%" height="100%" viewBox="0 0 16 16" version="1.1" xmlns="http://www.w3.org/2000/svg" xmlns:xlink="http://www.w3.org/1999/xlink" xml:space="preserve" xmlns:serif="http://www.serif.com/" style="fill-rule:evenodd;clip-rule:evenodd;stroke-linejoin:round;stroke-miterlimit:2;">
    <path d="M8,2C11.312,2 14,4.689 14,8C14,11.312 11.312,14 8,14C4.689,14 2,11.312 2,8C2,4.689 4.689,2 8,2ZM6.848,10.72C7.191,10.628 7.544,10.832 7.636,11.174C7.728,11.517 7.524,11.87 7.181,11.962C6.838,12.054 6.485,11.85 6.394,11.507C6.302,11.164 6.505,10.812 6.848,10.72ZM10.31,3.97C10.434,4.003 10.507,4.13 10.474,4.253C10.441,4.376 10.314,4.449 10.191,4.416L9.976,4.358C9.936,4.675 9.731,6.414 9.816,7.403C8.903,8.192 7.325,10.564 7.325,10.564L8.154,7.469C8.316,7.458 8.494,7.355 8.538,7.19C8.594,6.983 8.471,6.769 8.263,6.714C8.056,6.658 7.843,6.782 7.787,6.989C7.743,7.154 7.846,7.332 7.981,7.422L7.151,10.517C7.151,10.517 6.932,7.799 6.574,6.534C7.155,5.781 7.839,4.118 7.959,3.818L7.743,3.76C7.62,3.727 7.547,3.6 7.58,3.477C7.613,3.354 7.74,3.281 7.863,3.314L10.31,3.97Z" style="fill:rgb(166,166,166);"/>
</svg>
