<?xml version="1.0" encoding="UTF-8" standalone="no"?>
<!DOCTYPE svg PUBLIC "-//W3C//DTD SVG 1.1//EN" "http://www.w3.org/Graphics/SVG/1.1/DTD/svg11.dtd">
<svg width="100%" height="100%" viewBox="0 0 16 16" version="1.1" xmlns="http://www.w3.org/2000/svg" xmlns:xlink="http://www.w3.org/1999/xlink" xml:space="preserve" xmlns:serif="http://www.serif.com/" style="fill-rule:evenodd;clip-rule:evenodd;stroke-linejoin:round;stroke-miterlimit:2;">
    <path d="M8.256,7.945C8.283,6.997 7.535,5.637 4.722,5.764L3.484,5.766L3.484,10.231L4.764,10.229C6.259,10.223 8.155,9.927 8.256,7.945ZM13.663,3L2.337,3C1.598,3 1,3.635 1,4.42L1,11.58C1,12.364 1.598,13 2.337,13L13.663,13C14.402,13 15,12.364 15,11.58L15,4.42C15,3.635 14.402,3 13.663,3ZM9.412,5.434C10.766,4.41 12.151,5.089 12.653,6.027C13.153,6.961 12.553,8.535 10.682,8.493C10.434,9.805 9.103,11.758 5.313,11.605L2.624,11.605C2.441,11.585 2.317,11.507 2.327,11.297L2.319,4.653C2.319,4.524 2.429,4.416 2.57,4.399L5.479,4.395C7.324,4.402 8.403,4.668 9.412,5.434ZM12.782,5.268C12.35,5.049 12.35,4.499 12.782,4.281C13.214,4.062 13.758,4.337 13.758,4.774C13.758,5.211 13.214,5.486 12.782,5.268Z" style="fill:rgb(139,139,139);fill-rule:nonzero;"/>
</svg>
