<?xml version="1.0" encoding="UTF-8" standalone="no"?>
<!DOCTYPE svg PUBLIC "-//W3C//DTD SVG 1.1//EN" "http://www.w3.org/Graphics/SVG/1.1/DTD/svg11.dtd">
<svg width="100%" height="100%" viewBox="0 0 16 16" version="1.1" xmlns="http://www.w3.org/2000/svg" xmlns:xlink="http://www.w3.org/1999/xlink" xml:space="preserve" xmlns:serif="http://www.serif.com/" style="fill-rule:evenodd;clip-rule:evenodd;stroke-linejoin:round;stroke-miterlimit:2;">
    <path d="M7.542,4L8.532,4L8.532,4.99L7.542,4.99L7.542,4ZM12.281,7.323C11.869,6.929 11.756,5.756 12.281,5.236L12.437,5.06L12.594,5.211C13.097,5.597 13.383,6.032 13.452,6.518C14.152,6.313 14.666,6.447 15.196,6.77C14.852,7.463 14.323,7.898 13.14,7.851C12.069,10.43 9.766,11.975 6.348,12C4.543,12 3.251,11.371 2.47,10.064C2.036,9.294 1.944,8.739 2.028,7.675L3.173,7.675L3.407,7.7L9.965,7.7L10.199,7.675C11.127,7.701 11.703,7.646 12.281,7.323ZM4.474,6.639L3.485,6.639L3.485,7.629L4.474,7.629L4.474,6.639ZM4.845,6.639L5.835,6.639L5.835,7.629L4.845,7.629L4.845,6.639ZM7.196,6.639L6.206,6.639L6.206,7.629L7.196,7.629L7.196,6.639ZM7.542,6.639L8.532,6.639L8.532,7.629L7.542,7.629L7.542,6.639ZM5.835,5.32L4.845,5.32L4.845,6.309L5.835,6.309L5.835,5.32ZM6.206,5.32L7.196,5.32L7.196,6.309L6.206,6.309L6.206,5.32ZM8.532,5.32L7.542,5.32L7.542,6.309L8.532,6.309L8.532,5.32ZM9.876,6.639L8.887,6.639L8.887,7.629L9.876,7.629L9.876,6.639Z" style="fill:rgb(121,121,121);"/>
</svg>
