<?xml version="1.0" encoding="UTF-8" standalone="no"?>
<!DOCTYPE svg PUBLIC "-//W3C//DTD SVG 1.1//EN" "http://www.w3.org/Graphics/SVG/1.1/DTD/svg11.dtd">
<svg width="100%" height="100%" viewBox="0 0 16 16" version="1.1" xmlns="http://www.w3.org/2000/svg" xmlns:xlink="http://www.w3.org/1999/xlink" xml:space="preserve" xmlns:serif="http://www.serif.com/" style="fill-rule:evenodd;clip-rule:evenodd;stroke-linecap:round;stroke-linejoin:round;">
    <g id="document">
        <path id="Rectangle" d="M4,3L9,3L11,4L12,6L12,13L4,13L4,3Z" style="fill:rgb(179,179,179);fill-rule:nonzero;"/>
        <path id="Union" d="M9,2C9.265,2 9.52,2.105 9.707,2.293L12.707,5.293C12.895,5.48 13,5.735 13,6L13,12C13,12.53 12.789,13.039 12.414,13.414C12.039,13.789 11.53,14 11,14L5,14C4.47,14 3.961,13.789 3.586,13.414C3.211,13.039 3,12.53 3,12L3,4C3,3.47 3.211,2.961 3.586,2.586C3.961,2.211 4.47,2 5,2L9,2ZM12,6L12,12C12,12.265 11.895,12.52 11.707,12.707C11.52,12.895 11.265,13 11,13L5,13C4.735,13 4.48,12.895 4.293,12.707C4.105,12.52 4,12.265 4,12L4,4C4,3.735 4.105,3.48 4.293,3.293C4.48,3.105 4.735,3 5,3L9,3L12,6Z" style="fill:rgb(179,179,179);"/>
        <path id="Vector" d="M9,3L9,6L12,6" style="fill:rgb(247,247,247);fill-rule:nonzero;"/>
        <path id="Vector_2" d="M10,8.5L6,8.5" style="fill:none;fill-rule:nonzero;stroke:rgb(78,78,78);stroke-width:1px;"/>
        <path id="Vector_3" d="M10,10.5L6,10.5" style="fill:none;fill-rule:nonzero;stroke:rgb(78,78,78);stroke-width:1px;"/>
        <path id="Vector_4" d="M7,6.5L6,6.5" style="fill:none;fill-rule:nonzero;stroke:rgb(44,44,44);stroke-width:1px;"/>
    </g>
</svg>
