<?xml version="1.0" encoding="UTF-8" standalone="no"?>
<!DOCTYPE svg PUBLIC "-//W3C//DTD SVG 1.1//EN" "http://www.w3.org/Graphics/SVG/1.1/DTD/svg11.dtd">
<svg width="100%" height="100%" viewBox="0 0 16 16" version="1.1" xmlns="http://www.w3.org/2000/svg" xmlns:xlink="http://www.w3.org/1999/xlink" xml:space="preserve" xmlns:serif="http://www.serif.com/" style="fill-rule:evenodd;clip-rule:evenodd;stroke-linejoin:round;stroke-miterlimit:2;">
    <path d="M5.905,4.113C5.905,4.476 6.064,4.798 6.309,4.999C5.271,5.174 4.102,6.041 3.831,6.794C3.458,6.572 3,6.809 3,7.2C2.991,7.571 3.508,7.901 3.921,7.536C4.021,7.677 4.167,7.798 4.344,7.895C4.34,8.057 4.338,8.526 4.399,8.614C4.479,8.727 5.35,8.719 5.387,8.615C5.406,8.557 5.419,8.309 5.426,8.175C5.709,8.188 5.998,8.161 6.27,8.088C6.206,8.261 6.187,8.448 6.216,8.631C5.304,9.3 4.797,10.726 5.718,11.967C5.146,12.189 4.59,12.509 4.611,12.903C5.432,12.884 8.411,12.903 8.411,12.903C8.592,12.903 8.766,12.877 8.928,12.828C16.382,11.766 8.855,5.421 13,3.489C8.187,4.442 14.8,11.074 9.829,12.05C11.067,10.863 10.642,7.233 8.612,5.602C9.137,5.501 9.536,4.997 9.536,4.391C9.552,3.505 8.572,2.693 7.709,3.44C7.156,2.634 5.941,2.981 5.905,4.113L5.905,4.113Z" style="fill:rgb(159,159,159);fill-rule:nonzero;"/>
</svg>
