<?xml version="1.0" encoding="UTF-8" standalone="no"?>
<!DOCTYPE svg PUBLIC "-//W3C//DTD SVG 1.1//EN" "http://www.w3.org/Graphics/SVG/1.1/DTD/svg11.dtd">
<svg width="100%" height="100%" viewBox="0 0 16 16" version="1.1" xmlns="http://www.w3.org/2000/svg" xmlns:xlink="http://www.w3.org/1999/xlink" xml:space="preserve" xmlns:serif="http://www.serif.com/" style="fill-rule:evenodd;clip-rule:evenodd;stroke-linejoin:round;stroke-miterlimit:2;">
    <path d="M8.228,13.652C6.169,13.652 4.5,11.666 4.5,9.217C4.5,7.211 5.98,4.76 7.122,3.266C7.663,2.56 8.685,2 8.685,2C8.685,2 8.161,4.857 9.583,5.992C10.844,6.999 11.772,8.31 11.772,9.462C11.772,11.771 10.288,13.652 8.228,13.652Z" style="fill:rgb(139,139,139);fill-rule:nonzero;"/>
    <g id="c-carved" serif:id="c carved" transform="matrix(0.283369,0,0,0.283369,6.869,9.58006)">
        <g transform="matrix(12,0,0,12,19.5847,13.153)">
        </g>
        <text x="12.255px" y="13.153px" style="font-family:'ArialMT', 'Arial', sans-serif;font-size:12px;fill:rgb(66,66,66);stroke:rgb(65,65,65);stroke-width:1.76px;">T</text>
    </g>
    <g transform="matrix(0.283369,0,0,0.283369,6.869,9.58006)">
        <g transform="matrix(12,0,0,12,19.5847,13.153)">
        </g>
        <text x="12.255px" y="13.153px" style="font-family:'ArialMT', 'Arial', sans-serif;font-size:12px;fill:rgb(157,157,157);">T</text>
    </g>
</svg>
