<?xml version="1.0" encoding="UTF-8" standalone="no"?>
<!DOCTYPE svg PUBLIC "-//W3C//DTD SVG 1.1//EN" "http://www.w3.org/Graphics/SVG/1.1/DTD/svg11.dtd">
<svg width="100%" height="100%" viewBox="0 0 16 16" version="1.1" xmlns="http://www.w3.org/2000/svg" xmlns:xlink="http://www.w3.org/1999/xlink" xml:space="preserve" xmlns:serif="http://www.serif.com/" style="fill-rule:evenodd;clip-rule:evenodd;stroke-linejoin:round;stroke-miterlimit:2;">
    <g id="elixir-lock">
        <path id="Subtract" d="M4.5,9.217C4.5,11.666 6.169,13.652 8.228,13.652C8.482,13.652 8.727,13.623 8.962,13.569L8.962,10.919C8.962,10.431 9.355,10.032 9.835,10.032L10.621,10.032L10.621,9.718C10.621,9.05 10.912,8.451 11.371,8.045C10.983,7.318 10.344,6.6 9.583,5.992C8.161,4.857 8.685,2 8.685,2C8.685,2 7.663,2.56 7.122,3.266C5.98,4.76 4.5,7.211 4.5,9.217Z" style="fill:rgb(95,95,95);"/>
        <g id="ic_lock_24px">
            <path id="Shape" d="M15.25,10.667L14.875,10.667L14.875,9.905C14.875,8.853 14.035,8 13,8C11.965,8 11.125,8.853 11.125,9.905L11.125,10.667L10.75,10.667C10.338,10.667 10,11.009 10,11.429L10,15.238C10,15.657 10.338,16 10.75,16L15.25,16C15.663,16 16,15.657 16,15.238L16,11.429C16,11.009 15.663,10.667 15.25,10.667ZM13,14.095C12.588,14.095 12.25,13.752 12.25,13.333C12.25,12.914 12.588,12.571 13,12.571C13.413,12.571 13.75,12.914 13.75,13.333C13.75,13.752 13.413,14.095 13,14.095ZM11.838,9.905L11.838,10.667L14.163,10.667L14.163,9.905C14.163,9.253 13.641,8.724 13,8.724C12.359,8.724 11.838,9.253 11.838,9.905Z" style="fill:rgb(201,201,201);"/>
        </g>
    </g>
</svg>
