<?xml version="1.0" encoding="UTF-8" standalone="no"?>
<!DOCTYPE svg PUBLIC "-//W3C//DTD SVG 1.1//EN" "http://www.w3.org/Graphics/SVG/1.1/DTD/svg11.dtd">
<svg width="100%" height="100%" viewBox="0 0 16 16" version="1.1" xmlns="http://www.w3.org/2000/svg" xmlns:xlink="http://www.w3.org/1999/xlink" xml:space="preserve" xmlns:serif="http://www.serif.com/" style="fill-rule:evenodd;clip-rule:evenodd;stroke-linejoin:round;stroke-miterlimit:2;">
    <g id="elm">
        <g id="css-tips">
            <path id="Path" d="M3,3.333L7.667,8L3,12.667L3,3.333Z" style="fill:rgb(116,116,116);"/>
            <path id="Path_2" d="M3.333,13L8,8.333L12.667,13L3.333,13Z" style="fill:rgb(163,163,163);"/>
            <path id="Path_3" d="M8.333,3L13,3L13,7.667L8.333,3Z" style="fill:rgb(163,163,163);"/>
            <path id="Path_4" d="M3.333,3L7.667,3L9.7,5.033L5.367,5.033L3.333,3Z" style="fill:rgb(162,162,162);"/>
            <path id="Path_5" d="M5.833,5.5L10.167,5.5L8,7.667L5.833,5.5Z" style="fill:rgb(183,183,183);"/>
            <path id="Path_6" d="M8.333,8L10.5,5.833L12.667,8L10.5,10.167L8.333,8Z" style="fill:rgb(162,162,162);"/>
            <path id="Path_7" d="M10.833,10.5L13,8.333L13,12.667L10.833,10.5Z" style="fill:rgb(183,183,183);"/>
        </g>
    </g>
</svg>
