<?xml version="1.0" encoding="UTF-8" standalone="no"?>
<!DOCTYPE svg PUBLIC "-//W3C//DTD SVG 1.1//EN" "http://www.w3.org/Graphics/SVG/1.1/DTD/svg11.dtd">
<svg width="100%" height="100%" viewBox="0 0 16 16" version="1.1" xmlns="http://www.w3.org/2000/svg" xmlns:xlink="http://www.w3.org/1999/xlink" xml:space="preserve" xmlns:serif="http://www.serif.com/" style="fill-rule:evenodd;clip-rule:evenodd;stroke-linejoin:round;stroke-miterlimit:2;">
    <g id="eslint">
        <g id="eslint_2">
            <path id="Shape" d="M5.676,6.824L7.936,5.521C7.992,5.488 8.062,5.488 8.119,5.521L10.379,6.824C10.435,6.857 10.47,6.917 10.47,6.982L10.47,9.589C10.47,9.654 10.435,9.715 10.379,9.747L8.119,11.051C8.062,11.084 7.992,11.084 7.936,11.051L5.676,9.747C5.619,9.715 5.584,9.654 5.584,9.589L5.584,6.982C5.584,6.917 5.619,6.857 5.676,6.824" style="fill:rgb(145,145,145);fill-rule:nonzero;"/>
            <path id="Shape_2" d="M11.203,3.319L13.904,8.012L13.904,8.012C14.002,8.181 14.002,8.38 13.904,8.55L11.203,13.212C11.105,13.382 10.924,13.466 10.728,13.466L5.327,13.466C5.131,13.466 4.949,13.379 4.851,13.209L2.151,8.555C2.053,8.385 2.053,8.171 2.151,8.001L4.851,3.319C4.949,3.149 5.131,3.024 5.327,3.024L10.728,3.024C10.924,3.024 11.105,3.149 11.203,3.319ZM11.566,10.436C11.626,10.401 11.668,10.337 11.668,10.268L11.668,6.304C11.668,6.235 11.626,6.171 11.566,6.136L8.123,4.154C8.063,4.119 7.988,4.119 7.929,4.154L4.489,6.136C4.429,6.171 4.388,6.235 4.388,6.304L4.388,10.268C4.388,10.337 4.43,10.401 4.49,10.436L7.932,12.418C7.992,12.453 8.067,12.453 8.126,12.418L11.566,10.436Z" style="fill:rgb(121,121,121);"/>
        </g>
    </g>
</svg>
