<?xml version="1.0" encoding="UTF-8" standalone="no"?>
<!DOCTYPE svg PUBLIC "-//W3C//DTD SVG 1.1//EN" "http://www.w3.org/Graphics/SVG/1.1/DTD/svg11.dtd">
<svg width="100%" height="100%" viewBox="0 0 16 16" version="1.1" xmlns="http://www.w3.org/2000/svg" xmlns:xlink="http://www.w3.org/1999/xlink" xml:space="preserve" xmlns:serif="http://www.serif.com/" style="fill-rule:evenodd;clip-rule:evenodd;stroke-linejoin:round;stroke-miterlimit:2;">
    <g id="firebase">
        <g id="firebase_2">
            <path id="Path" d="M3.945,9.836L5.128,2.23C5.145,2.115 5.235,2.023 5.35,2.004C5.465,1.984 5.58,2.041 5.635,2.144L6.907,4.53L3.945,9.836Z" style="fill:rgb(102,102,102);"/>
            <path id="Path_2" d="M12.343,11.682L11.217,4.683C11.2,4.582 11.128,4.5 11.032,4.469C10.935,4.438 10.83,4.464 10.758,4.535L3.658,11.682L7.586,13.896C7.832,14.034 8.133,14.034 8.38,13.896L12.343,11.682Z" style="fill:rgb(201,201,201);"/>
            <path id="Path_3" d="M9.15,5.574L8.24,3.833C8.193,3.744 8.101,3.688 8,3.688C7.899,3.688 7.807,3.744 7.76,3.833L3.765,10.992L9.15,5.574Z" style="fill:rgb(177,177,177);"/>
        </g>
    </g>
</svg>
