<?xml version="1.0" encoding="UTF-8" standalone="no"?>
<!DOCTYPE svg PUBLIC "-//W3C//DTD SVG 1.1//EN" "http://www.w3.org/Graphics/SVG/1.1/DTD/svg11.dtd">
<svg width="100%" height="100%" viewBox="0 0 16 16" version="1.1" xmlns="http://www.w3.org/2000/svg" xmlns:xlink="http://www.w3.org/1999/xlink" xml:space="preserve" xmlns:serif="http://www.serif.com/" style="fill-rule:evenodd;clip-rule:evenodd;stroke-linejoin:round;stroke-miterlimit:2;">
    <g id="flow">
        <g id="flow_2">
            <path id="Shape" d="M3.013,3L6.335,6.333L3.686,6.333L6.308,8.965L3,8.965L7.008,12.987L7.008,9.667L7.008,9.667L7.008,6.333L7.008,6.333L7.008,4.444L9.01,4.444L9.885,5.321L7.937,5.321L7.937,8.614L8.883,8.614L9.932,9.667L9.255,9.667L9.254,9.667L9.254,9.667L7.896,9.667L7.896,9.667L7.896,9.667L7.882,9.667L7.896,9.681L7.896,13L12.576,13L10.896,11.313L10.896,10.633L11.259,10.998L11.259,7.669L10.586,7.669L10.587,6.025L11.877,7.32L11.877,3.987L9.095,3.987L8.111,3L6.228,3L3.013,3Z" style="fill:rgb(183,183,183);fill-rule:nonzero;"/>
        </g>
    </g>
</svg>
