<?xml version="1.0" encoding="UTF-8" standalone="no"?>
<!DOCTYPE svg PUBLIC "-//W3C//DTD SVG 1.1//EN" "http://www.w3.org/Graphics/SVG/1.1/DTD/svg11.dtd">
<svg width="100%" height="100%" viewBox="0 0 16 16" version="1.1" xmlns="http://www.w3.org/2000/svg" xmlns:xlink="http://www.w3.org/1999/xlink" xml:space="preserve" xmlns:serif="http://www.serif.com/" style="fill-rule:evenodd;clip-rule:evenodd;stroke-linejoin:round;stroke-miterlimit:2;">
    <g>
        <clipPath id="_clip1">
            <rect x="0" y="0" width="16" height="16"/>
        </clipPath>
        <g clip-path="url(#_clip1)">
            <path d="M14.917,6.667L9.083,6.667C7.795,6.667 6.75,7.711 6.75,9L6.75,14.6L2.317,14.6C1.945,14.6 1.589,14.453 1.327,14.19C1.064,13.927 0.917,13.571 0.917,13.2L0.917,3.4C0.917,3.029 1.064,2.673 1.327,2.41C1.589,2.148 1.945,2 2.317,2L5.817,2L7.217,4.1L13.517,4.1C13.888,4.1 14.244,4.247 14.507,4.51C14.769,4.773 14.917,5.129 14.917,5.5L14.917,6.667Z" style="fill:rgb(57,57,57);fill-opacity:0.8;"/>
            <path d="M16.083,9L16.083,14.833C16.083,15.477 15.561,16 14.917,16L9.083,16C8.439,16 7.917,15.477 7.917,14.833L7.917,9C7.917,8.356 8.439,7.833 9.083,7.833L14.917,7.833C15.561,7.833 16.083,8.356 16.083,9Z" style="fill:rgb(44,44,44);fill-opacity:0.1;"/>
            <path d="M11.417,10.167C11.417,10.811 10.894,11.333 10.25,11.333C9.606,11.333 9.083,10.811 9.083,10.167C9.083,9.523 9.606,9 10.25,9C10.894,9 11.417,9.523 11.417,10.167Z" style="fill:rgb(138,138,138);"/>
            <path d="M14.917,10.167C14.917,10.811 14.394,11.333 13.75,11.333C13.106,11.333 12.583,10.811 12.583,10.167C12.583,9.523 13.106,9 13.75,9C14.394,9 14.917,9.523 14.917,10.167Z" style="fill:rgb(138,138,138);"/>
            <path d="M14.917,13.667C14.917,14.311 14.394,14.833 13.75,14.833C13.106,14.833 12.583,14.311 12.583,13.667C12.583,13.023 13.106,12.5 13.75,12.5C14.394,12.5 14.917,13.023 14.917,13.667Z" style="fill:rgb(138,138,138);"/>
            <path d="M11.417,13.667C11.417,14.311 10.894,14.833 10.25,14.833C9.606,14.833 9.083,14.311 9.083,13.667C9.083,13.023 9.606,12.5 10.25,12.5C10.894,12.5 11.417,13.023 11.417,13.667Z" style="fill:rgb(138,138,138);"/>
        </g>
    </g>
</svg>
