<?xml version="1.0" encoding="UTF-8" standalone="no"?>
<!DOCTYPE svg PUBLIC "-//W3C//DTD SVG 1.1//EN" "http://www.w3.org/Graphics/SVG/1.1/DTD/svg11.dtd">
<svg width="100%" height="100%" viewBox="0 0 16 16" version="1.1" xmlns="http://www.w3.org/2000/svg" xmlns:xlink="http://www.w3.org/1999/xlink" xml:space="preserve" xmlns:serif="http://www.serif.com/" style="fill-rule:evenodd;clip-rule:evenodd;stroke-linejoin:round;stroke-miterlimit:2;">
    <path d="M14.917,6.667L9.083,6.667C7.795,6.667 6.75,7.711 6.75,9L6.75,14.6L2.317,14.6C1.945,14.6 1.589,14.453 1.327,14.19C1.064,13.927 0.917,13.571 0.917,13.2L0.917,3.4C0.917,3.029 1.064,2.673 1.327,2.41C1.589,2.148 1.945,2 2.317,2L5.817,2L7.217,4.1L13.517,4.1C13.888,4.1 14.244,4.247 14.507,4.51C14.769,4.773 14.917,5.129 14.917,5.5L14.917,6.667Z" style="fill:rgb(156,156,156);"/>
    <path d="M15,9L15,14C15,14.552 14.552,15 14,15L9,15C8.448,15 8,14.552 8,14L8,9C8,8.448 8.448,8 9,8L14,8C14.552,8 15,8.448 15,9Z" style="fill:rgb(44,44,44);fill-opacity:0.1;"/>
    <path d="M11.61,8.875C10.099,8.875 8.875,10.08 8.875,11.566C8.875,12.755 9.658,13.764 10.745,14.12C10.882,14.145 10.932,14.061 10.932,13.99C10.932,13.926 10.93,13.714 10.928,13.489C10.168,13.652 10.007,13.172 10.007,13.172C9.882,12.861 9.703,12.778 9.703,12.778C9.455,12.611 9.722,12.615 9.722,12.615C9.996,12.634 10.141,12.892 10.141,12.892C10.385,13.304 10.782,13.185 10.937,13.115C10.962,12.942 11.033,12.823 11.111,12.756C10.504,12.688 9.865,12.457 9.865,11.426C9.865,11.132 9.972,10.892 10.146,10.704C10.119,10.635 10.024,10.362 10.173,9.991C10.173,9.991 10.403,9.919 10.925,10.267C11.143,10.207 11.377,10.178 11.61,10.177C11.842,10.178 12.076,10.208 12.294,10.268C12.816,9.919 13.046,9.992 13.046,9.992C13.195,10.362 13.101,10.636 13.073,10.704C13.248,10.892 13.354,11.132 13.354,11.426C13.354,12.46 12.714,12.688 12.105,12.754C12.204,12.838 12.291,13.002 12.291,13.252C12.291,13.612 12.287,13.902 12.287,13.991C12.287,14.063 12.337,14.146 12.475,14.12C13.561,13.764 14.344,12.755 14.344,11.567C14.344,10.08 13.12,8.875 11.609,8.875L11.61,8.875Z" style="fill:rgb(138,138,138);fill-rule:nonzero;"/>
</svg>
