<?xml version="1.0" encoding="UTF-8" standalone="no"?>
<!DOCTYPE svg PUBLIC "-//W3C//DTD SVG 1.1//EN" "http://www.w3.org/Graphics/SVG/1.1/DTD/svg11.dtd">
<svg width="100%" height="100%" viewBox="0 0 16 16" version="1.1" xmlns="http://www.w3.org/2000/svg" xmlns:xlink="http://www.w3.org/1999/xlink" xml:space="preserve" xmlns:serif="http://www.serif.com/" style="fill-rule:evenodd;clip-rule:evenodd;stroke-linejoin:round;stroke-miterlimit:2;">
    <path d="M14.917,6.667L9.083,6.667C7.795,6.667 6.75,7.711 6.75,9L6.75,14.6L2.317,14.6C1.945,14.6 1.589,14.453 1.327,14.19C1.064,13.927 0.917,13.571 0.917,13.2L0.917,3.4C0.917,3.029 1.064,2.673 1.327,2.41C1.589,2.148 1.945,2 2.317,2L5.817,2L7.217,4.1L13.517,4.1C13.888,4.1 14.244,4.247 14.507,4.51C14.769,4.773 14.917,5.129 14.917,5.5L14.917,6.667Z" style="fill:rgb(150,157,171);"/>
    <path d="M15,9L15,14C15,14.552 14.552,15 14,15L9,15C8.448,15 8,14.552 8,14L8,9C8,8.448 8.448,8 9,8L14,8C14.552,8 15,8.448 15,9Z" style="fill:rgb(245,247,249);fill-opacity:0.2;"/>
    <path d="M11,10C11,10.552 10.552,11 10,11C9.448,11 9,10.552 9,10C9,9.448 9.448,9 10,9C10.552,9 11,9.448 11,10Z" style="fill:rgb(76,113,246);"/>
    <path d="M14,10C14,10.552 13.552,11 13,11C12.448,11 12,10.552 12,10C12,9.448 12.448,9 13,9C13.552,9 14,9.448 14,10Z" style="fill:rgb(61,185,49);"/>
    <path d="M14,13C14,13.552 13.552,14 13,14C12.448,14 12,13.552 12,13C12,12.448 12.448,12 13,12C13.552,12 14,12.448 14,13Z" style="fill:rgb(231,90,90);"/>
    <path d="M11,13C11,13.552 10.552,14 10,14C9.448,14 9,13.552 9,13C9,12.448 9.448,12 10,12C10.552,12 11,12.448 11,13Z" style="fill:rgb(227,130,188);"/>
    <path d="M11,10C11,10.552 10.552,11 10,11C9.448,11 9,10.552 9,10C9,9.448 9.448,9 10,9C10.552,9 11,9.448 11,10Z" style="fill:rgb(0,182,194);"/>
    <path d="M14,10C14,10.552 13.552,11 13,11C12.448,11 12,10.552 12,10C12,9.448 12.448,9 13,9C13.552,9 14,9.448 14,10Z" style="fill:rgb(61,185,49);"/>
    <path d="M14,13C14,13.552 13.552,14 13,14C12.448,14 12,13.552 12,13C12,12.448 12.448,12 13,12C13.552,12 14,12.448 14,13Z" style="fill:rgb(231,90,90);"/>
    <path d="M11,13C11,13.552 10.552,14 10,14C9.448,14 9,13.552 9,13C9,12.448 9.448,12 10,12C10.552,12 11,12.448 11,13Z" style="fill:rgb(227,130,188);"/>
    <path d="M11,10C11,10.552 10.552,11 10,11C9.448,11 9,10.552 9,10C9,9.448 9.448,9 10,9C10.552,9 11,9.448 11,10Z" style="fill:rgb(76,113,246);"/>
    <path d="M14,10C14,10.552 13.552,11 13,11C12.448,11 12,10.552 12,10C12,9.448 12.448,9 13,9C13.552,9 14,9.448 14,10Z" style="fill:rgb(61,185,49);"/>
    <path d="M14,13C14,13.552 13.552,14 13,14C12.448,14 12,13.552 12,13C12,12.448 12.448,12 13,12C13.552,12 14,12.448 14,13Z" style="fill:rgb(231,90,90);"/>
    <path d="M11,13C11,13.552 10.552,14 10,14C9.448,14 9,13.552 9,13C9,12.448 9.448,12 10,12C10.552,12 11,12.448 11,13Z" style="fill:rgb(227,130,188);"/>
    <path d="M11,10C11,10.552 10.552,11 10,11C9.448,11 9,10.552 9,10C9,9.448 9.448,9 10,9C10.552,9 11,9.448 11,10Z" style="fill:rgb(113,141,143);"/>
    <path d="M14,10C14,10.552 13.552,11 13,11C12.448,11 12,10.552 12,10C12,9.448 12.448,9 13,9C13.552,9 14,9.448 14,10Z" style="fill:rgb(101,145,97);"/>
    <path d="M14,13C14,13.552 13.552,14 13,14C12.448,14 12,13.552 12,13C12,12.448 12.448,12 13,12C13.552,12 14,12.448 14,13Z" style="fill:rgb(144,89,89);"/>
    <path d="M11,13C11,13.552 10.552,14 10,14C9.448,14 9,13.552 9,13C9,12.448 9.448,12 10,12C10.552,12 11,12.448 11,13Z" style="fill:rgb(160,127,147);"/>
</svg>
