<?xml version="1.0" encoding="UTF-8" standalone="no"?>
<!DOCTYPE svg PUBLIC "-//W3C//DTD SVG 1.1//EN" "http://www.w3.org/Graphics/SVG/1.1/DTD/svg11.dtd">
<svg width="100%" height="100%" viewBox="0 0 16 16" version="1.1" xmlns="http://www.w3.org/2000/svg" xmlns:xlink="http://www.w3.org/1999/xlink" xml:space="preserve" xmlns:serif="http://www.serif.com/" style="fill-rule:evenodd;clip-rule:evenodd;stroke-linejoin:round;stroke-miterlimit:2;">
    <path d="M14.917,6.667L9.083,6.667C7.795,6.667 6.75,7.711 6.75,9L6.75,14.6L2.317,14.6C1.945,14.6 1.589,14.453 1.327,14.19C1.064,13.927 0.917,13.571 0.917,13.2L0.917,3.4C0.917,3.029 1.064,2.673 1.327,2.41C1.589,2.148 1.945,2 2.317,2L5.817,2L7.217,4.1L13.517,4.1C13.888,4.1 14.244,4.247 14.507,4.51C14.769,4.773 14.917,5.129 14.917,5.5L14.917,6.667Z" style="fill:rgb(156,156,156);"/>
    <path d="M15,9L15,14C15,14.552 14.552,15 14,15L9,15C8.448,15 8,14.552 8,14L8,9C8,8.448 8.448,8 9,8L14,8C14.552,8 15,8.448 15,9Z" style="fill:rgb(183,183,183);"/>
    <rect x="9" y="10" width="5" height="4" style="fill:rgb(10,10,10);"/>
    <path d="M13.216,12.923C13.525,13.336 12.701,13.635 12.369,13.039L11.918,13.301L11.946,13.347C12.116,13.633 12.381,13.801 12.74,13.849C13.525,13.943 14.038,13.442 13.759,12.731C13.562,12.324 13.044,12.247 12.742,12.047C12.564,11.943 12.601,11.724 12.743,11.636C12.855,11.568 13.11,11.559 13.241,11.832L13.672,11.553C13.332,10.94 12.527,11.063 12.286,11.342C11.958,11.727 12.052,12.158 12.341,12.434C12.565,12.649 12.917,12.722 13.216,12.923ZM11.177,13.792C11.426,13.692 11.572,13.484 11.611,13.175C11.614,13.143 11.616,11.147 11.616,11.147L11.069,11.147L11.065,13.122C11.052,13.25 10.976,13.341 10.864,13.359C10.674,13.39 10.547,13.334 10.414,13.086L9.969,13.356C10.16,13.804 10.735,13.969 11.177,13.792ZM9.18,8.688L13.82,8.688C14.093,8.688 14.313,8.907 14.313,9.18L14.313,13.82C14.313,14.093 14.093,14.313 13.82,14.313L9.18,14.313C8.907,14.313 8.688,14.093 8.688,13.82L8.688,9.18C8.688,8.907 8.907,8.688 9.18,8.688Z" style="fill:rgb(183,183,183);fill-rule:nonzero;"/>
</svg>
