<?xml version="1.0" encoding="UTF-8" standalone="no"?>
<!DOCTYPE svg PUBLIC "-//W3C//DTD SVG 1.1//EN" "http://www.w3.org/Graphics/SVG/1.1/DTD/svg11.dtd">
<svg width="100%" height="100%" viewBox="0 0 16 16" version="1.1" xmlns="http://www.w3.org/2000/svg" xmlns:xlink="http://www.w3.org/1999/xlink" xml:space="preserve" xmlns:serif="http://www.serif.com/" style="fill-rule:evenodd;clip-rule:evenodd;stroke-linejoin:round;stroke-miterlimit:2;">
    <path d="M14.917,6.667L9.083,6.667C7.795,6.667 6.75,7.711 6.75,9L6.75,14.6L2.317,14.6C1.945,14.6 1.589,14.453 1.327,14.19C1.064,13.927 0.917,13.571 0.917,13.2L0.917,3.4C0.917,3.029 1.064,2.673 1.327,2.41C1.589,2.148 1.945,2 2.317,2L5.817,2L7.217,4.1L13.517,4.1C13.888,4.1 14.244,4.247 14.507,4.51C14.769,4.773 14.917,5.129 14.917,5.5L14.917,6.667Z" style="fill:rgb(156,156,156);fill-opacity:0.8;"/>
    <path d="M9,8C8.448,8 8,8.448 8,9L8,14C8,14.552 8.448,15 9,15L14,15C14.552,15 15,14.552 15,14L15,9C15,8.448 14.552,8 14,8L9,8ZM12.802,9.986C12.596,9.803 12.286,9.803 12.08,9.986C11.837,10.202 11.837,10.582 12.08,10.798L12.871,11.5L12.08,12.202C11.837,12.418 11.837,12.798 12.08,13.014C12.286,13.197 12.596,13.197 12.802,13.014L14.075,11.883C14.309,11.675 14.309,11.325 14.075,11.117L12.802,9.986ZM10.92,9.986C10.714,9.803 10.404,9.803 10.198,9.986L8.925,11.117C8.692,11.325 8.692,11.675 8.925,11.883L10.198,13.014C10.404,13.197 10.714,13.197 10.92,13.014C11.163,12.798 11.163,12.418 10.92,12.202L10.129,11.5L10.92,10.798C11.163,10.582 11.163,10.202 10.92,9.986Z" style="fill:rgb(121,121,121);"/>
</svg>
