<?xml version="1.0" encoding="UTF-8" standalone="no"?>
<!DOCTYPE svg PUBLIC "-//W3C//DTD SVG 1.1//EN" "http://www.w3.org/Graphics/SVG/1.1/DTD/svg11.dtd">
<svg width="100%" height="100%" viewBox="0 0 16 16" version="1.1" xmlns="http://www.w3.org/2000/svg" xmlns:xlink="http://www.w3.org/1999/xlink" xml:space="preserve" xmlns:serif="http://www.serif.com/" style="fill-rule:evenodd;clip-rule:evenodd;stroke-linejoin:round;stroke-miterlimit:2;">
    <path d="M14.917,6.667L9.083,6.667C7.795,6.667 6.75,7.711 6.75,9L6.75,14.6L2.317,14.6C1.945,14.6 1.589,14.453 1.327,14.19C1.064,13.927 0.917,13.571 0.917,13.2L0.917,3.4C0.917,3.029 1.064,2.673 1.327,2.41C1.589,2.148 1.945,2 2.317,2L5.817,2L7.217,4.1L13.517,4.1C13.888,4.1 14.244,4.247 14.507,4.51C14.769,4.773 14.917,5.129 14.917,5.5L14.917,6.667Z" style="fill:rgb(57,57,57);fill-opacity:0.8;"/>
    <path d="M15,9L15,14C15,14.552 14.552,15 14,15L9,15C8.448,15 8,14.552 8,14L8,9C8,8.448 8.448,8 9,8L14,8C14.552,8 15,8.448 15,9Z" style="fill:rgb(44,44,44);fill-opacity:0.1;"/>
    <path d="M11.5,8.875C11.455,8.875 11.41,8.886 11.37,8.909L9.2,10.143C9.119,10.189 9.069,10.279 9.069,10.371L9.069,12.847C9.069,12.94 9.119,13.025 9.2,13.071L11.37,14.309C11.451,14.355 11.549,14.355 11.63,14.309L13.8,13.071C13.881,13.025 13.931,12.94 13.931,12.847L13.931,10.371C13.931,10.278 13.881,10.189 13.8,10.143L11.63,8.909C11.59,8.886 11.545,8.875 11.5,8.875" style="fill:rgb(222,222,222);"/>
    <g>
        <path d="M11.278,8.41L14.113,13.322L11.676,14.729L8.841,9.817L11.278,8.41Z" style="fill:rgb(179,179,179);"/>
    </g>
</svg>
