<?xml version="1.0" encoding="UTF-8" standalone="no"?>
<!DOCTYPE svg PUBLIC "-//W3C//DTD SVG 1.1//EN" "http://www.w3.org/Graphics/SVG/1.1/DTD/svg11.dtd">
<svg width="100%" height="100%" viewBox="0 0 16 16" version="1.1" xmlns="http://www.w3.org/2000/svg" xmlns:xlink="http://www.w3.org/1999/xlink" xml:space="preserve" xmlns:serif="http://www.serif.com/" style="fill-rule:evenodd;clip-rule:evenodd;stroke-linejoin:round;stroke-miterlimit:2;">
    <path d="M14.917,6.667L9.083,6.667C7.795,6.667 6.75,7.711 6.75,9L6.75,14.6L2.317,14.6C1.945,14.6 1.589,14.453 1.327,14.19C1.064,13.927 0.917,13.571 0.917,13.2L0.917,3.4C0.917,3.029 1.064,2.673 1.327,2.41C1.589,2.148 1.945,2 2.317,2L5.817,2L7.217,4.1L13.517,4.1C13.888,4.1 14.244,4.247 14.507,4.51C14.769,4.773 14.917,5.129 14.917,5.5L14.917,6.667Z" style="fill:rgb(57,57,57);fill-opacity:0.8;"/>
    <path d="M15,9L15,14C15,14.552 14.552,15 14,15L9,15C8.448,15 8,14.552 8,14L8,9C8,8.448 8.448,8 9,8L14,8C14.552,8 15,8.448 15,9Z" style="fill:rgb(44,44,44);fill-opacity:0.1;"/>
    <path d="M14.125,9.365L12.874,8.875L10.69,10.952L9.375,9.974L8.876,10.22L8.875,12.783L9.373,13.027L10.686,12.05L12.875,14.125L14.125,13.637L14.125,9.365ZM12.735,10.573L11.5,11.496L12.735,12.427L12.735,10.573ZM9.493,12.04L9.493,10.96L10.11,11.496L9.493,12.04Z" style="fill:rgb(121,121,121);"/>
</svg>
