<?xml version="1.0" encoding="UTF-8" standalone="no"?>
<!DOCTYPE svg PUBLIC "-//W3C//DTD SVG 1.1//EN" "http://www.w3.org/Graphics/SVG/1.1/DTD/svg11.dtd">
<svg width="100%" height="100%" viewBox="0 0 16 16" version="1.1" xmlns="http://www.w3.org/2000/svg" xmlns:xlink="http://www.w3.org/1999/xlink" xml:space="preserve" xmlns:serif="http://www.serif.com/" style="fill-rule:evenodd;clip-rule:evenodd;stroke-linejoin:round;stroke-miterlimit:2;">
    <g id="gatsby">
        <g id="gatsby_2">
            <path id="Shape" d="M8,2C4.661,2 2,4.661 2,8C2,11.338 4.661,14 8,14C11.338,14 14,11.339 14,8C14,4.661 11.339,2 8,2ZM3.304,8.052L7.948,12.696C5.391,12.696 3.304,10.609 3.304,8.052ZM3.409,6.956L9.044,12.591C11.131,12.122 12.696,10.244 12.696,8L9.617,8L9.617,8.887L11.652,8.887C11.391,10.14 10.453,11.183 9.252,11.6L4.348,6.695C4.873,5.158 6.323,4.129 7.948,4.139C9.22,4.132 10.413,4.758 11.131,5.808L11.808,5.235C10.917,4.024 9.504,3.307 8,3.304C5.756,3.304 3.877,4.869 3.409,6.956Z" style="fill:rgb(162,162,162);"/>
        </g>
    </g>
</svg>
