<?xml version="1.0" encoding="UTF-8" standalone="no"?>
<!DOCTYPE svg PUBLIC "-//W3C//DTD SVG 1.1//EN" "http://www.w3.org/Graphics/SVG/1.1/DTD/svg11.dtd">
<svg width="100%" height="100%" viewBox="0 0 16 16" version="1.1" xmlns="http://www.w3.org/2000/svg" xmlns:xlink="http://www.w3.org/1999/xlink" xml:space="preserve" xmlns:serif="http://www.serif.com/" style="fill-rule:evenodd;clip-rule:evenodd;stroke-linejoin:round;stroke-miterlimit:2;">
    <g id="git">
        <path id="Vector" d="M13.774,7.466L8.534,2.226C8.233,1.925 7.743,1.925 7.441,2.226L6.354,3.314L7.734,4.695C8.054,4.586 8.422,4.659 8.678,4.915C8.935,5.172 9.007,5.543 8.896,5.865L10.226,7.195C10.548,7.084 10.919,7.155 11.176,7.413C11.535,7.772 11.535,8.354 11.176,8.713C10.817,9.073 10.235,9.073 9.875,8.713C9.605,8.443 9.538,8.046 9.675,7.713L8.435,6.473L8.435,9.737C8.522,9.78 8.605,9.838 8.678,9.911C9.037,10.27 9.037,10.852 8.678,11.212C8.318,11.571 7.736,11.571 7.377,11.212C7.018,10.852 7.018,10.27 7.377,9.911C7.466,9.822 7.569,9.755 7.678,9.71L7.678,6.416C7.569,6.371 7.466,6.304 7.377,6.215C7.105,5.943 7.04,5.544 7.179,5.21L5.819,3.849L2.226,7.441C1.925,7.743 1.925,8.233 2.226,8.534L7.466,13.774C7.767,14.075 8.257,14.075 8.559,13.774L13.774,8.559C14.075,8.257 14.075,7.767 13.774,7.466Z" style="fill:rgb(139,139,139);fill-rule:nonzero;"/>
    </g>
</svg>
