<?xml version="1.0" encoding="UTF-8" standalone="no"?>
<!DOCTYPE svg PUBLIC "-//W3C//DTD SVG 1.1//EN" "http://www.w3.org/Graphics/SVG/1.1/DTD/svg11.dtd">
<svg width="100%" height="100%" viewBox="0 0 16 16" version="1.1" xmlns="http://www.w3.org/2000/svg" xmlns:xlink="http://www.w3.org/1999/xlink" xml:space="preserve" xmlns:serif="http://www.serif.com/" style="fill-rule:evenodd;clip-rule:evenodd;stroke-linejoin:round;stroke-miterlimit:2;">
    <g id="github">
        <g id="github_badge">
            <path id="Shape" d="M8.25,2C4.798,2 2,4.754 2,8.151C2,10.869 3.791,13.175 6.275,13.988C6.587,14.045 6.702,13.854 6.702,13.692C6.702,13.546 6.696,13.06 6.693,12.547C4.954,12.919 4.587,11.822 4.587,11.822C4.303,11.111 3.893,10.922 3.893,10.922C3.325,10.54 3.936,10.548 3.936,10.548C4.563,10.591 4.894,11.182 4.894,11.182C5.452,12.122 6.358,11.85 6.713,11.692C6.77,11.296 6.932,11.024 7.11,10.871C5.723,10.716 4.263,10.188 4.263,7.831C4.263,7.158 4.507,6.611 4.906,6.18C4.842,6.023 4.627,5.398 4.968,4.551C4.968,4.551 5.492,4.386 6.686,5.182C7.185,5.045 7.719,4.977 8.25,4.975C8.781,4.977 9.316,5.046 9.815,5.183C11.007,4.386 11.533,4.552 11.533,4.552C11.874,5.399 11.659,6.025 11.595,6.18C11.996,6.611 12.238,7.159 12.238,7.831C12.238,10.194 10.776,10.715 9.383,10.867C9.609,11.058 9.807,11.432 9.807,12.005C9.807,12.828 9.799,13.491 9.799,13.694C9.799,13.858 9.913,14.049 10.229,13.989C12.711,13.174 14.5,10.869 14.5,8.152C14.5,4.755 11.702,2.001 8.25,2.001L8.25,2Z" style="fill:rgb(116,116,116);fill-rule:nonzero;"/>
        </g>
    </g>
</svg>
