<?xml version="1.0" encoding="UTF-8" standalone="no"?>
<!DOCTYPE svg PUBLIC "-//W3C//DTD SVG 1.1//EN" "http://www.w3.org/Graphics/SVG/1.1/DTD/svg11.dtd">
<svg width="100%" height="100%" viewBox="0 0 16 16" version="1.1" xmlns="http://www.w3.org/2000/svg" xmlns:xlink="http://www.w3.org/1999/xlink" xml:space="preserve" xmlns:serif="http://www.serif.com/" style="fill-rule:evenodd;clip-rule:evenodd;stroke-linejoin:round;stroke-miterlimit:2;">
    <path d="M1.17,6.819L1.397,6.529L4.281,6.528L4.096,6.817L1.17,6.819ZM3.786,7.531L3.882,7.242L0.227,7.244L0,7.534L3.786,7.531ZM3.681,8.247L3.709,7.957L2.046,7.958L1.885,8.248L3.681,8.247ZM14.284,10.515C12.685,11.396 10.5,11.023 9.915,9.113C9.57,9.792 9.007,10.349 8.335,10.667C6.743,11.419 4.582,10.763 4.304,8.701C4.101,6.725 5.7,5.504 6.646,5.196C8.148,4.728 9.63,5.278 10.143,6.646L8.529,7.07C8.357,6.592 7.425,6.249 6.709,6.767C5.582,7.462 5.603,9.211 6.964,9.471C7.671,9.562 8.146,9.213 8.501,8.675L6.749,8.679L7.312,7.465L9.939,7.465C11.076,4.255 15.513,4.396 15.964,7.28C16.125,8.305 15.775,9.694 14.284,10.515ZM12.826,6.544C11.612,6.806 11.309,7.878 11.497,8.566C11.696,9.297 12.469,9.777 13.449,9.318C15.021,8.583 14.609,6.161 12.826,6.544Z" style="fill:rgb(163,163,163);fill-rule:nonzero;"/>
</svg>
