<?xml version="1.0" encoding="UTF-8" standalone="no"?>
<!DOCTYPE svg PUBLIC "-//W3C//DTD SVG 1.1//EN" "http://www.w3.org/Graphics/SVG/1.1/DTD/svg11.dtd">
<svg width="100%" height="100%" viewBox="0 0 16 16" version="1.1" xmlns="http://www.w3.org/2000/svg" xmlns:xlink="http://www.w3.org/1999/xlink" xml:space="preserve" xmlns:serif="http://www.serif.com/" style="fill-rule:evenodd;clip-rule:evenodd;stroke-linejoin:round;stroke-miterlimit:2;">
    <g id="gradle">
        <g id="gradle_2">
            <path id="Shape" d="M11.68,3.462C12.184,3.473 12.897,3.691 13.296,4.422L13.296,4.422C14.063,5.752 13.386,7.271 12.671,8.513C12.495,8.819 12.294,9.09 12.096,9.357C11.49,10.171 10.916,10.942 11.2,12.538L9.855,12.538C9.855,12.538 7.542,9.433 6.629,12.538L5.597,12.538C5.386,11.007 4.153,10.948 3.808,12.538L2.455,12.538C2.455,12.538 1.718,8.22 4.442,7.241C4.442,7.241 4.689,7.828 5.008,8.336C5.362,8.901 6.284,9.291 7.359,7.676C7.359,7.676 5.915,9.275 5.256,8.18C5.06,7.855 4.988,7.74 4.922,7.622C4.848,7.49 4.781,7.353 4.555,6.914C4.239,6.301 4.606,6.036 5.403,5.773C6.201,5.509 7.962,5.076 9.773,6.383C11.584,7.691 13.031,5.803 12.562,4.885C12.363,4.496 12.066,4.355 11.843,4.329C11.609,4.301 11.403,4.335 11.21,4.439C11.206,4.442 11.201,4.444 11.195,4.447C11.121,4.489 10.954,4.582 10.858,4.439C10.787,4.333 10.671,4.076 10.65,4.027C10.554,3.798 11.062,3.45 11.68,3.462ZM9.37,7.554C9.37,7.554 9.115,8.275 9.826,8.512L9.826,8.511C10.365,8.69 10.783,8.262 10.831,8.038C9.991,7.759 9.37,7.554 9.37,7.554Z" style="fill:rgb(102,102,102);"/>
        </g>
    </g>
</svg>
