<?xml version="1.0" encoding="UTF-8" standalone="no"?>
<!DOCTYPE svg PUBLIC "-//W3C//DTD SVG 1.1//EN" "http://www.w3.org/Graphics/SVG/1.1/DTD/svg11.dtd">
<svg width="100%" height="100%" viewBox="0 0 16 16" version="1.1" xmlns="http://www.w3.org/2000/svg" xmlns:xlink="http://www.w3.org/1999/xlink" xml:space="preserve" xmlns:serif="http://www.serif.com/" style="fill-rule:evenodd;clip-rule:evenodd;stroke-linejoin:round;stroke-miterlimit:2;">
    <g id="graphviz">
        <path id="Vector" d="M11.217,7.94L9.806,2.938C9.659,2.416 9.122,2.107 8.597,2.241L1.985,3.926C1.444,4.064 1.12,4.619 1.267,5.158L3.415,13.048C3.559,13.576 4.1,13.89 4.629,13.754L11.309,12.033C11.852,11.893 12.174,11.334 12.022,10.793L11.504,8.957L10.222,8.416C9.918,8.714 9.467,8.915 8.997,8.915C8.077,8.915 7.329,8.207 7.329,7.337C7.329,6.467 8.077,5.759 8.997,5.759C9.916,5.759 10.664,6.467 10.664,7.337C10.664,7.464 10.648,7.587 10.618,7.705L11.217,7.94ZM7.646,5.02C7.646,5.02 7.435,5.119 7.397,5.192C7.396,5.195 7.394,5.197 7.393,5.2C7.399,5.205 7.405,5.21 7.411,5.216C7.55,5.334 7.759,5.511 8.004,5.755C7.888,5.821 7.781,5.897 7.682,5.983C7.463,5.767 7.277,5.609 7.151,5.502C7.148,5.499 7.145,5.497 7.142,5.494C7.094,5.578 7.046,5.757 7.046,5.757C7.046,5.757 6.849,5.079 6.762,4.907C6.885,4.952 7.47,5.048 7.646,5.02ZM5.607,13.078C4.828,13.273 4.087,13.023 3.952,12.519C3.826,12.05 4.271,11.526 4.964,11.3C4.521,9.952 4.193,7.997 4.857,5.868C4.848,5.864 4.839,5.86 4.832,5.856C4.76,5.814 4.527,5.837 4.527,5.837C4.692,5.771 5.134,5.39 5.215,5.289C5.235,5.479 5.44,6.155 5.44,6.155C5.44,6.155 5.317,6.043 5.231,5.991C4.596,8.036 4.92,9.918 5.348,11.21C6.045,11.111 6.688,11.352 6.773,11.814C6.878,12.381 6.386,12.883 5.607,13.078ZM10.371,11.826C9.592,12.021 8.851,11.771 8.716,11.268C8.615,10.89 8.883,10.477 9.353,10.212C9.18,10.169 8.618,10.031 8.445,10.02L8.728,9.912L7.378,8.686C7.258,8.74 7.128,8.785 6.988,8.819C6.89,8.844 6.792,8.862 6.696,8.872L6.159,10.548L6.449,10.545C6.23,10.56 5.78,11.189 5.78,11.189C5.78,11.189 5.626,10.452 5.547,10.268L5.772,10.466L6.281,8.877C5.803,8.831 5.426,8.606 5.333,8.261C5.198,7.757 5.72,7.191 6.499,6.996C6.505,6.995 6.511,6.994 6.518,6.992C6.378,6.849 6.008,6.475 5.874,6.382L6.173,6.436L5.828,5.239C5.121,5.353 4.485,5.104 4.361,4.642C4.226,4.138 4.748,3.572 5.526,3.377C6.305,3.182 7.046,3.433 7.181,3.936C7.305,4.396 6.879,4.909 6.21,5.142L6.547,6.311L6.793,6.161C6.648,6.262 6.593,6.787 6.577,6.978C6.704,6.951 6.829,6.936 6.952,6.931C6.931,7.046 6.92,7.164 6.92,7.283C6.92,8.251 7.636,9.063 8.591,9.265L8.975,9.613L9.1,9.36C9.028,9.531 9.312,10.061 9.386,10.194C9.534,10.114 9.701,10.049 9.882,10.003C9.885,10.002 9.889,10.002 9.893,10.001C9.815,9.674 9.724,9.368 9.623,9.08C9.75,9.039 9.871,8.986 9.984,8.922C10.097,9.239 10.198,9.578 10.283,9.941C10.911,9.901 11.459,10.139 11.537,10.562C11.642,11.13 11.15,11.632 10.371,11.826ZM11.977,8.342L11.92,8.466L10.772,7.942L10.567,8.36L11.72,8.887L11.667,9.013L14.69,10.315L15,9.644L11.977,8.342Z" style="fill:rgb(183,183,183);fill-rule:nonzero;"/>
    </g>
</svg>
