<?xml version="1.0" encoding="UTF-8" standalone="no"?>
<!DOCTYPE svg PUBLIC "-//W3C//DTD SVG 1.1//EN" "http://www.w3.org/Graphics/SVG/1.1/DTD/svg11.dtd">
<svg width="100%" height="100%" viewBox="0 0 16 16" version="1.1" xmlns="http://www.w3.org/2000/svg" xmlns:xlink="http://www.w3.org/1999/xlink" xml:space="preserve" xmlns:serif="http://www.serif.com/" style="fill-rule:evenodd;clip-rule:evenodd;">
    <g id="graphql">
        <g id="graphql_2">
            <path id="Shape" d="M4.004,11.129L3.574,10.876L8.363,2.422L8.793,2.675L4.004,11.129Z" style="fill:rgb(162,162,162);fill-rule:nonzero;stroke:rgb(162,162,162);stroke-width:0.5px;"/>
            <rect id="Shape_2" x="3.476" y="10.2" width="9.579" height="0.506" style="fill:rgb(162,162,162);fill-rule:nonzero;stroke:rgb(162,162,162);stroke-width:0.5px;"/>
            <g id="Shape_3">
                <path d="M7.827,3.138L12.618,5.957L12.867,5.518L8.075,2.699L7.827,3.138ZM3.665,10.485L8.456,13.304L8.704,12.865L3.913,10.047L3.665,10.485Z" style="fill:rgb(162,162,162);"/>
                <path d="M12.618,5.957L12.492,6.172L12.711,6.301L12.836,6.08L12.618,5.957ZM7.827,3.138L7.61,3.014L7.488,3.228L7.7,3.353L7.827,3.138ZM12.867,5.518L13.084,5.642L13.205,5.428L12.993,5.303L12.867,5.518ZM8.075,2.699L8.202,2.484L7.983,2.355L7.858,2.576L8.075,2.699ZM8.456,13.304L8.329,13.519L8.548,13.648L8.674,13.427L8.456,13.304ZM3.665,10.485L3.448,10.361L3.326,10.575L3.538,10.7L3.665,10.485ZM8.704,12.865L8.922,12.989L9.043,12.775L8.831,12.65L8.704,12.865ZM3.913,10.047L4.04,9.831L3.821,9.702L3.696,9.923L3.913,10.047ZM12.745,5.741L7.954,2.922L7.7,3.353L12.492,6.172L12.745,5.741ZM12.649,5.395L12.401,5.833L12.836,6.08L13.084,5.642L12.649,5.395ZM7.949,2.915L12.74,5.734L12.993,5.303L8.202,2.484L7.949,2.915ZM8.045,3.261L8.293,2.823L7.858,2.576L7.61,3.014L8.045,3.261ZM8.583,13.088L3.792,10.269L3.538,10.7L8.329,13.519L8.583,13.088ZM8.487,12.742L8.239,13.18L8.674,13.427L8.922,12.989L8.487,12.742ZM3.787,10.262L8.578,13.081L8.831,12.65L4.04,9.831L3.787,10.262ZM3.883,10.608L4.131,10.17L3.696,9.923L3.448,10.361L3.883,10.608Z" style="fill:rgb(162,162,162);fill-rule:nonzero;"/>
            </g>
            <path id="Shape_4" d="M3.915,5.955L3.666,5.516L8.457,2.698L8.706,3.136L3.915,5.955Z" style="fill:rgb(162,162,162);fill-rule:nonzero;stroke:rgb(162,162,162);stroke-width:0.5px;"/>
            <g id="Shape_5">
                <path d="M12.181,10.512L7.74,2.675L8.17,2.422L12.181,9.501L12.181,10.512ZM12.355,10.819L12.181,10.819L12.181,10.512L12.355,10.819ZM12.355,10.819L12.677,10.819L12.677,10.377L12.96,10.876L12.53,11.129L12.355,10.819ZM12.677,10.377L12.181,9.501L12.181,5.181L12.677,5.181L12.677,10.377ZM3.855,5.181L4.352,5.181L4.352,10.819L3.855,10.819L3.855,5.181Z" style="fill:rgb(162,162,162);"/>
                <path d="M7.74,2.675L7.614,2.46L7.402,2.584L7.523,2.798L7.74,2.675ZM8.17,2.422L8.388,2.299L8.263,2.078L8.044,2.207L8.17,2.422ZM12.181,10.819L11.931,10.819L11.931,11.069L12.181,11.069L12.181,10.819ZM12.677,10.819L12.677,11.069L12.927,11.069L12.927,10.819L12.677,10.819ZM12.96,10.876L13.087,11.091L13.299,10.966L13.177,10.752L12.96,10.876ZM12.53,11.129L12.312,11.252L12.438,11.473L12.657,11.344L12.53,11.129ZM12.181,5.181L12.181,4.931L11.931,4.931L11.931,5.181L12.181,5.181ZM12.677,5.181L12.927,5.181L12.927,4.931L12.677,4.931L12.677,5.181ZM4.352,5.181L4.602,5.181L4.602,4.931L4.352,4.931L4.352,5.181ZM3.855,5.181L3.855,4.931L3.605,4.931L3.605,5.181L3.855,5.181ZM4.352,10.819L4.352,11.069L4.602,11.069L4.602,10.819L4.352,10.819ZM3.855,10.819L3.605,10.819L3.605,11.069L3.855,11.069L3.855,10.819ZM7.523,2.798L11.963,10.636L12.398,10.389L7.958,2.552L7.523,2.798ZM8.044,2.207L7.614,2.46L7.867,2.891L8.297,2.638L8.044,2.207ZM12.398,9.378L8.388,2.299L7.953,2.545L11.963,9.624L12.398,9.378ZM12.431,10.512L12.431,9.501L11.931,9.501L11.931,10.512L12.431,10.512ZM12.355,10.569L12.181,10.569L12.181,11.069L12.355,11.069L12.355,10.569ZM12.431,10.819L12.431,10.512L11.931,10.512L11.931,10.819L12.431,10.819ZM11.963,10.636L12.137,10.942L12.572,10.696L12.398,10.389L11.963,10.636ZM12.677,10.569L12.355,10.569L12.355,11.069L12.677,11.069L12.677,10.569ZM12.427,10.377L12.427,10.819L12.927,10.819L12.927,10.377L12.427,10.377ZM13.177,10.752L12.895,10.254L12.46,10.5L12.742,10.999L13.177,10.752ZM12.657,11.344L13.087,11.091L12.833,10.66L12.403,10.913L12.657,11.344ZM12.137,10.942L12.312,11.252L12.747,11.005L12.572,10.696L12.137,10.942ZM12.895,10.254L12.398,9.378L11.963,9.624L12.46,10.5L12.895,10.254ZM12.431,9.501L12.431,5.181L11.931,5.181L11.931,9.501L12.431,9.501ZM12.181,5.431L12.677,5.431L12.677,4.931L12.181,4.931L12.181,5.431ZM12.427,5.181L12.427,10.377L12.927,10.377L12.927,5.181L12.427,5.181ZM4.352,4.931L3.855,4.931L3.855,5.431L4.352,5.431L4.352,4.931ZM4.602,10.819L4.602,5.181L4.102,5.181L4.102,10.819L4.602,10.819ZM3.855,11.069L4.352,11.069L4.352,10.569L3.855,10.569L3.855,11.069ZM3.605,5.181L3.605,10.819L4.105,10.819L4.105,5.181L3.605,5.181Z" style="fill:rgb(162,162,162);fill-rule:nonzero;"/>
            </g>
            <path id="Shape_6" d="M8.372,13.089L8.155,12.707L12.322,10.255L12.539,10.638L8.372,13.089Z" style="fill:rgb(162,162,162);fill-rule:nonzero;stroke:rgb(162,162,162);stroke-width:0.5px;"/>
            <g id="Shape_7">
                <path d="M7.223,3.097C7.223,3.685 7.689,4.16 8.266,4.16C8.843,4.16 9.31,3.685 9.31,3.097C9.31,2.508 8.843,2.033 8.266,2.033C7.689,2.033 7.223,2.508 7.223,3.097ZM3.577,6.47C4.077,6.763 4.717,6.589 5.004,6.08C5.291,5.571 5.12,4.922 4.621,4.626C4.121,4.334 3.481,4.508 3.194,5.017C2.907,5.525 3.078,6.178 3.577,6.47ZM11.909,11.374C12.408,11.666 13.048,11.492 13.335,10.984C13.625,10.475 13.455,9.825 12.953,9.53C12.453,9.237 11.813,9.411 11.526,9.92C11.239,10.429 11.409,11.081 11.909,11.374ZM3.197,10.984C2.91,10.475 3.081,9.825 3.58,9.53C4.08,9.237 4.717,9.411 5.007,9.92C5.294,10.429 5.123,11.078 4.624,11.374C4.121,11.666 3.484,11.492 3.197,10.984ZM11.912,4.626C11.412,4.922 11.242,5.571 11.529,6.08C11.816,6.589 12.456,6.763 12.956,6.47C13.455,6.175 13.625,5.525 13.338,5.017C13.048,4.508 12.411,4.334 11.912,4.626ZM8.266,13.967C7.689,13.967 7.223,13.492 7.223,12.904C7.223,12.315 7.689,11.84 8.266,11.84C8.843,11.84 9.31,12.315 9.31,12.904C9.31,13.489 8.843,13.967 8.266,13.967Z" style="fill:rgb(162,162,162);"/>
                <path d="M5.004,6.08L4.786,5.957L4.786,5.957L5.004,6.08ZM3.577,6.47L3.704,6.255L3.577,6.47ZM4.621,4.626L4.748,4.411L4.747,4.411L4.621,4.626ZM3.194,5.017L3.412,5.139L3.194,5.017ZM13.335,10.984L13.118,10.86L13.118,10.861L13.335,10.984ZM11.909,11.374L12.035,11.158L11.909,11.374ZM12.953,9.53L13.079,9.314L13.079,9.314L12.953,9.53ZM11.526,9.92L11.744,10.043L11.526,9.92ZM3.58,9.53L3.454,9.314L3.453,9.315L3.58,9.53ZM3.197,10.984L2.98,11.106L3.197,10.984ZM5.007,9.92L5.224,9.797L5.224,9.796L5.007,9.92ZM4.624,11.374L4.75,11.59L4.751,11.589L4.624,11.374ZM11.529,6.08L11.311,6.203L11.311,6.203L11.529,6.08ZM11.912,4.626L11.785,4.411L11.784,4.411L11.912,4.626ZM12.956,6.47L13.082,6.686L13.083,6.685L12.956,6.47ZM13.338,5.017L13.556,4.894L13.555,4.893L13.338,5.017ZM8.266,3.91C7.832,3.91 7.473,3.551 7.473,3.097L6.973,3.097C6.973,3.818 7.547,4.41 8.266,4.41L8.266,3.91ZM9.06,3.097C9.06,3.551 8.701,3.91 8.266,3.91L8.266,4.41C8.986,4.41 9.56,3.818 9.56,3.097L9.06,3.097ZM8.266,2.283C8.701,2.283 9.06,2.642 9.06,3.097L9.56,3.097C9.56,2.375 8.986,1.783 8.266,1.783L8.266,2.283ZM7.473,3.097C7.473,2.642 7.832,2.283 8.266,2.283L8.266,1.783C7.547,1.783 6.973,2.375 6.973,3.097L7.473,3.097ZM4.786,5.957C4.567,6.346 4.081,6.476 3.704,6.255L3.451,6.686C4.072,7.05 4.866,6.832 5.221,6.203L4.786,5.957ZM4.494,4.842C4.874,5.067 5.007,5.565 4.786,5.957L5.221,6.203C5.574,5.577 5.366,4.777 4.748,4.411L4.494,4.842ZM3.412,5.139C3.631,4.751 4.117,4.621 4.494,4.842L4.747,4.411C4.126,4.047 3.332,4.264 2.977,4.894L3.412,5.139ZM3.704,6.255C3.325,6.033 3.191,5.532 3.412,5.139L2.977,4.894C2.624,5.519 2.831,6.323 3.451,6.686L3.704,6.255ZM13.118,10.861C12.898,11.249 12.413,11.379 12.035,11.158L11.782,11.589C12.403,11.953 13.198,11.736 13.553,11.106L13.118,10.861ZM12.826,9.745C13.209,9.971 13.341,10.468 13.118,10.86L13.553,11.107C13.91,10.481 13.701,9.68 13.079,9.314L12.826,9.745ZM11.744,10.043C11.963,9.654 12.448,9.524 12.826,9.746L13.079,9.314C12.458,8.95 11.663,9.168 11.308,9.797L11.744,10.043ZM12.035,11.158C11.656,10.936 11.522,10.436 11.744,10.043L11.308,9.797C10.956,10.422 11.163,11.226 11.782,11.589L12.035,11.158ZM3.453,9.315C2.835,9.681 2.627,10.481 2.98,11.106L3.415,10.861C3.194,10.469 3.327,9.97 3.707,9.745L3.453,9.315ZM5.224,9.796C4.866,9.168 4.075,8.95 3.454,9.314L3.706,9.746C4.084,9.525 4.567,9.654 4.789,10.044L5.224,9.796ZM4.751,11.589C5.369,11.223 5.577,10.423 5.224,9.797L4.789,10.043C5.01,10.435 4.877,10.933 4.496,11.158L4.751,11.589ZM2.98,11.106C3.335,11.736 4.126,11.953 4.75,11.59L4.498,11.158C4.117,11.38 3.634,11.249 3.415,10.861L2.98,11.106ZM11.747,5.957C11.525,5.565 11.658,5.067 12.039,4.842L11.784,4.411C11.166,4.777 10.958,5.577 11.311,6.203L11.747,5.957ZM12.829,6.255C12.451,6.476 11.966,6.346 11.747,5.957L11.311,6.203C11.666,6.832 12.461,7.05 13.082,6.686L12.829,6.255ZM13.121,5.139C13.342,5.532 13.209,6.03 12.828,6.255L13.083,6.685C13.701,6.319 13.909,5.519 13.556,4.894L13.121,5.139ZM12.038,4.842C12.415,4.621 12.899,4.75 13.121,5.14L13.555,4.893C13.198,4.265 12.407,4.047 11.785,4.411L12.038,4.842ZM6.973,12.904C6.973,13.625 7.547,14.217 8.266,14.217L8.266,13.717C7.832,13.717 7.473,13.358 7.473,12.904L6.973,12.904ZM8.266,11.59C7.547,11.59 6.973,12.182 6.973,12.904L7.473,12.904C7.473,12.449 7.832,12.09 8.266,12.09L8.266,11.59ZM9.56,12.904C9.56,12.182 8.986,11.59 8.266,11.59L8.266,12.09C8.701,12.09 9.06,12.449 9.06,12.904L9.56,12.904ZM8.266,14.217C8.986,14.217 9.56,13.622 9.56,12.904L9.06,12.904C9.06,13.356 8.701,13.717 8.266,13.717L8.266,14.217Z" style="fill:rgb(162,162,162);fill-rule:nonzero;"/>
            </g>
        </g>
    </g>
</svg>
