<?xml version="1.0" encoding="UTF-8" standalone="no"?>
<!DOCTYPE svg PUBLIC "-//W3C//DTD SVG 1.1//EN" "http://www.w3.org/Graphics/SVG/1.1/DTD/svg11.dtd">
<svg width="100%" height="100%" viewBox="0 0 16 16" version="1.1" xmlns="http://www.w3.org/2000/svg" xmlns:xlink="http://www.w3.org/1999/xlink" xml:space="preserve" xmlns:serif="http://www.serif.com/" style="fill-rule:evenodd;clip-rule:evenodd;stroke-linejoin:round;stroke-miterlimit:2;">
    <g id="grunt">
        <g id="grunt_2">
            <path id="Shape" d="M2.806,3.881C2.806,3.881 3.082,4.935 3.121,5.287C3.16,5.638 2.412,6.419 2.412,6.81C2.412,7.201 2.57,7.904 3.436,8.255C4.302,8.607 4.42,9.505 4.42,10.052C4.42,10.599 4.105,11.653 4.105,11.653C4.105,11.653 3.908,14.271 4.971,14.739C6.034,15.208 5.798,15.208 6.034,15.208C6.27,15.208 8.002,15.911 9.026,15.638C10.049,15.364 10.324,15.052 10.324,15.052C10.324,15.052 11.348,15.13 11.663,14.231C11.978,13.333 12.175,11.458 12.057,10.599C11.938,9.739 11.781,8.607 12.489,8.216C13.198,7.826 13.946,7.357 13.828,6.966C13.71,6.576 13.08,6.029 13.08,6.029C13.08,6.029 12.923,5.052 13.041,4.818C13.159,4.584 13.867,3.998 13.474,3.568C13.08,3.139 12.371,3.139 12.371,3.139L11.466,3.217C11.466,3.217 9.931,1.85 7.923,1.928C5.916,2.006 4.656,3.217 4.656,3.217C4.656,3.217 3.987,2.982 3.396,3.217C2.806,3.451 2.688,3.216 2.806,3.881Z" style="fill:rgb(183,183,183);fill-rule:nonzero;"/>
            <path id="Shape_2" d="M6.41,8.134C6.539,7.826 6.774,7.244 6.774,7.244L6.774,7.244L6.412,7.194C6.412,7.194 6.014,7.315 6.014,7.621C6.014,8.349 5.738,8.636 5.738,8.636C5.738,8.636 6.271,8.469 6.41,8.134ZM6.403,9.696C6.403,9.696 6.403,9.696 6.403,9.696L6.403,9.696L6.403,9.696ZM6.403,9.696C6.397,9.706 5.621,10.882 5.052,11.718C4.963,11.848 5.623,11.857 5.623,11.857L6.403,9.696Z" style="fill:rgb(165,165,165);"/>
            <path id="Shape_3" d="M4.535,1.769C3.985,1.337 3.16,1.497 3.16,1.497C3.575,1.586 3.607,1.774 3.668,2.138C3.685,2.237 3.704,2.348 3.733,2.475C3.871,3.066 4.319,3.272 4.319,3.272L5.246,2.543C5.246,2.543 5.086,2.202 4.535,1.769ZM5.162,7.823C6.055,8.142 6.537,7.573 6.537,7.573L6.537,7.573C6.766,7.186 6.331,6.64 6.101,6.504C5.872,6.367 4.176,5.73 4.176,6.049C4.176,6.367 4.267,7.505 5.162,7.823Z" style="fill:rgb(165,165,165);"/>
            <path id="Shape_4" d="M5.99,2.387L5.99,2.387L5.99,2.387L5.99,2.387ZM5.99,2.387C5.692,2.796 5.832,3.166 5.832,3.166C5.832,3.166 6.324,3.97 6.492,4.483C5.989,4.103 5.168,3.514 5.168,3.514L4.832,3.362C4.832,3.362 4.847,3.332 4.878,3.282L4.551,3.119C4.551,3.119 5.383,2.693 5.99,2.387ZM4.888,5.175C5.355,5.212 5.941,5.43 6.296,5.93C6.331,5.979 6.365,6.032 6.4,6.087C6.48,6.211 6.564,6.342 6.661,6.433C6.883,6.641 7.091,6.734 7.28,6.725C7.117,6.925 6.095,6.851 5.394,5.938C5.018,5.448 3.712,5.393 3.712,5.393C3.712,5.393 4.091,5.114 4.888,5.175ZM2.919,6.705C2.644,7.206 4.092,7.7 4.092,7.7L4.092,7.7C4.697,7.919 4.74,8.648 4.756,9.181C4.806,10.918 4.065,11.297 4.021,11.282C4.016,11.28 4.025,11.229 4.039,11.14C4.113,10.686 4.346,9.247 3.878,8.385C2.712,7.842 2.499,7.559 2.372,7.168C2.166,6.531 2.975,5.932 2.975,5.932C2.975,5.932 3.194,6.205 2.919,6.705ZM5.509,13.927C5.509,13.927 6.141,14.867 8.008,14.867L8.005,15.886C7.087,15.886 5.911,14.937 5.801,14.632L5.509,13.927Z" style="fill:rgb(165,165,165);"/>
            <path id="Shape_5" d="M3.413,6.179C3.298,7.02 2.908,7.157 2.908,7.157C2.901,7.15 2.893,7.142 2.885,7.134C2.783,7.037 2.599,6.861 2.748,6.588C2.839,6.421 2.915,6.326 2.989,6.234C3.045,6.164 3.101,6.095 3.16,5.997C3.298,5.769 3.275,4.609 3.275,4.609C3.275,4.609 3.527,5.337 3.413,6.179ZM4.569,11.721C4.63,11.554 4.844,10.879 4.913,10.265C4.995,9.529 4.965,8.453 4.965,8.453C4.965,8.453 4.782,9.159 4.621,9.273C4.461,9.386 4.163,10.16 4.163,10.16C4.163,10.16 4.003,11.311 3.927,11.698C4.015,11.715 4.096,11.704 4.18,11.693C4.298,11.677 4.42,11.66 4.569,11.721ZM5.714,13.291C5.714,13.291 5.885,14.333 6.573,14.333C7.158,14.333 7.33,13.453 7.33,13.271L5.714,13.291Z" style="fill:rgb(165,165,165);"/>
            <path id="Shape_6" d="M3.457,1.896L3.338,1.646C2.985,1.685 3.457,1.896 3.457,1.896Z" style="fill:rgb(205,205,205);fill-rule:nonzero;"/>
            <path id="Shape_7" d="M6.308,2.137C6.308,2.137 5.941,2.077 5.757,1.804C5.574,1.531 5.054,0.985 4.226,0.979C3.398,0.973 2.578,1.197 2.578,1.197L3.294,1.646C3.369,1.643 3.502,1.644 3.72,1.652C4.618,1.681 5.33,2.669 5.33,2.669L7.92,2.13" style="fill:rgb(183,183,183);fill-rule:nonzero;"/>
            <path id="Shape_8" d="M6.613,7.004C6.613,7.004 6.185,7.428 5.528,7.292C4.871,7.155 4.473,6.867 4.443,6.367C4.412,5.866 4.58,5.669 4.58,5.669C4.58,5.669 5.314,5.897 5.666,6.2C6.017,6.503 6.277,6.988 6.613,7.004L6.613,7.004Z" style="fill:white;fill-rule:nonzero;"/>
            <path id="Shape_9" d="M6.095,6.852C6.095,6.852 5.724,7.02 5.309,6.883C4.766,6.703 4.73,6.143 4.73,6.143C4.73,6.143 4.397,7.113 5.331,7.3C6.08,7.449 6.523,7.019 6.523,7.019L6.095,6.852L6.095,6.852Z" style="fill:rgb(201,201,201);fill-rule:nonzero;"/>
            <path id="Shape_10" d="M7.245,0.409C7.006,0.437 6.319,1.1 6.359,1.932L6.359,1.932C6.362,1.996 6.804,1.976 7.403,1.948C8.052,1.918 8.885,1.88 9.545,1.931C9.373,1.438 9.812,0.686 9.812,0.686C9.812,0.686 9.386,0.592 8.754,1.161C8.672,0.959 8.501,0.522 8.699,0C7.773,0.324 7.539,0.82 7.469,1.269C7.27,1.127 7.256,0.717 7.249,0.505C7.248,0.465 7.247,0.431 7.245,0.409ZM3.538,2.7C3.501,2.872 3.466,3.032 3.669,3.199L4.159,3.04C3.974,2.888 3.955,2.654 3.934,2.406L3.933,2.405C3.917,2.217 3.901,2.023 3.803,1.869C3.595,1.543 3.249,1.353 2.985,1.248C3.233,1.122 3.814,0.93 4.443,1.132C5.203,1.375 5.727,2.262 5.757,2.313C5.758,2.315 5.758,2.315 5.759,2.315L6.214,2.103C6.189,2.063 5.517,1.078 4.609,0.788C3.311,0.372 2.473,1.166 2.446,1.197L2.242,1.434L2.551,1.494C2.551,1.494 2.551,1.494 2.551,1.494C2.57,1.498 3.217,1.632 3.493,2.064C3.543,2.142 3.555,2.283 3.568,2.433L3.568,2.435C3.576,2.528 3.557,2.616 3.538,2.7Z" style="fill:rgb(118,118,118);"/>
            <path id="Path" d="M2.86,6.837C2.86,6.837 3.242,6.368 3.355,5.454C3.399,5.095 3.32,4.385 3.194,4.112C3.217,4.783 3.045,5.454 3.045,5.454C3.045,5.454 2.929,6.701 2.86,6.837Z" style="fill:rgb(36,36,36);fill-rule:nonzero;"/>
            <path id="Shape_11" d="M4.872,2.725L4.872,2.725L4.872,2.725L4.872,2.725ZM4.872,2.725L5.268,2.568C5.261,2.525 5.187,2.134 4.569,1.703C3.954,1.274 3.287,1.483 3.259,1.492L3.344,1.752C3.344,1.752 3.344,1.752 3.344,1.752C3.365,1.745 3.939,1.554 4.411,1.927C4.748,2.193 4.87,2.719 4.872,2.725L4.872,2.725ZM3.894,5.904C3.858,6.216 4.059,6.5 4.059,6.5C4.122,5.782 4.458,5.699 4.458,5.699C4.458,5.699 4.352,5.43 4.113,5.535C3.984,5.591 3.912,5.749 3.894,5.904Z" style="fill:rgb(36,36,36);"/>
            <path id="Shape_12" d="M6.256,6.934C6.264,6.949 6.268,6.958 6.268,6.958C6.268,6.958 5.644,7.423 5.005,6.951C4.662,6.698 4.694,6.073 4.799,5.808C5.072,5.869 5.304,5.98 5.497,6.109C5.253,5.893 5.039,5.733 5.039,5.73L4.761,5.652L4.221,5.468C4.215,5.509 4.018,6.425 4.586,7.049C4.838,7.326 6.019,7.945 6.58,6.886L6.256,6.934L6.256,6.934Z" style="fill:rgb(36,36,36);fill-rule:nonzero;"/>
            <path id="Shape_13" d="M6.197,7.002C6.549,7.533 7.435,7.229 7.42,6.668C7.42,6.668 6.828,6.993 6.304,6.395C5.999,6.047 5.019,5.085 3.691,5.405C4.608,5.605 5.823,6.436 6.197,7.002L6.197,7.002Z" style="fill:rgb(36,36,36);fill-rule:nonzero;"/>
            <path id="Shape_14" d="M3.567,8.5C3.652,8.548 3.95,8.854 3.95,9.313C3.95,9.542 3.927,10.697 3.813,11.402C3.985,11.513 4.105,11.537 4.277,11.65C4.363,10.833 4.424,9.65 4.396,9.172C4.363,8.627 4.069,8.261 3.796,8.106C3.711,8.057 3.622,8.009 3.532,7.961C3.065,7.71 2.582,7.451 2.582,7.009C2.582,6.663 2.718,6.555 2.861,6.441L2.877,6.428C2.972,6.352 3.08,6.265 3.143,6.123C3.318,5.735 3.346,4.745 3.143,4.493C3.042,4.368 2.772,3.947 2.849,3.664C2.879,3.556 2.948,3.476 3.059,3.42C3.177,3.36 3.337,3.329 3.533,3.329C3.919,3.329 4.347,3.446 4.567,3.515C5.356,3.763 6.308,4.478 6.58,4.691C6.588,4.697 6.593,4.701 6.594,4.701L6.768,4.822L6.659,4.641C6.652,4.629 5.961,3.501 4.725,3.088C4.484,3.007 4.012,2.872 3.547,2.872C3.271,2.872 3.036,2.92 2.851,3.014C2.624,3.129 2.471,3.313 2.407,3.545C2.251,4.113 2.759,4.745 2.777,4.766C2.836,4.871 2.861,5.633 2.724,5.938C2.705,5.981 2.654,6.022 2.588,6.074C2.568,6.091 2.545,6.108 2.521,6.126C2.328,6.271 2.035,6.489 2.035,6.993C2.035,7.683 2.74,8.057 3.306,8.357C3.399,8.407 3.487,8.454 3.567,8.5Z" style="fill:rgb(36,36,36);fill-rule:nonzero;"/>
            <path id="Shape_15" d="M3.659,3.25L3.64,3.234C3.415,3.049 3.455,2.867 3.494,2.691C3.511,2.609 3.53,2.525 3.522,2.439C3.51,2.294 3.498,2.157 3.454,2.088C3.189,1.673 2.548,1.539 2.541,1.538L2.156,1.463L2.412,1.167C2.416,1.161 2.955,0.622 3.866,0.622C4.115,0.622 4.37,0.663 4.623,0.744C5.571,1.047 6.246,2.069 6.253,2.079L6.28,2.122L5.742,2.374L5.72,2.34C5.662,2.242 5.152,1.406 4.429,1.175C4.252,1.118 4.065,1.09 3.874,1.09C3.528,1.09 3.248,1.183 3.098,1.246C3.348,1.357 3.65,1.545 3.842,1.845C3.946,2.008 3.963,2.207 3.979,2.4C4,2.64 4.019,2.865 4.188,3.005L4.252,3.057L3.659,3.25L3.659,3.25Z" style="fill:rgb(36,36,36);fill-rule:nonzero;"/>
            <path id="Shape_16" d="M4.872,2.725C4.872,2.724 4.749,2.194 4.411,1.927C3.933,1.549 3.349,1.75 3.344,1.752L3.259,1.492C3.287,1.483 3.954,1.274 4.569,1.703C5.187,2.134 5.261,2.525 5.268,2.568L4.872,2.725L4.872,2.725Z" style="fill:rgb(53,53,53);fill-rule:nonzero;"/>
            <path id="Shape_17" d="M4.827,2.735L4.839,2.787L5.319,2.597L5.313,2.562C5.307,2.517 5.229,2.108 4.595,1.666C4.334,1.484 4.022,1.388 3.692,1.388C3.441,1.388 3.264,1.443 3.245,1.449L3.201,1.463L3.315,1.809L3.359,1.795C3.375,1.789 3.522,1.742 3.72,1.742C3.975,1.742 4.197,1.816 4.382,1.962C4.704,2.217 4.825,2.724 4.827,2.735ZM6.175,13.952C6.271,14.034 6.409,14.083 6.544,14.083C6.683,14.083 6.806,14.034 6.891,13.944C7.127,13.693 7.267,13.424 7.3,13.341C7.32,13.294 7.342,13.204 7.273,13.133C7.219,13.078 7.125,13.05 6.994,13.05L6.793,13.05C6.583,13.05 6.337,13.05 6.192,13.05L6.069,13.051C5.897,13.051 5.812,13.099 5.772,13.14C5.712,13.2 5.703,13.283 5.744,13.386C5.853,13.663 6.102,13.889 6.175,13.952ZM6.686,7.033L6.197,7.002C6.197,7.002 6.322,7.22 6.403,7.503C6.495,7.823 6.32,8.291 6.32,8.291C6.32,8.291 6.972,7.558 6.686,7.033ZM3.723,13.26C3.723,13.6 4.335,15.232 6.076,15.365L6.111,14.915C4.642,14.803 4.18,13.407 4.177,13.26L3.95,13.26L4.177,13.26L3.723,13.26Z" style="fill:rgb(36,36,36);"/>
            <path id="Shape_18" d="M5.587,12.44C5.559,12.284 5.557,12.137 5.59,11.991C5.457,11.893 5.22,11.856 5.042,11.799C4.896,11.707 4.151,11.892 3.61,11.243C2.933,10.43 3.075,9.945 3.075,9.945C2.902,10.136 2.733,10.063 2.469,10.956C2.203,11.849 2.593,12.472 3.319,13.097C3.662,13.392 4.147,13.514 4.564,13.56C4.425,13.421 4.803,13.407 5.064,13.31C5.043,13.101 5.078,12.898 5.235,12.735C5.33,12.637 5.451,12.578 5.578,12.531C5.585,12.515 5.591,12.5 5.598,12.484C5.593,12.47 5.589,12.455 5.587,12.44Z" style="fill:white;fill-rule:nonzero;"/>
            <path id="Shape_19" d="M5.06,13.305C5.045,13.261 5.034,13.216 5.023,13.171C5.011,13.122 4.951,12.983 5.024,13.142C5.005,13.101 4.993,13.059 4.984,13.017C3.808,13.015 2.785,12.214 2.983,10.53C2.829,10.327 2.613,10.939 2.613,10.939C2.613,10.939 2.024,12.635 3.545,13.292C4.051,13.512 4.499,13.669 4.605,13.605C4.825,13.65 5.023,13.498 5.098,13.397C5.084,13.367 5.071,13.336 5.06,13.305Z" style="fill:rgb(201,201,201);fill-rule:nonzero;"/>
            <path id="Shape_20" d="M5.565,12.196C5.567,12.054 5.597,11.916 5.666,11.779C5.671,11.77 5.676,11.761 5.681,11.751C5.229,11.748 4.708,11.705 4.264,11.528C3.776,11.335 3.166,10.672 3.061,9.894C3.061,9.894 2.142,10.598 2.412,12.103C2.666,13.517 3.858,13.978 5.218,14.056C5.219,14.047 5.065,13.732 5.113,13.539C4.341,13.594 3.478,13.298 3.061,12.618C2.68,11.995 2.787,10.932 2.943,10.776C3.326,11.974 4.702,12.217 5.565,12.196Z" style="fill:rgb(36,36,36);fill-rule:nonzero;"/>
            <path id="Shape_21" d="M5.708,11.339C5.463,12.051 4.963,12.628 4.963,12.628C4.963,12.628 5.651,12.597 5.689,12.476C5.717,12.387 6.31,11.011 6.537,9.398C6.323,9.747 5.729,11.278 5.708,11.339Z" style="fill:rgb(36,36,36);fill-rule:nonzero;"/>
            <path id="Shape_22" d="M9.595,8.134C9.467,7.826 9.232,7.244 9.232,7.244L9.232,7.244L9.594,7.194C9.594,7.194 9.992,7.315 9.992,7.621C9.992,8.349 10.268,8.636 10.268,8.636C10.268,8.636 9.735,8.469 9.595,8.134ZM9.603,9.696C9.603,9.696 9.603,9.696 9.603,9.696L9.603,9.696L9.603,9.696ZM9.603,9.696L10.382,11.857C10.382,11.857 11.043,11.848 10.954,11.718C10.384,10.882 9.609,9.706 9.603,9.696Z" style="fill:rgb(165,165,165);"/>
            <path id="Shape_23" d="M11.47,1.769C12.021,1.337 12.846,1.497 12.846,1.497C12.431,1.586 12.399,1.774 12.338,2.138C12.321,2.237 12.302,2.348 12.273,2.475C12.135,3.066 11.687,3.272 11.687,3.272L10.76,2.543C10.76,2.543 10.92,2.202 11.47,1.769ZM10.845,7.823C9.951,8.142 9.469,7.573 9.469,7.573C9.24,7.186 9.675,6.64 9.905,6.504C10.134,6.367 11.83,5.73 11.83,6.049C11.83,6.367 11.739,7.505 10.845,7.823Z" style="fill:rgb(165,165,165);"/>
            <path id="Shape_24" d="M10.016,2.387C10.623,2.693 11.455,3.119 11.455,3.119L11.128,3.282C11.159,3.332 11.174,3.362 11.174,3.362L10.838,3.514C10.838,3.514 10.017,4.103 9.515,4.483C9.682,3.97 10.174,3.166 10.174,3.166C10.174,3.166 10.314,2.796 10.016,2.387ZM11.118,5.175C10.65,5.212 10.065,5.43 9.71,5.93C9.676,5.979 9.641,6.032 9.606,6.087C9.526,6.211 9.442,6.342 9.345,6.433C9.123,6.641 8.915,6.734 8.726,6.725C8.89,6.925 9.911,6.851 10.612,5.938C10.988,5.448 12.294,5.393 12.294,5.393C12.294,5.393 11.915,5.114 11.118,5.175ZM13.087,6.705C13.362,7.206 11.914,7.7 11.914,7.7C11.309,7.919 11.266,8.648 11.25,9.181C11.2,10.918 11.941,11.296 11.985,11.282C11.99,11.28 11.982,11.23 11.967,11.141C11.893,10.687 11.659,9.248 12.128,8.385C13.294,7.842 13.507,7.559 13.634,7.168C13.84,6.531 13.031,5.932 13.031,5.932C13.031,5.932 12.812,6.205 13.087,6.705ZM10.497,13.927C10.497,13.927 9.865,14.867 7.998,14.867L8.001,15.886C8.919,15.886 10.095,14.937 10.205,14.632L10.497,13.927Z" style="fill:rgb(165,165,165);"/>
            <path id="Shape_25" d="M12.594,6.179C12.708,7.02 13.098,7.157 13.098,7.157C13.105,7.15 13.113,7.142 13.122,7.134C13.223,7.037 13.406,6.861 13.259,6.588C13.168,6.421 13.091,6.326 13.018,6.235C12.961,6.164 12.906,6.096 12.846,5.997C12.708,5.769 12.731,4.609 12.731,4.609C12.731,4.609 12.479,5.337 12.594,6.179ZM11.437,11.721C11.376,11.554 11.162,10.879 11.093,10.265C11.011,9.529 11.041,8.453 11.041,8.453C11.041,8.453 11.224,9.159 11.385,9.273C11.545,9.386 11.843,10.16 11.843,10.16C11.843,10.16 12.003,11.311 12.079,11.698C11.991,11.715 11.91,11.704 11.826,11.693C11.708,11.677 11.586,11.66 11.437,11.721ZM10.293,13.291C10.293,13.291 10.121,14.333 9.433,14.333C8.849,14.333 8.676,13.453 8.676,13.271L10.293,13.291Z" style="fill:rgb(165,165,165);"/>
            <path id="Shape_26" d="M12.633,1.896L12.752,1.646C13.104,1.685 12.633,1.896 12.633,1.896Z" style="fill:rgb(177,177,177);fill-rule:nonzero;"/>
            <path id="Shape_27" d="M9.698,2.137C9.698,2.137 10.065,2.077 10.249,1.804C10.432,1.531 10.952,0.985 11.78,0.979C12.608,0.973 13.428,1.197 13.428,1.197L12.712,1.646C12.637,1.643 12.504,1.644 12.285,1.652C11.388,1.681 10.668,2.669 10.668,2.669L8.086,2.13" style="fill:rgb(183,183,183);fill-rule:nonzero;"/>
            <path id="Shape_28" d="M9.393,7.004C9.393,7.004 9.821,7.428 10.478,7.292C11.135,7.155 11.533,6.867 11.563,6.367C11.594,5.866 11.426,5.669 11.426,5.669C11.426,5.669 10.692,5.897 10.34,6.2C9.989,6.503 9.729,6.988 9.393,7.004Z" style="fill:white;fill-rule:nonzero;"/>
            <path id="Shape_29" d="M9.911,6.852C9.911,6.852 10.282,7.02 10.697,6.883C11.24,6.703 11.276,6.143 11.276,6.143C11.276,6.143 11.609,7.113 10.675,7.3C9.926,7.449 9.483,7.019 9.483,7.019L9.911,6.852L9.911,6.852Z" style="fill:rgb(201,201,201);fill-rule:nonzero;"/>
            <path id="Shape_30" d="M12.468,2.7C12.505,2.872 12.54,3.032 12.337,3.199L11.847,3.04C12.032,2.888 12.052,2.653 12.073,2.405L12.073,2.405L12.073,2.405C12.089,2.217 12.105,2.023 12.203,1.869C12.412,1.543 12.757,1.353 13.021,1.248C12.773,1.122 12.193,0.93 11.563,1.132C10.806,1.374 10.283,2.256 10.249,2.313C10.248,2.314 10.248,2.315 10.247,2.316L9.792,2.103C9.817,2.063 10.489,1.078 11.397,0.788C12.695,0.372 13.533,1.166 13.56,1.197L13.764,1.434L13.455,1.494C13.441,1.497 12.79,1.63 12.513,2.064C12.463,2.142 12.451,2.284 12.438,2.435L12.438,2.435C12.43,2.528 12.449,2.616 12.468,2.7ZM12.651,5.455C12.764,6.368 13.145,6.837 13.145,6.837C13.077,6.701 12.961,5.455 12.961,5.455C12.961,5.455 12.789,4.783 12.812,4.112C12.685,4.385 12.607,5.095 12.651,5.455Z" style="fill:rgb(36,36,36);"/>
            <path id="Shape_31" d="M11.595,1.927C11.257,2.194 11.134,2.724 11.134,2.725L10.738,2.568C10.745,2.525 10.819,2.134 11.437,1.703C12.052,1.274 12.719,1.483 12.747,1.492L12.662,1.752C12.662,1.752 12.662,1.752 12.662,1.752C12.645,1.746 12.069,1.553 11.595,1.927ZM12.112,5.904C12.148,6.216 11.948,6.5 11.948,6.5C11.884,5.782 11.548,5.699 11.548,5.699C11.548,5.699 11.654,5.43 11.893,5.535C12.022,5.591 12.094,5.749 12.112,5.904Z" style="fill:rgb(36,36,36);"/>
            <path id="Shape_32" d="M9.75,6.934C9.742,6.949 9.738,6.958 9.738,6.958C9.738,6.958 10.362,7.423 11.001,6.951C11.344,6.698 11.312,6.073 11.206,5.808C10.934,5.869 10.703,5.98 10.509,6.109C10.753,5.893 10.967,5.733 10.967,5.73L11.245,5.652L11.784,5.468C11.791,5.509 11.988,6.425 11.42,7.049C11.168,7.326 9.987,7.945 9.426,6.886L9.75,6.934L9.75,6.934Z" style="fill:rgb(36,36,36);fill-rule:nonzero;"/>
            <path id="Shape_33" d="M9.809,7.002C9.457,7.533 8.571,7.229 8.586,6.668C8.586,6.668 9.178,6.993 9.702,6.395C10.007,6.047 10.987,5.085 12.315,5.405C11.398,5.605 10.184,6.436 9.809,7.002Z" style="fill:rgb(36,36,36);fill-rule:nonzero;"/>
            <path id="Shape_34" d="M12.439,8.5C12.354,8.548 12.056,8.854 12.056,9.313C12.056,9.542 12.079,10.697 12.194,11.402C12.021,11.513 11.901,11.537 11.729,11.65C11.643,10.833 11.582,9.65 11.611,9.172C11.643,8.627 11.937,8.261 12.21,8.106C12.295,8.057 12.384,8.009 12.474,7.961C12.941,7.71 13.424,7.451 13.424,7.009C13.424,6.663 13.288,6.555 13.145,6.441L13.13,6.428C13.034,6.352 12.927,6.265 12.863,6.123C12.689,5.735 12.66,4.745 12.863,4.493C12.964,4.368 13.235,3.947 13.157,3.664C13.127,3.556 13.058,3.476 12.947,3.42C12.829,3.36 12.669,3.329 12.473,3.329C12.087,3.329 11.659,3.446 11.439,3.515C10.65,3.763 9.698,4.478 9.425,4.691C9.418,4.697 9.413,4.701 9.412,4.701L9.238,4.822L9.347,4.641C9.354,4.629 10.045,3.501 11.281,3.088C11.522,3.007 11.994,2.872 12.459,2.872C12.735,2.872 12.969,2.92 13.155,3.014C13.382,3.129 13.535,3.313 13.599,3.545C13.755,4.113 13.246,4.745 13.229,4.766C13.17,4.871 13.145,5.633 13.282,5.938C13.3,5.981 13.352,6.022 13.418,6.074C13.438,6.091 13.461,6.108 13.485,6.126C13.678,6.271 13.97,6.489 13.97,6.993C13.97,7.683 13.266,8.057 12.7,8.357C12.607,8.407 12.519,8.454 12.439,8.5Z" style="fill:rgb(36,36,36);fill-rule:nonzero;"/>
            <path id="Shape_35" d="M11.599,3.118C11.487,2.929 11.2,2.566 10.54,2.247C9.803,1.89 8.95,1.709 8.005,1.709L8.005,1.709L8.001,1.709L8.001,1.709C7.056,1.709 6.203,1.89 5.466,2.246C4.806,2.566 4.519,2.929 4.407,3.118L4.359,3.181L4.925,3.306L4.942,3.283L4.952,3.263C4.961,3.226 5.036,3.025 5.667,2.72C6.341,2.394 7.127,2.229 8.003,2.229C8.879,2.229 9.665,2.394 10.339,2.72C10.969,3.025 11.045,3.226 11.054,3.263L11.063,3.283L11.081,3.306L11.647,3.181L11.599,3.118L11.599,3.118Z" style="fill:rgb(36,36,36);fill-rule:nonzero;"/>
            <path id="Shape_36" d="M12.337,3.199C12.64,2.95 12.414,2.718 12.438,2.435C12.451,2.285 12.463,2.142 12.513,2.064C12.792,1.627 13.449,1.495 13.456,1.494L13.764,1.434L13.56,1.197C13.533,1.166 12.695,0.372 11.397,0.788C10.489,1.078 9.817,2.063 9.792,2.103L10.247,2.316C10.253,2.307 10.784,1.381 11.563,1.132C12.193,0.93 12.773,1.122 13.021,1.248C12.757,1.353 12.412,1.543 12.203,1.869C12.105,2.023 12.089,2.217 12.073,2.405C12.052,2.653 12.032,2.888 11.847,3.04L12.337,3.199Z" style="fill:rgb(53,53,53);fill-rule:nonzero;"/>
            <path id="Shape_37" d="M11.754,3.057L11.818,3.005C11.987,2.865 12.006,2.64 12.027,2.4C12.043,2.207 12.06,2.008 12.164,1.845C12.356,1.545 12.659,1.358 12.908,1.246C12.759,1.183 12.478,1.09 12.132,1.09C11.941,1.09 11.754,1.118 11.577,1.175C10.855,1.406 10.344,2.242 10.286,2.34L10.265,2.374L9.726,2.123L9.754,2.079C9.76,2.069 10.436,1.048 11.383,0.745C11.636,0.663 11.891,0.622 12.14,0.622C13.052,0.622 13.59,1.162 13.595,1.167L13.85,1.463L13.465,1.538C13.458,1.54 12.817,1.673 12.552,2.088C12.508,2.158 12.496,2.294 12.484,2.439C12.477,2.526 12.495,2.61 12.513,2.691C12.551,2.867 12.591,3.049 12.366,3.234L12.347,3.25L11.754,3.057Z" style="fill:rgb(36,36,36);fill-rule:nonzero;"/>
            <path id="Shape_38" d="M11.134,2.725C11.134,2.724 11.257,2.194 11.595,1.927C12.073,1.549 12.657,1.75 12.662,1.752L12.747,1.492C12.719,1.483 12.052,1.274 11.437,1.703C10.819,2.134 10.745,2.525 10.738,2.568L11.134,2.725Z" style="fill:rgb(53,53,53);fill-rule:nonzero;"/>
            <path id="Shape_39" d="M10.688,2.597L10.693,2.562C10.7,2.517 10.777,2.108 11.411,1.666C11.672,1.484 11.984,1.388 12.314,1.388C12.565,1.388 12.742,1.443 12.762,1.449L12.805,1.463L12.691,1.809L12.648,1.795C12.631,1.789 12.484,1.742 12.286,1.742C12.031,1.742 11.809,1.816 11.624,1.962C11.3,2.218 11.18,2.73 11.179,2.735L11.167,2.787L10.688,2.597ZM9.115,13.944C8.879,13.693 8.739,13.424 8.706,13.341C8.686,13.294 8.664,13.204 8.734,13.133C8.788,13.078 8.881,13.05 9.012,13.05L9.213,13.05C9.423,13.05 9.669,13.05 9.815,13.05L9.937,13.051C10.109,13.051 10.194,13.099 10.234,13.14C10.294,13.2 10.303,13.283 10.262,13.386C10.153,13.663 9.905,13.889 9.831,13.952C9.735,14.034 9.597,14.083 9.462,14.083C9.323,14.083 9.2,14.034 9.115,13.944ZM9.809,7.002L9.32,7.033C9.034,7.558 9.686,8.291 9.686,8.291C9.686,8.291 9.511,7.823 9.603,7.503C9.684,7.221 9.809,7.002 9.809,7.002Z" style="fill:rgb(36,36,36);"/>
            <path id="Shape_40" d="M8.003,5.3C7.691,5.3 7.285,5.292 6.98,5.075C6.98,5.075 7.379,5.769 8.003,5.769L8.003,5.681L8.004,5.769C8.627,5.769 9.026,5.075 9.026,5.075C8.721,5.292 8.315,5.3 8.003,5.3Z" style="fill:rgb(165,165,165);fill-rule:nonzero;"/>
            <path id="Shape_41" d="M8.003,5.556C8.269,5.55 8.549,5.485 8.861,5.297C8.861,5.297 8.406,5.848 8.005,5.853L8.005,5.853L8.003,5.853L8.001,5.853L8.001,5.853C7.6,5.848 7.145,5.297 7.145,5.297C7.458,5.485 7.737,5.55 8.003,5.556ZM9.895,14.915L9.93,15.365C11.671,15.232 12.283,13.6 12.283,13.26L11.829,13.26C11.826,13.407 11.364,14.803 9.895,14.915Z" style="fill:rgb(36,36,36);"/>
            <path id="Shape_42" d="M10.419,12.44C10.447,12.284 10.449,12.137 10.416,11.991C10.549,11.893 10.786,11.856 10.964,11.799C11.11,11.707 11.855,11.892 12.396,11.243C13.073,10.43 12.931,9.945 12.931,9.945C13.104,10.136 13.273,10.063 13.538,10.956C13.803,11.849 13.413,12.472 12.687,13.097C12.344,13.392 11.859,13.514 11.442,13.56C11.581,13.421 11.203,13.407 10.942,13.31C10.963,13.101 10.928,12.898 10.771,12.735C10.677,12.637 10.555,12.578 10.428,12.531C10.421,12.515 10.415,12.5 10.409,12.484C10.413,12.47 10.417,12.456 10.419,12.44Z" style="fill:white;fill-rule:nonzero;"/>
            <path id="Shape_43" d="M10.945,13.305C10.961,13.261 10.972,13.216 10.983,13.171C10.995,13.122 11.055,12.983 10.981,13.142C11,13.101 11.013,13.059 11.022,13.017C12.198,13.015 13.221,12.214 13.023,10.53C13.177,10.327 13.393,10.939 13.393,10.939C13.393,10.939 13.982,12.635 12.461,13.292C11.955,13.512 11.507,13.669 11.401,13.605C11.181,13.65 10.982,13.498 10.908,13.397C10.922,13.367 10.935,13.336 10.945,13.305Z" style="fill:rgb(201,201,201);fill-rule:nonzero;"/>
            <path id="Shape_44" d="M10.44,12.196C10.439,12.054 10.409,11.916 10.34,11.779C10.335,11.77 10.33,11.761 10.325,11.751C10.777,11.748 11.298,11.705 11.742,11.528C12.23,11.335 12.84,10.672 12.945,9.894C12.945,9.894 13.864,10.598 13.594,12.103C13.34,13.517 12.148,13.978 10.788,14.056C10.788,14.047 10.941,13.732 10.893,13.539C11.665,13.594 12.528,13.298 12.945,12.618C13.326,11.995 13.219,10.932 13.063,10.776C12.68,11.974 11.304,12.217 10.44,12.196Z" style="fill:rgb(69,69,69);fill-rule:nonzero;"/>
            <path id="Shape_45" d="M9.84,12.169C10.528,12.169 10.827,12.377 10.989,12.551C11.226,12.804 11.263,13.157 11.1,13.598C10.664,14.772 10.053,15.964 8.005,15.966L8.005,15.966L8.003,15.966L8.001,15.966L8.001,15.966C5.953,15.964 5.342,14.772 4.906,13.598C4.743,13.157 4.78,12.804 5.017,12.551C5.179,12.377 5.478,12.169 6.166,12.169L8.001,12.168L8.005,12.168L9.84,12.169ZM8.003,15.534C9.906,15.532 10.463,14.105 10.671,13.516L10.671,13.516C10.786,13.189 10.777,12.947 10.644,12.797C10.553,12.694 10.345,12.571 9.87,12.571L9.373,12.571C9.007,12.571 8.547,12.57 8.003,12.57C7.459,12.57 6.999,12.571 6.633,12.571L6.136,12.571C5.661,12.571 5.453,12.694 5.362,12.797C5.229,12.947 5.22,13.189 5.335,13.516C5.543,14.105 6.1,15.532 8.003,15.534Z" style="fill:rgb(36,36,36);"/>
            <path id="Shape_46" d="M10.298,11.339C10.543,12.051 11.043,12.628 11.043,12.628C11.043,12.628 10.355,12.597 10.317,12.476C10.289,12.387 9.696,11.011 9.469,9.398C9.683,9.747 10.277,11.278 10.298,11.339Z" style="fill:rgb(36,36,36);fill-rule:nonzero;"/>
        </g>
    </g>
</svg>
