<?xml version="1.0" encoding="UTF-8" standalone="no"?>
<!DOCTYPE svg PUBLIC "-//W3C//DTD SVG 1.1//EN" "http://www.w3.org/Graphics/SVG/1.1/DTD/svg11.dtd">
<svg width="100%" height="100%" viewBox="0 0 16 16" version="1.1" xmlns="http://www.w3.org/2000/svg" xmlns:xlink="http://www.w3.org/1999/xlink" xml:space="preserve" xmlns:serif="http://www.serif.com/" style="fill-rule:evenodd;clip-rule:evenodd;stroke-linejoin:round;stroke-miterlimit:2;">
    <g id="gulp">
        <g id="gulp_2">
            <path id="Shape" d="M5.772,10.695C5.598,8.896 5.458,7.401 5.459,7.373C5.46,7.345 5.312,7.322 5.131,7.322L4.8,7.322L4.8,6.034L7.378,6.034L7.378,3.533L8.594,2.783C9.335,2.327 9.88,2.034 9.988,2.034C10.248,2.034 10.551,2.371 10.551,2.66C10.551,2.786 10.514,2.941 10.468,3.004C10.423,3.068 9.999,3.357 9.526,3.648L8.667,4.176L8.649,5.105L8.63,6.034L11.212,6.034L11.212,7.322L10.575,7.322L10.253,10.644L10.019,13.062C9.97,13.575 9.539,13.966 9.024,13.966L6.995,13.966C6.48,13.966 6.049,13.575 5.999,13.062L5.772,10.695Z" style="fill:rgb(139,139,139);fill-rule:nonzero;"/>
        </g>
    </g>
</svg>
