<?xml version="1.0" encoding="UTF-8" standalone="no"?>
<!DOCTYPE svg PUBLIC "-//W3C//DTD SVG 1.1//EN" "http://www.w3.org/Graphics/SVG/1.1/DTD/svg11.dtd">
<svg width="100%" height="100%" viewBox="0 0 16 16" version="1.1" xmlns="http://www.w3.org/2000/svg" xmlns:xlink="http://www.w3.org/1999/xlink" xml:space="preserve" xmlns:serif="http://www.serif.com/" style="fill-rule:evenodd;clip-rule:evenodd;stroke-linejoin:round;stroke-miterlimit:2;">
    <g id="haml">
        <g id="haml_2">
            <path id="Shape" d="M3,2.287C3,2.287 3.678,1.986 4.227,2.001L4.227,2.001C4.306,2.003 4.382,2.011 4.453,2.028L6.424,5.928L9.84,2.881C9.84,2.881 10.99,3.3 11.093,3.702L9.762,4.923C9.758,4.998 9.749,5.066 9.735,5.133C9.715,5.207 9.695,5.269 9.675,5.332L9.675,5.333C9.655,5.395 9.635,5.458 9.625,5.52C9.575,5.771 9.585,6.011 9.685,6.167C9.735,6.251 9.805,6.314 9.904,6.376C9.924,6.385 9.944,6.395 9.965,6.405C9.996,6.421 10.028,6.437 10.064,6.449L10.153,6.481L10.263,6.512C10.542,6.606 10.821,6.742 11.07,6.909C11.329,7.066 11.568,7.264 11.767,7.504C11.867,7.63 11.956,7.765 12.026,7.912C12.096,8.058 12.155,8.225 12.165,8.392C12.175,8.569 12.126,8.747 12.046,8.893C11.966,9.039 11.857,9.154 11.737,9.259C11.638,9.342 11.538,9.405 11.439,9.468L11.438,9.468L11.438,9.478L11.408,9.76L11.408,9.771L11.398,9.781C11.319,10 11.189,10.209 11.01,10.366C10.831,10.523 10.602,10.617 10.372,10.648C10.153,10.679 9.924,10.658 9.715,10.617C9.496,10.564 9.296,10.481 9.107,10.376L9.097,10.376C9.077,10.366 9.067,10.345 9.067,10.324C9.057,10.105 9.107,9.906 9.187,9.718C9.008,9.697 8.838,9.666 8.659,9.624C8.39,9.562 8.121,9.478 7.862,9.374C7.603,9.269 7.344,9.134 7.105,8.956C7.031,8.897 6.957,8.834 6.887,8.765L6.336,12.89C6.336,12.89 5.139,13.35 4.054,12.388L5.243,7.057L3,2.287ZM9.107,5.844C9.107,5.726 9.116,5.608 9.137,5.497L7.071,7.392L6.961,8.213C7.058,8.348 7.191,8.467 7.334,8.58C7.534,8.737 7.763,8.873 8.002,8.987C8.23,9.112 8.478,9.216 8.726,9.32L8.729,9.322C8.819,9.358 8.906,9.392 8.993,9.426C9.08,9.46 9.167,9.494 9.257,9.53C9.297,9.447 9.337,9.374 9.386,9.29C9.399,9.271 9.412,9.252 9.424,9.234C9.479,9.151 9.531,9.073 9.596,8.987C9.616,8.967 9.655,8.956 9.685,8.966L9.705,8.977L9.71,8.978C9.858,9.03 10.005,9.082 10.153,9.123C10.303,9.165 10.452,9.196 10.592,9.186C10.731,9.175 10.871,9.134 10.98,9.04C11.09,8.946 11.189,8.81 11.249,8.653C11.249,8.643 11.259,8.643 11.269,8.643L11.269,8.643C11.314,8.671 11.334,8.715 11.352,8.754C11.354,8.759 11.357,8.763 11.359,8.768C11.379,8.82 11.389,8.862 11.399,8.914C11.419,9.008 11.428,9.102 11.428,9.196C11.468,9.165 11.518,9.123 11.558,9.081C11.648,8.987 11.727,8.883 11.777,8.768C11.827,8.664 11.847,8.538 11.837,8.371C11.817,8.131 11.678,7.891 11.498,7.703C11.319,7.515 11.1,7.348 10.871,7.212C10.641,7.076 10.393,6.972 10.134,6.899L10.034,6.878L9.914,6.846C9.845,6.825 9.765,6.794 9.685,6.752C9.536,6.679 9.386,6.554 9.277,6.387C9.167,6.22 9.117,6.021 9.107,5.844Z" style="fill:rgb(165,165,165);"/>
        </g>
    </g>
</svg>
