<?xml version="1.0" encoding="UTF-8" standalone="no"?>
<!DOCTYPE svg PUBLIC "-//W3C//DTD SVG 1.1//EN" "http://www.w3.org/Graphics/SVG/1.1/DTD/svg11.dtd">
<svg width="100%" height="100%" viewBox="0 0 16 16" version="1.1" xmlns="http://www.w3.org/2000/svg" xmlns:xlink="http://www.w3.org/1999/xlink" xml:space="preserve" xmlns:serif="http://www.serif.com/" style="fill-rule:evenodd;clip-rule:evenodd;stroke-linejoin:round;stroke-miterlimit:2;">
    <g id="haxe">
        <g id="haxe_2">
            <rect id="Rectangle-path" x="4.25" y="4.25" width="7.5" height="7.5" style="fill:rgb(173,173,173);"/>
            <path id="Shape" d="M3,3L3.313,5.5L4.25,8L8,4.25L5.5,3.313L3,3Z" style="fill:rgb(198,198,198);fill-rule:nonzero;"/>
            <path id="Shape_2" d="M3,13L5.5,12.688L8,11.75L4.25,8L3.313,10.5L3,13Z" style="fill:rgb(185,185,185);fill-rule:nonzero;"/>
            <path id="Shape_3" d="M13,13L12.688,10.5L11.75,8L8,11.75L10.5,12.688L13,13Z" style="fill:rgb(152,152,152);fill-rule:nonzero;"/>
            <path id="Shape_4" d="M13,3L10.5,3.313L8,4.25L11.75,8L12.688,5.5L13,3Z" style="fill:rgb(163,163,163);fill-rule:nonzero;"/>
            <path id="Shape_5" d="M3,3L8,4.25L5.5,3L3,3Z" style="fill:rgb(211,211,211);fill-rule:nonzero;"/>
            <path id="Shape_6" d="M3,3L3,5.5L4.25,8L3,3Z" style="fill:rgb(238,238,238);fill-rule:nonzero;"/>
            <path id="Shape_7" d="M3,13L4.25,8L3,10.5L3,13Z" style="fill:rgb(238,238,238);fill-rule:nonzero;"/>
            <path id="Shape_8" d="M3,13L5.5,13L8,11.75L3,13Z" style="fill:rgb(162,162,162);fill-rule:nonzero;"/>
            <path id="Shape_9" d="M13,13L8,11.75L10.5,13L13,13Z" style="fill:rgb(173,173,173);fill-rule:nonzero;"/>
            <path id="Shape_10" d="M13,13L13,10.5L11.75,8L13,13Z" style="fill:rgb(141,141,141);fill-rule:nonzero;"/>
            <path id="Shape_11" d="M13,3L11.75,8L13,5.5L13,3Z" style="fill:rgb(141,141,141);fill-rule:nonzero;"/>
            <path id="Shape_12" d="M13,3L10.5,3L8,4.25L13,3Z" style="fill:rgb(211,211,211);fill-rule:nonzero;"/>
        </g>
    </g>
</svg>
