<?xml version="1.0" encoding="UTF-8" standalone="no"?>
<!DOCTYPE svg PUBLIC "-//W3C//DTD SVG 1.1//EN" "http://www.w3.org/Graphics/SVG/1.1/DTD/svg11.dtd">
<svg width="100%" height="100%" viewBox="0 0 48 48" version="1.1" xmlns="http://www.w3.org/2000/svg" xmlns:xlink="http://www.w3.org/1999/xlink" xml:space="preserve" xmlns:serif="http://www.serif.com/" style="fill-rule:evenodd;clip-rule:evenodd;stroke-linejoin:round;stroke-miterlimit:2;">
    <g id="html">
        <path id="Vector" d="M12.976,36.752L23.094,41.771C23.677,42.034 24.325,42.116 25.125,41.771L35.206,36.753C36.033,36.334 36.522,35.46 36.484,34.548L38.967,11.547C39.219,10.257 37.996,9.053 36.672,9L11.321,9C10.042,9.103 8.802,10.047 9.026,11.623L11.584,34.814C11.75,35.773 12.04,36.218 12.976,36.752ZM18.956,31.468L13.352,25.804C12.218,24.955 12.621,23.598 13.352,22.914L18.994,17.212C20.978,15.455 23.437,18.072 21.74,19.987L17.452,24.397L21.702,28.693C23.465,30.871 20.657,33.133 18.956,31.468ZM35.243,25.766L29.601,31.468C27.677,33.185 25.102,30.658 26.855,28.693L31.106,24.397L26.818,20.063C25.157,18.357 27.454,15.489 29.564,17.288L35.168,22.952C35.977,23.803 35.935,25.064 35.243,25.766Z" style="fill:rgb(165,165,165);fill-rule:nonzero;"/>
    </g>
</svg>
