<?xml version="1.0" encoding="UTF-8" standalone="no"?>
<!DOCTYPE svg PUBLIC "-//W3C//DTD SVG 1.1//EN" "http://www.w3.org/Graphics/SVG/1.1/DTD/svg11.dtd">
<svg width="100%" height="100%" viewBox="0 0 16 16" version="1.1" xmlns="http://www.w3.org/2000/svg" xmlns:xlink="http://www.w3.org/1999/xlink" xml:space="preserve" xmlns:serif="http://www.serif.com/" style="fill-rule:evenodd;clip-rule:evenodd;stroke-linejoin:round;stroke-miterlimit:2;">
    <g id="ionic">
        <g id="Group">
            <g id="Shape">
                <path d="M12.159,4.611C12.159,4.769 12.111,4.916 12.029,5.039C12.639,5.868 13,6.892 13,8C13,10.762 10.761,13 8,13C5.239,13 3,10.762 3,8C3,5.239 5.239,3 8,3C9.108,3 10.132,3.361 10.961,3.971C11.084,3.889 11.231,3.841 11.389,3.841C11.814,3.841 12.159,4.186 12.159,4.611ZM9.797,12.255C10.347,12.022 10.841,11.689 11.265,11.265C11.689,10.841 12.022,10.347 12.255,9.797C12.496,9.228 12.618,8.624 12.618,8C12.618,7.376 12.496,6.772 12.255,6.203C12.118,5.88 11.947,5.576 11.742,5.294C11.637,5.349 11.517,5.38 11.389,5.38C10.965,5.38 10.62,5.035 10.62,4.611C10.62,4.483 10.651,4.363 10.706,4.258C10.424,4.053 10.121,3.882 9.797,3.745C9.228,3.504 8.624,3.382 8,3.382C7.376,3.382 6.772,3.504 6.203,3.745C5.653,3.978 5.159,4.311 4.735,4.735C4.311,5.159 3.978,5.653 3.745,6.203C3.504,6.772 3.382,7.376 3.382,8C3.382,8.624 3.504,9.228 3.745,9.797C3.978,10.347 4.311,10.841 4.735,11.265C5.159,11.689 5.653,12.022 6.203,12.255C6.772,12.496 7.376,12.618 8,12.618C8.624,12.618 9.228,12.496 9.797,12.255Z" style="fill:rgb(163,163,163);"/>
                <path d="M12.029,5.039L11.821,4.899L11.723,5.045L11.827,5.187L12.029,5.039ZM10.961,3.971L10.813,4.173L10.955,4.277L11.101,4.179L10.961,3.971ZM11.265,11.265L11.088,11.088L11.265,11.265ZM9.797,12.255L9.895,12.485L9.895,12.485L9.797,12.255ZM12.255,9.797L12.025,9.7L12.255,9.797ZM12.255,6.203L12.025,6.3L12.025,6.3L12.255,6.203ZM11.742,5.294L11.945,5.147L11.818,4.973L11.627,5.072L11.742,5.294ZM10.706,4.258L10.928,4.373L11.027,4.182L10.853,4.055L10.706,4.258ZM9.797,3.745L9.895,3.515L9.797,3.745ZM6.203,3.745L6.3,3.975L6.203,3.745ZM4.735,4.735L4.558,4.558L4.735,4.735ZM3.745,6.203L3.975,6.3L3.745,6.203ZM3.745,9.797L3.975,9.7L3.975,9.7L3.745,9.797ZM4.735,11.265L4.912,11.088L4.735,11.265ZM6.203,12.255L6.105,12.485L6.105,12.485L6.203,12.255ZM12.236,5.178C12.345,5.016 12.409,4.82 12.409,4.611L11.909,4.611C11.909,4.718 11.876,4.817 11.821,4.899L12.236,5.178ZM13.25,8C13.25,6.836 12.871,5.761 12.23,4.89L11.827,5.187C12.407,5.974 12.75,6.947 12.75,8L13.25,8ZM8,13.25C10.899,13.25 13.25,10.9 13.25,8L12.75,8C12.75,10.623 10.623,12.75 8,12.75L8,13.25ZM2.75,8C2.75,10.9 5.101,13.25 8,13.25L8,12.75C5.377,12.75 3.25,10.623 3.25,8L2.75,8ZM8,2.75C5.101,2.75 2.75,5.101 2.75,8L3.25,8C3.25,5.377 5.377,3.25 8,3.25L8,2.75ZM11.11,3.77C10.239,3.129 9.164,2.75 8,2.75L8,3.25C9.053,3.25 10.026,3.593 10.813,4.173L11.11,3.77ZM11.389,3.591C11.18,3.591 10.984,3.655 10.822,3.764L11.101,4.179C11.183,4.124 11.282,4.091 11.389,4.091L11.389,3.591ZM12.409,4.611C12.409,4.048 11.952,3.591 11.389,3.591L11.389,4.091C11.676,4.091 11.909,4.324 11.909,4.611L12.409,4.611ZM11.088,11.088C10.687,11.49 10.22,11.805 9.7,12.025L9.895,12.485C10.474,12.24 10.995,11.889 11.442,11.442L11.088,11.088ZM12.025,9.7C11.805,10.22 11.49,10.687 11.088,11.088L11.442,11.442C11.889,10.995 12.24,10.474 12.485,9.895L12.025,9.7ZM12.368,8C12.368,8.59 12.252,9.162 12.025,9.7L12.485,9.895C12.739,9.295 12.868,8.657 12.868,8L12.368,8ZM12.025,6.3C12.252,6.838 12.368,7.41 12.368,8L12.868,8C12.868,7.343 12.739,6.705 12.485,6.105L12.025,6.3ZM11.54,5.441C11.733,5.707 11.895,5.994 12.025,6.3L12.485,6.105C12.341,5.765 12.16,5.444 11.945,5.147L11.54,5.441ZM11.389,5.63C11.558,5.63 11.717,5.589 11.857,5.516L11.627,5.072C11.556,5.109 11.475,5.13 11.389,5.13L11.389,5.63ZM10.37,4.611C10.37,5.174 10.827,5.63 11.389,5.63L11.389,5.13C11.103,5.13 10.87,4.897 10.87,4.611L10.37,4.611ZM10.484,4.143C10.411,4.283 10.37,4.442 10.37,4.611L10.87,4.611C10.87,4.525 10.891,4.444 10.928,4.373L10.484,4.143ZM9.7,3.975C10.006,4.105 10.293,4.267 10.559,4.46L10.853,4.055C10.556,3.84 10.235,3.659 9.895,3.515L9.7,3.975ZM8,3.632C8.59,3.632 9.162,3.748 9.7,3.975L9.895,3.515C9.295,3.261 8.657,3.132 8,3.132L8,3.632ZM6.3,3.975C6.838,3.748 7.41,3.632 8,3.632L8,3.132C7.343,3.132 6.705,3.261 6.105,3.515L6.3,3.975ZM4.912,4.912C5.313,4.51 5.78,4.195 6.3,3.975L6.105,3.515C5.526,3.76 5.005,4.111 4.558,4.558L4.912,4.912ZM3.975,6.3C4.195,5.78 4.51,5.313 4.912,4.912L4.558,4.558C4.111,5.005 3.76,5.526 3.515,6.105L3.975,6.3ZM3.632,8C3.632,7.41 3.748,6.838 3.975,6.3L3.515,6.105C3.261,6.705 3.132,7.343 3.132,8L3.632,8ZM3.975,9.7C3.748,9.162 3.632,8.59 3.632,8L3.132,8C3.132,8.657 3.261,9.295 3.515,9.895L3.975,9.7ZM4.912,11.088C4.51,10.687 4.195,10.22 3.975,9.7L3.515,9.895C3.76,10.474 4.111,10.995 4.558,11.442L4.912,11.088ZM6.3,12.025C5.78,11.805 5.313,11.49 4.912,11.088L4.558,11.442C5.005,11.889 5.526,12.24 6.105,12.485L6.3,12.025ZM8,12.368C7.41,12.368 6.838,12.252 6.3,12.025L6.105,12.485C6.705,12.739 7.343,12.868 8,12.868L8,12.368ZM9.7,12.025C9.162,12.252 8.59,12.368 8,12.368L8,12.868C8.657,12.868 9.295,12.739 9.895,12.485L9.7,12.025Z" style="fill:rgb(163,163,163);fill-rule:nonzero;"/>
            </g>
            <path id="Oval" d="M8,10.308C9.275,10.308 10.308,9.275 10.308,8C10.308,6.726 9.275,5.692 8,5.692C6.726,5.692 5.692,6.726 5.692,8C5.692,9.275 6.726,10.308 8,10.308Z" style="fill:rgb(121,121,121);fill-rule:nonzero;"/>
        </g>
    </g>
</svg>
