<?xml version="1.0" encoding="UTF-8" standalone="no"?>
<!DOCTYPE svg PUBLIC "-//W3C//DTD SVG 1.1//EN" "http://www.w3.org/Graphics/SVG/1.1/DTD/svg11.dtd">
<svg width="100%" height="100%" viewBox="0 0 14 14" version="1.1" xmlns="http://www.w3.org/2000/svg" xmlns:xlink="http://www.w3.org/1999/xlink" xml:space="preserve" xmlns:serif="http://www.serif.com/" style="fill-rule:evenodd;clip-rule:evenodd;stroke-linejoin:round;stroke-miterlimit:2;">
    <g id="java">
        <g>
            <path id="Vector" d="M9.749,3.064C8.686,3.385 7.535,3.824 6.904,4.786C6.455,5.487 6.781,6.386 7.308,6.944C7.673,7.303 7.529,7.892 7.155,8.186C6.763,8.528 7.216,8.468 7.443,8.303C7.998,7.96 8.619,7.334 8.381,6.619C8.195,6.079 7.494,5.632 7.742,5.001C8.222,4.134 9.224,3.752 9.978,3.163C10.269,2.97 9.861,3.09 9.749,3.064ZM7.895,0C7.928,0.155 7.962,0.309 7.995,0.464C8.577,2.771 5.678,3.299 4.986,4.935C4.701,5.771 5.361,6.534 5.89,7.105C6.253,7.473 6.622,7.847 7.047,8.153C6.853,7.172 5.761,6.54 5.859,5.485C6.054,4.472 7.116,4.028 7.725,3.297C8.736,2.174 8.961,0.999 7.895,0Z" style="fill:rgb(139,139,139);fill-rule:nonzero;"/>
            <path id="Vector_2" d="M4.999,10.714C4.697,10.794 4.155,10.993 4.302,11.402C4.583,11.846 5.184,11.91 5.658,12.006C6.861,12.175 8.111,11.994 9.208,11.471C8.831,11.353 8.478,11.129 8.13,10.992C7.117,11.199 6.036,11.286 5.028,11.015C5.08,10.895 5.542,10.619 5.156,10.703C5.104,10.706 5.052,10.71 4.999,10.714ZM4.675,9.244C4.373,9.366 3.835,9.51 3.887,9.932C4.073,10.353 4.635,10.392 5.029,10.484C6.529,10.702 8.067,10.51 9.507,10.061C9.189,9.942 8.85,9.83 8.615,9.572C7.339,9.825 5.991,9.952 4.715,9.682C4.536,9.588 4.899,9.411 4.919,9.316C5.28,9.007 4.794,9.27 4.675,9.244ZM2.857,12.348C3.321,12.04 3.893,11.96 4.441,12.035C4.184,11.849 3.949,11.638 3.611,11.685C2.974,11.748 2.292,11.914 1.828,12.381C1.598,12.652 1.924,12.961 2.201,12.993C4.555,13.436 7.009,13.501 9.374,13.088C9.991,12.927 10.729,12.856 11.176,12.358C11.384,12.004 10.894,11.746 10.607,11.724C10.489,11.753 10.818,11.963 10.809,12.118C10.52,12.437 10.008,12.428 9.604,12.53C6.604,12.92 3.64,12.764 2.857,12.348ZM9.283,8.638C9.512,8.514 9.754,8.417 9.944,8.232C9.201,8.188 8.475,8.432 7.737,8.458C6.537,8.532 5.308,8.669 4.119,8.441C3.935,8.398 4.268,8.302 4.316,8.265C4.743,8.075 5.216,8.033 5.627,7.802C5.457,7.763 5.291,7.691 5.113,7.713C4.343,7.756 3.549,7.945 2.906,8.375C2.678,8.591 2.962,8.87 3.197,8.899C4.833,9.351 8.545,9.124 9.283,8.638ZM10.516,7.585C10.125,7.584 9.751,7.77 9.592,8.145C9.409,8.393 9.898,8.032 10.062,8.035C10.583,7.819 11.214,8.386 10.966,8.92C10.709,9.569 10.015,9.88 9.494,10.253C9.06,10.608 9.199,10.624 9.662,10.456C10.5,10.211 11.504,9.819 11.779,8.906C11.977,8.155 11.247,7.516 10.516,7.585ZM3.232,13.321C3.837,13.908 4.74,13.868 5.519,13.961C7.296,14.037 9.122,14.053 10.83,13.518C11.318,13.36 11.94,12.976 11.804,12.369C11.844,12.006 11.661,12.484 11.584,12.547C10.528,13.593 5.825,13.737 3.232,13.321Z" style="fill:rgb(163,163,163);fill-rule:nonzero;"/>
        </g>
    </g>
</svg>
