<?xml version="1.0" encoding="UTF-8" standalone="no"?>
<!DOCTYPE svg PUBLIC "-//W3C//DTD SVG 1.1//EN" "http://www.w3.org/Graphics/SVG/1.1/DTD/svg11.dtd">
<svg width="100%" height="100%" viewBox="0 0 16 16" version="1.1" xmlns="http://www.w3.org/2000/svg" xmlns:xlink="http://www.w3.org/1999/xlink" xml:space="preserve" xmlns:serif="http://www.serif.com/" style="fill-rule:evenodd;clip-rule:evenodd;">
    <g id="jenkins">
        <g id="jenkins_2">
            <g id="Group">
                <g id="Clipped">
                    <g>
                        <g id="Group_2">
                            <g id="Group_3">
                                <path id="Shape" d="M10.286,10.053L9.445,10.18L8.31,10.307L7.574,10.328L6.86,10.307L6.313,10.138L5.83,9.61L5.451,8.533L5.367,8.3L4.863,8.131L4.568,7.645L4.358,6.949L4.589,6.336L5.136,6.146L5.577,6.357L5.788,6.822L6.04,6.78L6.124,6.674L6.04,6.188L6.019,5.576L6.145,4.731L6.14,4.248L6.523,3.633L7.196,3.147L8.373,2.64L9.677,2.83L10.812,3.654L11.337,4.499L11.674,5.111L11.758,6.632L11.506,7.941L11.043,9.103L10.602,9.715" style="fill:rgb(218,218,218);fill-rule:nonzero;"/>
                                <path id="Shape_2" d="M9.572,13.707L6.566,13.834L6.566,14.34L6.818,16.115L6.692,16.262L4.59,15.544L4.442,15.291L4.232,12.904L3.749,11.468L3.644,11.13L5.325,9.969L5.851,9.757L6.313,10.328L6.713,10.687L7.175,10.835L7.386,10.898L7.638,11.996L7.827,12.229L8.311,12.06L7.974,12.714L9.803,13.58L9.572,13.707" style="fill:rgb(76,76,76);fill-rule:nonzero;"/>
                                <path id="Shape_3" d="M4.59,6.336L5.136,6.146L5.578,6.357L5.788,6.822L6.04,6.78L6.103,6.526L5.977,6.04L6.103,4.879L5.998,4.245L6.377,3.802L7.196,3.147L6.965,2.83L5.809,3.4L5.325,3.781L5.052,4.372L4.632,4.942L4.506,5.618L4.59,6.336" style="fill:rgb(108,108,108);fill-rule:nonzero;"/>
                                <path id="Shape_4" d="M5.452,4.351C5.452,4.351 5.767,3.57 7.028,3.19C8.289,2.809 7.091,2.915 7.091,2.915L5.725,3.443L5.199,3.971L4.968,4.393L5.452,4.351" style="fill:rgb(218,218,218);fill-rule:nonzero;"/>
                                <path id="Shape_5" d="M4.821,6.188C4.821,6.188 4.379,4.71 6.061,4.499L5.998,4.245L4.842,4.52L4.506,5.618L4.59,6.336L4.821,6.188" style="fill:rgb(218,218,218);fill-rule:nonzero;"/>
                            </g>
                            <g id="Group_4">
                                <path id="Shape_6" d="M5.494,8.152L5.769,7.884C5.769,7.884 5.893,7.899 5.914,8.047C5.935,8.195 5.998,9.525 6.902,10.243C6.985,10.309 6.229,10.138 6.229,10.138L5.557,9.082" style="fill:rgb(231,231,231);fill-rule:nonzero;"/>
                                <path id="Shape_7" d="M9.362,7.751C9.362,7.751 9.411,7.111 9.582,7.16C9.754,7.209 9.754,7.382 9.754,7.382C9.754,7.382 9.337,7.653 9.362,7.751" style="fill:rgb(231,231,231);fill-rule:nonzero;"/>
                                <path id="Shape_8" d="M11.107,5.407C11.107,5.407 10.76,5.48 10.728,5.787C10.696,6.094 11.107,5.85 11.17,5.829" style="fill:rgb(231,231,231);fill-rule:nonzero;"/>
                                <path id="Shape_9" d="M8.563,5.428C8.563,5.428 8.1,5.491 8.1,5.787C8.1,6.083 8.626,6.062 8.773,5.935" style="fill:rgb(231,231,231);fill-rule:nonzero;"/>
                                <g id="Group_5">
                                    <path id="Shape_10" d="M5.704,6.801C5.704,6.801 4.905,6.315 4.821,6.78C4.737,7.244 4.548,7.582 4.947,8.068L4.674,7.983L4.422,7.329L4.337,6.695L4.821,6.188L5.368,6.23L5.683,6.484L5.704,6.801" style="fill:rgb(231,231,231);fill-rule:nonzero;"/>
                                    <path id="Shape_11" d="M6.082,5.47C6.082,5.47 6.44,3.612 8.248,3.253C9.736,2.957 10.518,3.316 10.812,3.654C10.812,3.654 9.488,2.07 8.226,2.556C6.965,3.041 6.04,3.929 6.061,4.499C6.097,5.47 6.082,5.47 6.082,5.47" style="fill:rgb(231,231,231);fill-rule:nonzero;"/>
                                    <path id="Shape_12" d="M10.96,3.865C10.96,3.865 10.35,3.844 10.329,4.393C10.329,4.393 10.329,4.477 10.371,4.562C10.371,4.562 10.854,4.013 11.149,4.308" style="fill:rgb(231,231,231);fill-rule:nonzero;"/>
                                    <path id="Shape_13" d="M8.29,4.619C8.29,4.619 8.185,3.776 7.47,4.266C7.007,4.583 7.049,5.027 7.133,5.111C7.217,5.196 7.195,5.366 7.259,5.249C7.323,5.132 7.301,4.752 7.533,4.647C7.764,4.541 8.143,4.423 8.29,4.619" style="fill:rgb(231,231,231);fill-rule:nonzero;"/>
                                </g>
                            </g>
                            <g id="Group_6">
                                <path id="Shape_14" d="M6.313,10.328L4.337,11.215C4.337,11.215 5.157,14.488 4.737,15.502L4.443,15.397L4.422,14.15L3.875,11.785L3.644,11.13L5.704,9.737L6.313,10.328" style="fill:rgb(108,108,108);"/>
                                <path id="Shape_15" d="M6.517,12.138L6.797,12.482L6.797,13.749L6.461,13.749C6.461,13.749 6.419,12.862 6.419,12.757C6.419,12.651 6.461,12.271 6.461,12.271" style="fill:rgb(108,108,108);"/>
                            </g>
                            <g id="Group_7">
                                <path id="Shape_16" d="M9.971,13.728L11.148,13.665C11.148,13.665 11.632,12.44 11.632,12.376C11.632,12.313 12.052,10.602 12.052,10.602L11.106,9.61L10.917,9.441L10.413,9.948L10.413,11.912L9.971,13.728" style="fill:rgb(76,76,76);fill-rule:nonzero;"/>
                                <path id="Shape_17" d="M10.518,9.884L11.989,10.982L12.031,10.476L10.917,9.441L10.518,9.884" style="fill:rgb(108,108,108);fill-rule:nonzero;"/>
                            </g>
                            <path id="Shape_18" d="M9.923,13.559L9.461,12.377L8.977,11.68C8.977,11.68 9.082,11.384 9.23,11.384L9.713,11.384L10.176,11.553L10.134,12.334L9.923,13.559" style="fill:white;fill-rule:nonzero;"/>
                            <path id="Shape_19" d="M7.442,10.37L6.86,10.307L6.313,10.138L6.313,10.328L6.581,10.624L7.421,11.004" style="fill:white;fill-rule:nonzero;"/>
                            <path id="Shape_20" d="M6.503,10.434C6.503,10.434 7.154,10.708 7.365,10.645L7.386,10.898L6.797,10.771L6.44,10.518L6.503,10.434" style="fill:rgb(218,218,218);"/>
                            <path id="Shape_21" d="M10.762,11.456C10.405,11.445 10.083,11.403 9.801,11.323C9.82,11.207 9.784,11.093 9.813,11.009C9.891,10.952 10.023,10.953 10.142,10.94C10.039,10.889 9.895,10.869 9.776,10.898C9.773,10.817 9.737,10.767 9.716,10.704C9.916,10.632 10.39,10.161 10.656,10.317C10.783,10.391 10.837,10.815 10.847,11.022C10.855,11.193 10.831,11.365 10.762,11.456" style="fill:rgb(116,116,116);"/>
                            <path id="Shape_22" d="M10.762,11.456C10.405,11.445 10.083,11.403 9.801,11.323C9.82,11.207 9.784,11.093 9.813,11.009C9.891,10.952 10.023,10.953 10.142,10.94C10.039,10.889 9.895,10.869 9.776,10.898C9.773,10.817 9.737,10.767 9.716,10.704C9.916,10.632 10.39,10.161 10.656,10.317C10.783,10.391 10.837,10.815 10.847,11.022C10.855,11.193 10.831,11.365 10.762,11.456L10.762,11.456Z" style="fill:none;stroke:rgb(116,116,116);stroke-width:0.52px;"/>
                            <path id="Shape_23" d="M9.056,10.87C9.055,10.897 9.054,10.925 9.053,10.952C8.941,11.025 8.762,11.025 8.639,11.086C8.82,11.094 8.961,11.138 9.084,11.199C9.081,11.268 9.079,11.336 9.076,11.404C8.872,11.544 8.686,11.754 8.445,11.885C8.332,11.948 7.933,12.108 7.812,12.079C7.743,12.063 7.737,11.978 7.71,11.898C7.652,11.726 7.517,11.452 7.506,11.192C7.491,10.865 7.458,10.317 7.809,10.384C8.092,10.438 8.422,10.569 8.641,10.69C8.775,10.763 8.853,10.854 9.056,10.87" style="fill:rgb(116,116,116);"/>
                            <path id="Shape_24" d="M9.056,10.87C9.055,10.897 9.054,10.925 9.053,10.952C8.941,11.025 8.762,11.025 8.639,11.086C8.82,11.094 8.961,11.138 9.084,11.199C9.081,11.268 9.079,11.336 9.076,11.404C8.872,11.544 8.686,11.754 8.445,11.885C8.332,11.948 7.933,12.108 7.812,12.079C7.743,12.063 7.737,11.978 7.71,11.898C7.652,11.726 7.517,11.452 7.506,11.192C7.491,10.865 7.458,10.317 7.809,10.384C8.092,10.438 8.422,10.569 8.641,10.69C8.775,10.763 8.853,10.854 9.056,10.87L9.056,10.87Z" style="fill:none;stroke:rgb(116,116,116);stroke-width:0.52px;"/>
                            <path id="Shape_25" d="M9.259,11.261C9.227,11.082 9.191,11.031 9.205,10.876C9.679,10.559 9.768,11.42 9.259,11.261" style="fill:rgb(116,116,116);"/>
                            <path id="Shape_26" d="M9.259,11.261C9.227,11.082 9.191,11.031 9.205,10.876C9.679,10.559 9.768,11.42 9.259,11.261Z" style="fill:none;stroke:rgb(116,116,116);stroke-width:0.52px;"/>
                            <g id="Group_8">
                                <path id="Shape_27" d="M9.944,11.405C9.944,11.405 9.797,11.194 9.902,11.13C10.007,11.067 10.112,11.131 10.175,11.025C10.238,10.919 10.175,10.856 10.196,10.729C10.217,10.602 10.323,10.581 10.428,10.56C10.533,10.539 10.827,10.497 10.869,10.602L10.743,10.222L10.491,10.138L9.692,10.602L9.65,10.835L9.65,11.299" style="fill:rgb(131,131,131);fill-rule:nonzero;"/>
                                <path id="Shape_28" d="M7.737,12.102C7.711,11.772 7.685,11.443 7.655,11.114C7.611,10.622 7.773,10.708 8.197,10.708C8.262,10.708 8.596,10.786 8.62,10.835C8.734,11.07 8.428,11.018 8.752,11.195C9.025,11.345 9.508,11.104 9.397,10.772C9.336,10.698 9.075,10.748 8.982,10.7C8.818,10.614 8.654,10.529 8.489,10.443C8.281,10.334 7.798,10.176 7.575,10.328C7.01,10.713 7.61,11.677 7.812,12.079" style="fill:rgb(131,131,131);fill-rule:nonzero;"/>
                                <g id="Group_9">
                                    <path id="Shape_29" d="M8.29,4.619C7.717,4.485 7.432,4.86 7.259,5.249C7.104,5.211 7.165,4.999 7.204,4.891C7.307,4.608 7.72,4.231 8.058,4.282C8.203,4.304 8.4,4.438 8.29,4.619" style="fill:rgb(32,32,32);fill-rule:nonzero;"/>
                                    <path id="Shape_30" d="M11.082,5.275C11.091,5.275 11.1,5.275 11.109,5.276C11.239,5.546 11.351,5.832 11.514,6.071C11.405,6.327 10.685,6.553 10.696,6.093C10.852,6.025 11.12,6.08 11.258,5.992C11.179,5.772 11.064,5.585 11.082,5.274" style="fill:rgb(32,32,32);fill-rule:nonzero;"/>
                                    <path id="Shape_31" d="M8.583,5.282C8.706,5.508 8.746,5.746 8.921,5.917C8.999,5.994 9.152,6.088 9.076,6.302C9.059,6.352 8.929,6.465 8.855,6.487C8.582,6.568 7.945,6.504 8.161,6.162C8.387,6.172 8.69,6.309 8.859,6.144C8.729,5.936 8.498,5.525 8.583,5.282" style="fill:rgb(32,32,32);fill-rule:nonzero;"/>
                                    <path id="Shape_32" d="M10.979,7.581C10.568,7.847 10.11,8.135 9.436,8.068C9.292,7.942 9.237,7.663 9.377,7.478C9.45,7.604 9.404,7.835 9.607,7.87C9.989,7.935 10.434,7.635 10.709,7.53C10.879,7.241 10.694,7.135 10.541,6.949C10.226,6.568 9.804,6.096 9.82,5.526C9.947,5.434 9.958,5.668 9.976,5.71C10.14,6.096 10.553,6.59 10.855,6.92C10.929,7.002 11.051,7.08 11.064,7.133C11.103,7.29 10.963,7.477 10.979,7.581" style="fill:rgb(32,32,32);fill-rule:nonzero;"/>
                                    <path id="Shape_33" d="M5.56,7.302C5.431,7.228 5.401,6.903 5.249,6.893C5.033,6.88 5.072,7.316 5.073,7.57C4.925,7.434 4.898,7.017 5.008,6.802C4.883,6.741 4.827,6.87 4.758,6.915C4.847,6.267 5.702,6.615 5.56,7.302" style="fill:rgb(32,32,32);fill-rule:nonzero;"/>
                                    <path id="Shape_34" d="M11.241,7.851C11.049,8.217 10.778,8.62 10.217,8.632C10.206,8.514 10.197,8.334 10.218,8.263C10.647,8.221 10.912,8.002 11.24,7.851" style="fill:rgb(32,32,32);fill-rule:nonzero;"/>
                                    <path id="Shape_35" d="M8.551,8.088C8.909,8.278 9.567,8.298 10.054,8.284C10.08,8.391 10.079,8.523 10.08,8.654C9.455,8.685 8.715,8.53 8.551,8.088" style="fill:rgb(32,32,32);fill-rule:nonzero;"/>
                                    <path id="Shape_36" d="M8.483,8.441C8.73,9.066 9.582,8.994 10.299,8.977C10.268,9.058 10.199,9.154 10.114,9.188C9.884,9.282 9.25,9.354 8.93,9.183C8.728,9.075 8.598,8.831 8.487,8.687C8.433,8.618 8.166,8.442 8.483,8.441" style="fill:rgb(32,32,32);fill-rule:nonzero;"/>
                                </g>
                                <path id="Shape_37" d="M10.949,11.887C10.659,12.387 10.381,12.9 10.036,13.342C10.18,12.915 10.242,12.2 10.264,11.655C10.567,11.513 10.826,11.687 10.949,11.887" style="fill:rgb(168,168,168);fill-rule:nonzero;"/>
                                <path id="Shape_38" d="M9.908,10.302C9.758,10.4 9.631,10.522 9.487,10.627C9.168,10.643 8.994,10.605 8.76,10.421C8.764,10.406 8.788,10.413 8.788,10.395C9.13,10.547 9.563,10.332 9.908,10.302" style="fill:rgb(218,218,218);fill-rule:nonzero;"/>
                                <path id="Shape_39" d="M8.117,12.638C8.211,12.23 8.578,12.019 8.911,11.794C9.256,12.233 9.465,12.797 9.696,13.342C9.151,13.177 8.594,12.909 8.117,12.638" style="fill:rgb(168,168,168);fill-rule:nonzero;"/>
                                <path id="Shape_40" d="M11.383,13.326C11.893,13.071 12.846,12.64 13.166,13.327C13.284,13.58 13.422,14.007 13.483,14.269C13.57,14.637 13.39,15.412 13.013,15.536C12.68,15.645 12.291,15.638 11.89,15.557C11.843,15.518 11.79,15.449 11.753,15.377C11.467,15.366 11.199,15.393 10.972,15.511C10.993,15.713 10.865,15.754 10.737,15.795C10.73,15.797 10.723,15.8 10.716,15.802C10.664,16.01 10.722,16.253 10.778,16.488C10.829,16.7 10.878,16.907 10.844,17.078C10.797,17.314 10.529,17.368 10.306,17.412C10.285,17.416 10.265,17.42 10.245,17.424C10.238,17.557 10.253,17.67 10.268,17.783C10.269,17.791 10.27,17.799 10.271,17.808C10.218,18.004 9.98,18.116 9.755,18.143C9.013,18.233 7.888,18.273 7.174,18.016C7.017,17.629 6.886,17.176 6.757,16.727C6.722,16.607 6.688,16.487 6.653,16.368C6.082,16.43 5.601,16.187 5.153,15.962C5.055,15.913 4.959,15.865 4.864,15.82C4.813,15.797 4.757,15.776 4.7,15.755C4.554,15.701 4.407,15.647 4.357,15.541C4.312,15.443 4.31,15.285 4.309,15.112C4.308,15.033 4.307,14.95 4.302,14.869C4.3,14.847 4.299,14.826 4.298,14.804C4.257,14.169 4.218,13.555 4.051,12.904C4.005,12.727 3.94,12.562 3.875,12.397C3.829,12.281 3.783,12.164 3.744,12.044C3.716,11.958 3.681,11.866 3.646,11.771C3.571,11.568 3.491,11.355 3.464,11.172C3.421,10.88 3.609,10.79 3.807,10.695C3.88,10.66 3.954,10.625 4.018,10.578C4.282,10.387 4.505,10.257 4.757,10.111C4.858,10.052 4.963,9.991 5.078,9.922C5.105,9.906 5.145,9.883 5.191,9.858C5.344,9.772 5.563,9.651 5.594,9.587C5.653,9.466 5.551,9.309 5.47,9.182C5.44,9.136 5.412,9.094 5.397,9.059C5.304,8.855 5.255,8.681 5.242,8.479C4.906,8.426 4.652,8.225 4.498,7.999C4.244,7.625 4.068,6.932 4.288,6.405C4.295,6.389 4.312,6.366 4.331,6.342C4.361,6.303 4.396,6.257 4.404,6.218C4.419,6.143 4.399,6.054 4.38,5.966C4.367,5.906 4.354,5.846 4.352,5.792C4.329,5.107 4.468,4.517 4.927,4.31C5.083,3.683 5.58,3.408 6.108,3.116C6.208,3.061 6.308,3.005 6.408,2.946C6.617,2.823 6.845,2.739 7.082,2.653C7.111,2.642 7.14,2.631 7.169,2.62C8.128,2.266 9.6,2.333 10.396,2.937C10.733,3.194 11.273,3.735 11.466,4.127C11.975,5.163 11.939,6.892 11.583,8.152L11.579,8.163C11.532,8.332 11.463,8.574 11.368,8.772C11.349,8.814 11.317,8.867 11.282,8.925C11.198,9.066 11.098,9.234 11.116,9.323C11.135,9.42 11.394,9.637 11.563,9.78C11.621,9.829 11.668,9.869 11.693,9.892C11.735,9.933 11.786,9.977 11.84,10.024C12.01,10.17 12.207,10.339 12.227,10.501C12.25,10.682 12.173,10.917 12.108,11.116C12.091,11.167 12.075,11.215 12.062,11.26C11.844,11.994 11.631,12.672 11.383,13.326ZM6.24,10.487C6.219,10.472 6.155,10.397 6.08,10.307C5.947,10.15 5.777,9.948 5.743,9.962C5.043,10.239 4.389,10.718 3.805,11.172C4.362,12.373 4.587,13.845 4.627,15.264C4.78,15.336 4.929,15.416 5.078,15.496C5.552,15.749 6.034,16.007 6.692,16.042L6.677,15.935L6.677,15.935C6.583,15.265 6.498,14.66 6.444,14.022C6.313,13.967 6.148,13.979 5.994,13.991C5.89,13.999 5.791,14.007 5.71,13.994C5.709,13.857 5.804,13.839 5.894,13.821C5.967,13.807 6.036,13.794 6.047,13.72C6.056,13.666 6.025,13.634 5.993,13.599C5.949,13.552 5.902,13.501 5.937,13.387C6.012,13.414 6.07,13.457 6.128,13.499C6.194,13.548 6.26,13.596 6.35,13.622C6.453,13.397 6.419,13.058 6.391,12.772C6.376,12.624 6.363,12.49 6.37,12.392C6.375,12.339 6.397,12.096 6.516,12.138C6.584,12.163 6.563,12.421 6.541,12.675C6.529,12.817 6.518,12.958 6.522,13.055C6.525,13.121 6.524,13.187 6.523,13.251C6.521,13.426 6.519,13.586 6.592,13.7C7.429,13.585 8.28,13.511 9.186,13.486C9.134,13.464 9.08,13.442 9.024,13.419L9.024,13.419C8.862,13.354 8.683,13.281 8.49,13.172C8.454,13.151 8.397,13.125 8.332,13.095L8.332,13.095C8.146,13.008 7.896,12.892 7.866,12.792C7.827,12.663 7.896,12.571 7.967,12.477C8.013,12.416 8.06,12.354 8.076,12.281C7.693,12.491 7.589,12.139 7.499,11.832C7.489,11.8 7.48,11.768 7.471,11.738C7.38,11.447 7.329,11.229 7.306,11.062L7.191,11.006C6.861,10.85 6.52,10.687 6.24,10.487L6.24,10.487ZM8.641,10.69C8.421,10.569 8.092,10.438 7.809,10.384C7.465,10.318 7.489,10.842 7.504,11.171L7.505,11.192C7.514,11.39 7.595,11.596 7.658,11.759C7.678,11.81 7.696,11.857 7.71,11.898C7.715,11.915 7.72,11.933 7.725,11.95L7.725,11.95C7.742,12.012 7.758,12.067 7.811,12.079C7.932,12.108 8.331,11.947 8.445,11.885C8.588,11.807 8.712,11.701 8.832,11.598L8.832,11.598C8.914,11.529 8.993,11.461 9.076,11.404L9.084,11.199C8.961,11.138 8.819,11.094 8.639,11.086C8.695,11.058 8.763,11.043 8.831,11.028L8.831,11.028C8.911,11.01 8.992,10.992 9.052,10.952L9.056,10.87C8.904,10.858 8.823,10.805 8.736,10.748C8.706,10.729 8.675,10.709 8.641,10.69L8.641,10.69ZM9.229,11.121C9.209,11.039 9.196,10.982 9.205,10.876C9.678,10.559 9.767,11.42 9.258,11.261C9.248,11.204 9.238,11.16 9.229,11.121ZM6.546,10.307L6.546,10.307L6.546,10.307L6.546,10.307ZM7.052,10.418C6.858,10.404 6.665,10.39 6.546,10.307C6.364,10.493 7.057,10.746 7.277,10.76C7.276,10.702 7.292,10.646 7.307,10.594C7.323,10.54 7.337,10.49 7.33,10.447C7.243,10.432 7.147,10.425 7.052,10.418ZM8.788,10.395C8.788,10.404 8.781,10.407 8.774,10.41C8.768,10.412 8.762,10.414 8.76,10.421C8.994,10.605 9.168,10.643 9.487,10.627C9.547,10.583 9.605,10.535 9.663,10.488L9.663,10.488C9.742,10.423 9.821,10.358 9.908,10.302C9.797,10.311 9.678,10.34 9.555,10.37C9.295,10.432 9.02,10.499 8.788,10.395L8.788,10.395ZM10.656,10.317C10.782,10.391 10.836,10.815 10.846,11.022L10.846,11.022C10.854,11.193 10.831,11.365 10.761,11.456C10.405,11.445 10.082,11.403 9.8,11.323C9.809,11.269 9.806,11.215 9.803,11.164C9.8,11.107 9.797,11.053 9.812,11.009C9.875,10.963 9.973,10.955 10.07,10.946C10.094,10.944 10.118,10.942 10.142,10.939C10.039,10.889 9.894,10.869 9.776,10.898C9.774,10.841 9.756,10.8 9.737,10.759C9.73,10.741 9.722,10.723 9.715,10.704C9.776,10.682 9.863,10.623 9.961,10.556C10.185,10.403 10.47,10.208 10.656,10.317ZM10.936,11.518C11.164,11.084 11.059,9.739 10.476,10.023C10.515,9.966 10.583,9.914 10.655,9.859C10.735,9.798 10.819,9.733 10.872,9.655C11.014,9.771 11.124,9.882 11.237,9.997C11.319,10.08 11.403,10.165 11.502,10.254C11.533,10.282 11.572,10.312 11.613,10.343L11.613,10.343L11.613,10.343C11.739,10.44 11.887,10.553 11.907,10.694C11.918,10.778 11.878,10.962 11.851,11.091C11.844,11.121 11.838,11.148 11.834,11.169C11.731,11.682 11.499,12.36 11.277,12.898C11.263,12.932 11.25,12.967 11.236,13.002C11.169,13.172 11.102,13.345 11.014,13.38C10.879,13.433 10.732,13.435 10.587,13.436C10.42,13.438 10.256,13.44 10.124,13.523C10.273,13.263 10.428,13.009 10.584,12.755C10.774,12.445 10.963,12.134 11.142,11.813C11.12,11.76 11.082,11.721 11.045,11.681C11,11.635 10.955,11.588 10.936,11.518ZM4.907,4.829C4.638,5.126 4.683,5.674 4.717,6.08L4.721,6.121C5.223,5.804 5.889,6.146 5.883,6.686C6.075,6.681 6.017,6.491 5.964,6.318C5.95,6.275 5.938,6.233 5.929,6.195C5.863,5.906 5.911,5.604 5.958,5.308C6.011,4.97 6.064,4.638 5.946,4.337C5.516,4.369 5.163,4.546 4.907,4.829L4.907,4.829ZM5.201,4.253C5.459,3.685 6.265,3.226 6.894,3.047L6.894,3.047C6.929,3.037 6.959,3.061 6.988,3.092C6.985,3.167 6.929,3.185 6.873,3.202C6.855,3.208 6.836,3.214 6.819,3.222C6.767,3.287 6.702,3.334 6.634,3.384C6.569,3.431 6.501,3.481 6.439,3.549C6.393,3.6 6.345,3.682 6.295,3.768C6.204,3.924 6.105,4.092 5.995,4.12C5.944,4.133 5.889,4.125 5.837,4.117C5.801,4.113 5.767,4.108 5.737,4.11C5.631,4.116 5.542,4.149 5.451,4.182L5.451,4.182L5.451,4.182C5.373,4.211 5.293,4.239 5.201,4.253ZM10.167,3.216C9.515,2.846 8.41,2.567 7.716,2.915C7.155,3.196 6.398,3.66 6.14,4.248C6.297,4.617 6.22,4.965 6.141,5.322C6.099,5.515 6.056,5.711 6.049,5.913C6.043,6.073 6.083,6.223 6.123,6.377C6.16,6.518 6.199,6.662 6.204,6.821C6.122,6.958 5.87,6.975 5.695,6.966C5.636,6.67 5.533,6.338 5.231,6.305C4.802,6.258 4.489,6.614 4.47,6.986C4.447,7.424 4.804,8.149 5.311,8.099C5.404,8.09 5.463,8.041 5.523,7.992C5.589,7.938 5.656,7.883 5.769,7.884C5.84,8.027 5.756,8.109 5.674,8.19C5.622,8.241 5.572,8.291 5.56,8.355C5.552,8.398 5.584,8.565 5.603,8.644C5.695,9.026 5.9,9.521 6.102,9.812C6.359,10.181 6.863,10.236 7.405,10.273C7.502,10.063 7.858,10.08 8.091,10.135C7.812,10.024 7.553,9.756 7.339,9.518C7.092,9.245 6.842,8.952 6.83,8.596L6.875,8.658C7.321,9.281 7.708,9.821 8.527,10.097C9.168,10.313 9.917,9.998 10.409,9.651C10.571,9.537 10.681,9.369 10.793,9.2L10.793,9.2C10.822,9.155 10.851,9.111 10.881,9.068C11.424,8.282 11.678,7.162 11.622,6.075C11.619,6.016 11.616,5.957 11.614,5.898C11.597,5.511 11.58,5.141 11.45,4.879C11.294,4.564 10.765,4.282 10.455,4.567C10.398,4.26 10.713,4.071 11.083,4.181C11.047,4.135 11.011,4.087 10.974,4.038L10.974,4.038C10.742,3.731 10.491,3.399 10.167,3.216L10.167,3.216Z" style="fill:rgb(32,32,32);"/>
                                <path id="Shape_41" d="M7.981,8.248C8.009,8.211 8.161,8.155 8.374,8.258C8.374,8.258 8.121,8.3 8.142,8.723L8.037,8.702C8.037,8.702 7.929,8.318 7.981,8.248" style="fill:rgb(231,231,231);fill-rule:nonzero;"/>
                                <path id="Shape_42" d="M9.824,11.88C9.824,11.944 9.773,11.996 9.709,11.996C9.645,11.996 9.593,11.944 9.593,11.88C9.593,11.815 9.645,11.763 9.709,11.763C9.773,11.763 9.824,11.815 9.824,11.88" style="fill:rgb(26,26,26);fill-rule:nonzero;"/>
                                <path id="Shape_43" d="M9.94,12.418C9.94,12.483 9.888,12.535 9.824,12.535C9.761,12.535 9.709,12.483 9.709,12.418C9.709,12.354 9.761,12.301 9.824,12.301C9.888,12.301 9.94,12.354 9.94,12.418" style="fill:rgb(26,26,26);fill-rule:nonzero;"/>
                            </g>
                        </g>
                    </g>
                </g>
            </g>
        </g>
    </g>
</svg>
