<?xml version="1.0" encoding="UTF-8" standalone="no"?>
<!DOCTYPE svg PUBLIC "-//W3C//DTD SVG 1.1//EN" "http://www.w3.org/Graphics/SVG/1.1/DTD/svg11.dtd">
<svg width="100%" height="100%" viewBox="0 0 16 16" version="1.1" xmlns="http://www.w3.org/2000/svg" xmlns:xlink="http://www.w3.org/1999/xlink" xml:space="preserve" xmlns:serif="http://www.serif.com/" style="fill-rule:evenodd;clip-rule:evenodd;stroke-linejoin:round;stroke-miterlimit:2;">
    <g id="jest">
        <g id="jest_2">
            <path id="Shape" d="M10.12,5.474L9.445,6.842C9.667,7.048 9.823,7.319 9.885,7.627L10.394,7.627C10.453,7.336 10.597,7.074 10.802,6.871L10.12,5.474Z" style="fill:rgb(139,139,139);fill-rule:nonzero;"/>
            <path id="Shape_2" d="M8.877,6.511L10.12,3.991L11.36,6.527C11.409,6.511 11.458,6.498 11.507,6.485L12.685,3L7.552,3L8.727,6.475C8.776,6.485 8.828,6.498 8.877,6.511Z" style="fill:rgb(139,139,139);fill-rule:nonzero;"/>
            <path id="Shape_3" d="M8.449,8.74C8.903,8.74 9.272,8.37 9.272,7.915C9.272,7.748 9.223,7.594 9.138,7.463C9.112,7.421 9.079,7.382 9.047,7.346L9.043,7.342C9.011,7.306 8.971,7.274 8.932,7.247L8.929,7.244C8.919,7.238 8.906,7.228 8.893,7.221C8.89,7.221 8.89,7.218 8.887,7.218C8.874,7.211 8.861,7.202 8.847,7.195L8.844,7.195C8.831,7.188 8.815,7.179 8.802,7.172L8.799,7.172C8.785,7.166 8.772,7.159 8.759,7.156C8.756,7.156 8.753,7.152 8.75,7.152C8.74,7.149 8.727,7.143 8.717,7.139C8.714,7.139 8.71,7.136 8.704,7.136C8.691,7.133 8.678,7.126 8.665,7.123L8.662,7.123C8.645,7.12 8.632,7.117 8.616,7.113C8.613,7.113 8.609,7.113 8.603,7.11C8.59,7.107 8.58,7.107 8.567,7.103C8.56,7.103 8.557,7.103 8.551,7.1C8.541,7.1 8.528,7.097 8.518,7.097L8.391,7.097C8.378,7.097 8.368,7.1 8.355,7.1L8.342,7.1C8.329,7.103 8.316,7.103 8.303,7.107L8.293,7.107C8.276,7.11 8.263,7.113 8.247,7.117C7.888,7.205 7.621,7.532 7.621,7.918C7.627,8.367 7.996,8.74 8.449,8.74Z" style="fill:rgb(139,139,139);fill-rule:nonzero;"/>
            <path id="Shape_4" d="M11.908,7.09L11.902,7.09C11.889,7.09 11.879,7.087 11.866,7.087L11.823,7.087C11.807,7.087 11.791,7.087 11.771,7.09L11.755,7.09C11.742,7.09 11.729,7.094 11.716,7.094C11.712,7.094 11.706,7.094 11.703,7.097L11.654,7.107L11.65,7.107C11.634,7.11 11.621,7.113 11.605,7.116C11.602,7.116 11.595,7.12 11.592,7.12C11.579,7.123 11.566,7.126 11.553,7.133C11.549,7.133 11.546,7.136 11.543,7.136C11.526,7.143 11.51,7.149 11.497,7.156C11.481,7.162 11.468,7.169 11.451,7.175C11.448,7.175 11.445,7.179 11.442,7.179C11.429,7.185 11.416,7.192 11.402,7.202C11.402,7.202 11.399,7.202 11.399,7.205C11.37,7.221 11.341,7.241 11.314,7.264L11.311,7.267C11.269,7.3 11.233,7.336 11.197,7.375C11.161,7.414 11.132,7.46 11.105,7.506C11.037,7.627 10.998,7.768 10.998,7.915C10.998,8.37 11.367,8.74 11.82,8.74C12.274,8.74 12.642,8.37 12.642,7.915C12.642,7.516 12.355,7.179 11.98,7.103C11.96,7.097 11.934,7.094 11.908,7.09Z" style="fill:rgb(139,139,139);fill-rule:nonzero;"/>
            <path id="Shape_5" d="M5.04,8.74C5.493,8.74 5.862,8.37 5.862,7.915C5.862,7.46 5.493,7.09 5.04,7.09C4.586,7.09 4.217,7.46 4.217,7.915C4.217,8.37 4.586,8.74 5.04,8.74Z" style="fill:rgb(139,139,139);fill-rule:nonzero;"/>
            <path id="Shape_6" d="M11.827,9.378C11.148,9.378 10.577,8.91 10.414,8.281L9.866,8.281C9.702,8.91 9.131,9.378 8.453,9.378C8.374,9.378 8.299,9.371 8.228,9.361C8.038,9.653 7.813,9.921 7.549,10.17C7.082,10.611 6.554,10.939 5.983,11.145L5.849,11.194L5.725,11.128C5.04,10.775 4.687,10.058 4.811,9.365C4.733,9.351 4.658,9.332 4.586,9.306C4.573,9.329 4.563,9.355 4.55,9.381C4.341,9.813 4.123,10.258 4.044,10.736C3.959,11.246 3.924,12.179 4.641,12.676C4.955,12.892 5.284,13 5.653,13C6.361,13 7.125,12.62 7.934,12.218C8.567,11.904 9.219,11.577 9.898,11.41C10.156,11.348 10.417,11.308 10.668,11.272C11.128,11.207 11.566,11.141 11.921,10.935C12.3,10.716 12.558,10.35 12.629,9.931C12.675,9.675 12.649,9.417 12.564,9.178C12.349,9.302 12.098,9.378 11.827,9.378Z" style="fill:rgb(139,139,139);fill-rule:nonzero;"/>
        </g>
    </g>
</svg>
