<?xml version="1.0" encoding="UTF-8" standalone="no"?>
<!DOCTYPE svg PUBLIC "-//W3C//DTD SVG 1.1//EN" "http://www.w3.org/Graphics/SVG/1.1/DTD/svg11.dtd">
<svg width="100%" height="100%" viewBox="0 0 16 16" version="1.1" xmlns="http://www.w3.org/2000/svg" xmlns:xlink="http://www.w3.org/1999/xlink" xml:space="preserve" xmlns:serif="http://www.serif.com/" style="fill-rule:evenodd;clip-rule:evenodd;stroke-linejoin:round;stroke-miterlimit:2;">
    <g id="js">
        <path id="Vector" d="M11.051,10.531C11.599,11.263 10.135,11.796 9.545,10.737L8.743,11.202L8.793,11.283C9.095,11.792 9.566,12.09 10.204,12.176C11.6,12.342 12.512,11.452 12.017,10.188C11.665,9.465 10.744,9.328 10.207,8.972C9.891,8.788 9.957,8.398 10.211,8.242C10.408,8.12 10.861,8.105 11.095,8.589L11.862,8.095C11.257,7.004 9.826,7.224 9.397,7.719C8.814,8.404 8.981,9.169 9.494,9.66C9.893,10.042 10.52,10.172 11.051,10.531ZM7.427,12.075C7.869,11.896 8.128,11.527 8.196,10.977C8.202,10.922 8.206,7.372 8.206,7.372L7.234,7.372L7.227,10.883C7.204,11.11 7.068,11.273 6.87,11.305C6.531,11.36 6.305,11.261 6.07,10.82L5.278,11.299C5.617,12.097 6.64,12.39 7.427,12.075ZM3.876,3L12.124,3C12.609,3 13,3.391 13,3.876L13,12.124C13,12.609 12.609,13 12.124,13L3.876,13C3.391,13 3,12.609 3,12.124L3,3.876C3,3.391 3.391,3 3.876,3Z" style="fill:rgb(183,183,183);fill-rule:nonzero;"/>
    </g>
</svg>
