<?xml version="1.0" encoding="UTF-8" standalone="no"?>
<!DOCTYPE svg PUBLIC "-//W3C//DTD SVG 1.1//EN" "http://www.w3.org/Graphics/SVG/1.1/DTD/svg11.dtd">
<svg width="100%" height="100%" viewBox="0 0 16 16" version="1.1" xmlns="http://www.w3.org/2000/svg" xmlns:xlink="http://www.w3.org/1999/xlink" xml:space="preserve" xmlns:serif="http://www.serif.com/" style="fill-rule:evenodd;clip-rule:evenodd;stroke-linejoin:round;stroke-miterlimit:2;">
    <g id="js_map">
        <g id="javascript-map">
            <path id="Shape" d="M11.483,5.501L11.483,6.694L11.675,6.694C12.227,6.694 12.675,7.141 12.675,7.694L12.675,11.657C12.675,12.209 12.227,12.657 11.675,12.657L7.712,12.657C7.16,12.657 6.712,12.209 6.712,11.657L6.712,11.464L5.52,11.464L5.52,12.849C5.52,13.401 5.968,13.849 6.52,13.849L12.868,13.849C13.42,13.849 13.868,13.401 13.868,12.849L13.868,6.501C13.868,5.949 13.42,5.501 12.868,5.501L11.483,5.501Z" style="fill:rgb(139,139,139);fill-rule:nonzero;"/>
            <path id="Vector" d="M9.246,8.777C9.74,9.437 8.422,9.916 7.891,8.963L7.169,9.382L7.213,9.455C7.485,9.913 7.91,10.181 8.484,10.258C9.74,10.408 10.561,9.607 10.115,8.469C9.799,7.818 8.97,7.695 8.486,7.375C8.202,7.209 8.261,6.858 8.49,6.718C8.667,6.608 9.075,6.594 9.285,7.03L9.976,6.585C9.431,5.604 8.144,5.801 7.758,6.247C7.233,6.864 7.383,7.552 7.845,7.994C8.204,8.338 8.768,8.455 9.246,8.777ZM5.984,10.167C6.382,10.007 6.615,9.674 6.677,9.179C6.682,9.129 6.686,5.935 6.686,5.935L5.81,5.935L5.804,9.095C5.784,9.299 5.661,9.446 5.483,9.475C5.178,9.524 4.974,9.435 4.763,9.038L4.05,9.469C4.355,10.187 5.276,10.451 5.984,10.167ZM2.789,2L10.211,2C10.648,2 11,2.352 11,2.789L11,10.211C11,10.648 10.648,11 10.211,11L2.789,11C2.352,11 2,10.648 2,10.211L2,2.789C2,2.352 2.352,2 2.789,2Z" style="fill:rgb(183,183,183);fill-rule:nonzero;"/>
        </g>
    </g>
</svg>
