<?xml version="1.0" encoding="UTF-8" standalone="no"?>
<!DOCTYPE svg PUBLIC "-//W3C//DTD SVG 1.1//EN" "http://www.w3.org/Graphics/SVG/1.1/DTD/svg11.dtd">
<svg width="100%" height="100%" viewBox="0 0 16 16" version="1.1" xmlns="http://www.w3.org/2000/svg" xmlns:xlink="http://www.w3.org/1999/xlink" xml:space="preserve" xmlns:serif="http://www.serif.com/" style="fill-rule:evenodd;clip-rule:evenodd;stroke-linejoin:round;stroke-miterlimit:2;">
    <g id="json">
        <path id="path4" d="M5.5,3.5L4.5,3.5C3.948,3.5 3.5,3.948 3.5,4.5L3.5,6.5C3.5,7.052 3.052,7.5 2.5,7.5L2,7.5L2,8.5L2.5,8.5C3.052,8.5 3.5,8.948 3.5,9.5L3.5,11.5C3.5,12.05 3.965,12.365 4.5,12.5L5.5,12.5L5.5,11.5L4.5,11.5L4.5,9C4.5,8.448 4.052,8 3.5,8C4.052,8 4.5,7.552 4.5,7L4.5,4.5L5.5,4.5L5.5,3.5ZM12.5,4.5C12.5,3.948 12.052,3.5 11.5,3.5L10.5,3.5L10.5,4.5L11.5,4.5L11.5,7C11.5,7.552 11.948,8 12.5,8C11.948,8 11.5,8.448 11.5,9L11.5,11.5L10.5,11.5L10.5,12.5L11.5,12.5C12.052,12.5 12.5,12.052 12.5,11.5L12.5,9.5C12.5,8.948 12.948,8.5 13.5,8.5L14,8.5L14,7.5L13.5,7.5C12.948,7.5 12.5,7.052 12.5,6.5L12.5,4.5Z" style="fill:rgb(163,163,163);"/>
        <path id="Union" d="M6,7.5C6.276,7.5 6.5,7.724 6.5,8C6.5,8.276 6.276,8.5 6,8.5C5.724,8.5 5.5,8.276 5.5,8C5.5,7.724 5.724,7.5 6,7.5ZM8,7.5C8.276,7.5 8.5,7.724 8.5,8C8.5,8.276 8.276,8.5 8,8.5C7.724,8.5 7.5,8.276 7.5,8C7.5,7.724 7.724,7.5 8,7.5ZM10.5,8C10.5,7.724 10.276,7.5 10,7.5C9.724,7.5 9.5,7.724 9.5,8C9.5,8.276 9.724,8.5 10,8.5C10.276,8.5 10.5,8.276 10.5,8Z" style="fill:rgb(183,183,183);"/>
    </g>
</svg>
