<?xml version="1.0" encoding="UTF-8" standalone="no"?>
<!DOCTYPE svg PUBLIC "-//W3C//DTD SVG 1.1//EN" "http://www.w3.org/Graphics/SVG/1.1/DTD/svg11.dtd">
<svg width="100%" height="100%" viewBox="0 0 16 16" version="1.1" xmlns="http://www.w3.org/2000/svg" xmlns:xlink="http://www.w3.org/1999/xlink" xml:space="preserve" xmlns:serif="http://www.serif.com/" style="fill-rule:evenodd;clip-rule:evenodd;stroke-linejoin:round;stroke-miterlimit:2;">
    <g id="julia">
        <g id="Group">
            <path id="Oval-2-Copy" serif:id="Oval 2 Copy" d="M11.25,12.5C12.493,12.5 13.5,11.493 13.5,10.25C13.5,9.007 12.493,8 11.25,8C10.007,8 9,9.007 9,10.25C9,11.493 10.007,12.5 11.25,12.5Z" style="fill:rgb(145,145,145);"/>
            <path id="Oval-2" serif:id="Oval 2" d="M5.25,12.5C6.493,12.5 7.5,11.493 7.5,10.25C7.5,9.007 6.493,8 5.25,8C4.007,8 3,9.007 3,10.25C3,11.493 4.007,12.5 5.25,12.5Z" style="fill:rgb(139,139,139);"/>
            <path id="Oval-2-Copy-2" serif:id="Oval 2 Copy 2" d="M8.25,8C9.493,8 10.5,6.993 10.5,5.75C10.5,4.507 9.493,3.5 8.25,3.5C7.007,3.5 6,4.507 6,5.75C6,6.993 7.007,8 8.25,8Z" style="fill:rgb(162,162,162);"/>
        </g>
    </g>
</svg>
