<?xml version="1.0" encoding="UTF-8" standalone="no"?>
<!DOCTYPE svg PUBLIC "-//W3C//DTD SVG 1.1//EN" "http://www.w3.org/Graphics/SVG/1.1/DTD/svg11.dtd">
<svg width="100%" height="100%" viewBox="0 0 16 16" version="1.1" xmlns="http://www.w3.org/2000/svg" xmlns:xlink="http://www.w3.org/1999/xlink" xml:space="preserve" xmlns:serif="http://www.serif.com/" style="fill-rule:evenodd;clip-rule:evenodd;stroke-linejoin:round;stroke-miterlimit:2;">
    <path d="M8,12.32C7.03,12.319 6.089,11.992 5.328,11.391C4.566,10.79 4.029,9.95 3.803,9.007C4.154,9.47 4.739,9.865 5.485,10.143C6.231,10.421 7.106,10.569 8,10.569C8.896,10.569 9.772,10.419 10.519,10.14C11.266,9.861 11.85,9.464 12.198,8.999C11.974,9.944 11.437,10.785 10.676,11.388C9.914,11.991 8.971,12.319 8,12.32L8,12.32ZM3.802,7C4.026,6.055 4.563,5.213 5.324,4.61C6.086,4.008 7.029,3.679 8,3.678C8.97,3.679 9.911,4.007 10.672,4.608C11.434,5.209 11.971,6.048 12.197,6.991C11.846,6.528 11.261,6.133 10.515,5.855C9.769,5.577 8.894,5.429 8,5.429C7.104,5.43 6.228,5.579 5.481,5.858C4.734,6.138 4.15,6.535 3.802,7L3.802,7Z" style="fill:rgb(165,165,165);fill-rule:nonzero;"/>
    <path d="M4.46,2.423C4.96,2.423 5.365,2.828 5.365,3.328C5.365,3.828 4.96,4.233 4.46,4.233C3.96,4.233 3.555,3.828 3.555,3.328C3.555,2.828 3.96,2.423 4.46,2.423Z" style="fill:rgb(150,150,150);fill-rule:nonzero;"/>
    <path d="M3.852,11.391C4.219,11.391 4.517,11.689 4.517,12.056C4.517,12.423 4.219,12.721 3.852,12.721C3.485,12.721 3.187,12.423 3.187,12.056C3.187,11.689 3.485,11.391 3.852,11.391Z" style="fill:rgb(116,116,116);fill-rule:nonzero;"/>
    <path d="M11.672,11.815C12.141,11.815 12.521,12.195 12.521,12.664C12.521,13.133 12.141,13.512 11.672,13.512C11.203,13.512 10.823,13.133 10.823,12.664C10.823,12.195 11.203,11.815 11.672,11.815Z" style="fill:rgb(116,116,116);fill-rule:nonzero;"/>
</svg>
