<?xml version="1.0" encoding="UTF-8" standalone="no"?>
<!DOCTYPE svg PUBLIC "-//W3C//DTD SVG 1.1//EN" "http://www.w3.org/Graphics/SVG/1.1/DTD/svg11.dtd">
<svg width="100%" height="100%" viewBox="0 0 16 16" version="1.1" xmlns="http://www.w3.org/2000/svg" xmlns:xlink="http://www.w3.org/1999/xlink" xml:space="preserve" xmlns:serif="http://www.serif.com/" style="fill-rule:evenodd;clip-rule:evenodd;stroke-linejoin:round;stroke-miterlimit:2;">
    <g id="less">
        <path id="Shape" d="M6.068,6.767C5.289,6.767 4.542,7.411 4.563,8.424C4.563,9.469 5.257,10.082 6.175,10.082C6.559,10.082 6.986,9.944 7.317,9.723L6.997,9.163C6.762,9.3 6.538,9.364 6.303,9.364C5.876,9.364 5.545,9.163 5.46,8.678L7.392,8.678C7.402,8.604 7.424,8.456 7.424,8.287C7.434,7.432 6.965,6.767 6.068,6.767ZM9.078,8.098C9.123,8.115 9.169,8.132 9.217,8.15C9.633,8.287 10.092,8.53 10.092,9.11C10.092,9.691 9.633,10.134 8.779,10.134C8.374,10.134 7.883,9.955 7.562,9.691L7.979,9.079C8.267,9.3 8.534,9.406 8.801,9.406C9.089,9.406 9.217,9.3 9.217,9.142C9.217,8.946 8.94,8.841 8.635,8.725L8.566,8.699C8.181,8.551 7.723,8.287 7.723,7.77C7.723,7.189 8.213,6.777 8.939,6.777C9.43,6.777 9.793,6.988 10.06,7.189L9.633,7.749C9.398,7.58 9.185,7.485 8.95,7.485C8.715,7.485 8.587,7.58 8.587,7.738C8.587,7.919 8.807,7.999 9.078,8.098ZM11.656,8.095L11.656,8.095C11.703,8.112 11.751,8.13 11.8,8.15C12.216,8.287 12.675,8.53 12.675,9.11C12.675,9.691 12.216,10.134 11.362,10.134C10.957,10.134 10.466,9.955 10.145,9.691L10.572,9.079C10.86,9.3 11.127,9.406 11.394,9.406C11.682,9.406 11.81,9.3 11.81,9.142C11.81,8.946 11.533,8.841 11.228,8.725L11.159,8.699C10.775,8.551 10.316,8.287 10.316,7.77C10.316,7.189 10.807,6.777 11.533,6.777C12.024,6.777 12.387,6.988 12.653,7.189L12.227,7.749C11.992,7.58 11.778,7.485 11.544,7.485C11.309,7.485 11.181,7.58 11.181,7.738C11.181,7.917 11.395,7.997 11.656,8.095ZM6.079,7.474C5.78,7.474 5.524,7.675 5.46,8.097L6.612,8.097C6.612,7.738 6.463,7.474 6.079,7.474Z" style="fill:rgb(159,159,159);"/>
        <path id="Path" d="M3.391,5.5L2.823,5.5C2.247,5.5 1.991,5.722 1.991,6.408C1.991,6.862 2.055,7.115 2.055,7.506C2.055,7.727 1.916,7.96 1.5,7.981L1.5,8.53C1.916,8.54 2.055,8.773 2.055,8.994C2.055,9.385 1.991,9.617 1.991,10.071C1.991,10.757 2.247,10.979 2.813,10.979L3.229,10.979L3.229,10.493L3.101,10.493C2.834,10.493 2.749,10.388 2.749,10.039C2.749,9.691 2.781,9.395 2.781,9.005C2.781,8.519 2.621,8.329 2.3,8.255L2.3,8.224C2.621,8.15 2.781,7.96 2.781,7.474C2.781,7.094 2.749,6.788 2.749,6.44C2.749,6.091 2.823,5.996 3.101,5.996L3.391,5.996L3.391,5.5Z" style="fill:rgb(163,163,163);"/>
        <path id="Path_2" d="M13.945,7.506C13.945,7.094 14.009,6.851 14.009,6.408C14.009,5.722 13.753,5.5 13.187,5.5L12.771,5.5L12.771,5.986L12.899,5.986C13.187,5.986 13.251,6.081 13.251,6.429C13.251,6.756 13.219,7.083 13.219,7.464C13.219,7.949 13.379,8.139 13.7,8.213L13.7,8.245C13.379,8.319 13.219,8.509 13.219,8.994C13.219,9.374 13.251,9.68 13.251,10.029C13.251,10.388 13.177,10.483 12.899,10.483L12.899,10.493L12.771,10.493L12.771,11L13.187,11C13.753,11 14.009,10.778 14.009,10.092C14.009,9.638 13.945,9.406 13.945,8.994C13.945,8.773 14.084,8.54 14.5,8.519L14.5,7.97C14.084,7.96 13.945,7.727 13.945,7.506Z" style="fill:rgb(163,163,163);"/>
        <path id="Path_3" d="M4.339,9.079L4.339,5.5L3.389,5.5L3.389,9.026C3.389,9.67 3.613,10.092 4.264,10.092C4.467,10.092 4.627,10.061 4.745,10.018L4.638,9.332C4.574,9.343 4.339,9.279 4.339,9.079Z" style="fill:rgb(159,159,159);"/>
    </g>
</svg>
