<?xml version="1.0" encoding="UTF-8" standalone="no"?>
<!DOCTYPE svg PUBLIC "-//W3C//DTD SVG 1.1//EN" "http://www.w3.org/Graphics/SVG/1.1/DTD/svg11.dtd">
<svg width="100%" height="100%" viewBox="0 0 16 16" version="1.1" xmlns="http://www.w3.org/2000/svg" xmlns:xlink="http://www.w3.org/1999/xlink" xml:space="preserve" xmlns:serif="http://www.serif.com/" style="fill-rule:evenodd;clip-rule:evenodd;stroke-linejoin:round;stroke-miterlimit:2;">
    <g id="license">
        <g id="Group">
            <path id="Â-" serif:id="Â©" d="M7.996,14C4.656,14 2,11.344 2,8.004C2,4.656 4.648,2 7.996,2C11.352,2 14,4.656 14,8.004C14,11.344 11.344,14 7.996,14ZM7.996,12.737C10.66,12.737 12.752,10.644 12.752,8.004C12.752,5.348 10.66,3.263 7.996,3.263C5.341,3.263 3.248,5.356 3.248,8.004C3.248,10.644 5.341,12.737 7.996,12.737Z" style="fill:rgb(163,163,163);"/>
            <path id="Path" d="M11,7.194L9.461,7.194C9.338,6.604 8.823,6.241 8.135,6.241C7.21,6.241 6.645,6.899 6.645,7.989C6.645,9.101 7.21,9.759 8.135,9.759C8.855,9.759 9.338,9.426 9.461,8.851L11,8.851C10.845,10.183 9.748,11 8.127,11C6.195,11 5,9.842 5,7.989C5,6.158 6.203,5 8.119,5C9.707,5 10.845,5.863 11,7.194Z" style="fill:rgb(183,183,183);"/>
        </g>
    </g>
</svg>
