<?xml version="1.0" encoding="UTF-8" standalone="no"?>
<!DOCTYPE svg PUBLIC "-//W3C//DTD SVG 1.1//EN" "http://www.w3.org/Graphics/SVG/1.1/DTD/svg11.dtd">
<svg width="100%" height="100%" viewBox="0 0 16 16" version="1.1" xmlns="http://www.w3.org/2000/svg" xmlns:xlink="http://www.w3.org/1999/xlink" xml:space="preserve" xmlns:serif="http://www.serif.com/" style="fill-rule:evenodd;clip-rule:evenodd;stroke-linejoin:round;stroke-miterlimit:2;">
    <g id="liquid">
        <g id="drop">
            <path id="Shape" d="M7.645,2.647C7.833,2.458 8.167,2.458 8.355,2.647C8.524,2.818 12.5,6.855 12.5,9.5C12.5,12.317 10.212,14 8,14C5.788,14 3.5,12.317 3.5,9.5C3.5,6.855 7.476,2.818 7.645,2.647ZM8,11.5C8.276,11.5 8.5,11.276 8.5,11C8.5,10.724 8.276,10.5 8,10.5C7.99,10.5 7,10.473 7,9.5C7,9.224 6.776,9 6.5,9C6.224,9 6,9.224 6,9.5C6,10.957 7.227,11.5 8,11.5Z" style="fill:rgb(163,163,163);"/>
        </g>
    </g>
</svg>
