<?xml version="1.0" encoding="UTF-8" standalone="no"?>
<!DOCTYPE svg PUBLIC "-//W3C//DTD SVG 1.1//EN" "http://www.w3.org/Graphics/SVG/1.1/DTD/svg11.dtd">
<svg width="100%" height="100%" viewBox="0 0 16 16" version="1.1" xmlns="http://www.w3.org/2000/svg" xmlns:xlink="http://www.w3.org/1999/xlink" xml:space="preserve" xmlns:serif="http://www.serif.com/" style="fill-rule:evenodd;clip-rule:evenodd;">
    <g id="lua">
        <g id="lua_2">
            <path id="Oval" d="M8.261,13.646C11.235,13.646 13.646,11.235 13.646,8.261C13.646,5.287 11.235,2.876 8.261,2.876C5.286,2.876 2.875,5.287 2.875,8.261C2.875,11.235 5.286,13.646 8.261,13.646Z" style="fill:none;stroke:rgb(157,157,157);stroke-width:1.04px;"/>
            <path id="Shape" d="M8.327,4.945C6.459,4.945 4.945,6.435 4.945,8.274C4.945,10.113 6.459,11.603 8.327,11.603C9.224,11.603 10.085,11.253 10.719,10.628C11.354,10.004 11.71,9.157 11.71,8.274C11.71,7.391 11.354,6.544 10.719,5.92C10.085,5.295 9.224,4.945 8.327,4.945ZM9.297,5.944C9.619,5.944 9.929,6.07 10.157,6.295C10.385,6.519 10.513,6.823 10.513,7.141C10.512,7.801 9.968,8.336 9.297,8.336C8.626,8.336 8.083,7.801 8.082,7.141C8.082,6.48 8.626,5.945 9.297,5.944Z" style="fill:rgb(102,102,102);"/>
            <path id="Oval_2" d="M12.136,5.551C12.807,5.551 13.351,5.015 13.351,4.355C13.351,3.694 12.807,3.159 12.136,3.159C11.465,3.159 10.921,3.694 10.921,4.355C10.921,5.015 11.465,5.551 12.136,5.551Z" style="fill:rgb(102,102,102);"/>
        </g>
    </g>
</svg>
