<?xml version="1.0" encoding="UTF-8" standalone="no"?>
<!DOCTYPE svg PUBLIC "-//W3C//DTD SVG 1.1//EN" "http://www.w3.org/Graphics/SVG/1.1/DTD/svg11.dtd">
<svg width="100%" height="100%" viewBox="0 0 16 16" version="1.1" xmlns="http://www.w3.org/2000/svg" xmlns:xlink="http://www.w3.org/1999/xlink" xml:space="preserve" xmlns:serif="http://www.serif.com/" style="fill-rule:evenodd;clip-rule:evenodd;stroke-linejoin:round;stroke-miterlimit:2;">
    <g id="markup">
        <g id="code-editor">
            <path id="Shape" d="M4.818,3L3,3C2.749,3 2.545,3.204 2.545,3.455L2.545,12.546C2.545,12.796 2.749,13 3,13L4.818,13L4.818,3Z" style="fill:rgb(139,139,139);fill-rule:nonzero;"/>
            <path id="Shape_2" d="M5.727,3L5.727,13L13,13C13.251,13 13.455,12.796 13.455,12.546L13.455,3.455C13.455,3.204 13.251,3 13,3L5.727,3ZM7.545,4.818L8.909,4.818L8.909,5.727L7.545,5.727L7.545,4.818ZM7.545,11.182L8.909,11.182L8.909,10.273L7.545,10.273L7.545,11.182ZM10.273,9.364L8.455,9.364L8.455,8.455L10.273,8.455L10.273,9.364ZM8.909,7.545L11.636,7.545L11.636,6.636L8.909,6.636L8.909,7.545Z" style="fill:rgb(159,159,159);"/>
        </g>
    </g>
</svg>
