<?xml version="1.0" encoding="UTF-8" standalone="no"?>
<!DOCTYPE svg PUBLIC "-//W3C//DTD SVG 1.1//EN" "http://www.w3.org/Graphics/SVG/1.1/DTD/svg11.dtd">
<svg width="100%" height="100%" viewBox="0 0 16 16" version="1.1" xmlns="http://www.w3.org/2000/svg" xmlns:xlink="http://www.w3.org/1999/xlink" xml:space="preserve" xmlns:serif="http://www.serif.com/" style="fill-rule:evenodd;clip-rule:evenodd;stroke-linejoin:round;stroke-miterlimit:2;">
    <g id="markdown">
        <path id="Shape" d="M8.87,10.709L7.13,10.709L7.13,8.001L5.814,9.733L4.499,8.001L4.499,10.709L2.759,10.709L2.759,5.293L4.499,5.293L5.814,7.105L7.13,5.293L8.87,5.293L8.87,10.709ZM11.481,11.147L9.316,8L10.631,8L10.631,5.292L12.371,5.292L12.371,8L13.687,8L11.483,11.147L11.481,11.147ZM13.995,3.5L2.005,3.5C1.734,3.5 1.499,3.603 1.3,3.808C1.1,4.014 1,4.256 1,4.535L1,11.465C1,11.757 1.1,12.003 1.3,12.202C1.499,12.401 1.734,12.5 2.005,12.5L13.995,12.5C14.266,12.5 14.501,12.401 14.701,12.202C14.9,12.003 15,11.757 15,11.465L15,4.535C15,4.256 14.9,4.014 14.701,3.808C14.501,3.603 14.266,3.5 13.995,3.5Z" style="fill:rgb(165,165,165);"/>
    </g>
</svg>
