<?xml version="1.0" encoding="UTF-8" standalone="no"?>
<!DOCTYPE svg PUBLIC "-//W3C//DTD SVG 1.1//EN" "http://www.w3.org/Graphics/SVG/1.1/DTD/svg11.dtd">
<svg width="100%" height="100%" viewBox="0 0 16 16" version="1.1" xmlns="http://www.w3.org/2000/svg" xmlns:xlink="http://www.w3.org/1999/xlink" xml:space="preserve" xmlns:serif="http://www.serif.com/" style="fill-rule:evenodd;clip-rule:evenodd;stroke-linejoin:round;stroke-miterlimit:2;">
    <g id="mjml">
        <path id="Shape" d="M3.48,2.647L8.89,2.647C9.646,2.647 10.26,3.257 10.26,4.008C10.26,4.76 9.646,5.37 8.89,5.37L3.48,5.37C2.725,5.37 2.111,4.76 2.111,4.008C2.111,3.257 2.725,2.647 3.48,2.647Z" style="fill:rgb(183,183,183);fill-rule:nonzero;"/>
        <path id="Oval" d="M12.422,5.37C13.194,5.37 13.819,4.761 13.819,4.008C13.819,3.256 13.194,2.647 12.422,2.647C11.65,2.647 11.024,3.256 11.024,4.008C11.024,4.761 11.65,5.37 12.422,5.37Z" style="fill:rgb(183,183,183);fill-rule:nonzero;"/>
        <path id="Shape_2" d="M6.889,6.713L12.422,6.713C13.177,6.657 13.829,7.23 13.885,7.981C13.942,8.733 13.366,9.381 12.611,9.437L7.078,9.437C6.322,9.493 5.671,8.92 5.614,8.169C5.557,7.418 6.133,6.77 6.889,6.713Z" style="fill:rgb(183,183,183);fill-rule:nonzero;"/>
        <path id="Shape_3" d="M3.508,6.685C4.283,6.685 4.906,7.305 4.906,8.075C4.906,8.845 4.283,9.465 3.508,9.465C2.734,9.456 2.111,8.836 2.111,8.075C2.111,7.305 2.734,6.685 3.508,6.685Z" style="fill:rgb(139,139,139);fill-rule:nonzero;"/>
        <path id="Shape_4" d="M3.48,10.63L8.89,10.63C9.646,10.63 10.26,11.24 10.26,11.992C10.26,12.743 9.646,13.354 8.89,13.354L3.48,13.354C2.725,13.354 2.111,12.743 2.111,11.992C2.111,11.24 2.725,10.63 3.48,10.63Z" style="fill:rgb(183,183,183);fill-rule:nonzero;"/>
        <path id="Oval_2" d="M12.422,13.354C13.194,13.354 13.819,12.744 13.819,11.992C13.819,11.24 13.194,10.63 12.422,10.63C11.65,10.63 11.024,11.24 11.024,11.992C11.024,12.744 11.65,13.354 12.422,13.354Z" style="fill:rgb(183,183,183);fill-rule:nonzero;"/>
    </g>
</svg>
