<?xml version="1.0" encoding="UTF-8" standalone="no"?>
<!DOCTYPE svg PUBLIC "-//W3C//DTD SVG 1.1//EN" "http://www.w3.org/Graphics/SVG/1.1/DTD/svg11.dtd">
<svg width="100%" height="100%" viewBox="0 0 16 16" version="1.1" xmlns="http://www.w3.org/2000/svg" xmlns:xlink="http://www.w3.org/1999/xlink" xml:space="preserve" xmlns:serif="http://www.serif.com/" style="fill-rule:evenodd;clip-rule:evenodd;stroke-linejoin:round;stroke-miterlimit:2;">
    <g id="movie">
        <path id="Shape" d="M3,5.5L13,5.5C13.276,5.5 13.5,5.723 13.5,6L13.5,13C13.5,13.277 13.276,13.5 13,13.5L3,13.5C2.724,13.5 2.5,13.277 2.5,13L2.5,6C2.5,5.723 2.724,5.5 3,5.5ZM10,9.5L6.5,7.5L6.5,11.5L10,9.5Z" style="fill:rgb(139,139,139);"/>
        <path id="Rectangle-path" d="M2.11,4.14C2.055,3.87 2.229,3.606 2.5,3.55L12.152,1.581C12.422,1.526 12.686,1.701 12.741,1.971C12.797,2.242 12.622,2.506 12.351,2.561L2.7,4.53C2.429,4.585 2.165,4.411 2.11,4.14Z" style="fill:rgb(183,183,183);fill-rule:nonzero;"/>
    </g>
</svg>
