<?xml version="1.0" encoding="UTF-8" standalone="no"?>
<!DOCTYPE svg PUBLIC "-//W3C//DTD SVG 1.1//EN" "http://www.w3.org/Graphics/SVG/1.1/DTD/svg11.dtd">
<svg width="100%" height="100%" viewBox="0 0 16 16" version="1.1" xmlns="http://www.w3.org/2000/svg" xmlns:xlink="http://www.w3.org/1999/xlink" xml:space="preserve" xmlns:serif="http://www.serif.com/" style="fill-rule:evenodd;clip-rule:evenodd;stroke-linejoin:round;stroke-miterlimit:2;">
    <g id="mxml">
        <g id="code-editor">
            <path id="Shape" d="M4.5,2.5L2.5,2.5C2.224,2.5 2,2.724 2,3L2,13C2,13.276 2.224,13.5 2.5,13.5L4.5,13.5L4.5,2.5Z" style="fill:rgb(121,121,121);fill-rule:nonzero;"/>
            <path id="Shape_2" d="M5.5,2.5L5.5,13.5L13.5,13.5C13.776,13.5 14,13.276 14,13L14,3C14,2.724 13.776,2.5 13.5,2.5L5.5,2.5ZM7.5,4.5L9,4.5L9,5.5L7.5,5.5L7.5,4.5ZM7.5,11.5L9,11.5L9,10.5L7.5,10.5L7.5,11.5ZM10.5,9.5L8.5,9.5L8.5,8.5L10.5,8.5L10.5,9.5ZM9,7.5L12,7.5L12,6.5L9,6.5L9,7.5Z" style="fill:rgb(177,177,177);"/>
        </g>
    </g>
</svg>
