<?xml version="1.0" encoding="UTF-8" standalone="no"?>
<!DOCTYPE svg PUBLIC "-//W3C//DTD SVG 1.1//EN" "http://www.w3.org/Graphics/SVG/1.1/DTD/svg11.dtd">
<svg width="100%" height="100%" viewBox="0 0 16 16" version="1.1" xmlns="http://www.w3.org/2000/svg" xmlns:xlink="http://www.w3.org/1999/xlink" xml:space="preserve" xmlns:serif="http://www.serif.com/" style="fill-rule:evenodd;clip-rule:evenodd;stroke-linejoin:round;stroke-miterlimit:2;">
    <g id="node">
        <g id="Group">
            <path id="Fill-1" serif:id="Fill 1" d="M8,2C7.897,2 7.794,2.026 7.702,2.079L2.743,4.899C2.557,5.004 2.444,5.208 2.444,5.42L2.444,11.08C2.444,11.291 2.557,11.485 2.743,11.591L7.702,14.421C7.887,14.527 8.113,14.527 8.298,14.421L13.257,11.591C13.443,11.485 13.556,11.291 13.556,11.08L13.556,5.42C13.556,5.208 13.443,5.004 13.257,4.899L8.298,2.079C8.206,2.026 8.103,2 8,2" style="fill:rgb(222,222,222);"/>
            <g>
                <path id="Rectangle" d="M7.492,0.938L13.973,12.164L8.403,15.38L1.922,4.154L7.492,0.938Z" style="fill:rgb(179,179,179);"/>
            </g>
        </g>
    </g>
</svg>
