<?xml version="1.0" encoding="UTF-8" standalone="no"?>
<!DOCTYPE svg PUBLIC "-//W3C//DTD SVG 1.1//EN" "http://www.w3.org/Graphics/SVG/1.1/DTD/svg11.dtd">
<svg width="100%" height="100%" viewBox="0 0 16 16" version="1.1" xmlns="http://www.w3.org/2000/svg" xmlns:xlink="http://www.w3.org/1999/xlink" xml:space="preserve" xmlns:serif="http://www.serif.com/" style="fill-rule:evenodd;clip-rule:evenodd;stroke-linejoin:round;stroke-miterlimit:2;">
    <g id="ocaml">
        <path id="Vector" d="M2,7.241L2,4.283C2,3.448 2.677,2.771 3.512,2.771L12.488,2.771C13.323,2.771 14,3.448 14,4.283L14,13.227L9.02,13.227C9.02,13.227 8.689,12.359 8.626,11.933C8.609,11.823 8.642,11.713 8.607,11.609C8.579,11.52 8.513,11.511 8.471,11.438C8.359,11.246 8.241,10.998 8.232,10.763C8.223,10.552 8.145,10.36 8.134,10.152C8.129,10.051 8.141,9.945 8.136,9.847C8.134,9.798 8.129,9.685 8.105,9.615L8.131,9.549C8.12,9.526 8.356,9.535 8.427,9.535C8.546,9.538 8.659,9.542 8.778,9.549C9.022,9.561 9.242,9.559 9.479,9.521C10.006,9.439 10.25,9.223 10.374,9.134C10.859,8.785 11.08,8.213 11.08,8.213C11.159,8.035 11.159,7.716 11.331,7.573C11.532,7.405 11.872,7.416 12.104,7.313C12.24,7.252 12.338,7.22 12.477,7.25C12.58,7.271 12.765,7.391 12.807,7.224C12.772,7.203 12.76,7.161 12.741,7.14C12.934,7.121 12.746,6.678 12.669,6.589C12.552,6.453 12.357,6.39 12.151,6.336C11.905,6.27 11.682,6.195 11.45,6.24C11.044,6.32 11.075,6.088 10.836,6.088C10.55,6.088 10.041,6.102 9.952,6.38C9.913,6.509 9.868,6.516 9.798,6.615C9.737,6.699 9.809,6.777 9.777,6.873C9.746,6.973 9.699,7.325 9.65,7.449C9.568,7.658 9.472,7.918 9.291,7.918C9.041,7.948 8.841,7.958 8.638,7.883C8.516,7.838 8.309,7.768 8.206,7.726C7.735,7.529 7.658,7.311 7.658,7.311C7.606,7.227 7.109,6.191 7.037,6.013C6.943,5.78 6.812,5.609 6.718,5.523C6.573,5.391 6.437,5.19 6.139,5.248C6.085,5.258 5.893,5.267 5.745,5.391C5.645,5.476 5.614,5.649 5.52,5.797C5.466,5.881 5.373,6.125 5.286,6.327C5.225,6.467 5.197,6.573 5.134,6.624C5.082,6.664 4.958,6.765 4.796,6.601C4.735,6.538 4.585,6.275 4.475,6.085C4.154,5.527 4.027,5.277 3.659,5.274C3.191,5.272 3.155,5.537 2.949,5.919C2.949,5.916 2.743,6.695 2,7.241ZM2,10.665L2,13.227L4.325,13.227C4.325,13.227 4.513,12.502 4.555,12.355C4.59,12.242 4.634,12.151 4.653,12.036C4.67,11.926 4.651,11.82 4.641,11.722C4.618,11.471 4.824,11.382 4.923,11.166C5.012,10.972 5.063,10.752 5.136,10.552C5.206,10.363 5.316,10.093 5.506,9.997C5.483,9.971 5.113,9.959 5.014,9.948C4.709,9.915 4.276,9.823 4.079,9.777C3.959,9.748 3.561,9.605 3.474,9.566C3.27,9.472 3.137,9.219 2.977,9.245C2.877,9.261 2.778,9.296 2.715,9.397C2.663,9.481 2.647,9.624 2.609,9.72C2.567,9.833 2.497,9.936 2.434,10.041C2.323,10.236 2.073,10.447 2,10.665ZM8.466,12.835C8.422,12.741 8.366,12.559 8.328,12.477C8.293,12.402 8.185,12.205 8.131,12.141C8.014,12.003 7.986,11.994 7.951,11.82C7.89,11.518 7.733,10.97 7.545,10.592C7.449,10.398 7.287,10.234 7.14,10.093C7.011,9.969 6.723,9.76 6.671,9.77C6.198,9.863 6.052,10.327 5.83,10.695C5.705,10.899 5.577,11.07 5.478,11.288C5.389,11.488 5.396,11.708 5.244,11.879C5.087,12.055 4.984,12.24 4.906,12.467C4.892,12.509 4.759,13.227 4.759,13.227L8.619,13.227L8.612,13.21C8.56,13.063 8.492,12.891 8.466,12.835Z" style="fill:rgb(183,183,183);fill-rule:nonzero;"/>
    </g>
</svg>
