<?xml version="1.0" encoding="UTF-8" standalone="no"?>
<!DOCTYPE svg PUBLIC "-//W3C//DTD SVG 1.1//EN" "http://www.w3.org/Graphics/SVG/1.1/DTD/svg11.dtd">
<svg width="100%" height="100%" viewBox="0 0 16 16" version="1.1" xmlns="http://www.w3.org/2000/svg" xmlns:xlink="http://www.w3.org/1999/xlink" xml:space="preserve" xmlns:serif="http://www.serif.com/" style="fill-rule:evenodd;clip-rule:evenodd;stroke-linejoin:round;stroke-miterlimit:2;">
    <g id="package-lock">
        <g id="Group">
            <path id="Subtract" d="M3.745,4.745C3.745,4.193 4.193,3.745 4.745,3.745L9.73,3.745C10.282,3.745 10.73,4.193 10.73,4.745L10.73,6.01C10.998,5.891 11.294,5.825 11.605,5.825C11.916,5.825 12.212,5.891 12.48,6.01L12.48,3C12.48,2.448 12.033,2 11.48,2L3,2C2.448,2 2,2.448 2,3L2,11.48C2,12.032 2.448,12.48 3,12.48L7.763,12.48L7.763,9.244C7.763,8.756 8.156,8.357 8.636,8.357L8.985,8.357L8.985,6.362C8.985,5.88 8.595,5.49 8.113,5.49C7.631,5.49 7.24,5.88 7.24,6.362L7.24,9.73C7.24,10.282 6.792,10.73 6.24,10.73L4.745,10.73C4.193,10.73 3.745,10.282 3.745,9.73L3.745,4.745Z" style="fill:rgb(139,139,139);"/>
            <g id="ic_lock_24px">
                <path id="Shape" d="M13.57,9.463L13.242,9.463L13.242,8.798C13.242,7.88 12.509,7.134 11.605,7.134C10.701,7.134 9.968,7.88 9.968,8.798L9.968,9.463L9.64,9.463C9.28,9.463 8.986,9.762 8.986,10.128L8.986,13.455C8.986,13.821 9.28,14.12 9.64,14.12L13.57,14.12C13.93,14.12 14.225,13.821 14.225,13.455L14.225,10.128C14.225,9.762 13.93,9.463 13.57,9.463ZM11.605,12.457C11.245,12.457 10.95,12.157 10.95,11.791C10.95,11.426 11.245,11.126 11.605,11.126C11.965,11.126 12.26,11.426 12.26,11.791C12.26,12.157 11.965,12.457 11.605,12.457ZM10.59,8.798L10.59,9.463L12.62,9.463L12.62,8.798C12.62,8.229 12.165,7.766 11.605,7.766C11.045,7.766 10.59,8.229 10.59,8.798Z" style="fill:rgb(183,183,183);"/>
            </g>
        </g>
    </g>
</svg>
