<?xml version="1.0" encoding="UTF-8" standalone="no"?>
<!DOCTYPE svg PUBLIC "-//W3C//DTD SVG 1.1//EN" "http://www.w3.org/Graphics/SVG/1.1/DTD/svg11.dtd">
<svg width="100%" height="100%" viewBox="0 0 16 16" version="1.1" xmlns="http://www.w3.org/2000/svg" xmlns:xlink="http://www.w3.org/1999/xlink" xml:space="preserve" xmlns:serif="http://www.serif.com/" style="fill-rule:evenodd;clip-rule:evenodd;stroke-linejoin:round;stroke-miterlimit:2;">
    <g id="perl">
        <g id="perl-2" serif:id="perl 2">
            <g>
                <path id="Vector" d="M6.985,12.352C6.923,12.476 6.662,12.389 6.377,12.29C6.091,12.191 5.123,11.794 4.564,11.161C4.006,10.528 3.721,9.683 3.745,8.877C3.77,8.07 3.993,7.735 4.366,7.213C4.738,6.692 5.769,5.923 6.091,5.724C6.414,5.525 6.849,5.19 7.059,4.917C7.27,4.644 7.382,4.42 7.37,4.048C7.357,3.676 7.395,3.34 7.382,3.217C7.37,3.092 7.37,2.844 7.481,2.894C7.593,2.943 7.605,3.08 7.605,3.217C7.605,3.353 7.568,3.911 7.531,4.458C7.493,5.004 7.059,5.463 6.737,5.786C6.414,6.108 5.483,7.114 5.135,7.61C4.788,8.107 4.615,8.761 4.651,9.31C4.689,9.869 4.825,10.415 5.346,10.998C5.867,11.582 6.227,11.855 6.5,11.992C6.773,12.128 7.046,12.227 6.985,12.352ZM7.442,12.948C7.353,13.057 7.199,13.122 7.181,13.078C7.162,13.035 7.291,13.01 7.386,12.904C7.473,12.807 7.45,12.626 7.512,12.623C7.563,12.621 7.531,12.839 7.442,12.948ZM7.667,12.041C7.493,12.265 6.786,11.496 6.413,11.049C6.041,10.602 5.669,9.695 5.656,8.988C5.644,8.281 6.041,7.623 6.326,7.226C6.612,6.828 7.171,6.146 7.319,5.835C7.468,5.525 7.63,5.19 7.679,4.755C7.729,4.321 7.679,2.769 7.679,2.769C7.679,2.769 7.667,2.086 7.779,2.161C7.891,2.236 7.915,2.67 7.915,3.067C7.915,3.465 7.953,5.177 7.828,5.636C7.704,6.095 7.419,6.604 7.108,7.051C6.798,7.498 6.438,8.442 6.451,9.025C6.463,9.608 6.798,10.564 7.059,10.961C7.321,11.36 7.765,11.916 7.667,12.041ZM8.038,13.201C7.987,13.201 8.006,13.046 8.006,12.855C8.006,12.664 7.989,12.509 8.038,12.509C8.084,12.509 8.07,12.664 8.07,12.855C8.07,13.046 8.08,13.201 8.038,13.201ZM8.848,13.073C8.829,13.116 8.676,13.051 8.587,12.942C8.498,12.834 8.466,12.616 8.517,12.617C8.579,12.62 8.556,12.801 8.643,12.898C8.738,13.004 8.867,13.029 8.848,13.073ZM9.643,12.349C9.419,12.438 9.277,12.535 9.087,12.358C8.782,12.075 8.494,12.045 8.113,11.944C8.006,11.915 7.933,11.68 7.894,11.595C7.767,11.315 7.67,11.021 7.596,10.724C7.236,9.287 7.523,7.848 7.886,6.444C8.042,5.844 8.142,5.249 8.147,4.626C8.149,4.3 8.104,3.979 8.066,3.656C8.049,3.519 7.985,3.179 8.152,3.44C8.219,3.545 8.342,3.396 8.353,3.517C8.362,3.611 8.372,4.282 8.41,4.519C8.501,5.092 9.207,5.446 9.643,5.718C10.64,6.341 11.99,7.166 12.18,8.444C12.428,10.114 11.57,11.559 9.643,12.349ZM14,8C14,3.398 8.984,0.507 4.993,2.808C1.002,5.108 1.002,10.892 4.993,13.193C8.984,15.493 14,12.602 14,8Z" style="fill:rgb(145,145,145);fill-rule:nonzero;"/>
            </g>
        </g>
    </g>
</svg>
