<?xml version="1.0" encoding="UTF-8" standalone="no"?>
<!DOCTYPE svg PUBLIC "-//W3C//DTD SVG 1.1//EN" "http://www.w3.org/Graphics/SVG/1.1/DTD/svg11.dtd">
<svg width="100%" height="100%" viewBox="0 0 16 16" version="1.1" xmlns="http://www.w3.org/2000/svg" xmlns:xlink="http://www.w3.org/1999/xlink" xml:space="preserve" xmlns:serif="http://www.serif.com/" style="fill-rule:evenodd;clip-rule:evenodd;stroke-linejoin:round;stroke-miterlimit:2;">
    <g id="php">
        <path id="Shape" d="M5.971,10.192C6.059,10.587 6.059,10.984 5.882,11.38C6.277,11.556 6.277,11.908 6.277,12.26L6.32,12.26C6.76,12.303 7.154,12.303 7.549,12.171C7.724,12.127 7.768,12.082 7.724,11.906C7.681,11.598 7.636,11.246 7.592,10.938C7.592,10.673 7.636,10.41 7.811,10.19C7.943,9.971 8.075,9.926 8.338,10.014C8.821,10.19 9.304,10.19 9.785,9.926C9.961,9.837 10.136,9.882 10.268,10.014C10.4,10.19 10.444,10.41 10.4,10.631C10.357,10.852 10.312,11.115 10.225,11.378C10.576,11.554 10.532,11.906 10.532,12.258L11.498,12.258C11.674,12.258 11.893,12.215 12.068,12.126C12.332,12.037 12.419,11.861 12.376,11.598C12.332,11.07 12.244,10.586 12.2,10.058C12.2,9.838 12.2,9.617 12.244,9.354C12.244,9.31 12.287,9.178 12.332,9.134C12.772,8.694 13.034,8.122 13.21,7.551C13.21,7.507 13.21,7.418 13.253,7.375C13.253,7.286 13.297,7.286 13.385,7.375C13.429,7.463 13.517,7.551 13.561,7.639C13.649,7.728 13.736,7.815 13.825,7.859C13.913,7.948 14,7.903 14,7.815C13.957,7.639 13.957,7.463 13.912,7.331C13.604,6.232 13.034,5.352 12.068,4.735C11.453,4.34 10.796,4.119 10.049,4.075C9.434,3.986 8.821,4.031 8.206,4.164C8.117,4.164 8.074,4.207 8.03,4.207C7.942,4.251 7.898,4.34 7.942,4.427C7.942,4.603 7.985,4.735 8.03,4.911C8.162,5.747 8.074,6.539 7.547,7.199C7.108,7.815 6.451,8.079 5.704,7.991C5.485,7.991 5.353,7.859 5.265,7.683C5.046,7.375 5.001,7.023 4.914,6.671C4.957,6.715 4.957,6.76 5.002,6.803C5.002,6.803 5.002,6.847 5.046,6.892L5.44,7.552C5.659,7.817 5.835,7.86 6.186,7.772C6.976,7.552 7.59,6.848 7.678,6.012C7.678,5.571 7.678,5.176 7.546,4.78C7.327,4.164 6.888,3.857 6.274,3.768C5.528,3.636 4.87,3.768 4.168,3.944C3.904,4.033 3.642,4.076 3.423,4.164C3.072,4.34 2.853,4.648 2.677,4.956C2.151,5.749 1.932,6.672 2.019,7.639C2.062,8.476 2.413,9.18 3.115,9.751C3.379,9.971 3.642,10.235 3.905,10.455C3.994,10.499 4.037,10.587 4.037,10.675C4.126,10.807 4.081,10.939 3.949,11.07C3.905,11.07 3.861,11.114 3.817,11.159C3.598,11.291 3.553,11.467 3.729,11.643C3.904,11.775 4.08,11.863 4.299,11.863C4.342,11.863 4.387,11.863 4.431,11.819C4.782,11.511 4.957,11.159 5.001,10.72C5.001,10.5 4.912,10.324 4.782,10.192C4.693,10.016 4.518,9.883 4.387,9.707C4.344,9.619 4.255,9.531 4.168,9.399C4.125,9.31 4.08,9.223 4.125,9.091C4.213,9.002 4.344,8.915 4.476,8.958C4.651,9.002 4.826,9.091 4.958,9.178C5.134,9.222 5.266,9.31 5.398,9.398C5.792,9.53 5.924,9.838 5.968,10.19L5.971,10.192ZM3.557,8.871C3.382,9.004 3.206,9.047 2.987,9.047L2.723,9.047C2.591,9.004 2.548,8.915 2.591,8.783C2.635,8.739 2.635,8.694 2.68,8.694C2.855,8.474 2.987,8.298 3.163,8.122C3.206,8.034 3.295,8.034 3.382,8.079C3.557,8.167 3.733,8.431 3.689,8.65C3.689,8.694 3.601,8.783 3.557,8.87L3.557,8.871ZM3.601,6.848C3.601,6.981 3.469,7.113 3.337,7.113C3.161,7.113 3.073,6.981 3.029,6.848C3.029,6.672 3.161,6.54 3.293,6.54C3.469,6.584 3.557,6.672 3.601,6.848Z" style="fill:rgb(162,162,162);"/>
    </g>
</svg>
