<?xml version="1.0" encoding="UTF-8" standalone="no"?>
<!DOCTYPE svg PUBLIC "-//W3C//DTD SVG 1.1//EN" "http://www.w3.org/Graphics/SVG/1.1/DTD/svg11.dtd">
<svg width="100%" height="100%" viewBox="0 0 16 16" version="1.1" xmlns="http://www.w3.org/2000/svg" xmlns:xlink="http://www.w3.org/1999/xlink" xml:space="preserve" xmlns:serif="http://www.serif.com/" style="fill-rule:evenodd;clip-rule:evenodd;stroke-linejoin:round;">
    <g id="postcss">
        <path id="Vector" d="M12.855,4.185C12.759,4.062 12.653,3.946 12.559,3.821C12.461,3.693 12.362,3.569 12.239,3.463C11.997,3.256 11.721,3.072 11.449,2.908C10.899,2.574 10.253,2.337 9.625,2.203C9.292,2.132 8.952,2.107 8.613,2.086C8.266,2.064 7.919,2.047 7.573,2.081C6.917,2.145 6.226,2.204 5.603,2.433C5.012,2.65 4.458,2.996 3.979,3.404C3.732,3.614 3.538,3.874 3.334,4.125C3.122,4.384 2.925,4.651 2.76,4.942C2.404,5.57 2.101,6.267 2.058,6.997C2.047,7.178 2.057,7.357 2.077,7.537C2.096,7.718 2.114,7.916 2.172,8.089C2.181,8.113 2.198,8.137 2.197,8.165C2.197,8.19 2.171,8.203 2.174,8.23C2.177,8.257 2.203,8.262 2.21,8.286C2.221,8.32 2.211,8.353 2.211,8.388C2.214,8.466 2.243,8.543 2.261,8.618C2.282,8.704 2.271,8.76 2.244,8.842C2.277,8.822 2.309,8.8 2.344,8.782C2.37,8.888 2.404,8.991 2.429,9.096C2.456,9.212 2.474,9.263 2.56,9.349C2.56,9.215 2.524,9.103 2.506,8.972C2.523,8.976 2.539,8.98 2.556,8.984C2.506,9.033 2.603,9.16 2.621,9.207C2.653,9.175 2.68,9.156 2.727,9.16C2.71,9.118 2.702,9.073 2.685,9.031C2.671,8.999 2.641,8.966 2.636,8.943C2.631,8.921 2.642,8.904 2.63,8.878C2.621,8.857 2.597,8.847 2.587,8.827C2.559,8.773 2.603,8.717 2.594,8.657C2.575,8.523 2.53,8.392 2.514,8.257C2.5,8.138 2.529,7.992 2.436,7.899C2.378,7.946 2.391,8.063 2.307,8.03C2.241,8.005 2.259,7.904 2.324,7.921C2.325,7.861 2.299,7.839 2.329,7.787C2.357,7.739 2.397,7.706 2.42,7.652C2.47,7.536 2.479,7.4 2.487,7.276C2.507,6.993 2.564,6.739 2.657,6.47C2.834,5.959 3.091,5.474 3.372,5.012C3.897,4.149 4.683,3.401 5.615,2.99C5.902,2.863 6.205,2.766 6.51,2.691C6.811,2.617 7.121,2.624 7.427,2.593C7.171,2.954 6.924,3.325 6.655,3.677C6.397,4.014 6.133,4.348 5.876,4.687C5.61,5.038 5.376,5.412 5.129,5.777C5.007,5.956 4.885,6.134 4.76,6.311C4.699,6.396 4.636,6.473 4.569,6.552C4.536,6.591 4.537,6.624 4.521,6.669C4.504,6.716 4.473,6.757 4.448,6.8C4.438,6.781 4.429,6.763 4.419,6.744C4.359,6.839 4.307,6.937 4.249,7.032C4.216,7.085 4.107,7.187 4.206,7.223C4.185,7.239 4.165,7.256 4.145,7.274C4.174,7.306 4.217,7.322 4.244,7.357C4.252,7.347 4.259,7.337 4.267,7.327C4.276,7.402 4.305,7.323 4.323,7.3C4.345,7.271 4.366,7.241 4.391,7.215C4.441,7.163 4.502,7.121 4.554,7.07C4.66,6.966 4.755,6.848 4.85,6.733C5.06,6.476 5.246,6.2 5.464,5.949C5.441,6.208 5.433,6.468 5.411,6.728C5.401,6.851 5.414,6.972 5.401,7.096C5.387,7.222 5.376,7.349 5.377,7.476C5.38,7.735 5.394,7.991 5.377,8.25C5.37,8.354 5.39,8.453 5.39,8.556C5.39,8.622 5.372,8.712 5.456,8.712C5.456,8.878 5.398,9.029 5.411,9.198C5.417,9.275 5.403,9.347 5.403,9.424C5.402,9.512 5.474,9.577 5.472,9.66C5.42,9.66 5.387,9.644 5.363,9.691C5.342,9.732 5.365,9.816 5.368,9.861C5.373,9.941 5.371,10.024 5.368,10.104C5.367,10.152 5.38,10.286 5.343,10.327C5.305,10.369 5.233,10.354 5.18,10.355C5.081,10.358 4.982,10.358 4.883,10.357C4.693,10.357 4.503,10.365 4.313,10.367C3.929,10.372 3.546,10.362 3.161,10.38C3,10.387 2.818,10.396 2.667,10.458C2.6,10.485 2.598,10.513 2.57,10.574C2.564,10.588 2.534,10.586 2.53,10.605C2.524,10.637 2.56,10.675 2.569,10.704C2.587,10.696 2.604,10.687 2.622,10.677C2.609,10.698 2.596,10.72 2.583,10.742C2.626,10.725 2.669,10.71 2.712,10.693C2.712,10.721 2.867,10.695 2.905,10.698C2.967,10.704 3.027,10.722 3.087,10.734C3.254,10.768 3.428,10.775 3.598,10.783C3.919,10.8 4.239,10.798 4.561,10.797C4.897,10.796 5.233,10.809 5.569,10.801C5.891,10.794 6.213,10.778 6.534,10.768C7.194,10.746 7.852,10.751 8.511,10.709C9.173,10.668 9.833,10.628 10.497,10.608C10.862,10.597 11.228,10.583 11.593,10.559C11.952,10.534 12.332,10.499 12.691,10.528C12.671,10.546 12.65,10.563 12.63,10.58C12.735,10.581 12.569,10.734 12.558,10.752C12.538,10.782 12.535,10.822 12.516,10.852C12.495,10.884 12.475,10.883 12.448,10.908C12.446,10.91 12.431,10.941 12.428,10.948C12.41,10.98 12.411,11.013 12.391,11.045C12.347,11.117 12.329,11.131 12.241,11.16C12.261,11.167 12.282,11.173 12.302,11.18C12.277,11.193 12.299,11.221 12.287,11.26C12.271,11.311 12.23,11.359 12.198,11.4C12.12,11.503 12.032,11.589 11.935,11.673C11.782,11.807 11.65,11.959 11.487,12.082C11.325,12.205 11.155,12.323 10.982,12.43C10.813,12.535 10.635,12.624 10.467,12.732C10.289,12.845 10.101,12.905 9.907,12.984C9.718,13.061 9.538,13.156 9.334,13.185C9.119,13.216 8.901,13.238 8.685,13.266C8.466,13.296 8.254,13.329 8.031,13.33C7.942,13.331 7.855,13.339 7.767,13.322C7.658,13.301 7.561,13.282 7.45,13.275C7.248,13.263 7.044,13.234 6.853,13.17C6.775,13.144 6.73,13.143 6.653,13.138C6.56,13.131 6.477,13.081 6.385,13.071C6.309,13.062 6.303,13.036 6.241,13.005C6.158,12.963 6.074,12.939 5.993,12.887C5.916,12.837 5.839,12.786 5.753,12.752C5.666,12.717 5.572,12.703 5.485,12.667C5.407,12.635 5.341,12.582 5.272,12.536C5.195,12.485 5.124,12.467 5.041,12.435C4.866,12.369 4.706,12.231 4.569,12.108C4.445,11.996 4.242,11.963 4.178,11.802C4.154,11.743 4.115,11.733 4.067,11.69C3.995,11.624 3.915,11.561 3.835,11.507C3.678,11.401 3.584,11.253 3.478,11.101C3.438,11.044 3.386,10.946 3.324,10.909C3.265,10.874 3.242,10.956 3.171,10.956C3.263,11.101 3.355,11.247 3.447,11.392C3.419,11.371 3.381,11.377 3.358,11.349C3.344,11.332 3.349,11.298 3.336,11.284C3.299,11.243 3.216,11.263 3.168,11.256C3.232,11.358 3.295,11.48 3.343,11.572C3.395,11.674 3.508,11.739 3.571,11.833C3.48,11.853 3.602,11.984 3.627,12.013C3.658,12.047 3.695,12.075 3.725,12.109C3.77,12.158 3.76,12.186 3.76,12.249C3.81,12.198 3.82,12.223 3.864,12.259C3.872,12.266 3.91,12.29 3.92,12.295C3.933,12.305 3.947,12.312 3.963,12.316C3.979,12.314 3.996,12.31 4.012,12.305C4.017,12.307 4.078,12.342 4.088,12.349C4.093,12.352 4.092,12.375 4.108,12.384C4.149,12.406 4.173,12.399 4.21,12.432C4.343,12.555 4.465,12.689 4.614,12.797C4.948,13.039 5.337,13.253 5.713,13.422C5.9,13.506 6.093,13.567 6.292,13.616C6.508,13.668 6.722,13.74 6.94,13.781C7.108,13.813 7.285,13.861 7.456,13.866C7.56,13.869 7.662,13.862 7.767,13.868C7.795,13.87 8.003,13.87 7.896,13.918C8.136,13.965 8.368,13.948 8.611,13.937C8.719,13.932 8.836,13.871 8.939,13.875C8.955,13.876 8.97,13.896 8.994,13.893C9.014,13.89 9.026,13.87 9.043,13.862C9.089,13.842 9.127,13.85 9.175,13.847C9.377,13.832 9.556,13.762 9.769,13.722C9.8,13.716 9.855,13.717 9.883,13.697C9.917,13.673 9.902,13.654 9.922,13.624C9.961,13.567 10.084,13.48 10.153,13.486C10.14,13.499 10.127,13.513 10.113,13.526C10.157,13.523 10.226,13.532 10.264,13.508C10.3,13.485 10.298,13.444 10.33,13.42C10.358,13.4 10.411,13.403 10.445,13.394C10.512,13.375 10.579,13.348 10.641,13.317C10.696,13.289 10.743,13.276 10.797,13.257C10.835,13.243 10.864,13.221 10.903,13.207C10.926,13.2 10.947,13.192 10.969,13.184C10.976,13.176 10.983,13.169 10.989,13.162C11.004,13.169 11.019,13.171 11.034,13.167C11.102,13.151 11.155,13.103 11.212,13.064L11.115,13.064C11.141,13.05 11.177,13.011 11.207,13.01C11.226,13.01 11.244,13.039 11.266,13.044C11.316,13.056 11.488,12.983 11.444,12.912C11.483,12.891 11.497,12.924 11.527,12.915C11.543,12.91 11.575,12.884 11.587,12.87C11.626,12.823 11.59,12.796 11.625,12.748C11.663,12.696 11.736,12.671 11.785,12.632C11.814,12.609 11.842,12.569 11.879,12.56C11.896,12.555 11.946,12.518 11.955,12.502C11.969,12.476 11.995,12.458 12.016,12.439C12.088,12.375 12.165,12.317 12.235,12.25C12.381,12.112 12.516,11.959 12.643,11.802C12.879,11.51 13.076,11.182 13.249,10.848C13.296,10.756 13.324,10.606 13.437,10.575C13.494,10.559 13.559,10.57 13.618,10.567C13.698,10.563 13.765,10.54 13.836,10.504C13.755,10.377 13.539,10.164 13.594,10.001C13.669,9.785 13.766,9.57 13.817,9.346C13.935,8.828 13.991,8.283 13.977,7.752C13.961,7.099 13.944,6.433 13.733,5.808C13.536,5.223 13.237,4.67 12.855,4.185L12.855,4.185ZM6.22,4.96C6.217,4.964 6.203,4.982 6.22,4.96C6.245,4.927 6.269,4.914 6.288,4.88C6.319,4.825 6.34,4.788 6.389,4.75C6.424,4.722 6.438,4.701 6.465,4.665C6.487,4.634 6.513,4.606 6.536,4.577C6.553,4.556 6.579,4.488 6.587,4.542C6.636,4.471 6.706,4.389 6.725,4.313C6.715,4.308 6.708,4.302 6.702,4.293C6.706,4.278 6.715,4.265 6.727,4.255C6.739,4.233 6.768,4.197 6.788,4.181C6.809,4.165 6.826,4.175 6.852,4.157C6.881,4.137 6.901,4.091 6.924,4.065C6.947,4.039 6.987,4.012 6.998,3.979C7.006,3.958 6.989,3.919 7,3.905C7.014,3.931 7.027,3.959 7.04,3.986C7.057,3.942 7.082,3.899 7.097,3.856C7.115,3.805 7.095,3.809 7.103,3.772C7.113,3.727 7.175,3.671 7.201,3.633C7.242,3.573 7.284,3.514 7.325,3.454C7.474,3.235 7.609,3 7.8,2.813C8.472,3.659 9.073,4.55 9.673,5.448C9.344,5.448 9.02,5.429 8.691,5.454C8.364,5.479 8.038,5.512 7.71,5.523C7.063,5.543 6.414,5.597 5.766,5.589C5.919,5.38 6.062,5.165 6.22,4.96ZM10.218,6.601L10.234,7.289C10.169,7.105 10.059,6.944 9.953,6.782C9.839,6.61 9.703,6.446 9.538,6.32C9.375,6.196 9.185,6.112 8.996,6.035C8.996,6.035 9.878,6.013 9.986,6.013C10.066,6.013 10.1,6.043 10.145,6.108C10.247,6.255 10.213,6.43 10.218,6.601ZM6.013,6.166C6.335,6.152 6.657,6.14 6.978,6.119C6.778,6.24 6.61,6.404 6.453,6.575C6.292,6.75 6.123,6.92 5.992,7.119C6.009,6.802 6.024,6.484 6.013,6.166L6.013,6.166ZM6.315,10.367C6.258,10.371 6.079,10.403 6.04,10.356C5.999,10.307 6.036,10.162 6.036,10.086C6.014,9.761 5.977,9.437 5.978,9.111C6.052,9.284 6.127,9.437 6.238,9.59C6.29,9.662 6.337,9.741 6.395,9.808C6.433,9.852 6.557,9.883 6.563,9.942C6.568,9.985 6.513,9.992 6.546,10.042C6.571,10.079 6.648,10.097 6.685,10.116C6.75,10.15 6.804,10.199 6.868,10.235C6.956,10.286 7.058,10.303 7.15,10.347C6.872,10.352 6.592,10.348 6.315,10.367L6.315,10.367ZM7.088,9.892C7.098,9.897 7.118,9.906 7.106,9.9C7.111,9.903 7.112,9.903 7.104,9.9C6.948,9.831 6.8,9.764 6.677,9.643C6.617,9.584 6.547,9.527 6.494,9.461C6.442,9.399 6.408,9.324 6.368,9.255C6.289,9.12 6.162,8.993 6.109,8.847C6.095,8.806 6.059,8.723 6.008,8.795C5.975,8.842 6.026,8.918 6.039,8.965C6.018,8.965 5.993,8.975 5.98,8.992C5.984,8.749 5.969,8.507 5.975,8.264C6.059,8.323 6.112,8.195 6.131,8.134C6.144,8.091 6.145,8.045 6.16,8.002C6.168,7.98 6.212,7.926 6.207,7.904C6.194,7.849 6.142,7.884 6.167,7.814C6.184,7.766 6.23,7.734 6.248,7.681C6.262,7.639 6.289,7.502 6.328,7.477C6.327,7.488 6.325,7.499 6.324,7.51C6.408,7.461 6.453,7.427 6.474,7.331C6.493,7.243 6.555,7.196 6.605,7.125C6.661,7.047 6.705,6.988 6.788,6.939C6.861,6.897 6.919,6.802 6.996,6.775C7.042,6.759 7.072,6.757 7.122,6.725C7.149,6.708 7.188,6.685 7.203,6.654C7.214,6.631 7.201,6.617 7.218,6.596C7.26,6.545 7.398,6.515 7.458,6.487C7.546,6.445 7.636,6.39 7.736,6.392C7.675,6.506 7.881,6.434 7.932,6.452C7.932,6.343 7.955,6.323 8.067,6.321C8.189,6.319 8.315,6.315 8.436,6.335C8.676,6.374 8.877,6.526 9.071,6.661C9.273,6.802 9.465,6.93 9.605,7.139C9.666,7.229 9.715,7.327 9.744,7.432C9.779,7.561 9.826,7.713 9.816,7.847C9.807,7.963 9.778,8.078 9.77,8.195C9.758,8.341 9.726,8.466 9.659,8.597C9.644,8.626 9.603,8.672 9.612,8.705C9.621,8.736 9.651,8.729 9.653,8.761C9.654,8.79 9.611,8.863 9.601,8.889C9.581,8.939 9.56,8.989 9.537,9.039C9.349,9.442 9.057,9.787 8.623,9.927C8.161,10.075 7.533,10.128 7.088,9.892L7.088,9.892ZM9.121,10.266C9.183,10.23 9.242,10.189 9.298,10.145C9.337,10.115 9.384,10.055 9.428,10.033C9.428,10.034 9.427,10.034 9.426,10.035C9.413,10.044 9.399,10.062 9.39,10.071C9.393,10.068 9.397,10.064 9.4,10.061C9.404,10.058 9.414,10.049 9.432,10.032C9.506,9.959 9.598,9.908 9.674,9.838C9.744,9.773 9.807,9.697 9.864,9.62C9.989,9.45 10.078,9.26 10.172,9.072C10.176,9.458 10.22,9.843 10.271,10.226L9.121,10.266L9.121,10.266ZM12.728,10.175C12.523,10.166 12.314,10.176 12.108,10.176C11.866,10.176 11.625,10.182 11.384,10.199C11.276,10.206 11.168,10.208 11.06,10.211C11.017,10.213 10.964,10.224 10.922,10.218C10.876,10.211 10.858,10.185 10.823,10.158C10.818,10.166 10.814,10.175 10.81,10.183C10.778,10.149 10.776,10.088 10.78,10.045C10.782,10.029 10.792,10.006 10.798,9.985C10.832,9.992 10.866,9.881 10.863,9.863C10.86,9.832 10.848,9.812 10.831,9.788C10.814,9.765 10.81,9.788 10.799,9.757C10.791,9.735 10.802,9.678 10.802,9.656C10.833,9.68 10.832,9.624 10.858,9.605C10.883,9.586 10.915,9.588 10.945,9.588C10.919,9.542 10.919,9.493 10.909,9.443C10.894,9.36 10.889,9.367 10.972,9.339C10.923,9.315 10.904,9.318 10.888,9.268C10.876,9.228 10.888,9.175 10.885,9.133C10.883,9.09 10.88,9.038 10.862,8.998C10.84,8.951 10.793,8.95 10.795,8.905C10.823,8.916 10.852,8.928 10.881,8.939C10.863,8.875 10.827,8.817 10.811,8.753C10.795,8.689 10.804,8.625 10.804,8.56C10.819,8.564 10.833,8.567 10.848,8.571C10.845,8.529 10.851,8.506 10.837,8.467C10.83,8.448 10.813,8.431 10.806,8.411C10.786,8.352 10.8,8.28 10.8,8.219C10.813,8.224 10.827,8.23 10.84,8.235C10.83,8.191 10.877,8.163 10.903,8.137C10.854,8.137 10.854,8.144 10.839,8.109C10.831,8.087 10.839,8.046 10.837,8.022C10.832,7.956 10.806,7.911 10.807,7.851C10.813,7.611 10.819,7.371 10.825,7.131C11.313,7.775 11.697,8.492 12.183,9.137C12.314,9.31 12.82,9.975 12.851,10.015C12.869,10.039 12.933,10.098 12.933,10.133C12.935,10.214 12.778,10.177 12.728,10.175L12.728,10.175ZM13.336,7.376C13.32,7.359 13.303,7.343 13.286,7.326C13.276,7.356 13.275,7.434 13.224,7.417C13.218,7.501 13.244,7.584 13.235,7.668C13.249,7.658 13.264,7.648 13.278,7.639C13.267,7.701 13.334,7.759 13.325,7.82C13.316,7.887 13.27,7.841 13.247,7.867C13.221,7.898 13.234,8.06 13.249,8.089C13.264,8.117 13.289,8.125 13.3,8.158C13.313,8.202 13.3,8.256 13.291,8.299C13.254,8.489 13.267,8.674 13.25,8.865C13.241,8.976 13.222,8.911 13.152,8.912C13.07,8.913 13.123,9.03 13.136,9.076C13.074,9.071 13.087,9.154 13.085,9.194C13.082,9.268 13.045,9.324 13.037,9.394C12.808,9.061 12.606,8.71 12.373,8.38C12.132,8.038 11.899,7.69 11.659,7.348C11.421,7.008 11.208,6.653 10.973,6.311C10.928,6.245 10.857,6.179 10.831,6.104C10.804,6.029 10.812,5.918 10.812,5.839C10.811,5.754 10.816,5.669 10.813,5.584C10.81,5.492 10.825,5.471 10.889,5.408C10.735,5.408 10.581,5.408 10.428,5.408C10.327,5.408 10.257,5.3 10.207,5.227C10.131,5.117 10.057,5.006 9.982,4.895C9.797,4.622 9.597,4.359 9.399,4.096C9.026,3.6 8.678,3.083 8.275,2.611C8.531,2.643 8.789,2.644 9.045,2.682C9.297,2.719 9.548,2.769 9.793,2.839C10.256,2.97 10.7,3.164 11.126,3.386C11.22,3.435 11.317,3.481 11.408,3.535C11.511,3.597 11.589,3.683 11.672,3.769C11.845,3.952 12.008,4.142 12.171,4.333C12.447,4.658 12.753,4.977 12.918,5.377C13.02,5.626 13.092,5.896 13.15,6.158C13.179,6.293 13.177,6.431 13.203,6.565C13.214,6.619 13.224,6.671 13.233,6.725C13.236,6.741 13.256,6.777 13.257,6.776C13.27,6.807 13.274,6.854 13.307,6.821C13.343,7.003 13.344,7.191 13.336,7.376L13.336,7.376ZM3.664,7.738C3.674,7.731 3.684,7.724 3.695,7.717C3.628,7.736 3.63,7.677 3.648,7.635C3.674,7.575 3.739,7.536 3.774,7.481C3.792,7.5 3.811,7.517 3.834,7.53C3.878,7.475 3.922,7.42 3.969,7.366C4.015,7.43 4.083,7.401 4.03,7.492C3.998,7.547 3.954,7.592 3.912,7.64C3.924,7.666 3.949,7.68 3.945,7.716C3.938,7.782 3.826,7.903 3.78,7.952C3.739,7.995 3.7,7.975 3.671,8.025C3.654,8.053 3.664,8.079 3.637,8.108C3.619,8.127 3.591,8.135 3.573,8.153C3.537,8.188 3.524,8.248 3.482,8.274C3.429,8.306 3.379,8.298 3.381,8.237C3.346,8.243 3.312,8.254 3.278,8.263C3.315,8.202 3.35,8.136 3.395,8.081C3.428,8.042 3.471,8.014 3.505,7.976C3.54,7.936 3.555,7.885 3.588,7.844C3.619,7.806 3.644,7.783 3.664,7.738L3.664,7.738Z" style="fill:rgb(139,139,139);fill-rule:nonzero;stroke:rgb(139,139,139);stroke-width:0.2px;"/>
    </g>
</svg>
