<?xml version="1.0" encoding="UTF-8" standalone="no"?>
<!DOCTYPE svg PUBLIC "-//W3C//DTD SVG 1.1//EN" "http://www.w3.org/Graphics/SVG/1.1/DTD/svg11.dtd">
<svg width="100%" height="100%" viewBox="0 0 16 16" version="1.1" xmlns="http://www.w3.org/2000/svg" xmlns:xlink="http://www.w3.org/1999/xlink" xml:space="preserve" xmlns:serif="http://www.serif.com/" style="fill-rule:evenodd;clip-rule:evenodd;stroke-linejoin:round;stroke-miterlimit:2;">
    <g id="powerpoint">
        <g id="player-19">
            <path id="Shape" d="M11,13.5L5,13.5C4.723,13.5 4.5,13.276 4.5,13C4.5,12.724 4.723,12.5 5,12.5L11,12.5C11.277,12.5 11.5,12.724 11.5,13C11.5,13.276 11.277,13.5 11,13.5Z" style="fill:rgb(201,201,201);fill-rule:nonzero;"/>
            <path id="Shape_2" d="M2.5,2.5L13.5,2.5C13.777,2.5 14,2.724 14,3L14,11C14,11.276 13.777,11.5 13.5,11.5L2.5,11.5C2.224,11.5 2,11.276 2,11L2,3C2,2.724 2.224,2.5 2.5,2.5ZM7.258,8.929L9.758,7.428C9.908,7.339 10,7.176 10,7C10,6.824 9.908,6.662 9.758,6.572L7.258,5.072C7.103,4.978 6.91,4.976 6.754,5.065C6.597,5.154 6.5,5.32 6.5,5.5L6.5,8.5C6.5,8.68 6.597,8.847 6.754,8.935C6.83,8.979 6.915,9 7,9C7.089,9 7.178,8.977 7.258,8.929Z" style="fill:rgb(121,121,121);"/>
        </g>
    </g>
</svg>
