<?xml version="1.0" encoding="UTF-8" standalone="no"?>
<!DOCTYPE svg PUBLIC "-//W3C//DTD SVG 1.1//EN" "http://www.w3.org/Graphics/SVG/1.1/DTD/svg11.dtd">
<svg width="100%" height="100%" viewBox="0 0 16 16" version="1.1" xmlns="http://www.w3.org/2000/svg" xmlns:xlink="http://www.w3.org/1999/xlink" xml:space="preserve" xmlns:serif="http://www.serif.com/" style="fill-rule:evenodd;clip-rule:evenodd;stroke-linejoin:round;stroke-miterlimit:2;">
    <g id="prettier">
        <g id="prettier_2">
            <path id="Rectangle" d="M12.944,4.59L12.944,4.59C12.944,4.746 12.817,4.874 12.66,4.874L12.118,4.874C11.961,4.874 11.833,4.746 11.833,4.59L11.833,4.59C11.833,4.433 11.961,4.305 12.118,4.305L12.66,4.305C12.817,4.305 12.944,4.433 12.944,4.59Z" style="fill:rgb(163,163,163);"/>
            <path id="Rectangle-path" d="M6.833,13.684C6.833,13.841 6.706,13.968 6.549,13.968L3.784,13.968C3.627,13.968 3.5,13.841 3.5,13.684C3.5,13.527 3.627,13.4 3.784,13.4L6.549,13.4C6.706,13.4 6.833,13.527 6.833,13.684Z" style="fill:rgb(139,139,139);"/>
            <path id="Rectangle-path_2" d="M12.389,9.137C12.389,9.294 12.262,9.421 12.105,9.421L10.451,9.421C10.294,9.421 10.167,9.294 10.167,9.137C10.167,8.98 10.294,8.853 10.451,8.853L12.105,8.853C12.262,8.853 12.389,8.98 12.389,9.137Z" style="fill:rgb(145,145,145);"/>
            <path id="Rectangle-path_3" d="M9.611,9.137C9.611,9.294 9.484,9.421 9.327,9.421L7.118,9.421C6.961,9.421 6.833,9.294 6.833,9.137C6.833,8.98 6.961,8.853 7.118,8.853L9.327,8.853C9.484,8.853 9.611,8.98 9.611,9.137Z" style="fill:rgb(139,139,139);"/>
            <path id="Rectangle-path_4" d="M6.278,9.137C6.278,9.294 6.15,9.421 5.994,9.421L3.784,9.421C3.627,9.421 3.5,9.294 3.5,9.137C3.5,8.98 3.627,8.853 3.784,8.853L5.994,8.853C6.15,8.853 6.278,8.98 6.278,9.137Z" style="fill:rgb(163,163,163);"/>
            <path id="Rectangle-path_5" d="M6.833,11.411C6.833,11.567 6.706,11.695 6.549,11.695L3.784,11.695C3.627,11.695 3.5,11.567 3.5,11.411C3.5,11.254 3.627,11.126 3.784,11.126L6.549,11.126C6.706,11.126 6.833,11.254 6.833,11.411Z" style="fill:rgb(145,145,145);"/>
            <path id="Rectangle-path_6" d="M6.833,6.863L6.833,6.863C6.833,7.02 6.706,7.147 6.549,7.147L3.784,7.147C3.627,7.147 3.5,7.02 3.5,6.863L3.5,6.863C3.5,6.706 3.627,6.579 3.784,6.579L6.549,6.579C6.706,6.579 6.833,6.706 6.833,6.863Z" style="fill:rgb(145,145,145);"/>
            <path id="Rectangle-path_7" d="M12.389,3.453L12.389,3.453C12.389,3.61 12.262,3.737 12.105,3.737L6.562,3.737C6.405,3.737 6.278,3.61 6.278,3.453L6.278,3.453C6.278,3.296 6.405,3.168 6.562,3.168L12.105,3.168C12.262,3.168 12.389,3.296 12.389,3.453Z" style="fill:rgb(183,183,183);"/>
            <path id="Rectangle-path_8" d="M5.722,3.453L5.722,3.453C5.722,3.61 5.595,3.737 5.438,3.737L3.784,3.737C3.627,3.737 3.5,3.61 3.5,3.453L3.5,3.453C3.5,3.296 3.627,3.168 3.784,3.168L5.438,3.168C5.595,3.168 5.722,3.296 5.722,3.453Z" style="fill:rgb(139,139,139);"/>
            <path id="Rectangle-path_9" d="M6.833,12.547C6.833,12.704 6.706,12.832 6.549,12.832L6.006,12.832C5.85,12.832 5.722,12.704 5.722,12.547C5.722,12.391 5.85,12.263 6.006,12.263L6.549,12.263C6.706,12.263 6.833,12.391 6.833,12.547Z" style="fill:rgb(183,183,183);"/>
            <path id="Rectangle-path_10" d="M6.833,5.726L6.833,5.726C6.833,5.883 6.706,6.011 6.549,6.011L6.006,6.011C5.85,6.011 5.722,5.883 5.722,5.726L5.722,5.726C5.722,5.569 5.85,5.442 6.006,5.442L6.549,5.442C6.706,5.442 6.833,5.569 6.833,5.726Z" style="fill:rgb(163,163,163);"/>
            <path id="Rectangle-path_11" d="M5.167,12.547C5.167,12.704 5.039,12.832 4.882,12.832L3.784,12.832C3.627,12.832 3.5,12.704 3.5,12.547C3.5,12.391 3.627,12.263 3.784,12.263L4.882,12.263C5.039,12.263 5.167,12.391 5.167,12.547Z" style="fill:rgb(163,163,163);"/>
            <path id="Rectangle-path_12" d="M5.167,5.726L5.167,5.726C5.167,5.883 5.039,6.011 4.882,6.011L3.784,6.011C3.627,6.011 3.5,5.883 3.5,5.726L3.5,5.726C3.5,5.569 3.627,5.442 3.784,5.442L4.882,5.442C5.039,5.442 5.167,5.569 5.167,5.726Z" style="fill:rgb(201,201,201);"/>
            <path id="Rectangle-path_13" d="M12.944,8L12.944,8C12.944,8.157 12.817,8.284 12.66,8.284L8.229,8.284C8.072,8.284 7.944,8.157 7.944,8L7.944,8C7.944,7.843 8.072,7.716 8.229,7.716L12.66,7.716C12.817,7.716 12.944,7.843 12.944,8Z" style="fill:rgb(163,163,163);"/>
            <path id="Rectangle-path_14" d="M7.389,8L7.389,8C7.389,8.157 7.262,8.284 7.105,8.284L5.451,8.284C5.294,8.284 5.167,8.157 5.167,8L5.167,8C5.167,7.843 5.294,7.716 5.451,7.716L7.105,7.716C7.262,7.716 7.389,7.843 7.389,8Z" style="fill:rgb(183,183,183);"/>
            <path id="Rectangle-path_15" d="M4.611,8L4.611,8C4.611,8.157 4.484,8.284 4.327,8.284L3.784,8.284C3.627,8.284 3.5,8.157 3.5,8L3.5,8C3.5,7.843 3.627,7.716 3.784,7.716L4.327,7.716C4.484,7.716 4.611,7.843 4.611,8Z" style="fill:rgb(139,139,139);"/>
            <path id="Rectangle-path_16" d="M11.278,4.59L11.278,4.59C11.278,4.746 11.15,4.874 10.994,4.874L8.784,4.874C8.627,4.874 8.5,4.746 8.5,4.59L8.5,4.59C8.5,4.433 8.627,4.305 8.784,4.305L10.994,4.305C11.15,4.305 11.278,4.433 11.278,4.59Z" style="fill:rgb(145,145,145);"/>
            <path id="Rectangle-path_17" d="M7.944,4.59L7.944,4.59C7.944,4.746 7.817,4.874 7.66,4.874L3.784,4.874C3.627,4.874 3.5,4.746 3.5,4.59L3.5,4.59C3.5,4.433 3.627,4.305 3.784,4.305L7.66,4.305C7.817,4.305 7.944,4.433 7.944,4.59Z" style="fill:rgb(163,163,163);"/>
            <path id="Rectangle-path_18" d="M10.722,10.274C10.722,10.431 10.595,10.558 10.438,10.558L5.451,10.558C5.294,10.558 5.167,10.431 5.167,10.274C5.167,10.117 5.294,9.99 5.451,9.99L10.438,9.99C10.595,9.99 10.722,10.117 10.722,10.274Z" style="fill:rgb(183,183,183);"/>
            <path id="Rectangle-path_19" d="M4.611,10.274C4.611,10.431 4.484,10.558 4.327,10.558L3.784,10.558C3.627,10.558 3.5,10.431 3.5,10.274C3.5,10.117 3.627,9.99 3.784,9.99L4.327,9.99C4.484,9.99 4.611,10.117 4.611,10.274Z" style="fill:rgb(145,145,145);"/>
            <path id="Rectangle-path_20" d="M13.5,5.726L13.5,5.726C13.5,5.883 13.373,6.011 13.216,6.011L10.451,6.011C10.294,6.011 10.167,5.883 10.167,5.726L10.167,5.726C10.167,5.569 10.294,5.442 10.451,5.442L13.216,5.442C13.373,5.442 13.5,5.569 13.5,5.726Z" style="fill:rgb(139,139,139);"/>
            <path id="Rectangle-path_21" d="M13.5,6.863L13.5,6.863C13.5,7.02 13.373,7.147 13.216,7.147L10.451,7.147C10.294,7.147 10.167,7.02 10.167,6.863L10.167,6.863C10.167,6.706 10.294,6.579 10.451,6.579L13.216,6.579C13.373,6.579 13.5,6.706 13.5,6.863Z" style="fill:rgb(183,183,183);"/>
            <path id="Rectangle-path_22" d="M10.722,2.316C10.722,2.473 10.595,2.6 10.438,2.6L3.784,2.6C3.627,2.6 3.5,2.473 3.5,2.316C3.5,2.159 3.627,2.032 3.784,2.032L10.438,2.032C10.595,2.032 10.722,2.159 10.722,2.316Z" style="fill:rgb(163,163,163);"/>
        </g>
    </g>
</svg>
