<?xml version="1.0" encoding="UTF-8" standalone="no"?>
<!DOCTYPE svg PUBLIC "-//W3C//DTD SVG 1.1//EN" "http://www.w3.org/Graphics/SVG/1.1/DTD/svg11.dtd">
<svg width="100%" height="100%" viewBox="0 0 16 16" version="1.1" xmlns="http://www.w3.org/2000/svg" xmlns:xlink="http://www.w3.org/1999/xlink" xml:space="preserve" xmlns:serif="http://www.serif.com/" style="fill-rule:evenodd;clip-rule:evenodd;stroke-linejoin:round;stroke-miterlimit:2;">
    <path d="M12.005,11.518L6.582,13.112C6.416,13.161 6.258,13.018 6.292,12.852L8.23,3.633C8.266,3.461 8.506,3.433 8.581,3.593L12.168,11.162C12.236,11.305 12.159,11.473 12.005,11.518ZM12.935,11.142L8.782,2.378C8.677,2.159 8.46,2.015 8.214,2.001C7.961,1.987 7.735,2.108 7.607,2.314L3.103,9.564C2.963,9.79 2.966,10.068 3.111,10.291L5.312,13.681C5.444,13.883 5.671,14 5.907,14C5.974,14 6.042,13.991 6.108,13.971L12.499,12.093C12.695,12.035 12.855,11.898 12.938,11.715C13.022,11.533 13.021,11.324 12.935,11.142Z" style="fill:rgb(159,159,159);fill-rule:nonzero;"/>
</svg>
