<?xml version="1.0" encoding="UTF-8" standalone="no"?>
<!DOCTYPE svg PUBLIC "-//W3C//DTD SVG 1.1//EN" "http://www.w3.org/Graphics/SVG/1.1/DTD/svg11.dtd">
<svg width="100%" height="100%" viewBox="0 0 16 16" version="1.1" xmlns="http://www.w3.org/2000/svg" xmlns:xlink="http://www.w3.org/1999/xlink" xml:space="preserve" xmlns:serif="http://www.serif.com/" style="fill-rule:evenodd;clip-rule:evenodd;">
    <g id="psd">
        <path id="Shape" d="M8,2.5C11.038,2.5 13.5,4.962 13.5,8C13.5,11.038 11.038,13.5 8,13.5C4.962,13.5 2.5,11.038 2.5,8C2.5,4.962 4.962,2.5 8,2.5Z" style="fill:rgb(36,36,36);fill-rule:nonzero;stroke:rgb(92,92,92);stroke-width:1px;"/>
        <g id="Group">
            <path id="Combined-Shape" serif:id="Combined Shape" d="M7.19,5.776C7.393,5.842 7.563,5.933 7.702,6.049L7.702,6.049C7.832,6.165 7.936,6.313 8.012,6.495C8.089,6.677 8.128,6.875 8.128,7.09C8.128,7.312 8.095,7.51 8.03,7.684C7.965,7.858 7.876,8.007 7.762,8.131C7.6,8.295 7.42,8.423 7.221,8.514C7.022,8.605 6.768,8.659 6.459,8.675L6.234,8.681L6.131,8.688L6.131,10.1L5.23,10.1L5.23,5.702L5.637,5.69C5.91,5.681 6.184,5.677 6.459,5.677C6.744,5.677 6.988,5.71 7.19,5.776ZM6.265,7.907L6.435,7.907L6.435,7.906C6.679,7.898 6.872,7.826 7.013,7.69C7.155,7.554 7.226,7.37 7.226,7.139C7.227,6.932 7.166,6.757 7.044,6.612C6.922,6.468 6.743,6.392 6.508,6.383L6.252,6.377L6.131,6.383L6.131,7.894L6.265,7.907Z" style="fill:white;"/>
            <path id="Path" d="M9.905,8.042C9.702,7.968 9.564,7.906 9.491,7.857C9.419,7.808 9.382,7.742 9.381,7.659C9.381,7.576 9.413,7.512 9.479,7.467C9.544,7.422 9.638,7.399 9.759,7.399C9.897,7.399 10.053,7.432 10.228,7.498C10.402,7.564 10.526,7.618 10.599,7.659L10.599,6.915C10.502,6.866 10.38,6.816 10.234,6.766C10.088,6.716 9.921,6.692 9.734,6.692C9.337,6.692 9.02,6.793 8.785,6.995C8.549,7.198 8.432,7.456 8.432,7.77C8.432,7.96 8.501,8.125 8.639,8.265C8.777,8.406 9.008,8.534 9.333,8.649C9.52,8.715 9.645,8.789 9.71,8.872C9.775,8.954 9.808,9.037 9.808,9.12C9.808,9.211 9.775,9.281 9.71,9.331C9.645,9.38 9.536,9.405 9.381,9.405C9.236,9.405 9.071,9.372 8.888,9.306C8.705,9.24 8.57,9.178 8.481,9.121L8.481,9.851C8.602,9.918 8.744,9.978 8.907,10.031C9.07,10.085 9.228,10.116 9.381,10.124C9.844,10.133 10.191,10.031 10.423,9.821C10.654,9.61 10.769,9.352 10.769,9.046C10.761,8.807 10.69,8.606 10.557,8.445C10.423,8.284 10.206,8.15 9.905,8.042Z" style="fill:white;"/>
        </g>
    </g>
</svg>
