<?xml version="1.0" encoding="UTF-8" standalone="no"?>
<!DOCTYPE svg PUBLIC "-//W3C//DTD SVG 1.1//EN" "http://www.w3.org/Graphics/SVG/1.1/DTD/svg11.dtd">
<svg width="100%" height="100%" viewBox="0 0 16 16" version="1.1" xmlns="http://www.w3.org/2000/svg" xmlns:xlink="http://www.w3.org/1999/xlink" xml:space="preserve" xmlns:serif="http://www.serif.com/" style="fill-rule:evenodd;clip-rule:evenodd;stroke-linejoin:round;stroke-miterlimit:2;">
    <g id="pug">
        <g id="__pug-logo-mono-isolated">
            <path id="Combined-Shape" serif:id="Combined Shape" d="M13.999,6.897C13.999,9.369 11.429,11.373 8.259,11.373C5.09,11.373 2.52,9.369 2.52,6.897C2.52,4.424 5.09,2.42 8.259,2.42C11.429,2.42 13.999,4.424 13.999,6.897ZM8.249,6.302C9.373,6.302 10.339,6.927 10.849,7.562C11.256,8.063 11.235,8.347 11.206,8.737C11.198,8.851 11.189,8.975 11.189,9.116C11.189,10.819 10.742,10.853 10.299,10.887C10.157,10.897 10.016,10.908 9.889,10.973C9.475,11.178 9.057,11.161 8.625,11.143L8.625,11.143C8.501,11.137 8.376,11.132 8.249,11.132L8.239,11.132C8.115,11.132 7.992,11.137 7.871,11.142L7.87,11.142C7.436,11.159 7.016,11.176 6.6,10.97C6.473,10.905 6.331,10.894 6.189,10.883C5.745,10.85 5.3,10.816 5.3,9.112C5.3,8.973 5.29,8.851 5.281,8.738C5.251,8.348 5.228,8.065 5.636,7.562C6.143,6.927 7.11,6.302 8.236,6.302L8.249,6.302ZM4.58,7.356C5.093,7.356 5.51,6.934 5.51,6.414C5.51,5.893 5.093,5.472 4.58,5.472C4.066,5.472 3.65,5.893 3.65,6.414C3.65,6.934 4.066,7.356 4.58,7.356ZM12.839,6.414C12.839,6.934 12.423,7.356 11.909,7.356C11.396,7.356 10.979,6.934 10.979,6.414C10.979,5.893 11.396,5.472 11.909,5.472C12.423,5.472 12.839,5.893 12.839,6.414ZM8.176,7.809L8.316,7.809L8.316,9.728C8.297,9.726 8.278,9.724 8.259,9.724C8.233,9.725 8.205,9.727 8.176,9.732L8.176,7.809ZM8.176,9.732C8.047,9.752 7.899,9.805 7.745,9.861C7.659,9.892 7.57,9.923 7.483,9.95C7.375,9.988 7.268,10.016 7.187,10.037L7.187,10.037C7.071,10.068 7.007,10.085 7.066,10.095C7.23,10.102 7.403,10.075 7.589,10.046C7.793,10.015 8.014,9.98 8.259,9.984C8.502,9.98 8.722,10.014 8.925,10.046C9.112,10.075 9.286,10.102 9.453,10.095C9.509,10.088 9.453,10.072 9.345,10.044C9.263,10.021 9.15,9.991 9.036,9.95C8.949,9.923 8.86,9.892 8.773,9.861L8.773,9.861C8.609,9.802 8.45,9.745 8.316,9.728L8.316,9.828L8.176,9.828L8.176,9.732ZM8.216,13.02C8.595,13.02 8.903,12.709 8.903,12.324C8.903,11.94 8.595,11.629 8.216,11.629C7.837,11.629 7.53,11.94 7.53,12.324C7.53,12.709 7.837,13.02 8.216,13.02ZM8.833,12.328C8.833,12.673 8.557,12.953 8.216,12.953C7.876,12.953 7.6,12.673 7.6,12.328C7.6,11.983 7.876,11.703 8.216,11.703C8.557,11.703 8.833,11.983 8.833,12.328ZM8.396,12.129C8.433,12.162 8.453,12.21 8.453,12.277C8.453,12.345 8.433,12.392 8.396,12.426C8.356,12.456 8.299,12.473 8.219,12.473L8.149,12.473L8.149,12.625L8.029,12.625L8.029,12.081L8.219,12.081C8.299,12.081 8.359,12.098 8.396,12.129ZM8.329,12.27C8.329,12.301 8.323,12.324 8.309,12.341C8.296,12.358 8.269,12.368 8.229,12.365L8.149,12.365L8.149,12.183L8.216,12.183C8.256,12.183 8.286,12.189 8.303,12.203C8.319,12.216 8.329,12.24 8.329,12.27Z" style="fill:rgb(183,183,183);"/>
            <path id="Shape" d="M11.249,10.457C9.286,11.19 7.13,11.19 5.166,10.457C5.146,10.45 5.136,10.44 5.103,10.426L5.103,10.815C5.103,10.987 5.243,11.186 5.406,11.247C7.216,11.923 9.199,11.923 11.009,11.247C11.176,11.186 11.303,10.987 11.303,10.815L11.303,10.426C11.303,10.436 11.269,10.447 11.249,10.457Z" style="fill:rgb(118,118,118);"/>
            <path id="Shape_2" d="M6.283,2.942C6.283,2.942 2.573,3.462 2.893,7.194C2.91,7.383 2.153,6.387 1.567,6.083C0.98,5.779 1,4.796 1,4.796C1,4.796 0.99,3.084 3.36,2.577C5.726,2.074 6.283,2.942 6.283,2.942Z" style="fill:rgb(118,118,118);"/>
            <path id="Shape_3" d="M10.193,2.942C10.193,2.942 13.902,3.462 13.582,7.194C13.566,7.383 14.322,6.387 14.909,6.083C15.496,5.779 15.476,4.796 15.476,4.796C15.476,4.796 15.486,3.084 13.116,2.577C10.749,2.074 10.193,2.942 10.193,2.942Z" style="fill:rgb(118,118,118);"/>
            <g id="Group">
                <path id="Shape_4" d="M9.113,7.936C9.223,8.182 8.843,8.584 8.239,8.584C7.636,8.584 7.256,8.182 7.366,7.936C7.473,7.682 7.856,7.601 8.239,7.598C8.623,7.601 9.006,7.682 9.113,7.936Z" style="fill:rgb(118,118,118);"/>
            </g>
        </g>
    </g>
</svg>
