<?xml version="1.0" encoding="UTF-8" standalone="no"?>
<!DOCTYPE svg PUBLIC "-//W3C//DTD SVG 1.1//EN" "http://www.w3.org/Graphics/SVG/1.1/DTD/svg11.dtd">
<svg width="100%" height="100%" viewBox="0 0 16 16" version="1.1" xmlns="http://www.w3.org/2000/svg" xmlns:xlink="http://www.w3.org/1999/xlink" xml:space="preserve" xmlns:serif="http://www.serif.com/" style="fill-rule:evenodd;clip-rule:evenodd;stroke-linejoin:round;stroke-miterlimit:2;">
    <path d="M11.099,11.245L10.047,10.263L5.427,10.263L6.479,11.245L11.099,11.245Z" style="fill:rgb(166,166,166);fill-rule:nonzero;"/>
    <path d="M6.479,7.802L5.428,8.784L10.047,8.784L11.099,7.802L6.479,7.802Z" style="fill:rgb(166,166,166);fill-rule:nonzero;"/>
    <path d="M11.098,6.323L10.047,5.34L5.428,5.34L6.479,6.323L11.098,6.323Z" style="fill:rgb(166,166,166);fill-rule:nonzero;"/>
    <path d="M4.942,7.295L4.247,6.6L1.67,9.176C1.578,9.268 1.527,9.392 1.527,9.523C1.527,9.655 1.578,9.778 1.67,9.87L4.247,12.447L4.942,11.752L2.713,9.523L4.942,7.295Z" style="fill:rgb(166,166,166);fill-rule:nonzero;"/>
    <path d="M14.856,6.715L12.281,4.138L11.586,4.833L13.814,7.062L11.586,9.291L12.281,9.986L14.856,7.41C14.949,7.316 15,7.193 15,7.062C14.999,6.93 14.949,6.807 14.856,6.715Z" style="fill:rgb(166,166,166);fill-rule:nonzero;"/>
</svg>
