<?xml version="1.0" encoding="UTF-8" standalone="no"?>
<!DOCTYPE svg PUBLIC "-//W3C//DTD SVG 1.1//EN" "http://www.w3.org/Graphics/SVG/1.1/DTD/svg11.dtd">
<svg width="100%" height="100%" viewBox="0 0 16 16" version="1.1" xmlns="http://www.w3.org/2000/svg" xmlns:xlink="http://www.w3.org/1999/xlink" xml:space="preserve" xmlns:serif="http://www.serif.com/" style="fill-rule:evenodd;clip-rule:evenodd;stroke-linejoin:round;stroke-miterlimit:2;">
    <g id="python">
        <g id="Group">
            <path id="Subtract" d="M11.703,5.796L10.847,5.796L10.847,7.105C10.847,7.105 10.893,8.666 9.436,8.666L7.007,8.666C7.007,8.666 5.642,8.642 5.642,10.103L5.642,12.519C5.433,14.419 10.566,14.479 10.524,12.768L10.521,11.512L8.072,11.512L8.072,11.135L11.494,11.135C13.744,11.323 13.601,5.717 11.703,5.796ZM9.247,13.071C8.954,12.887 8.954,12.425 9.247,12.24C9.54,12.056 9.908,12.288 9.908,12.656C9.908,13.024 9.54,13.255 9.247,13.071Z" style="fill:rgb(183,183,183);"/>
            <path id="Subtract_2" d="M4.458,11.209L5.314,11.209L5.314,9.9C5.314,9.9 5.268,8.339 6.724,8.339L9.154,8.339C9.154,8.339 10.519,8.363 10.519,6.902L10.519,4.294C10.302,2.504 5.48,2.646 5.637,4.258L5.637,5.493L8.089,5.493L8.089,5.87L4.667,5.87C2.356,5.817 2.603,11.209 4.458,11.209ZM6.472,4.765C6.179,4.581 6.179,4.118 6.472,3.934C6.765,3.75 7.134,3.981 7.134,4.349C7.134,4.717 6.765,4.949 6.472,4.765Z" style="fill:rgb(163,163,163);"/>
        </g>
    </g>
</svg>
