<?xml version="1.0" encoding="UTF-8" standalone="no"?>
<!DOCTYPE svg PUBLIC "-//W3C//DTD SVG 1.1//EN" "http://www.w3.org/Graphics/SVG/1.1/DTD/svg11.dtd">
<svg width="100%" height="100%" viewBox="0 0 16 16" version="1.1" xmlns="http://www.w3.org/2000/svg" xmlns:xlink="http://www.w3.org/1999/xlink" xml:space="preserve" xmlns:serif="http://www.serif.com/" style="fill-rule:evenodd;clip-rule:evenodd;stroke-linejoin:round;stroke-miterlimit:2;">
    <g id="react">
        <path id="Vector" d="M7.993,11.944C8.41,12.357 8.813,12.677 9.203,12.906C9.592,13.135 9.95,13.249 10.275,13.25C10.375,13.25 10.475,13.238 10.575,13.215C10.674,13.192 10.765,13.152 10.847,13.095C11.137,12.927 11.334,12.632 11.438,12.211C11.542,11.79 11.545,11.271 11.445,10.653C11.427,10.541 11.407,10.428 11.384,10.316C11.362,10.204 11.337,10.092 11.309,9.979C11.418,9.941 11.525,9.906 11.629,9.874C11.732,9.842 11.834,9.807 11.935,9.769C12.505,9.544 12.94,9.282 13.239,8.983C13.538,8.683 13.688,8.36 13.688,8.014C13.688,7.668 13.538,7.345 13.239,7.045C12.94,6.746 12.505,6.484 11.935,6.259C11.835,6.221 11.733,6.184 11.629,6.147C11.524,6.11 11.418,6.077 11.309,6.049C11.337,5.936 11.362,5.824 11.384,5.712C11.407,5.6 11.427,5.492 11.445,5.389C11.535,4.752 11.531,4.221 11.431,3.796C11.331,3.371 11.137,3.073 10.847,2.905C10.756,2.848 10.661,2.808 10.562,2.785C10.462,2.762 10.362,2.75 10.262,2.75C9.945,2.75 9.59,2.865 9.196,3.094C8.801,3.324 8.401,3.644 7.993,4.056C7.586,3.644 7.187,3.323 6.797,3.094C6.408,2.865 6.05,2.751 5.724,2.75C5.625,2.75 5.525,2.762 5.425,2.785C5.326,2.808 5.235,2.848 5.153,2.905C4.863,3.073 4.666,3.368 4.562,3.789C4.458,4.21 4.455,4.729 4.555,5.347C4.573,5.46 4.593,5.572 4.616,5.684C4.638,5.796 4.663,5.908 4.691,6.021C4.582,6.059 4.475,6.094 4.372,6.126C4.268,6.158 4.166,6.193 4.065,6.231C3.495,6.456 3.06,6.718 2.761,7.017C2.462,7.317 2.313,7.64 2.313,7.986C2.313,8.332 2.462,8.655 2.761,8.955C3.06,9.254 3.495,9.516 4.065,9.741C4.165,9.779 4.267,9.816 4.372,9.853C4.476,9.89 4.582,9.923 4.691,9.951C4.663,10.064 4.638,10.176 4.616,10.288C4.593,10.4 4.573,10.508 4.555,10.611C4.465,11.229 4.469,11.75 4.569,12.176C4.669,12.602 4.863,12.899 5.153,13.068C5.235,13.114 5.326,13.152 5.425,13.18C5.525,13.208 5.625,13.222 5.724,13.222C6.051,13.232 6.409,13.122 6.797,12.892C7.186,12.663 7.585,12.347 7.993,11.944ZM7.368,10.385C7.477,10.395 7.583,10.4 7.687,10.4L8.312,10.4C8.312,10.4 8.419,10.395 8.631,10.385C8.522,10.525 8.416,10.659 8.312,10.785C8.208,10.912 8.102,11.036 7.993,11.157C7.893,11.036 7.791,10.912 7.687,10.785C7.583,10.659 7.476,10.525 7.368,10.385ZM5.983,9.192C6.046,9.295 6.102,9.393 6.152,9.487C6.202,9.58 6.259,9.674 6.322,9.768C6.15,9.74 5.982,9.712 5.819,9.684C5.656,9.655 5.498,9.623 5.344,9.586C5.389,9.436 5.441,9.279 5.5,9.116C5.559,8.952 5.62,8.791 5.684,8.631C5.729,8.725 5.776,8.818 5.826,8.913C5.876,9.007 5.928,9.1 5.983,9.194L5.983,9.192ZM5.344,6.412C5.498,6.374 5.656,6.341 5.819,6.314C5.982,6.286 6.15,6.258 6.322,6.229L6.158,6.511C6.158,6.511 6.1,6.609 5.982,6.805C5.927,6.899 5.875,6.993 5.825,7.087C5.775,7.181 5.728,7.279 5.683,7.381C5.61,7.213 5.547,7.047 5.492,6.883C5.438,6.718 5.388,6.562 5.343,6.413L5.344,6.412ZM5.955,7.999C6.027,7.839 6.102,7.683 6.179,7.529C6.256,7.375 6.34,7.218 6.431,7.059L6.703,6.609C6.703,6.609 6.798,6.46 6.988,6.16C7.151,6.142 7.316,6.13 7.484,6.125C7.651,6.12 7.821,6.118 7.993,6.118C8.174,6.118 8.349,6.12 8.516,6.125C8.684,6.13 8.849,6.142 9.012,6.16C9.121,6.31 9.218,6.46 9.304,6.609C9.39,6.759 9.478,6.909 9.569,7.059C9.66,7.218 9.744,7.375 9.821,7.529C9.898,7.683 9.973,7.839 10.045,7.999L9.821,8.462C9.821,8.462 9.737,8.617 9.569,8.926L9.297,9.375C9.297,9.375 9.202,9.525 9.012,9.825C8.849,9.843 8.684,9.855 8.516,9.86C8.349,9.864 8.174,9.867 7.993,9.867C7.821,9.867 7.651,9.864 7.484,9.86C7.316,9.855 7.151,9.843 6.988,9.825C6.879,9.675 6.782,9.525 6.696,9.375C6.61,9.226 6.522,9.076 6.431,8.926C6.34,8.776 6.256,8.622 6.179,8.462L5.955,7.999ZM10.33,7.367L10.018,6.791C9.964,6.688 9.911,6.592 9.862,6.503C9.812,6.415 9.755,6.323 9.692,6.229C9.864,6.248 10.032,6.271 10.195,6.299C10.358,6.328 10.516,6.36 10.67,6.397C10.625,6.557 10.573,6.718 10.514,6.882C10.455,7.045 10.394,7.207 10.33,7.366L10.33,7.367ZM10.33,8.617C10.394,8.776 10.455,8.938 10.514,9.101C10.573,9.265 10.625,9.421 10.67,9.571C10.516,9.609 10.358,9.642 10.195,9.669C10.032,9.697 9.864,9.725 9.692,9.754L9.856,9.472C9.856,9.472 9.91,9.374 10.019,9.178C10.073,9.093 10.126,9.004 10.176,8.911C10.225,8.817 10.278,8.719 10.332,8.616L10.33,8.617ZM10.589,12.632C10.543,12.66 10.493,12.679 10.439,12.688C10.384,12.698 10.326,12.703 10.262,12.703C9.991,12.703 9.689,12.597 9.359,12.387C9.029,12.176 8.696,11.897 8.361,11.551C8.524,11.373 8.685,11.183 8.843,10.982C9.002,10.781 9.158,10.568 9.312,10.343C9.575,10.315 9.831,10.282 10.08,10.245C10.329,10.208 10.571,10.157 10.807,10.091C10.834,10.194 10.857,10.299 10.875,10.407C10.893,10.515 10.911,10.62 10.929,10.723C11.011,11.21 11.022,11.622 10.963,11.959C10.904,12.295 10.78,12.52 10.589,12.633L10.589,12.632ZM11.159,6.538C11.793,6.726 12.287,6.951 12.64,7.212C12.993,7.474 13.169,7.736 13.169,7.999C13.169,8.223 13.045,8.443 12.795,8.658C12.546,8.873 12.195,9.07 11.742,9.248C11.652,9.285 11.559,9.32 11.464,9.353C11.369,9.385 11.267,9.416 11.158,9.444C11.086,9.21 11.004,8.972 10.914,8.728C10.823,8.485 10.724,8.242 10.615,7.998C10.724,7.745 10.826,7.497 10.921,7.254C11.016,7.011 11.095,6.772 11.158,6.538L11.159,6.538ZM10.275,3.281C10.33,3.281 10.384,3.286 10.439,3.295C10.493,3.305 10.543,3.328 10.589,3.366C10.779,3.469 10.906,3.686 10.969,4.019C11.033,4.351 11.024,4.766 10.942,5.262C10.925,5.365 10.904,5.468 10.882,5.571C10.859,5.674 10.839,5.781 10.821,5.893C10.585,5.837 10.343,5.79 10.094,5.753C9.845,5.716 9.589,5.683 9.326,5.655C9.172,5.421 9.016,5.203 8.857,5.002C8.699,4.801 8.538,4.611 8.375,4.433C8.71,4.096 9.041,3.82 9.367,3.605C9.693,3.39 9.997,3.282 10.277,3.282L10.275,3.281ZM8.632,5.598C8.523,5.598 8.417,5.595 8.313,5.59C8.209,5.586 8.103,5.583 7.994,5.583C7.894,5.583 7.792,5.586 7.688,5.59C7.584,5.595 7.477,5.598 7.369,5.598C7.478,5.457 7.584,5.324 7.688,5.198C7.792,5.071 7.894,4.947 7.994,4.826C8.103,4.947 8.209,5.074 8.313,5.205C8.417,5.336 8.523,5.467 8.632,5.599L8.632,5.598ZM5.411,3.366C5.457,3.328 5.507,3.304 5.561,3.295C5.616,3.286 5.674,3.282 5.738,3.281C6.009,3.281 6.311,3.387 6.641,3.597C6.971,3.808 7.304,4.087 7.639,4.433C7.476,4.611 7.315,4.801 7.157,5.002C6.998,5.203 6.842,5.421 6.688,5.655C6.425,5.674 6.169,5.704 5.92,5.747C5.671,5.789 5.429,5.838 5.193,5.894C5.166,5.791 5.143,5.686 5.125,5.578C5.107,5.47 5.089,5.365 5.071,5.262C4.989,4.775 4.978,4.365 5.037,4.033C5.096,3.701 5.22,3.479 5.411,3.366L5.411,3.366ZM4.841,9.444C4.207,9.267 3.713,9.044 3.36,8.778C3.007,8.511 2.831,8.251 2.831,7.999C2.831,7.774 2.955,7.552 3.205,7.332C3.454,7.112 3.805,6.913 4.258,6.735C4.348,6.698 4.441,6.662 4.536,6.63C4.631,6.598 4.733,6.567 4.842,6.538C4.914,6.773 4.996,7.011 5.086,7.255C5.177,7.498 5.276,7.746 5.385,7.999C5.276,8.242 5.174,8.487 5.079,8.735C4.984,8.984 4.905,9.22 4.842,9.444L4.841,9.444ZM5.072,10.722L5.127,10.413C5.127,10.413 5.15,10.306 5.195,10.091C5.43,10.147 5.673,10.196 5.922,10.238C6.171,10.28 6.427,10.315 6.69,10.343C6.844,10.568 7,10.781 7.158,10.982C7.317,11.183 7.477,11.373 7.641,11.551C7.306,11.897 6.973,12.176 6.643,12.387C6.312,12.597 6.011,12.703 5.739,12.703C5.676,12.703 5.62,12.698 5.57,12.688C5.52,12.679 5.468,12.66 5.413,12.632C5.223,12.519 5.098,12.294 5.039,11.958C4.98,11.621 4.991,11.209 5.073,10.722L5.072,10.722Z" style="fill:rgb(159,159,159);"/>
        <path id="Vector_2" d="M9.039,7.999C9.039,8.289 8.937,8.539 8.733,8.75C8.529,8.961 8.282,9.066 7.992,9.066C7.712,9.066 7.469,8.961 7.265,8.75C7.061,8.539 6.959,8.289 6.959,7.999C6.959,7.699 7.061,7.444 7.265,7.233C7.469,7.022 7.712,6.917 7.992,6.917C8.282,6.917 8.529,7.022 8.733,7.233C8.937,7.444 9.039,7.699 9.039,7.999Z" style="fill:rgb(121,121,121);"/>
    </g>
</svg>
