<?xml version="1.0" encoding="UTF-8" standalone="no"?>
<!DOCTYPE svg PUBLIC "-//W3C//DTD SVG 1.1//EN" "http://www.w3.org/Graphics/SVG/1.1/DTD/svg11.dtd">
<svg width="100%" height="100%" viewBox="0 0 16 16" version="1.1" xmlns="http://www.w3.org/2000/svg" xmlns:xlink="http://www.w3.org/1999/xlink" xml:space="preserve" xmlns:serif="http://www.serif.com/" style="fill-rule:evenodd;clip-rule:evenodd;stroke-linejoin:round;stroke-miterlimit:2;">
    <g id="readme">
        <path id="Shape" d="M8,2C4.691,2 2,4.691 2,8C2,11.309 4.691,14 8,14C11.309,14 14,11.309 14,8C14,4.691 11.309,2 8,2ZM9.235,11.18L9.235,11.18C8.819,11.352 7.8,11.773 7.193,11.238C6.996,11.065 6.898,10.845 6.898,10.579C6.898,10.181 7.002,9.823 7.194,9.165L7.194,9.165C7.243,8.998 7.298,8.812 7.358,8.6C7.41,8.403 7.473,8.147 7.473,7.944C7.473,7.593 7.34,7.5 6.98,7.5C6.803,7.5 6.609,7.563 6.432,7.629L6.529,7.229C6.923,7.069 7.417,6.874 7.84,6.874C8.475,6.874 8.942,7.191 8.942,7.793C8.942,7.966 8.912,8.27 8.849,8.48L8.484,9.771C8.408,10.032 8.272,10.608 8.483,10.778C8.691,10.947 9.184,10.857 9.427,10.743L9.329,11.142C9.303,11.152 9.271,11.165 9.235,11.18ZM7.976,5.25C7.976,5.664 8.312,6 8.726,6C9.14,6 9.476,5.664 9.476,5.25C9.476,4.836 9.14,4.5 8.726,4.5C8.312,4.5 7.976,4.836 7.976,5.25Z" style="fill:rgb(163,163,163);"/>
    </g>
</svg>
