<?xml version="1.0" encoding="UTF-8" standalone="no"?>
<!DOCTYPE svg PUBLIC "-//W3C//DTD SVG 1.1//EN" "http://www.w3.org/Graphics/SVG/1.1/DTD/svg11.dtd">
<svg width="100%" height="100%" viewBox="0 0 16 16" version="1.1" xmlns="http://www.w3.org/2000/svg" xmlns:xlink="http://www.w3.org/1999/xlink" xml:space="preserve" xmlns:serif="http://www.serif.com/" style="fill-rule:evenodd;clip-rule:evenodd;stroke-linejoin:round;stroke-miterlimit:2;">
    <g id="reason">
        <path id="RE" d="M7.856,9.11C7.856,8.909 7.792,8.76 7.663,8.664C7.535,8.568 7.33,8.521 7.048,8.521L6.526,8.521L6.526,9.733L7.073,9.733C7.595,9.733 7.856,9.525 7.856,9.11ZM3,4C3,3.448 3.448,3 4,3L12,3C12.552,3 13,3.448 13,4L13,12C13,12.552 12.552,13 12,13L4,13C3.448,13 3,12.552 3,12L3,4ZM7.965,12.13L7.063,10.471L6.526,10.471L6.526,12.13L5.609,12.13L5.609,7.783L7.144,7.783C7.691,7.783 8.101,7.893 8.372,8.115C8.644,8.336 8.779,8.655 8.779,9.072C8.779,9.366 8.703,9.617 8.549,9.823C8.396,10.029 8.183,10.174 7.912,10.258L8.997,12.13L7.965,12.13ZM9.429,7.783L9.429,12.13L12.565,12.13L12.565,11.396L10.346,11.396L10.346,10.297L12.248,10.297L12.248,9.562L10.346,9.562L10.346,8.517L12.438,8.517L12.438,7.783L9.429,7.783Z" style="fill:rgb(139,139,139);"/>
    </g>
</svg>
