<?xml version="1.0" encoding="UTF-8" standalone="no"?>
<!DOCTYPE svg PUBLIC "-//W3C//DTD SVG 1.1//EN" "http://www.w3.org/Graphics/SVG/1.1/DTD/svg11.dtd">
<svg width="100%" height="100%" viewBox="0 0 16 16" version="1.1" xmlns="http://www.w3.org/2000/svg" xmlns:xlink="http://www.w3.org/1999/xlink" xml:space="preserve" xmlns:serif="http://www.serif.com/" style="fill-rule:evenodd;clip-rule:evenodd;stroke-linejoin:round;stroke-miterlimit:2;">
    <path d="M14.917,6.667L9.083,6.667C7.795,6.667 6.75,7.711 6.75,9L6.75,14.6L2.317,14.6C1.945,14.6 1.589,14.453 1.327,14.19C1.064,13.927 0.917,13.571 0.917,13.2L0.917,3.4C0.917,3.029 1.064,2.673 1.327,2.41C1.589,2.148 1.945,2 2.317,2L5.817,2L7.217,4.1L13.517,4.1C13.888,4.1 14.244,4.247 14.507,4.51C14.769,4.773 14.917,5.129 14.917,5.5L14.917,6.667Z" style="fill:rgb(156,156,156);"/>
    <path d="M9,8C8.448,8 8,8.448 8,9L8,14C8,14.552 8.448,15 9,15L14,15C14.552,15 15,14.552 15,14L15,9C15,8.448 14.552,8 14,8L9,8ZM12.916,10.277C13.069,10.048 13.007,9.737 12.777,9.584C12.548,9.431 12.237,9.493 12.084,9.723L10.084,12.723C9.931,12.952 9.993,13.263 10.223,13.416C10.452,13.569 10.763,13.507 10.916,13.277L12.916,10.277Z" style="fill:rgb(159,159,159);"/>
</svg>
