<?xml version="1.0" encoding="UTF-8" standalone="no"?>
<!DOCTYPE svg PUBLIC "-//W3C//DTD SVG 1.1//EN" "http://www.w3.org/Graphics/SVG/1.1/DTD/svg11.dtd">
<svg width="100%" height="100%" viewBox="0 0 16 16" version="1.1" xmlns="http://www.w3.org/2000/svg" xmlns:xlink="http://www.w3.org/1999/xlink" xml:space="preserve" xmlns:serif="http://www.serif.com/" style="fill-rule:evenodd;clip-rule:evenodd;stroke-linejoin:round;stroke-miterlimit:2;">
    <g id="ruby">
        <g id="ruby-rough">
            <g>
                <clipPath id="_clip1">
                    <rect x="3" y="3" width="10" height="10"/>
                </clipPath>
                <g clip-path="url(#_clip1)">
                    <path id="Vector" d="M9.44,4.828C8.615,7.034 7.076,8.559 4.87,9.341C3.789,9.725 2.893,8.787 3.695,7.183C4.544,5.486 5.842,4.246 7.583,3.494C9.146,2.968 9.764,3.58 9.44,4.828ZM9.111,6.491L9.112,6.492L12.756,6.237C12.666,6.15 12.614,6.093 12.555,6.046L9.303,3.435C9.196,3.349 9.13,3.213 8.987,3.023C9.451,3.023 9.826,3.019 10.202,3.024C10.654,3.031 11.118,2.987 11.558,3.068C12.51,3.244 13.018,3.858 13,4.825C12.983,5.732 12.44,12.462 12.44,12.462L10.975,11.157C10.975,11.157 10.862,11.03 10.793,10.986C10.206,10.612 9.961,10.055 9.827,9.388C9.592,8.264 9.249,7.082 9.111,6.491ZM6.234,9.171C7.493,9.574 8.743,9.975 10.03,10.386C9.36,11.062 8.648,11.629 7.852,12.138L12.107,12.463L12.107,12.517C12.107,12.517 5.205,12.987 4.919,12.982C3.704,12.96 3.016,12.294 3.001,11.076C2.992,10.392 3.062,9.707 3.106,9.023C3.109,8.971 3.183,8.924 3.224,8.874C3.285,8.929 3.374,8.971 3.404,9.04C3.766,9.88 4.577,11.793 4.577,11.793C4.577,11.793 5.078,11.742 5.309,11.682C5.399,11.659 5.505,11.549 5.534,11.456C5.84,10.523 6.127,9.401 6.234,9.171Z" style="fill:rgb(139,139,139);fill-rule:nonzero;"/>
                </g>
            </g>
        </g>
    </g>
</svg>
