<?xml version="1.0" encoding="UTF-8" standalone="no"?>
<!DOCTYPE svg PUBLIC "-//W3C//DTD SVG 1.1//EN" "http://www.w3.org/Graphics/SVG/1.1/DTD/svg11.dtd">
<svg width="100%" height="100%" viewBox="0 0 16 16" version="1.1" xmlns="http://www.w3.org/2000/svg" xmlns:xlink="http://www.w3.org/1999/xlink" xml:space="preserve" xmlns:serif="http://www.serif.com/" style="fill-rule:evenodd;clip-rule:evenodd;stroke-linejoin:round;stroke-miterlimit:2;">
    <g id="rust">
        <path id="Shape" d="M13.933,7.858L13.428,7.552C13.428,7.528 13.424,7.504 13.418,7.479C13.412,7.454 13.409,7.43 13.409,7.406L13.842,6.993C13.866,6.969 13.881,6.944 13.887,6.92C13.893,6.895 13.896,6.865 13.896,6.83C13.884,6.806 13.869,6.782 13.851,6.757C13.833,6.733 13.812,6.715 13.788,6.703L13.229,6.505C13.217,6.481 13.208,6.457 13.202,6.432C13.197,6.408 13.194,6.383 13.193,6.36L13.536,5.873C13.548,5.849 13.557,5.823 13.563,5.793C13.568,5.763 13.565,5.736 13.553,5.712C13.542,5.688 13.524,5.664 13.499,5.639C13.474,5.615 13.444,5.603 13.409,5.603L12.832,5.514L12.759,5.369L13.012,4.847C13.024,4.811 13.027,4.778 13.021,4.748C13.015,4.718 13.006,4.691 12.995,4.667C12.983,4.644 12.962,4.626 12.931,4.613C12.9,4.601 12.873,4.595 12.85,4.595L12.255,4.613C12.242,4.601 12.227,4.583 12.21,4.559C12.192,4.535 12.177,4.517 12.165,4.505L12.291,3.929C12.303,3.892 12.303,3.862 12.291,3.839L12.255,3.766C12.231,3.742 12.204,3.727 12.174,3.721C12.144,3.715 12.117,3.712 12.093,3.712L11.516,3.856C11.492,3.844 11.471,3.829 11.453,3.811C11.434,3.793 11.413,3.778 11.389,3.766L11.425,3.171C11.425,3.135 11.416,3.105 11.398,3.081C11.381,3.057 11.359,3.039 11.335,3.027C11.311,3.003 11.284,2.991 11.254,2.991C11.224,2.991 11.197,2.998 11.173,3.01L10.632,3.244C10.608,3.232 10.587,3.22 10.568,3.208C10.55,3.197 10.529,3.185 10.505,3.172L10.415,2.596C10.403,2.572 10.387,2.548 10.37,2.523C10.352,2.499 10.331,2.481 10.306,2.469C10.27,2.457 10.24,2.451 10.216,2.451C10.192,2.451 10.162,2.463 10.126,2.487L9.658,2.829C9.634,2.817 9.609,2.808 9.585,2.802C9.56,2.797 9.536,2.794 9.512,2.793L9.314,2.235C9.301,2.211 9.283,2.187 9.259,2.163C9.235,2.138 9.205,2.126 9.169,2.127C9.145,2.115 9.119,2.115 9.089,2.127C9.058,2.139 9.032,2.157 9.008,2.181L8.611,2.613C8.587,2.613 8.563,2.61 8.538,2.604C8.513,2.598 8.489,2.595 8.465,2.595L8.158,2.09C8.134,2.066 8.11,2.045 8.085,2.027C8.061,2.008 8.031,1.999 7.995,2C7.972,2 7.947,2.009 7.923,2.027C7.898,2.044 7.874,2.065 7.85,2.09L7.543,2.595C7.519,2.595 7.495,2.598 7.47,2.604C7.446,2.61 7.421,2.613 7.397,2.613L6.983,2.181C6.971,2.157 6.95,2.139 6.92,2.127C6.89,2.115 6.863,2.115 6.839,2.127C6.803,2.127 6.773,2.139 6.749,2.163C6.725,2.186 6.707,2.211 6.694,2.235L6.496,2.793C6.472,2.793 6.448,2.796 6.423,2.802C6.399,2.808 6.374,2.817 6.351,2.829L5.863,2.487C5.84,2.463 5.813,2.451 5.783,2.451C5.753,2.451 5.726,2.457 5.702,2.469C5.678,2.482 5.657,2.5 5.638,2.523C5.62,2.547 5.605,2.571 5.593,2.596L5.503,3.172C5.479,3.185 5.458,3.197 5.44,3.208C5.421,3.22 5.4,3.232 5.376,3.244L4.835,3.01C4.811,2.998 4.784,2.991 4.754,2.991C4.724,2.991 4.697,3.003 4.673,3.027C4.649,3.039 4.628,3.057 4.61,3.081C4.591,3.105 4.583,3.135 4.583,3.171L4.619,3.766C4.595,3.778 4.574,3.793 4.556,3.811C4.537,3.829 4.516,3.844 4.492,3.856L3.915,3.712C3.891,3.712 3.864,3.715 3.834,3.721C3.804,3.727 3.777,3.742 3.753,3.766C3.73,3.79 3.715,3.814 3.708,3.839C3.702,3.863 3.705,3.893 3.718,3.929L3.843,4.505C3.831,4.517 3.816,4.535 3.798,4.559C3.781,4.583 3.766,4.601 3.753,4.613L3.158,4.595C3.134,4.595 3.107,4.601 3.077,4.613C3.047,4.626 3.026,4.644 3.013,4.667C2.99,4.691 2.978,4.718 2.978,4.748C2.978,4.778 2.984,4.811 2.996,4.847L3.249,5.369L3.176,5.514L2.581,5.603C2.557,5.603 2.533,5.615 2.508,5.639C2.483,5.663 2.465,5.687 2.454,5.712C2.442,5.736 2.439,5.763 2.444,5.793C2.45,5.822 2.459,5.849 2.471,5.873L2.814,6.36C2.814,6.383 2.808,6.408 2.795,6.432C2.783,6.457 2.777,6.481 2.777,6.505L2.218,6.703C2.194,6.715 2.173,6.734 2.155,6.757C2.136,6.781 2.121,6.805 2.11,6.83C2.11,6.866 2.113,6.896 2.119,6.92C2.125,6.944 2.14,6.968 2.164,6.993L2.597,7.406C2.597,7.43 2.594,7.454 2.588,7.479C2.581,7.504 2.578,7.528 2.578,7.552L2.073,7.858C2.049,7.871 2.031,7.892 2.018,7.922C2.006,7.952 2,7.978 2,8.002C2,8.038 2.006,8.068 2.018,8.092C2.031,8.116 2.049,8.134 2.073,8.146L2.578,8.47C2.578,8.494 2.581,8.518 2.588,8.543C2.594,8.568 2.597,8.592 2.597,8.616L2.164,9.012C2.14,9.036 2.125,9.063 2.119,9.093C2.113,9.123 2.11,9.15 2.11,9.173C2.122,9.21 2.137,9.236 2.155,9.254C2.172,9.272 2.194,9.287 2.218,9.299L2.777,9.516C2.777,9.54 2.783,9.564 2.795,9.588C2.808,9.613 2.814,9.637 2.814,9.661L2.471,10.129C2.459,10.153 2.45,10.18 2.444,10.21C2.439,10.24 2.442,10.267 2.454,10.291C2.466,10.327 2.484,10.354 2.508,10.371C2.532,10.389 2.556,10.398 2.581,10.398L3.176,10.506C3.189,10.518 3.2,10.536 3.212,10.56L3.248,10.633L2.995,11.174C2.983,11.197 2.977,11.224 2.977,11.254C2.977,11.284 2.988,11.311 3.012,11.335C3.025,11.359 3.046,11.377 3.076,11.389C3.106,11.401 3.133,11.408 3.157,11.408L3.752,11.389C3.765,11.413 3.78,11.434 3.797,11.452L3.842,11.497L3.716,12.074C3.704,12.11 3.701,12.143 3.707,12.173C3.713,12.203 3.728,12.224 3.752,12.236C3.776,12.26 3.803,12.278 3.833,12.291C3.863,12.303 3.89,12.303 3.914,12.291L4.491,12.146C4.515,12.17 4.536,12.188 4.554,12.201C4.573,12.213 4.588,12.231 4.599,12.255L4.581,12.831C4.581,12.867 4.59,12.897 4.608,12.921C4.625,12.945 4.646,12.969 4.671,12.994C4.695,13.006 4.722,13.015 4.752,13.02C4.782,13.025 4.809,13.022 4.833,13.011L5.374,12.759C5.398,12.771 5.419,12.783 5.437,12.794C5.456,12.806 5.477,12.818 5.501,12.83L5.591,13.406C5.603,13.442 5.618,13.472 5.636,13.496C5.654,13.52 5.675,13.538 5.699,13.55L5.78,13.55C5.78,13.55 5.807,13.539 5.861,13.515L6.348,13.172C6.372,13.185 6.396,13.193 6.421,13.199C6.446,13.204 6.47,13.213 6.494,13.225L6.692,13.766C6.705,13.802 6.723,13.829 6.746,13.847C6.77,13.864 6.8,13.873 6.836,13.873C6.86,13.885 6.887,13.885 6.917,13.873C6.947,13.861 6.968,13.849 6.981,13.837L7.395,13.405L7.539,13.405L7.846,13.91C7.87,13.934 7.895,13.955 7.919,13.973C7.944,13.992 7.968,14.001 7.992,14C8.028,14 8.058,13.991 8.082,13.973C8.106,13.956 8.13,13.935 8.155,13.91L8.462,13.405L8.606,13.405L9.003,13.837C9.027,13.85 9.054,13.862 9.084,13.873C9.114,13.885 9.141,13.885 9.165,13.873C9.201,13.873 9.231,13.864 9.255,13.847C9.279,13.829 9.291,13.802 9.291,13.766L9.508,13.225C9.531,13.213 9.556,13.204 9.58,13.199C9.605,13.193 9.629,13.185 9.653,13.172L10.122,13.515C10.158,13.539 10.188,13.55 10.212,13.55L10.302,13.55C10.326,13.538 10.347,13.52 10.365,13.496C10.384,13.472 10.399,13.442 10.41,13.406L10.5,12.83C10.524,12.818 10.545,12.806 10.564,12.794C10.582,12.783 10.603,12.771 10.627,12.759L11.169,13.011C11.192,13.023 11.219,13.026 11.249,13.02C11.279,13.014 11.306,13.005 11.33,12.994C11.354,12.97 11.375,12.946 11.394,12.921C11.412,12.896 11.421,12.866 11.42,12.831L11.384,12.255C11.408,12.231 11.429,12.213 11.448,12.201C11.466,12.188 11.488,12.17 11.511,12.146L12.089,12.291C12.112,12.303 12.139,12.303 12.169,12.291C12.199,12.278 12.226,12.26 12.25,12.236C12.262,12.224 12.274,12.203 12.286,12.173C12.297,12.143 12.297,12.11 12.286,12.074L12.16,11.497L12.205,11.452C12.205,11.452 12.22,11.431 12.25,11.389L12.846,11.408C12.87,11.408 12.897,11.401 12.927,11.389C12.957,11.377 12.978,11.359 12.99,11.335C13.002,11.311 13.011,11.284 13.017,11.254C13.022,11.224 13.019,11.197 13.007,11.174L12.755,10.633L12.79,10.56C12.79,10.56 12.802,10.542 12.826,10.506L13.403,10.398C13.439,10.398 13.469,10.389 13.493,10.371C13.517,10.354 13.535,10.327 13.548,10.291C13.56,10.267 13.563,10.24 13.557,10.21C13.551,10.18 13.542,10.153 13.53,10.129L13.187,9.661C13.187,9.637 13.191,9.613 13.197,9.588C13.203,9.564 13.212,9.54 13.223,9.516L13.782,9.299C13.806,9.287 13.827,9.272 13.845,9.254C13.864,9.236 13.879,9.21 13.89,9.173C13.89,9.15 13.887,9.123 13.881,9.093C13.875,9.063 13.86,9.036 13.836,9.012L13.403,8.616L13.403,8.543C13.403,8.543 13.409,8.519 13.422,8.47L13.927,8.146C13.951,8.134 13.969,8.116 13.982,8.092C13.994,8.068 14,8.038 14,8.002C14,7.978 13.994,7.952 13.982,7.922C13.969,7.892 13.951,7.871 13.927,7.858L13.933,7.858ZM10.56,12.037C10.464,12.013 10.389,11.959 10.335,11.874C10.281,11.79 10.26,11.7 10.272,11.605C10.296,11.509 10.35,11.434 10.434,11.38C10.519,11.326 10.609,11.311 10.705,11.335C10.8,11.359 10.875,11.41 10.93,11.488C10.984,11.567 10.999,11.66 10.975,11.767C10.951,11.863 10.9,11.935 10.821,11.984C10.743,12.032 10.655,12.05 10.559,12.038L10.56,12.037ZM10.38,10.884C10.296,10.86 10.215,10.872 10.137,10.92C10.058,10.968 10.013,11.034 10.002,11.118L9.821,11.964C9.545,12.084 9.254,12.177 8.947,12.243C8.639,12.309 8.324,12.342 8,12.342C7.676,12.342 7.357,12.309 7.044,12.243C6.731,12.177 6.436,12.078 6.16,11.946L5.98,11.1C5.956,11.016 5.908,10.95 5.836,10.901C5.763,10.853 5.685,10.841 5.601,10.866L4.861,11.01C4.789,10.938 4.723,10.865 4.663,10.793C4.603,10.721 4.543,10.643 4.483,10.559L8.109,10.559C8.109,10.559 8.115,10.547 8.127,10.523L8.127,9.262C8.127,9.238 8.121,9.223 8.109,9.217C8.096,9.211 8.084,9.208 8.073,9.208L7.008,9.208L7.008,8.415L8.144,8.415C8.204,8.415 8.319,8.442 8.487,8.496C8.656,8.549 8.776,8.72 8.848,9.009C8.872,9.092 8.905,9.245 8.948,9.467C8.99,9.69 9.029,9.849 9.065,9.945C9.089,10.053 9.164,10.182 9.291,10.332C9.417,10.482 9.552,10.557 9.697,10.557L11.537,10.557C11.477,10.641 11.414,10.722 11.347,10.8C11.281,10.878 11.212,10.959 11.14,11.043L10.383,10.881L10.38,10.884ZM5.42,12.018C5.324,12.031 5.234,12.013 5.15,11.964C5.066,11.916 5.018,11.844 5.006,11.748C4.982,11.652 4.997,11.562 5.051,11.478C5.105,11.394 5.18,11.34 5.276,11.315C5.372,11.291 5.462,11.306 5.546,11.36C5.63,11.415 5.678,11.49 5.69,11.585C5.714,11.681 5.699,11.771 5.645,11.855C5.591,11.939 5.516,11.993 5.42,12.017L5.42,12.018ZM4.067,6.507C4.104,6.591 4.104,6.681 4.067,6.777C4.031,6.873 3.971,6.939 3.887,6.975C3.791,7.011 3.698,7.011 3.608,6.975C3.518,6.939 3.455,6.879 3.419,6.795C3.37,6.699 3.364,6.606 3.4,6.516C3.436,6.427 3.503,6.364 3.599,6.327C3.683,6.291 3.77,6.288 3.861,6.318C3.952,6.348 4.021,6.411 4.068,6.507L4.067,6.507ZM3.653,7.497L4.41,7.155C4.494,7.119 4.551,7.059 4.581,6.975C4.611,6.891 4.608,6.807 4.572,6.723L4.427,6.362L5.04,6.362L5.04,9.172L3.778,9.172C3.729,8.98 3.69,8.782 3.66,8.578C3.63,8.373 3.615,8.169 3.615,7.965C3.615,7.882 3.618,7.801 3.624,7.722C3.63,7.644 3.639,7.569 3.651,7.497L3.653,7.497ZM7.007,7.228L7.007,6.399L8.486,6.399C8.534,6.399 8.637,6.429 8.793,6.489C8.949,6.549 9.027,6.663 9.027,6.831C9.027,6.976 8.958,7.078 8.82,7.138C8.681,7.198 8.534,7.228 8.377,7.228L7.006,7.228L7.007,7.228ZM12.4,7.965C12.4,8.025 12.397,8.082 12.391,8.136C12.385,8.19 12.382,8.241 12.382,8.289L11.93,8.289C11.907,8.289 11.892,8.295 11.885,8.308C11.879,8.32 11.876,8.338 11.876,8.362L11.876,8.579C11.876,8.819 11.819,8.978 11.705,9.056C11.591,9.134 11.474,9.178 11.353,9.191C11.245,9.203 11.137,9.185 11.029,9.137C10.921,9.088 10.861,9.028 10.849,8.957C10.777,8.573 10.683,8.311 10.569,8.173C10.456,8.035 10.308,7.894 10.127,7.75C10.344,7.618 10.548,7.447 10.74,7.237C10.933,7.027 11.029,6.784 11.029,6.507C11.029,6.207 10.948,5.964 10.785,5.778C10.623,5.592 10.476,5.451 10.343,5.354C10.139,5.222 9.943,5.138 9.757,5.102C9.571,5.066 9.447,5.048 9.387,5.048L4.735,5.048C5.047,4.687 5.414,4.387 5.835,4.148C6.255,3.908 6.706,3.746 7.187,3.661L7.746,4.237C7.806,4.297 7.881,4.33 7.971,4.337C8.061,4.343 8.136,4.31 8.196,4.237L8.809,3.661C9.459,3.781 10.045,4.03 10.567,4.408C11.09,4.786 11.508,5.245 11.821,5.786L11.406,6.74C11.358,6.824 11.352,6.908 11.388,6.993C11.424,7.077 11.484,7.137 11.568,7.172L12.379,7.533C12.379,7.605 12.383,7.678 12.389,7.75C12.395,7.822 12.398,7.894 12.398,7.967L12.4,7.965ZM7.747,3.175C7.82,3.102 7.904,3.066 8,3.066C8.096,3.066 8.18,3.102 8.253,3.175C8.313,3.247 8.343,3.334 8.343,3.436C8.343,3.539 8.307,3.62 8.234,3.68C8.162,3.752 8.078,3.788 7.982,3.788C7.885,3.788 7.801,3.752 7.729,3.68C7.656,3.607 7.623,3.52 7.629,3.418C7.636,3.316 7.675,3.235 7.747,3.175ZM11.913,6.525C11.949,6.428 12.015,6.362 12.112,6.326C12.208,6.29 12.298,6.296 12.382,6.345C12.478,6.381 12.541,6.444 12.571,6.534C12.601,6.624 12.598,6.717 12.562,6.813C12.526,6.896 12.463,6.956 12.373,6.993C12.282,7.029 12.189,7.029 12.093,6.993C12.009,6.956 11.949,6.89 11.913,6.794C11.877,6.698 11.877,6.608 11.913,6.525Z" style="fill:rgb(139,139,139);"/>
    </g>
</svg>
