<?xml version="1.0" encoding="UTF-8" standalone="no"?>
<!DOCTYPE svg PUBLIC "-//W3C//DTD SVG 1.1//EN" "http://www.w3.org/Graphics/SVG/1.1/DTD/svg11.dtd">
<svg width="100%" height="100%" viewBox="0 0 16 16" version="1.1" xmlns="http://www.w3.org/2000/svg" xmlns:xlink="http://www.w3.org/1999/xlink" xml:space="preserve" xmlns:serif="http://www.serif.com/" style="fill-rule:evenodd;clip-rule:evenodd;stroke-linejoin:round;stroke-miterlimit:2;">
    <g id="sass">
        <g>
            <clipPath id="_clip1">
                <rect x="0" y="0" width="16" height="16"/>
            </clipPath>
            <g clip-path="url(#_clip1)">
                <path id="Vector" d="M5.25,9.049L3.727,9.885C2.847,9.024 2.018,8.605 1.534,7.952C0.918,7.12 1.115,6.027 2.478,4.948C5.446,2.688 8.33,2.602 9.032,3.484C9.676,4.295 8.565,6.054 6.68,6.687C5.524,7.078 4.42,7.094 3.85,6.449C3.774,6.342 3.655,6.437 3.695,6.537C4.071,7.662 5.795,7.587 7.088,7.274C9.498,6.692 11.306,3.599 9.098,2.392C5.873,0.882 0.247,4.318 0.007,6.736C-0.129,8.113 1.656,9.086 3.146,10.206C1.973,10.833 1.115,11.414 0.822,11.913C0.526,12.382 0.42,12.882 0.642,13.415C1.06,14.359 2.518,13.917 3.06,13.531C3.922,12.918 4.597,11.705 4.021,10.296L4.899,9.791L4.913,9.802C4.897,9.854 4.88,9.906 4.865,9.96C4.591,10.843 4.679,11.677 5.107,12.293C5.29,12.554 5.689,12.583 5.918,12.381C6.152,12.175 6.337,11.666 6.634,11.031C6.559,11.696 6.615,12.249 7.011,12.291C7.258,12.317 7.482,12.081 7.669,11.767C8.161,10.943 8.625,9.921 9.085,8.825C9.177,9.278 9.32,9.693 9.521,10.068C9.57,10.167 9.565,10.231 9.496,10.314L8.641,11.365C8.23,11.843 8.374,12.091 8.925,12.057C9.704,11.987 10.664,11.481 10.441,10.44C10.357,10.051 10.251,9.996 10.336,9.894C10.665,9.424 10.981,8.85 11.242,8.341C11.327,8.781 11.458,9.22 11.687,9.605C11.137,10.099 10.737,10.618 10.758,11.209C10.789,11.443 10.981,11.595 11.211,11.542C11.817,11.45 12.513,10.892 12.598,10.46C12.646,10.215 12.63,9.973 12.496,9.601C14.955,8.779 16.426,10.617 15.241,11.426C15.193,11.454 15.144,11.483 15.119,11.516C15.081,11.566 15.098,11.624 15.17,11.624C15.287,11.623 15.379,11.566 15.464,11.516C16.637,10.825 15.781,8.909 13.898,8.879C13.343,8.869 12.823,8.975 12.31,9.208C11.987,8.674 11.88,8.184 11.97,7.785C12.015,7.598 12.074,7.413 12.129,7.228C12.154,7.133 12.146,7.046 11.946,7.003C11.722,6.971 11.502,6.989 11.286,7.052C11.125,7.096 11.146,7.202 11.093,7.345C10.968,7.992 10.494,8.718 10.051,9.488C9.893,9.206 9.761,8.868 9.79,8.432C9.805,8.213 9.9,7.927 9.975,7.693C10.01,7.596 9.977,7.531 9.793,7.48C9.48,7.437 9.173,7.494 9.043,7.574C8.942,7.636 8.915,8.003 8.78,8.303C8.224,9.524 7.62,10.992 7.365,11.345C7.21,11.254 7.5,10.239 7.742,9.324C7.827,9.05 7.486,8.88 7.219,9.074C7.477,7.694 6.283,7.782 5.346,8.966C5.32,8.999 5.286,9.029 5.25,9.049ZM3.543,11.337C3.5,11.907 3.242,12.368 2.82,12.742C1.731,13.614 1.098,13.051 1.646,12.109C1.876,11.624 2.646,11.129 3.466,10.634C3.529,10.869 3.56,11.1 3.543,11.337ZM5.569,11.511C5.256,10.762 5.672,9.347 6.396,8.822C6.661,8.667 6.777,8.706 6.757,8.861C6.727,9.043 6.689,9.225 6.636,9.401C6.452,10.011 6.217,10.603 5.962,11.186C5.774,11.585 5.639,11.678 5.569,11.511ZM8.949,11.655C9.212,11.348 9.474,11.042 9.737,10.734C9.77,11.076 9.189,11.758 8.949,11.655ZM11.269,11.13C11.226,11.139 11.208,11.109 11.233,10.983C11.34,10.608 11.537,10.282 11.847,10.012C11.991,10.406 11.833,10.919 11.269,11.13Z" style="fill:rgb(162,162,162);fill-rule:nonzero;"/>
            </g>
        </g>
    </g>
</svg>
