<?xml version="1.0" encoding="UTF-8" standalone="no"?>
<!DOCTYPE svg PUBLIC "-//W3C//DTD SVG 1.1//EN" "http://www.w3.org/Graphics/SVG/1.1/DTD/svg11.dtd">
<svg width="100%" height="100%" viewBox="0 0 16 16" version="1.1" xmlns="http://www.w3.org/2000/svg" xmlns:xlink="http://www.w3.org/1999/xlink" xml:space="preserve" xmlns:serif="http://www.serif.com/" style="fill-rule:evenodd;clip-rule:evenodd;stroke-linejoin:round;stroke-miterlimit:2;">
    <g id="scala">
        <g id="scala-icon">
            <path id="XMLID_1_" d="M12.45,14L3.463,14C2.657,14 2,13.338 2,12.527L2,3.474C2,2.662 2.657,2 3.463,2L12.458,2C13.264,2 13.921,2.662 13.921,3.474L13.921,12.535C13.912,13.338 13.256,14 12.45,14Z" style="fill:rgb(119,119,119);fill-rule:nonzero;"/>
            <g id="shadow">
                <g id="Clipped">
                    <path id="XMLID_2_" d="M12.45,14L3.463,14C2.657,14 2,13.338 2,12.527L2,3.474C2,2.662 2.657,2 3.463,2L12.458,2C13.264,2 13.921,2.662 13.921,3.474L13.921,12.535C13.912,13.338 13.256,14 12.45,14Z" style="fill:rgb(139,139,139);"/>
                    <g>
                        <path id="Shape" d="M5.197,6.888L5.977,7.674L5.197,9.853L6.038,10.691L5.197,12.809L6.388,14L13.912,14L13.912,6.412L10.715,3.191L10.715,3.8L5.197,6.888Z" style="fill:rgb(102,102,102);fill-rule:nonzero;"/>
                    </g>
                </g>
            </g>
            <g id="logo">
                <g id="Group" opacity="0.6">
                    <path id="Shape_2" d="M5.197,6.888C5.197,6.888 10.707,7.444 10.707,8.371L10.707,6.147C10.707,6.147 10.707,5.221 5.197,4.665L5.197,6.888Z" style="fill:white;fill-rule:nonzero;"/>
                    <path id="Shape_3" d="M5.197,9.853C5.197,9.853 10.707,10.409 10.707,11.335L10.707,9.112C10.707,9.112 10.707,8.185 5.197,7.629L5.197,9.853Z" style="fill:white;fill-rule:nonzero;"/>
                </g>
                <path id="Shape_4" d="M10.715,3.191L10.715,5.415C10.715,5.415 10.715,6.341 5.206,6.897L5.206,4.665C5.197,4.665 10.715,4.118 10.715,3.191" style="fill:white;fill-rule:nonzero;"/>
                <path id="Shape_5" d="M5.197,7.629C5.197,7.629 10.707,7.074 10.707,6.147L10.707,8.371C10.707,8.371 10.707,9.297 5.197,9.853L5.197,7.629Z" style="fill:white;fill-rule:nonzero;"/>
                <path id="Shape_6" d="M5.197,12.809L5.197,10.585C5.197,10.585 10.707,10.029 10.707,9.103L10.707,11.326C10.715,11.335 10.715,12.253 5.197,12.809" style="fill:white;fill-rule:nonzero;"/>
            </g>
        </g>
    </g>
</svg>
