<?xml version="1.0" encoding="UTF-8" standalone="no"?>
<!DOCTYPE svg PUBLIC "-//W3C//DTD SVG 1.1//EN" "http://www.w3.org/Graphics/SVG/1.1/DTD/svg11.dtd">
<svg width="100%" height="100%" viewBox="0 0 16 16" version="1.1" xmlns="http://www.w3.org/2000/svg" xmlns:xlink="http://www.w3.org/1999/xlink" xml:space="preserve" xmlns:serif="http://www.serif.com/" style="fill-rule:evenodd;clip-rule:evenodd;stroke-linejoin:round;stroke-miterlimit:2;">
    <g id="settings">
        <g id="Group">
            <path id="Subtract" d="M9.243,7.926C9.22,7.798 9.236,7.665 9.289,7.546C9.339,7.428 9.422,7.329 9.528,7.258C9.635,7.188 9.759,7.15 9.887,7.15L9.922,7.15C10.132,7.15 10.334,7.066 10.483,6.917C10.631,6.769 10.714,6.567 10.714,6.357C10.714,6.147 10.631,5.946 10.483,5.797C10.334,5.649 10.132,5.565 9.922,5.565L9.855,5.565C9.727,5.565 9.603,5.527 9.497,5.456C9.39,5.386 9.307,5.286 9.257,5.169L9.257,5.137C9.204,5.018 9.188,4.885 9.212,4.757C9.235,4.628 9.296,4.51 9.388,4.416L9.411,4.393C9.485,4.319 9.543,4.232 9.583,4.135C9.623,4.039 9.644,3.936 9.644,3.832C9.644,3.728 9.623,3.625 9.583,3.529C9.543,3.432 9.485,3.345 9.411,3.272C9.338,3.198 9.25,3.139 9.154,3.1C9.058,3.06 8.955,3.039 8.851,3.039C8.747,3.039 8.644,3.06 8.547,3.1C8.451,3.139 8.364,3.198 8.29,3.272L8.267,3.295C8.173,3.387 8.055,3.448 7.926,3.471C7.798,3.494 7.665,3.479 7.546,3.426C7.428,3.376 7.329,3.292 7.258,3.186C7.188,3.08 7.15,2.955 7.15,2.828L7.15,2.792C7.15,2.582 7.066,2.381 6.917,2.232C6.769,2.083 6.567,2 6.357,2C6.147,2 5.946,2.083 5.797,2.232C5.649,2.381 5.565,2.582 5.565,2.792L5.565,2.86C5.565,2.987 5.527,3.112 5.456,3.218C5.386,3.324 5.286,3.407 5.169,3.458L5.137,3.458C5.018,3.51 4.885,3.526 4.757,3.503C4.628,3.48 4.51,3.418 4.416,3.327L4.393,3.303C4.319,3.23 4.232,3.171 4.135,3.131C4.039,3.091 3.936,3.071 3.832,3.071C3.728,3.071 3.625,3.091 3.529,3.131C3.432,3.171 3.345,3.23 3.272,3.303C3.198,3.377 3.139,3.464 3.1,3.56C3.06,3.657 3.039,3.76 3.039,3.864C3.039,3.968 3.06,4.071 3.1,4.167C3.139,4.263 3.198,4.351 3.272,4.424L3.295,4.448C3.387,4.541 3.448,4.66 3.471,4.788C3.494,4.917 3.479,5.049 3.426,5.169C3.381,5.292 3.299,5.399 3.193,5.475C3.086,5.551 2.959,5.594 2.828,5.597L2.792,5.597C2.582,5.597 2.381,5.68 2.232,5.829C2.083,5.977 2,6.179 2,6.389C2,6.599 2.083,6.801 2.232,6.949C2.381,7.098 2.582,7.181 2.792,7.181L2.86,7.181C2.987,7.182 3.112,7.219 3.218,7.29C3.324,7.36 3.407,7.46 3.458,7.577C3.51,7.697 3.526,7.829 3.503,7.958C3.48,8.086 3.418,8.205 3.327,8.298L3.303,8.322C3.23,8.396 3.171,8.483 3.131,8.579C3.091,8.675 3.071,8.778 3.071,8.883C3.071,8.987 3.091,9.09 3.131,9.186C3.171,9.282 3.23,9.369 3.303,9.443C3.377,9.517 3.464,9.575 3.56,9.615C3.657,9.655 3.76,9.675 3.864,9.675C3.968,9.675 4.071,9.655 4.167,9.615C4.263,9.575 4.351,9.517 4.424,9.443L4.448,9.419C4.541,9.328 4.66,9.267 4.788,9.243C4.917,9.22 5.049,9.236 5.169,9.289C5.292,9.334 5.399,9.415 5.475,9.522C5.551,9.628 5.594,9.756 5.597,9.887L5.597,9.922C5.597,10.132 5.68,10.334 5.829,10.483C5.977,10.631 6.179,10.714 6.389,10.714C6.599,10.714 6.801,10.631 6.949,10.483C7.098,10.334 7.181,10.132 7.181,9.922L7.181,9.855C7.182,9.727 7.219,9.603 7.29,9.497C7.36,9.39 7.46,9.307 7.577,9.257C7.697,9.204 7.829,9.188 7.958,9.212C8.086,9.235 8.205,9.296 8.298,9.388L8.322,9.411C8.396,9.485 8.483,9.543 8.579,9.583C8.675,9.623 8.778,9.644 8.883,9.644C8.987,9.644 9.09,9.623 9.186,9.583C9.282,9.543 9.369,9.485 9.443,9.411C9.517,9.338 9.575,9.25 9.615,9.154C9.655,9.058 9.675,8.955 9.675,8.851C9.675,8.747 9.655,8.644 9.615,8.547C9.575,8.451 9.517,8.364 9.443,8.29L9.419,8.267C9.328,8.173 9.267,8.055 9.243,7.926ZM8.277,6.394C8.277,7.434 7.434,8.277 6.394,8.277C5.354,8.277 4.511,7.434 4.511,6.394C4.511,5.354 5.354,4.511 6.394,4.511C7.434,4.511 8.277,5.354 8.277,6.394Z" style="fill:rgb(206,206,206);"/>
            <path id="Subtract_2" d="M13.069,11.275C13.03,11.214 13.011,11.143 13.013,11.072C13.015,11.001 13.037,10.933 13.077,10.875C13.116,10.817 13.172,10.772 13.237,10.746L13.256,10.738C13.363,10.695 13.449,10.611 13.494,10.504C13.539,10.397 13.54,10.277 13.497,10.17C13.453,10.062 13.369,9.977 13.262,9.931C13.156,9.886 13.036,9.885 12.928,9.928L12.894,9.942C12.829,9.968 12.757,9.975 12.688,9.961C12.62,9.947 12.556,9.913 12.506,9.863L12.5,9.847C12.448,9.797 12.413,9.732 12.398,9.662C12.384,9.591 12.39,9.518 12.418,9.452L12.425,9.435C12.447,9.382 12.459,9.325 12.46,9.268C12.46,9.21 12.45,9.153 12.428,9.1C12.407,9.047 12.375,8.998 12.335,8.958C12.294,8.917 12.246,8.884 12.194,8.862C12.141,8.839 12.084,8.827 12.027,8.827C11.969,8.826 11.912,8.837 11.859,8.859C11.806,8.88 11.757,8.912 11.717,8.952C11.676,8.992 11.643,9.04 11.621,9.093L11.613,9.11C11.585,9.176 11.537,9.232 11.476,9.27C11.415,9.309 11.344,9.328 11.272,9.326C11.202,9.324 11.133,9.302 11.075,9.263C11.018,9.223 10.973,9.167 10.946,9.102L10.939,9.084C10.895,8.976 10.811,8.891 10.704,8.845C10.598,8.8 10.477,8.799 10.37,8.842C10.263,8.886 10.177,8.97 10.132,9.077C10.086,9.183 10.085,9.304 10.129,9.411L10.143,9.445C10.169,9.511 10.175,9.582 10.161,9.651C10.147,9.72 10.113,9.783 10.064,9.833L10.048,9.839C9.997,9.891 9.933,9.926 9.862,9.941C9.792,9.956 9.719,9.949 9.652,9.921L9.635,9.914C9.582,9.892 9.525,9.88 9.468,9.879C9.411,9.879 9.354,9.89 9.3,9.911C9.247,9.933 9.199,9.964 9.158,10.005C9.117,10.045 9.084,10.093 9.062,10.146C9.04,10.198 9.028,10.255 9.027,10.313C9.027,10.37 9.037,10.427 9.059,10.48C9.08,10.533 9.112,10.582 9.153,10.623C9.193,10.664 9.241,10.696 9.293,10.719L9.311,10.726C9.376,10.755 9.432,10.803 9.471,10.864C9.509,10.924 9.529,10.995 9.526,11.067C9.529,11.14 9.509,11.211 9.47,11.272C9.431,11.333 9.375,11.381 9.309,11.41L9.291,11.417C9.183,11.46 9.097,11.544 9.052,11.651C9.007,11.758 9.006,11.878 9.049,11.985C9.093,12.093 9.177,12.179 9.284,12.224C9.39,12.269 9.51,12.27 9.618,12.227L9.652,12.213C9.717,12.187 9.789,12.18 9.858,12.194C9.927,12.208 9.99,12.242 10.04,12.292C10.091,12.342 10.127,12.406 10.141,12.477C10.156,12.547 10.149,12.621 10.122,12.687L10.115,12.704C10.092,12.757 10.08,12.814 10.08,12.871C10.079,12.929 10.09,12.986 10.112,13.039C10.133,13.092 10.165,13.14 10.205,13.181C10.245,13.222 10.293,13.255 10.346,13.277C10.399,13.3 10.456,13.312 10.513,13.312C10.57,13.313 10.627,13.302 10.681,13.28C10.734,13.259 10.782,13.227 10.823,13.187C10.864,13.147 10.897,13.099 10.919,13.046L10.926,13.029C10.955,12.963 11.003,12.907 11.064,12.868C11.125,12.83 11.196,12.811 11.268,12.813C11.34,12.811 11.411,12.83 11.472,12.869C11.533,12.908 11.581,12.964 11.61,13.03L11.617,13.049C11.661,13.156 11.745,13.242 11.852,13.287C11.958,13.332 12.078,13.333 12.186,13.29C12.293,13.246 12.379,13.162 12.424,13.056C12.469,12.949 12.47,12.829 12.427,12.721L12.413,12.687C12.387,12.622 12.381,12.55 12.395,12.481C12.409,12.413 12.443,12.349 12.492,12.3C12.542,12.248 12.607,12.212 12.677,12.198C12.748,12.183 12.821,12.19 12.888,12.217L12.905,12.225C12.957,12.247 13.014,12.259 13.072,12.259C13.129,12.26 13.186,12.249 13.239,12.228C13.292,12.206 13.341,12.174 13.382,12.134C13.423,12.094 13.455,12.046 13.478,11.993C13.5,11.94 13.512,11.884 13.512,11.826C13.513,11.769 13.502,11.712 13.481,11.659C13.459,11.605 13.427,11.557 13.387,11.516C13.347,11.475 13.299,11.443 13.246,11.42L13.229,11.413C13.163,11.384 13.107,11.336 13.069,11.275ZM12.288,10.658C12.515,11.22 12.243,11.86 11.681,12.088C11.119,12.315 10.479,12.043 10.252,11.481C10.024,10.919 10.296,10.278 10.858,10.051C11.421,9.824 12.061,10.096 12.288,10.658Z" style="fill:rgb(116,116,116);"/>
        </g>
    </g>
</svg>
