<?xml version="1.0" encoding="UTF-8" standalone="no"?>
<!DOCTYPE svg PUBLIC "-//W3C//DTD SVG 1.1//EN" "http://www.w3.org/Graphics/SVG/1.1/DTD/svg11.dtd">
<svg width="100%" height="100%" viewBox="0 0 16 16" version="1.1" xmlns="http://www.w3.org/2000/svg" xmlns:xlink="http://www.w3.org/1999/xlink" xml:space="preserve" xmlns:serif="http://www.serif.com/" style="fill-rule:evenodd;clip-rule:evenodd;stroke-linejoin:round;stroke-miterlimit:2;">
    <g id="sketch">
        <g id="Group">
            <path id="Bottom-right" serif:id="Bottom right" d="M11.227,6.567L13.444,6.567L8,12.988L11.227,6.567Z" style="fill:rgb(182,182,182);"/>
            <path id="Bottom-left" serif:id="Bottom left" d="M4.773,6.567L2.557,6.567L8,12.99L4.773,6.567Z" style="fill:rgb(182,182,182);"/>
            <path id="Bottom-center" serif:id="Bottom center" d="M4.773,6.567L11.226,6.569L8,12.989L4.773,6.567Z" style="fill:rgb(183,183,183);"/>
            <path id="Top-rigth" serif:id="Top rigth" d="M11.051,3.334L11.227,6.567L8.009,3L11.051,3.334Z" style="fill:rgb(201,201,201);"/>
            <path id="Right" d="M11.051,3.334L11.227,6.567L13.444,6.567L11.051,3.334Z" style="fill:rgb(218,218,218);"/>
            <path id="Left" d="M4.949,3.334L4.773,6.567L2.557,6.567L4.949,3.334Z" style="fill:rgb(218,218,218);"/>
            <path id="Top-let" serif:id="Top let" d="M4.95,3.334L4.773,6.566L8.009,3L4.95,3.334Z" style="fill:rgb(201,201,201);"/>
            <path id="Top-center" serif:id="Top center" d="M4.774,6.567L11.227,6.567L8.009,3L4.774,6.567Z" style="fill:rgb(246,246,246);"/>
        </g>
    </g>
</svg>
