<?xml version="1.0" encoding="UTF-8" standalone="no"?>
<!DOCTYPE svg PUBLIC "-//W3C//DTD SVG 1.1//EN" "http://www.w3.org/Graphics/SVG/1.1/DTD/svg11.dtd">
<svg width="100%" height="100%" viewBox="0 0 16 16" version="1.1" xmlns="http://www.w3.org/2000/svg" xmlns:xlink="http://www.w3.org/1999/xlink" xml:space="preserve" xmlns:serif="http://www.serif.com/" style="fill-rule:evenodd;clip-rule:evenodd;stroke-linejoin:round;stroke-miterlimit:2;">
    <g id="slim">
        <path id="Shape" d="M2,8C2,4.691 4.691,2 8,2C11.309,2 14,4.691 14,8C14,11.309 11.309,14 8,14C4.691,14 2,11.309 2,8ZM8.5,5L8.5,3.5L7.5,3.5L7.5,5L8.5,5ZM5,8.5L3.5,8.5L3.5,7.5L5,7.5L5,8.5ZM6.5,8C6.5,8.827 7.173,9.5 8,9.5C8.827,9.5 9.5,8.827 9.5,8C9.5,7.173 8.827,6.5 8,6.5C7.769,6.5 7.553,6.557 7.357,6.651L5.162,4.455L4.455,5.162L6.65,7.358C6.557,7.553 6.5,7.769 6.5,8ZM9.768,5.525L10.829,4.465L11.536,5.172L10.475,6.232L9.768,5.525ZM12.5,7.5L11,7.5L11,8.5L12.5,8.5L12.5,7.5Z" style="fill:rgb(116,116,116);"/>
    </g>
</svg>
