<?xml version="1.0" encoding="UTF-8" standalone="no"?>
<!DOCTYPE svg PUBLIC "-//W3C//DTD SVG 1.1//EN" "http://www.w3.org/Graphics/SVG/1.1/DTD/svg11.dtd">
<svg width="100%" height="100%" viewBox="0 0 16 16" version="1.1" xmlns="http://www.w3.org/2000/svg" xmlns:xlink="http://www.w3.org/1999/xlink" xml:space="preserve" xmlns:serif="http://www.serif.com/" style="fill-rule:evenodd;clip-rule:evenodd;stroke-linejoin:round;stroke-miterlimit:2;">
    <g id="sql-lite">
        <path id="Vector" d="M8.355,7.463L8.017,8.535C7.837,9.201 7.852,9.41 7.944,9.565C7.966,9.603 8.028,9.728 8.114,10.061C8.24,10.543 8.35,11.27 8.353,11.305C8.335,11.749 8.344,12.22 8.38,12.671L3.918,12.671C3.413,12.671 3,12.259 3,11.754L3,3.45C3,2.946 3.413,2.533 3.918,2.533L10.785,2.533C9.733,3.648 8.691,5.766 8.355,7.463ZM13.203,2.261C14.462,3.384 13.212,5.95 12.065,7.757C11.231,8.025 10.259,8.617 10.259,8.617C10.259,8.617 10.34,8.574 10.64,8.448C10.843,8.362 11.451,8.218 11.821,8.134C11.203,9.065 10.675,9.716 10.675,9.716C10.675,9.716 9.597,10.154 9.264,11.173C9.457,10.086 9.778,8.952 10.23,7.744C10.634,6.665 11.983,3.751 12.98,2.85C11.886,3.722 10.691,5.547 9.83,7.822C9.32,9.329 9.044,10.775 8.999,11.974C8.969,12.759 9.037,13.439 9.204,13.958L9.127,14C8.963,13.575 8.813,12.828 8.849,11.298C8.843,11.23 8.84,11.185 8.84,11.185C8.84,11.185 8.741,10.516 8.598,9.966C8.534,9.721 8.462,9.501 8.387,9.373C8.348,9.307 8.391,9.035 8.5,8.634C8.684,8.955 8.883,9.302 8.959,9.586C8.959,9.586 8.812,8.829 8.57,8.386C8.623,8.208 8.687,8.01 8.758,7.799C8.936,8.111 9.118,8.407 9.191,8.704C9.111,8.325 9.004,7.947 8.837,7.572C9.141,5.99 10.119,3.919 11.173,2.8C11.736,2.2 12.512,1.663 13.203,2.261Z" style="fill:rgb(163,163,163);fill-rule:nonzero;"/>
        <path id="Vector_2" d="M13.203,2.261C14.462,3.384 13.212,5.95 12.065,7.757C11.231,8.025 10.259,8.617 10.259,8.617C10.259,8.617 10.34,8.574 10.64,8.448C10.843,8.362 11.451,8.218 11.821,8.134C11.203,9.065 10.675,9.716 10.675,9.716C10.675,9.716 9.597,10.154 9.264,11.173C9.457,10.086 9.778,8.952 10.23,7.744C10.634,6.665 11.983,3.751 12.98,2.85C11.886,3.722 10.691,5.547 9.83,7.822C9.32,9.329 9.044,10.775 8.999,11.974C8.969,12.759 9.037,13.439 9.204,13.958L9.127,14C8.963,13.575 8.813,12.828 8.849,11.298C8.843,11.23 8.84,11.185 8.84,11.185C8.84,11.185 8.741,10.516 8.598,9.966C8.534,9.721 8.462,9.501 8.387,9.373C8.348,9.307 8.391,9.035 8.5,8.634C8.684,8.955 8.883,9.302 8.959,9.586C8.959,9.586 8.812,8.829 8.57,8.386C8.623,8.208 8.687,8.01 8.758,7.799C8.936,8.111 9.118,8.407 9.191,8.704C9.111,8.325 9.004,7.947 8.837,7.572C9.141,5.99 10.119,3.919 11.173,2.8C11.736,2.2 12.512,1.663 13.203,2.261Z" style="fill:rgb(121,121,121);fill-rule:nonzero;"/>
    </g>
</svg>
