<?xml version="1.0" encoding="UTF-8" standalone="no"?>
<!DOCTYPE svg PUBLIC "-//W3C//DTD SVG 1.1//EN" "http://www.w3.org/Graphics/SVG/1.1/DTD/svg11.dtd">
<svg width="100%" height="100%" viewBox="0 0 16 16" version="1.1" xmlns="http://www.w3.org/2000/svg" xmlns:xlink="http://www.w3.org/1999/xlink" xml:space="preserve" xmlns:serif="http://www.serif.com/" style="fill-rule:evenodd;clip-rule:evenodd;stroke-linecap:round;stroke-linejoin:round;">
    <g id="sql">
        <path id="path3637" d="M13.578,10.995C12.979,11.047 12.201,10.889 11.791,11.432C11.793,12.039 12.565,12.407 13.068,12.682C13.542,12.838 14.009,13.308 14.41,13.394C13.979,12.713 13.265,12.252 12.582,11.833C12.477,11.011 13.762,11.713 13.989,11.094C13.73,10.399 12.948,10.129 12.4,9.698C11.819,9.394 11.052,9.193 10.836,8.505C10.199,7.126 9.684,5.61 8.482,4.585C7.722,3.881 6.848,3.183 5.805,2.97C4.9,3.003 4.248,2.244 3.403,2.084C2.481,2.015 2.338,3.142 2.966,3.614C3.544,4.189 3.715,4.98 3.999,5.706C4.251,6.249 4.747,6.628 4.395,7.246C4.145,8.228 4.126,9.399 4.855,10.197C5.376,10.711 5.933,10.123 5.863,9.55C6.138,9.171 6.311,10.142 6.629,10.29C6.965,10.637 7.323,11.005 7.747,11.231C7.118,10.637 6.712,9.86 6.288,9.119C6.406,8.426 5.365,8.188 5.452,9.004C5.467,9.328 5.231,10.254 4.882,9.604C4.453,8.8 4.59,7.858 4.834,7.023C5.068,6.365 4.517,5.92 4.244,5.404C4.021,4.815 3.975,4.121 3.457,3.682C2.959,3.371 2.826,2.269 3.669,2.614C4.304,3.052 4.981,3.369 5.769,3.404C6.933,3.752 7.908,4.557 8.667,5.469C9.579,6.533 9.932,7.905 10.602,9.103C10.79,9.606 11.386,9.662 11.826,9.849C12.398,10.008 12.815,10.433 13.314,10.721C13.416,10.798 13.509,10.888 13.578,10.995Z" style="fill:rgb(159,159,159);stroke:rgb(159,159,159);stroke-width:0.96px;"/>
    </g>
</svg>
