<?xml version="1.0" encoding="UTF-8" standalone="no"?>
<!DOCTYPE svg PUBLIC "-//W3C//DTD SVG 1.1//EN" "http://www.w3.org/Graphics/SVG/1.1/DTD/svg11.dtd">
<svg width="100%" height="100%" viewBox="0 0 16 16" version="1.1" xmlns="http://www.w3.org/2000/svg" xmlns:xlink="http://www.w3.org/1999/xlink" xml:space="preserve" xmlns:serif="http://www.serif.com/" style="fill-rule:evenodd;clip-rule:evenodd;stroke-linejoin:round;stroke-miterlimit:2;">
    <g id="stylelint">
        <g id="stylelint_2">
            <path id="Shape" d="M8.085,13.922C9.395,9.247 9.357,9.225 10.304,5.892L10.531,6.023C10.655,6.095 10.756,6.036 10.756,5.894L10.756,4.304C11.007,3.426 11.204,2.748 11.262,2.543L12.288,2.543L13.991,4.119L12.872,5.084L13.718,5.998L8.142,13.921C8.115,13.966 8.077,13.956 8.085,13.921L8.085,13.922Z" style="fill:rgb(116,116,116);"/>
            <path id="Shape_2" d="M10.395,2.943L8.879,3.817C8.897,3.843 8.908,3.874 8.908,3.908L8.908,4.722C8.908,4.765 8.891,4.803 8.864,4.833L10.395,5.716C10.499,5.776 10.585,5.727 10.585,5.606L10.585,3.053C10.585,2.932 10.499,2.883 10.395,2.943ZM7.103,4.722L7.103,3.908C7.103,3.874 7.114,3.843 7.132,3.817L5.616,2.943C5.512,2.883 5.426,2.932 5.426,3.053L5.426,5.606C5.426,5.726 5.512,5.776 5.616,5.715L7.147,4.833C7.12,4.802 7.103,4.764 7.103,4.722L7.103,4.722ZM8.695,3.845C8.745,3.845 8.786,3.873 8.786,3.907L8.786,4.722C8.786,4.757 8.745,4.784 8.695,4.784L7.317,4.784C7.266,4.784 7.225,4.757 7.225,4.722L7.225,3.907C7.225,3.873 7.266,3.845 7.317,3.845L8.695,3.845L8.695,3.845Z" style="fill:rgb(139,139,139);"/>
            <path id="Shape_3" d="M7.866,13.922L7.922,13.922C6.613,9.247 6.651,9.225 5.704,5.892L5.476,6.023C5.353,6.095 5.252,6.036 5.252,5.894L5.252,4.304C5,3.426 4.804,2.748 4.746,2.543L3.72,2.543L2.016,4.119L3.135,5.084L2.289,5.998L7.866,13.922Z" style="fill:rgb(116,116,116);"/>
            <path id="Oval" d="M7.962,6.486C8.191,6.486 8.376,6.301 8.376,6.073C8.376,5.845 8.191,5.66 7.962,5.66C7.734,5.66 7.549,5.845 7.549,6.073C7.549,6.301 7.734,6.486 7.962,6.486Z" style="fill:rgb(150,150,150);"/>
            <path id="Oval_2" d="M7.962,8.941C8.191,8.941 8.376,8.756 8.376,8.528C8.376,8.3 8.191,8.115 7.962,8.115C7.734,8.115 7.549,8.3 7.549,8.528C7.549,8.756 7.734,8.941 7.962,8.941Z" style="fill:rgb(150,150,150);"/>
            <path id="Oval_3" d="M7.962,11.396C8.191,11.396 8.376,11.211 8.376,10.983C8.376,10.755 8.191,10.57 7.962,10.57C7.734,10.57 7.549,10.755 7.549,10.983C7.549,11.211 7.734,11.396 7.962,11.396Z" style="fill:rgb(150,150,150);"/>
        </g>
    </g>
</svg>
