<?xml version="1.0" encoding="UTF-8" standalone="no"?>
<!DOCTYPE svg PUBLIC "-//W3C//DTD SVG 1.1//EN" "http://www.w3.org/Graphics/SVG/1.1/DTD/svg11.dtd">
<svg width="100%" height="100%" viewBox="0 0 16 16" version="1.1" xmlns="http://www.w3.org/2000/svg" xmlns:xlink="http://www.w3.org/1999/xlink" xml:space="preserve" xmlns:serif="http://www.serif.com/" style="fill-rule:evenodd;clip-rule:evenodd;">
    <g id="stylus">
        <g id="Group-2" serif:id="Group 2">
            <path id="Shape" d="M12.767,2.345C12.826,2.393 12.867,2.456 12.889,2.535C12.911,2.614 12.914,2.704 12.898,2.805C12.883,2.907 12.847,3.008 12.79,3.109C12.778,3.121 12.762,3.121 12.743,3.109C12.724,3.096 12.712,3.08 12.706,3.061C12.718,2.985 12.692,2.922 12.626,2.872C12.56,2.821 12.458,2.796 12.32,2.796C12.062,2.796 11.804,2.892 11.543,3.085C11.283,3.278 11.03,3.533 10.786,3.849C10.541,4.165 10.312,4.529 10.099,4.94C9.885,5.351 9.7,5.775 9.543,6.211C9.386,6.647 9.262,7.081 9.172,7.511C9.081,7.941 9.035,8.333 9.035,8.687C9.035,8.877 9.088,8.972 9.195,8.972C9.271,8.972 9.344,8.94 9.416,8.877C9.488,8.813 9.572,8.719 9.666,8.592C9.685,8.58 9.702,8.581 9.717,8.597C9.733,8.613 9.738,8.633 9.732,8.658C9.606,8.848 9.459,9.006 9.289,9.133C9.12,9.259 8.966,9.322 8.828,9.322C8.709,9.322 8.626,9.288 8.579,9.218C8.532,9.149 8.508,9.06 8.508,8.953C8.508,8.655 8.571,8.284 8.696,7.838C8.822,7.392 8.99,6.921 9.2,6.424C9.41,5.928 9.653,5.433 9.929,4.94C10.205,4.446 10.492,4.002 10.791,3.607C11.088,3.212 11.388,2.891 11.689,2.644C11.99,2.397 12.273,2.274 12.536,2.274C12.63,2.274 12.707,2.298 12.767,2.345Z" style="fill:rgb(162,162,162);stroke:rgb(162,162,162);stroke-width:1px;"/>
            <path id="Shape_2" d="M3.473,13.86C3.414,13.812 3.373,13.749 3.351,13.67C3.329,13.591 3.326,13.501 3.342,13.4C3.357,13.298 3.393,13.197 3.45,13.096C3.462,13.083 3.478,13.083 3.497,13.096C3.516,13.109 3.528,13.125 3.534,13.144C3.522,13.22 3.549,13.283 3.614,13.333C3.68,13.384 3.782,13.409 3.92,13.409C4.178,13.409 4.436,13.313 4.697,13.12C4.957,12.927 5.21,12.672 5.454,12.356C5.699,12.04 5.928,11.676 6.141,11.265C6.355,10.854 6.54,10.43 6.697,9.994C6.853,9.558 6.977,9.124 7.068,8.694C7.159,8.264 7.205,7.872 7.205,7.518C7.205,7.328 7.152,7.233 7.045,7.233C6.969,7.233 6.896,7.265 6.824,7.328C6.752,7.391 6.668,7.486 6.574,7.613C6.555,7.625 6.538,7.624 6.523,7.608C6.507,7.592 6.502,7.572 6.508,7.546C6.634,7.357 6.781,7.198 6.951,7.072C7.12,6.946 7.274,6.882 7.412,6.882C7.531,6.882 7.614,6.917 7.661,6.987C7.708,7.056 7.732,7.145 7.732,7.252C7.732,7.55 7.669,7.921 7.544,8.367C7.418,8.813 7.25,9.284 7.04,9.781C6.83,10.277 6.587,10.772 6.311,11.265C6.035,11.759 5.748,12.203 5.45,12.598C5.152,12.993 4.852,13.314 4.551,13.561C4.25,13.808 3.967,13.931 3.704,13.931C3.61,13.931 3.533,13.907 3.473,13.86Z" style="fill:rgb(162,162,162);stroke:rgb(162,162,162);stroke-width:1px;"/>
        </g>
    </g>
</svg>
