<?xml version="1.0" encoding="UTF-8" standalone="no"?>
<!DOCTYPE svg PUBLIC "-//W3C//DTD SVG 1.1//EN" "http://www.w3.org/Graphics/SVG/1.1/DTD/svg11.dtd">
<svg width="100%" height="100%" viewBox="0 0 16 16" version="1.1" xmlns="http://www.w3.org/2000/svg" xmlns:xlink="http://www.w3.org/1999/xlink" xml:space="preserve" xmlns:serif="http://www.serif.com/" style="fill-rule:evenodd;clip-rule:evenodd;stroke-linejoin:round;stroke-miterlimit:2;">
    <g id="svelte">
        <g id="Group">
            <circle id="Ellipse" cx="8" cy="8" r="6" style="fill:rgb(139,139,139);"/>
            <g id="logo">
                <path id="Combined-Shape" serif:id="Combined Shape" d="M7.638,4.6C8.686,3.935 10.134,4.245 10.867,5.292L10.867,5.291C11.219,5.781 11.358,6.393 11.252,6.986C11.201,7.268 11.094,7.535 10.936,7.774C11.166,8.211 11.243,8.712 11.155,9.198C11.051,9.781 10.705,10.292 10.202,10.607L8.362,11.776C7.314,12.442 5.868,12.131 5.132,11.085C4.781,10.594 4.642,9.983 4.748,9.389C4.799,9.108 4.906,8.84 5.064,8.602C4.834,8.165 4.757,7.664 4.845,7.179C4.949,6.596 5.295,6.084 5.798,5.77L7.638,4.6ZM5.891,10.602C6.24,11.104 6.866,11.335 7.458,11.182L7.459,11.182C7.591,11.147 7.717,11.092 7.833,11.018L9.67,9.85C9.972,9.66 10.18,9.352 10.243,9.002C10.307,8.645 10.223,8.277 10.012,7.982C9.663,7.48 9.036,7.249 8.443,7.403C8.311,7.438 8.185,7.493 8.07,7.566L7.368,8.012C7.333,8.034 7.295,8.051 7.255,8.062C7.076,8.108 6.887,8.038 6.782,7.887C6.719,7.798 6.695,7.687 6.715,7.58C6.734,7.474 6.797,7.381 6.888,7.324L8.729,6.16C8.764,6.137 8.802,6.121 8.842,6.11C9.02,6.064 9.209,6.134 9.314,6.285C9.37,6.364 9.397,6.461 9.389,6.557L9.382,6.624L9.449,6.645C9.707,6.722 9.951,6.844 10.169,7.003L10.263,7.07L10.298,6.964C10.316,6.908 10.331,6.851 10.341,6.793C10.405,6.436 10.321,6.068 10.109,5.773C9.76,5.271 9.134,5.04 8.541,5.194C8.409,5.229 8.283,5.284 8.167,5.357L6.33,6.526C6.028,6.716 5.821,7.023 5.757,7.374C5.693,7.73 5.775,8.098 5.986,8.393C6.335,8.895 6.962,9.127 7.555,8.973C7.687,8.938 7.813,8.882 7.928,8.809L8.633,8.363C8.668,8.341 8.706,8.325 8.746,8.314C8.925,8.268 9.113,8.337 9.218,8.489C9.281,8.578 9.305,8.689 9.285,8.796C9.266,8.901 9.203,8.994 9.112,9.051L7.276,10.22C7.241,10.242 7.203,10.259 7.163,10.269C6.982,10.317 6.79,10.245 6.686,10.091C6.63,10.011 6.603,9.915 6.611,9.818L6.618,9.751L6.551,9.731C6.293,9.653 6.049,9.532 5.832,9.372L5.737,9.306L5.702,9.411C5.684,9.467 5.669,9.524 5.659,9.583C5.595,9.94 5.679,10.307 5.891,10.602Z" style="fill:white;"/>
            </g>
        </g>
    </g>
</svg>
