<?xml version="1.0" encoding="UTF-8" standalone="no"?>
<!DOCTYPE svg PUBLIC "-//W3C//DTD SVG 1.1//EN" "http://www.w3.org/Graphics/SVG/1.1/DTD/svg11.dtd">
<svg width="100%" height="100%" viewBox="0 0 16 16" version="1.1" xmlns="http://www.w3.org/2000/svg" xmlns:xlink="http://www.w3.org/1999/xlink" xml:space="preserve" xmlns:serif="http://www.serif.com/" style="fill-rule:evenodd;clip-rule:evenodd;stroke-linejoin:round;stroke-miterlimit:2;">
    <g id="svg">
        <path id="Combined-Shape" serif:id="Combined Shape" d="M3.967,4.837C3.816,5.278 3.408,5.594 2.929,5.594C2.321,5.594 1.828,5.085 1.828,4.458C1.828,3.83 2.321,3.321 2.929,3.321C3.408,3.321 3.816,3.638 3.967,4.079L10.363,4.079L10.363,4.117C10.655,4.092 10.957,4.079 11.269,4.079L11.269,4.763C10.956,4.763 10.653,4.777 10.363,4.803L10.363,4.837L10.06,4.837C7.775,5.128 6.216,6.268 5.234,8.011C4.831,8.726 4.556,9.496 4.386,10.266C4.327,10.535 4.285,10.785 4.257,11.008C4.241,11.139 4.234,11.231 4.231,11.276L3.562,11.242C3.565,11.181 3.574,11.072 3.592,10.923C3.622,10.679 3.668,10.407 3.732,10.116C3.916,9.283 4.214,8.45 4.653,7.67C5.356,6.424 6.333,5.453 7.613,4.837L3.967,4.837Z" style="fill:rgb(116,116,116);"/>
        <path id="Rectangle-12" serif:id="Rectangle 12" d="M4.069,10.291C3.107,10.291 2.331,11.061 2.331,12.013L2.331,12.031C2.331,12.982 3.11,13.754 4.069,13.754C5.031,13.754 5.807,12.983 5.807,12.031L5.807,12.013C5.807,11.062 5.028,10.291 4.069,10.291ZM3.324,12.031L3.324,12.013C3.324,11.606 3.655,11.276 4.069,11.276C4.48,11.276 4.814,11.607 4.814,12.013L4.814,12.031C4.814,12.438 4.483,12.768 4.069,12.768C3.658,12.768 3.324,12.437 3.324,12.031Z" style="fill:rgb(162,162,162);"/>
        <path id="Rectangle-12_2" serif:id="Rectangle 12_2" d="M12.014,2.833C11.052,2.833 10.276,3.603 10.276,4.556L10.276,4.573C10.276,5.524 11.055,6.296 12.014,6.296C12.975,6.296 13.752,5.526 13.752,4.573L13.752,4.556C13.752,3.604 12.973,2.833 12.014,2.833ZM11.269,4.573L11.269,4.556C11.269,4.149 11.6,3.819 12.014,3.819C12.425,3.819 12.759,4.15 12.759,4.556L12.759,4.573C12.759,4.98 12.428,5.31 12.014,5.31C11.602,5.31 11.269,4.979 11.269,4.573Z" style="fill:rgb(162,162,162);"/>
    </g>
</svg>
