<?xml version="1.0" encoding="UTF-8" standalone="no"?>
<!DOCTYPE svg PUBLIC "-//W3C//DTD SVG 1.1//EN" "http://www.w3.org/Graphics/SVG/1.1/DTD/svg11.dtd">
<svg width="100%" height="100%" viewBox="0 0 16 16" version="1.1" xmlns="http://www.w3.org/2000/svg" xmlns:xlink="http://www.w3.org/1999/xlink" xml:space="preserve" xmlns:serif="http://www.serif.com/" style="fill-rule:evenodd;clip-rule:evenodd;stroke-linejoin:round;stroke-miterlimit:2;">
    <g id="swc">
        <g id="box-2">
            <path id="Shape" d="M9.85,4.5L13.7,4.5L10.85,2.1C10.75,2.05 10.6,2 10.5,2L8.9,2L9.85,4.5Z" style="fill:rgb(102,102,102);fill-rule:nonzero;"/>
            <path id="Shape_2" d="M10,5.5L10,9L6,9L6,5.5L2,5.5L2,13.5C2,13.8 2.2,14 2.5,14L13.5,14C13.8,14 14,13.8 14,13.5L14,5.5L10,5.5Z" style="fill:rgb(121,121,121);fill-rule:nonzero;"/>
            <path id="Shape_3" d="M6.15,4.5L7.1,2L5.5,2C5.4,2 5.25,2.05 5.2,2.1L2.3,4.5L6.15,4.5Z" style="fill:rgb(102,102,102);fill-rule:nonzero;"/>
        </g>
    </g>
</svg>
