<?xml version="1.0" encoding="UTF-8" standalone="no"?>
<!DOCTYPE svg PUBLIC "-//W3C//DTD SVG 1.1//EN" "http://www.w3.org/Graphics/SVG/1.1/DTD/svg11.dtd">
<svg width="100%" height="100%" viewBox="0 0 16 16" version="1.1" xmlns="http://www.w3.org/2000/svg" xmlns:xlink="http://www.w3.org/1999/xlink" xml:space="preserve" xmlns:serif="http://www.serif.com/" style="fill-rule:evenodd;clip-rule:evenodd;stroke-linejoin:round;stroke-miterlimit:2;">
    <g id="swift">
        <g id="Swift_logo">
            <path id="Shape" d="M10.966,12.098C9.565,12.922 7.64,13.006 5.704,12.161C4.135,11.481 2.834,10.292 2,8.932C2.4,9.272 2.867,9.544 3.368,9.782C5.368,10.737 7.368,10.671 8.775,9.784C8.774,9.783 8.774,9.783 8.773,9.782C6.771,8.219 5.07,6.18 3.802,4.515C3.535,4.243 3.335,3.903 3.134,3.597C4.669,5.024 7.105,6.825 7.972,7.335C6.137,5.364 4.502,2.918 4.569,2.985C7.472,5.976 10.174,7.675 10.174,7.675C10.264,7.726 10.333,7.769 10.388,7.807C10.447,7.656 10.498,7.499 10.541,7.335C11.008,5.602 10.475,3.631 9.307,2C12.009,3.665 13.611,6.791 12.943,9.408C12.926,9.479 12.907,9.549 12.887,9.617C12.895,9.626 12.902,9.636 12.91,9.646C14.245,11.346 13.878,13.146 13.711,12.807C12.987,11.364 11.647,11.805 10.966,12.098L10.966,12.098Z" style="fill:rgb(139,139,139);fill-rule:nonzero;"/>
        </g>
    </g>
</svg>
