<?xml version="1.0" encoding="UTF-8" standalone="no"?>
<!DOCTYPE svg PUBLIC "-//W3C//DTD SVG 1.1//EN" "http://www.w3.org/Graphics/SVG/1.1/DTD/svg11.dtd">
<svg width="100%" height="100%" viewBox="0 0 16 16" version="1.1" xmlns="http://www.w3.org/2000/svg" xmlns:xlink="http://www.w3.org/1999/xlink" xml:space="preserve" xmlns:serif="http://www.serif.com/" style="fill-rule:evenodd;clip-rule:evenodd;stroke-linejoin:round;stroke-miterlimit:2;">
    <g id="tcl">
        <path id="Shape" d="M12.388,2.99C12.21,2.658 11.949,2.469 11.605,2.421C11.26,2.373 10.874,2.433 10.446,2.599C10.381,2.62 10.317,2.645 10.256,2.672L10.061,2.759C9.684,2.943 9.292,3.184 8.886,3.48C8.479,3.776 8.088,4.103 7.711,4.46C7.334,4.816 6.983,5.188 6.659,5.575C6.334,5.962 6.058,6.342 5.83,6.715C5.845,6.865 5.852,7.02 5.851,7.181C5.849,7.342 5.843,7.486 5.83,7.615C5.826,7.658 5.822,7.693 5.818,7.719C5.814,7.745 5.811,7.775 5.811,7.808C5.8,7.871 5.793,7.921 5.79,7.958L5.787,8.016L5.785,7.973C5.785,7.973 5.785,7.926 5.785,7.831C5.788,7.821 5.789,7.811 5.787,7.799C5.786,7.788 5.788,7.772 5.796,7.752C5.785,7.749 5.782,7.742 5.786,7.732L5.791,7.717C5.782,7.613 5.762,7.478 5.731,7.312C5.7,7.146 5.678,7.016 5.666,6.922C5.586,7.015 5.513,7.105 5.447,7.192L5.249,7.453C5.289,7.723 5.293,8.018 5.262,8.34L5.215,8.823L5.218,8.766C5.218,8.766 5.219,8.702 5.219,8.574C5.219,8.446 5.198,8.291 5.155,8.11C5.113,7.928 5.088,7.783 5.081,7.674C4.945,7.858 4.843,8.012 4.775,8.137C4.706,8.263 4.677,8.343 4.686,8.38C4.702,8.464 4.709,8.563 4.707,8.679C4.704,8.794 4.7,8.923 4.695,9.066C4.662,9.376 4.622,9.675 4.575,9.963L4.504,10.396L4.461,10.513C4.365,10.745 4.276,10.982 4.194,11.224C4.111,11.466 4.041,11.699 3.983,11.922C3.906,12.227 3.845,12.505 3.8,12.755C3.754,13.005 3.737,13.21 3.748,13.37L3.856,13.359C3.86,13.06 3.907,12.736 3.995,12.385C4.083,12.034 4.21,11.661 4.377,11.266C4.618,10.666 4.944,10.032 5.353,9.365C5.763,8.698 6.239,8.03 6.781,7.361C7.214,6.864 7.66,6.405 8.118,5.983C8.576,5.561 9.026,5.186 9.467,4.858C9.909,4.53 10.34,4.251 10.762,4.021C11.184,3.792 11.576,3.621 11.939,3.508C11.593,3.638 11.192,3.872 10.736,4.211C10.279,4.55 9.827,4.918 9.378,5.316C8.929,5.713 8.51,6.105 8.123,6.491C7.735,6.877 7.441,7.189 7.24,7.427C6.771,7.956 6.348,8.479 5.97,8.997C5.592,9.514 5.251,10.034 4.946,10.557C5.308,10.1 5.734,9.828 6.226,9.74L6.963,9.609L7.491,9.293C7.491,9.293 7.917,9.006 8.769,8.434C8.558,8.412 8.309,8.386 8.023,8.354C7.736,8.322 7.529,8.305 7.404,8.303C7.216,8.313 7.093,8.32 7.034,8.326L6.944,8.336L7.684,8.222C7.684,8.222 8.178,8.197 9.167,8.146C9.629,7.792 10.1,7.403 10.582,6.979C11.064,6.554 11.477,6.113 11.822,5.656C12.167,5.199 12.405,4.742 12.536,4.284C12.667,3.827 12.618,3.395 12.387,2.989L12.388,2.99Z" style="fill:rgb(183,183,183);"/>
    </g>
</svg>
