<?xml version="1.0" encoding="UTF-8" standalone="no"?>
<!DOCTYPE svg PUBLIC "-//W3C//DTD SVG 1.1//EN" "http://www.w3.org/Graphics/SVG/1.1/DTD/svg11.dtd">
<svg width="100%" height="100%" viewBox="0 0 16 16" version="1.1" xmlns="http://www.w3.org/2000/svg" xmlns:xlink="http://www.w3.org/1999/xlink" xml:space="preserve" xmlns:serif="http://www.serif.com/" style="fill-rule:evenodd;clip-rule:evenodd;stroke-linejoin:round;stroke-miterlimit:2;">
    <g id="tex">
        <path id="TEX" d="M1.007,5L5.221,5L5.228,6.412L5.026,6.412C4.96,5.908 4.771,5.567 4.459,5.39C4.284,5.292 4.021,5.238 3.673,5.229L3.673,8.914C3.673,9.171 3.718,9.342 3.808,9.426C3.898,9.511 4.085,9.553 4.37,9.553L4.37,9.73L1.875,9.73L1.875,9.553C2.148,9.553 2.33,9.51 2.42,9.425C2.51,9.339 2.555,9.169 2.555,8.914L2.555,5.229C2.213,5.238 1.951,5.292 1.769,5.39C1.434,5.572 1.245,5.913 1.202,6.412L1,6.412L1.007,5ZM5.604,11.23L5.604,11.053C5.805,11.046 5.947,11.019 6.031,10.971C6.161,10.898 6.226,10.761 6.226,10.561L6.226,7.173C6.226,6.968 6.159,6.83 6.024,6.76C5.947,6.716 5.807,6.689 5.604,6.678L5.604,6.5L9.637,6.5L9.637,7.912L9.466,7.912C9.377,7.46 9.226,7.152 9.013,6.985C8.8,6.819 8.412,6.736 7.85,6.736C7.635,6.736 7.499,6.758 7.441,6.802C7.383,6.847 7.354,6.935 7.354,7.067L7.354,8.688C7.753,8.692 8.023,8.62 8.164,8.47C8.305,8.321 8.414,8.048 8.489,7.652L8.666,7.652L8.666,10.017L8.489,10.017C8.439,9.618 8.337,9.337 8.183,9.175C8.029,9.012 7.753,8.93 7.354,8.93L7.354,10.626C7.354,10.774 7.392,10.874 7.469,10.928C7.545,10.982 7.702,11.008 7.938,11.008C8.385,11.008 8.75,10.922 9.032,10.749C9.315,10.575 9.565,10.251 9.784,9.774L9.979,9.774L9.695,11.23L5.604,11.23ZM10.273,9.553C10.451,9.521 10.578,9.488 10.656,9.454C10.781,9.397 10.896,9.301 11.001,9.166L12.225,7.618L10.84,5.584C10.738,5.436 10.648,5.333 10.57,5.275C10.493,5.217 10.396,5.185 10.28,5.178L10.28,5L12.703,5L12.703,5.178C12.477,5.189 12.328,5.207 12.254,5.232C12.18,5.257 12.143,5.317 12.143,5.41C12.143,5.451 12.152,5.491 12.17,5.53C12.188,5.569 12.214,5.614 12.249,5.667L12.929,6.719C13.312,6.184 13.542,5.854 13.619,5.731C13.697,5.608 13.735,5.506 13.735,5.424C13.735,5.324 13.678,5.255 13.565,5.219C13.498,5.198 13.384,5.185 13.223,5.178L13.223,5L14.973,5L14.973,5.178C14.663,5.207 14.418,5.312 14.238,5.49C14.058,5.669 13.678,6.166 13.1,6.979L14.371,8.955C14.537,9.212 14.66,9.372 14.739,9.433C14.817,9.495 14.921,9.535 15.051,9.553L15.051,9.73L12.669,9.73L12.669,9.553C12.874,9.544 13.01,9.53 13.076,9.512C13.178,9.482 13.23,9.423 13.23,9.334C13.23,9.3 13.219,9.253 13.197,9.192C13.175,9.132 13.137,9.058 13.083,8.972L12.378,7.837L12.112,8.192C11.886,8.495 11.734,8.707 11.654,8.828C11.522,9.031 11.456,9.174 11.456,9.259C11.456,9.382 11.537,9.466 11.698,9.512C11.789,9.539 11.898,9.553 12.023,9.553L12.023,9.73L10.273,9.73L10.273,9.553Z" style="fill:rgb(179,179,179);"/>
    </g>
</svg>
