<?xml version="1.0" encoding="UTF-8" standalone="no"?>
<!DOCTYPE svg PUBLIC "-//W3C//DTD SVG 1.1//EN" "http://www.w3.org/Graphics/SVG/1.1/DTD/svg11.dtd">
<svg width="100%" height="100%" viewBox="0 0 16 16" version="1.1" xmlns="http://www.w3.org/2000/svg" xmlns:xlink="http://www.w3.org/1999/xlink" xml:space="preserve" xmlns:serif="http://www.serif.com/" style="fill-rule:evenodd;clip-rule:evenodd;stroke-linejoin:round;stroke-miterlimit:2;">
    <g id="tune">
        <g id="Group">
            <path id="Vector" d="M5.857,5.857L5.857,3C5.857,2.571 5.571,2.286 5.143,2.286C4.714,2.286 4.429,2.571 4.429,3L4.429,5.857C4.429,6.286 4.714,6.571 5.143,6.571C5.571,6.571 5.857,6.286 5.857,5.857Z" style="fill:rgb(159,159,159);fill-rule:nonzero;"/>
            <path id="Vector_2" d="M3,10.143C3,11.071 3.643,11.857 4.429,12.143L4.429,13C4.429,13.429 4.714,13.714 5.143,13.714C5.571,13.714 5.857,13.429 5.857,13L5.857,12.143C6.714,11.857 7.286,11.071 7.286,10.143C7.286,8.929 6.357,8 5.143,8C3.929,8 3,8.929 3,10.143Z" style="fill:rgb(159,159,159);fill-rule:nonzero;"/>
            <path id="Vector_3" d="M10.143,10.143L10.143,13C10.143,13.429 10.429,13.714 10.857,13.714C11.286,13.714 11.571,13.429 11.571,13L11.571,10.143C11.571,9.714 11.286,9.429 10.857,9.429C10.429,9.429 10.143,9.714 10.143,10.143Z" style="fill:rgb(159,159,159);fill-rule:nonzero;"/>
            <path id="Vector_4" d="M8.714,5.857C8.714,7.071 9.643,8 10.857,8C12.071,8 13,7.071 13,5.857C13,4.929 12.357,4.143 11.571,3.857L11.571,3C11.571,2.571 11.286,2.286 10.857,2.286C10.429,2.286 10.143,2.571 10.143,3L10.143,3.857C9.357,4.143 8.714,4.929 8.714,5.857Z" style="fill:rgb(159,159,159);fill-rule:nonzero;"/>
        </g>
    </g>
</svg>
