<?xml version="1.0" encoding="UTF-8" standalone="no"?>
<!DOCTYPE svg PUBLIC "-//W3C//DTD SVG 1.1//EN" "http://www.w3.org/Graphics/SVG/1.1/DTD/svg11.dtd">
<svg width="100%" height="100%" viewBox="0 0 16 16" version="1.1" xmlns="http://www.w3.org/2000/svg" xmlns:xlink="http://www.w3.org/1999/xlink" xml:space="preserve" xmlns:serif="http://www.serif.com/" style="fill-rule:evenodd;clip-rule:evenodd;stroke-linejoin:round;stroke-miterlimit:2;">
    <g id="typescript_def">
        <path id="Combined-Shape" serif:id="Combined Shape" d="M12,2.5L4,2.5L4,3.5L12,3.5L12,2.5ZM2.5,4L2.5,12L3.5,12L3.5,4L2.5,4ZM4,13.5L12,13.5L12,12.5L4,12.5L4,13.5ZM13.5,12L13.5,4L12.5,4L12.5,12L13.5,12ZM12,13.5C12.828,13.5 13.5,12.828 13.5,12L12.5,12C12.5,12.276 12.276,12.5 12,12.5L12,13.5ZM2.5,12C2.5,12.828 3.172,13.5 4,13.5L4,12.5C3.724,12.5 3.5,12.276 3.5,12L2.5,12ZM4,2.5C3.172,2.5 2.5,3.172 2.5,4L3.5,4C3.5,3.724 3.724,3.5 4,3.5L4,2.5ZM12,3.5C12.276,3.5 12.5,3.724 12.5,4L13.5,4C13.5,3.172 12.828,2.5 12,2.5L12,3.5Z" style="fill:rgb(128,128,128);fill-rule:nonzero;"/>
        <path id="Shape" d="M8.869,10.655C8.994,10.72 9.153,10.777 9.345,10.826C9.538,10.876 9.74,10.9 9.952,10.9C10.174,10.9 10.344,10.861 10.46,10.781C10.577,10.702 10.635,10.598 10.635,10.469C10.635,10.35 10.58,10.248 10.469,10.164C10.358,10.08 10.172,9.998 9.911,9.918C9.553,9.799 9.265,9.644 9.045,9.453C8.825,9.262 8.715,9.023 8.715,8.735C8.715,8.398 8.862,8.116 9.155,7.888C9.448,7.66 9.849,7.546 10.359,7.545C10.603,7.545 10.816,7.565 10.998,7.605C11.18,7.645 11.336,7.692 11.466,7.746L11.246,8.468C11.16,8.428 11.04,8.386 10.888,8.341C10.736,8.297 10.554,8.274 10.343,8.274C10.131,8.274 9.974,8.313 9.871,8.389C9.768,8.466 9.716,8.557 9.716,8.661C9.716,8.785 9.778,8.884 9.903,8.958C10.028,9.032 10.231,9.119 10.514,9.219C10.899,9.347 11.182,9.507 11.364,9.698C11.546,9.889 11.637,10.126 11.636,10.409C11.636,10.741 11.494,11.029 11.209,11.272C10.925,11.515 10.487,11.636 9.895,11.636C9.646,11.636 9.41,11.61 9.187,11.558C8.965,11.506 8.792,11.45 8.667,11.391L8.87,10.654L8.869,10.655Z" style="fill:rgb(121,121,121);"/>
        <path id="T" d="M6.54,11.636L6.54,8.237L5.273,8.237L5.273,7.545L8.667,7.545L8.667,8.237L7.402,8.237L7.402,11.636L6.54,11.636Z" style="fill:rgb(121,121,121);"/>
    </g>
</svg>
