<?xml version="1.0" encoding="UTF-8" standalone="no"?>
<!DOCTYPE svg PUBLIC "-//W3C//DTD SVG 1.1//EN" "http://www.w3.org/Graphics/SVG/1.1/DTD/svg11.dtd">
<svg width="100%" height="100%" viewBox="0 0 16 16" version="1.1" xmlns="http://www.w3.org/2000/svg" xmlns:xlink="http://www.w3.org/1999/xlink" xml:space="preserve" xmlns:serif="http://www.serif.com/" style="fill-rule:evenodd;clip-rule:evenodd;stroke-linejoin:round;stroke-miterlimit:2;">
    <g id="typescript">
        <path id="Combined-Shape" serif:id="Combined Shape" d="M13,4C13,3.448 12.552,3 12,3L4,3C3.448,3 3,3.448 3,4L3,12C3,12.552 3.448,13 4,13L12,13C12.552,13 13,12.552 13,12L13,4ZM8.869,10.655L8.87,10.656L8.667,11.391C8.792,11.45 8.965,11.506 9.187,11.558C9.41,11.61 9.646,11.636 9.895,11.636C10.487,11.636 10.925,11.515 11.209,11.272C11.494,11.029 11.636,10.741 11.636,10.409C11.637,10.126 11.546,9.89 11.364,9.698C11.182,9.507 10.899,9.348 10.514,9.219C10.231,9.119 10.028,9.033 9.903,8.958C9.778,8.884 9.716,8.785 9.716,8.661C9.716,8.557 9.768,8.466 9.871,8.389C9.974,8.313 10.131,8.274 10.343,8.274C10.554,8.274 10.736,8.297 10.888,8.341C11.04,8.386 11.16,8.428 11.246,8.468L11.466,7.746C11.336,7.692 11.18,7.645 10.998,7.605C10.816,7.565 10.603,7.545 10.359,7.545C9.849,7.546 9.448,7.66 9.155,7.888C8.862,8.116 8.715,8.398 8.715,8.736C8.715,9.023 8.825,9.262 9.045,9.453C9.265,9.644 9.553,9.799 9.911,9.918C10.172,9.998 10.358,10.08 10.469,10.164C10.58,10.248 10.635,10.35 10.635,10.469C10.635,10.598 10.577,10.702 10.46,10.781C10.344,10.861 10.174,10.9 9.952,10.9C9.74,10.9 9.538,10.876 9.345,10.826C9.153,10.777 8.994,10.72 8.87,10.656L8.87,10.654L8.869,10.655ZM6.54,8.238L6.54,11.636L7.402,11.636L7.402,8.238L8.667,8.238L8.667,7.545L5.273,7.545L5.273,8.238L6.54,8.238Z" style="fill:rgb(121,121,121);"/>
    </g>
</svg>
