<?xml version="1.0" encoding="UTF-8" standalone="no"?>
<!DOCTYPE svg PUBLIC "-//W3C//DTD SVG 1.1//EN" "http://www.w3.org/Graphics/SVG/1.1/DTD/svg11.dtd">
<svg width="100%" height="100%" viewBox="0 0 16 16" version="1.1" xmlns="http://www.w3.org/2000/svg" xmlns:xlink="http://www.w3.org/1999/xlink" xml:space="preserve" xmlns:serif="http://www.serif.com/" style="fill-rule:evenodd;clip-rule:evenodd;stroke-linejoin:round;stroke-miterlimit:2;">
    <g id="unknown">
        <path id="Subtract" d="M8.083,2.167L4.5,2.167C4.191,2.167 3.894,2.29 3.675,2.508C3.456,2.727 3.333,3.024 3.333,3.333L3.333,12.667C3.333,12.976 3.456,13.273 3.675,13.492C3.894,13.711 4.191,13.833 4.5,13.833L11.5,13.833C11.809,13.833 12.106,13.711 12.325,13.492C12.544,13.273 12.667,12.976 12.667,12.667L12.667,6.75L8.583,6.75C8.307,6.75 8.083,6.526 8.083,6.25L8.083,2.167ZM12.167,5.75L9.083,2.667L9.083,5.75L12.167,5.75Z" style="fill:rgb(138,138,138);"/>
    </g>
</svg>
