<?xml version="1.0" encoding="UTF-8" standalone="no"?>
<!DOCTYPE svg PUBLIC "-//W3C//DTD SVG 1.1//EN" "http://www.w3.org/Graphics/SVG/1.1/DTD/svg11.dtd">
<svg width="100%" height="100%" viewBox="0 0 16 16" version="1.1" xmlns="http://www.w3.org/2000/svg" xmlns:xlink="http://www.w3.org/1999/xlink" xml:space="preserve" xmlns:serif="http://www.serif.com/" style="fill-rule:evenodd;clip-rule:evenodd;stroke-linejoin:round;stroke-miterlimit:2;">
    <g id="virtual">
        <g id="desktop-screen">
            <path id="Shape" d="M2.5,2.5L13.5,2.5C13.776,2.5 14,2.724 14,3L14,11C14,11.276 13.776,11.5 13.5,11.5L9,11.5L9,12.5L11,12.5C11.276,12.5 11.5,12.724 11.5,13C11.5,13.276 11.276,13.5 11,13.5L5,13.5C4.724,13.5 4.5,13.276 4.5,13C4.5,12.724 4.724,12.5 5,12.5L7,12.5L7,11.5L2.5,11.5C2.224,11.5 2,11.276 2,11L2,3C2,2.724 2.224,2.5 2.5,2.5ZM3,10.5L13,10.5L13,3.5L3,3.5L3,10.5Z" style="fill:rgb(140,140,140);"/>
        </g>
    </g>
</svg>
