<?xml version="1.0" encoding="UTF-8" standalone="no"?>
<!DOCTYPE svg PUBLIC "-//W3C//DTD SVG 1.1//EN" "http://www.w3.org/Graphics/SVG/1.1/DTD/svg11.dtd">
<svg width="100%" height="100%" viewBox="0 0 16 16" version="1.1" xmlns="http://www.w3.org/2000/svg" xmlns:xlink="http://www.w3.org/1999/xlink" xml:space="preserve" xmlns:serif="http://www.serif.com/" style="fill-rule:evenodd;clip-rule:evenodd;stroke-linejoin:round;stroke-miterlimit:2;">
    <g id="word">
        <g id="single-paragraph">
            <path id="Shape" d="M2.5,13.5L2.5,2.5C2.5,2.224 2.724,2 3,2L13,2C13.276,2 13.5,2.224 13.5,2.5L13.5,13.5C13.5,13.776 13.276,14 13,14L3,14C2.724,14 2.5,13.776 2.5,13.5ZM7.5,4.5L4.5,4.5L4.5,7.5L7.5,7.5L7.5,4.5ZM11.5,11.5L4.5,11.5L4.5,10.5L11.5,10.5L11.5,11.5ZM4.5,9.5L11.5,9.5L11.5,8.5L4.5,8.5L4.5,9.5ZM11.5,7.5L8.5,7.5L8.5,6.5L11.5,6.5L11.5,7.5ZM8.5,5.5L11.5,5.5L11.5,4.5L8.5,4.5L8.5,5.5Z" style="fill:rgb(102,102,102);"/>
        </g>
    </g>
</svg>
