<?xml version="1.0" encoding="UTF-8" standalone="no"?>
<!DOCTYPE svg PUBLIC "-//W3C//DTD SVG 1.1//EN" "http://www.w3.org/Graphics/SVG/1.1/DTD/svg11.dtd">
<svg width="100%" height="100%" viewBox="0 0 16 16" version="1.1" xmlns="http://www.w3.org/2000/svg" xmlns:xlink="http://www.w3.org/1999/xlink" xml:space="preserve" xmlns:serif="http://www.serif.com/" style="fill-rule:evenodd;clip-rule:evenodd;stroke-linejoin:round;stroke-miterlimit:2;">
    <g id="yarn-lock">
        <path id="Subtract" d="M8.962,13.901L8.962,10.919C8.962,10.431 9.355,10.032 9.835,10.032L10.621,10.032L10.621,9.718C10.621,9.416 10.68,9.129 10.788,8.867C10.559,8.514 10.332,8.306 10.195,8.181C10.103,8.097 10.052,8.05 10.069,8.021C10.12,7.935 10.187,7.838 10.263,7.728C10.556,7.304 10.985,6.683 11.18,5.702C11.327,4.953 11.288,3.72 10.957,3.074C10.895,2.955 10.347,3.275 10.347,3.275C10.347,3.275 9.834,2.131 9.691,2.039C9.228,1.741 8.734,3.26 8.734,3.26C8.734,3.26 7.677,3.09 6.847,3.986C6.681,4.168 6.457,4.265 6.226,4.354C6.222,4.355 6.218,4.356 6.214,4.358C6.15,4.378 6.067,4.405 5.878,4.914C5.57,5.745 6.399,6.661 6.399,6.661C6.399,6.661 5.412,7.36 5.045,8.23C4.64,9.184 4.763,10.116 4.763,10.116C4.763,10.116 4.061,10.727 4.007,11.364C3.965,11.917 4.123,12.365 4.293,12.628C4.482,12.914 4.717,12.775 4.717,12.775C4.717,12.775 4.25,13.32 4.686,13.552C5.084,13.76 5.755,13.88 6.11,13.521C6.288,13.342 6.367,13.013 6.431,12.748C6.46,12.629 6.485,12.523 6.515,12.45C6.53,12.415 6.569,12.465 6.614,12.525C6.638,12.557 6.663,12.591 6.689,12.616C6.77,12.694 6.909,12.779 6.909,12.779C6.909,12.779 6.28,13.049 6.538,13.668C6.623,13.872 6.928,14.004 7.426,14C7.533,13.998 8.263,13.959 8.962,13.901Z" style="fill:rgb(163,163,163);"/>
        <path id="Shape" d="M15.25,10.667L14.875,10.667L14.875,9.905C14.875,8.853 14.035,8 13,8C11.965,8 11.125,8.853 11.125,9.905L11.125,10.667L10.75,10.667C10.338,10.667 10,11.009 10,11.429L10,15.238C10,15.657 10.338,16 10.75,16L15.25,16C15.663,16 16,15.657 16,15.238L16,11.429C16,11.009 15.663,10.667 15.25,10.667ZM13,14.095C12.588,14.095 12.25,13.752 12.25,13.333C12.25,12.914 12.588,12.571 13,12.571C13.413,12.571 13.75,12.914 13.75,13.333C13.75,13.752 13.413,14.095 13,14.095ZM11.838,9.905L11.838,10.667L14.163,10.667L14.163,9.905C14.163,9.253 13.641,8.724 13,8.724C12.359,8.724 11.838,9.253 11.838,9.905Z" style="fill:rgb(201,201,201);"/>
    </g>
</svg>
