<?xml version="1.0" encoding="UTF-8" standalone="no"?>
<!DOCTYPE svg PUBLIC "-//W3C//DTD SVG 1.1//EN" "http://www.w3.org/Graphics/SVG/1.1/DTD/svg11.dtd">
<svg width="100%" height="100%" viewBox="0 0 16 16" version="1.1" xmlns="http://www.w3.org/2000/svg" xmlns:xlink="http://www.w3.org/1999/xlink" xml:space="preserve" xmlns:serif="http://www.serif.com/" style="fill-rule:evenodd;clip-rule:evenodd;stroke-linejoin:round;stroke-miterlimit:2;">
    <g id="yarn">
        <path id="Shape" d="M12.8,11.604C12.182,11.751 11.87,11.886 11.106,12.384C9.91,13.157 8.605,13.517 8.605,13.517C8.605,13.517 8.497,13.679 8.185,13.753C7.645,13.884 5.611,13.996 5.426,14C4.928,14.004 4.623,13.872 4.538,13.668C4.28,13.049 4.909,12.779 4.909,12.779C4.909,12.779 4.77,12.694 4.689,12.616C4.615,12.543 4.538,12.396 4.515,12.45C4.419,12.686 4.369,13.262 4.11,13.521C3.755,13.88 3.084,13.76 2.686,13.552C2.25,13.32 2.717,12.775 2.717,12.775C2.717,12.775 2.482,12.914 2.293,12.628C2.123,12.365 1.965,11.917 2.007,11.364C2.061,10.727 2.763,10.116 2.763,10.116C2.763,10.116 2.64,9.184 3.045,8.23C3.412,7.36 4.399,6.661 4.399,6.661C4.399,6.661 3.57,5.745 3.878,4.914C4.079,4.373 4.16,4.377 4.226,4.354C4.457,4.265 4.681,4.168 4.847,3.986C5.677,3.09 6.734,3.26 6.734,3.26C6.734,3.26 7.228,1.741 7.691,2.039C7.834,2.131 8.347,3.275 8.347,3.275C8.347,3.275 8.895,2.955 8.957,3.074C9.288,3.72 9.327,4.953 9.18,5.702C8.933,6.939 8.316,7.604 8.069,8.021C8.011,8.118 8.733,8.423 9.188,9.687C9.609,10.842 9.234,11.813 9.3,11.921C9.312,11.94 9.315,11.948 9.315,11.948C9.315,11.948 9.798,11.986 10.766,11.387C11.283,11.067 11.897,10.707 12.595,10.7C13.271,10.688 13.305,11.484 12.8,11.604Z" style="fill:rgb(163,163,163);fill-rule:nonzero;"/>
    </g>
</svg>
